M48
; DRILL file {KiCad 8.0.0} date 2024-10-04T19:08:55+0200
; FORMAT={-:-/ absolute / metric / decimal}
; #@! TF.CreationDate,2024-10-04T19:08:55+02:00
; #@! TF.GenerationSoftware,Kicad,Pcbnew,8.0.0
; #@! TF.FileFunction,MixedPlating,1,2
FMAT,2
METRIC
; #@! TA.AperFunction,Plated,PTH,ViaDrill
T1C0.300
; #@! TA.AperFunction,Plated,PTH,ComponentDrill
T2C0.600
; #@! TA.AperFunction,Plated,PTH,ComponentDrill
T3C1.000
; #@! TA.AperFunction,Plated,PTH,ComponentDrill
T4C1.500
; #@! TA.AperFunction,NonPlated,NPTH,ComponentDrill
T5C2.000
; #@! TA.AperFunction,NonPlated,NPTH,ComponentDrill
T6C3.000
%
G90
G05
T1
X138.43Y-94.234
X142.777Y-91.948
X145.107Y-88.072
X146.577Y-112.895
X147.607Y-87.172
X148.111Y-110.329
X149.987Y-86.106
X152.536Y-70.484
X153.535Y-80.92
X154.432Y-118.872
X154.432Y-120.904
X154.432Y-122.936
X154.432Y-124.968
X154.432Y-127.0
X154.432Y-129.032
X154.94Y-95.504
X154.978Y-68.839
X155.956Y-94.488
X156.35Y-112.175
X156.464Y-129.032
X157.988Y-92.964
X158.125Y-91.625
X158.496Y-129.032
X159.004Y-110.236
X160.02Y-78.74
X160.02Y-80.264
X160.528Y-85.344
X160.528Y-86.868
X160.528Y-89.408
X160.528Y-109.22
X160.528Y-129.032
X161.036Y-91.44
X161.544Y-73.66
X162.169Y-103.287
X162.509Y-79.553
X162.56Y-72.644
X162.56Y-109.22
X162.56Y-129.032
X164.084Y-111.252
X164.592Y-72.644
X164.592Y-129.032
X164.8Y-83.2
X166.624Y-72.644
X166.624Y-129.032
X168.656Y-129.032
X170.688Y-72.644
X170.688Y-129.032
X172.72Y-129.032
X173.736Y-72.136
X174.752Y-129.032
X175.768Y-71.12
X176.784Y-129.032
X177.292Y-109.22
X177.8Y-70.104
X178.308Y-104.648
X178.816Y-111.252
X178.816Y-129.032
X179.324Y-69.088
X180.848Y-68.072
X180.848Y-113.792
X180.848Y-129.032
X182.372Y-67.056
X182.88Y-99.06
X182.88Y-115.824
X182.88Y-129.032
X183.388Y-93.98
X183.388Y-95.504
X183.896Y-117.348
X184.404Y-65.532
X184.404Y-67.564
X184.404Y-70.104
X184.404Y-73.152
X184.404Y-77.724
X184.404Y-80.264
X184.404Y-118.872
X184.404Y-120.904
X184.404Y-123.444
X184.404Y-124.968
X184.404Y-127.0
X184.912Y-93.472
X184.912Y-129.032
X185.42Y-65.024
X185.928Y-82.296
X186.944Y-92.964
X186.944Y-129.032
X187.604Y-97.739
X187.96Y-64.516
X188.432Y-100.074
X188.976Y-83.312
X188.976Y-129.032
X189.484Y-92.456
X189.992Y-64.516
X190.084Y-95.333
X191.008Y-129.032
X192.024Y-64.516
X192.024Y-83.312
X192.024Y-92.456
X192.024Y-106.883
X193.04Y-90.932
X193.04Y-129.032
X194.056Y-64.516
X194.564Y-83.312
X195.072Y-84.836
X195.072Y-129.032
X196.088Y-86.36
X196.088Y-88.392
X196.088Y-89.916
X196.088Y-93.472
X197.104Y-64.516
X197.104Y-129.032
X197.732Y-100.974
X197.8Y-92.0
X197.8Y-98.857
X199.136Y-129.032
X199.644Y-64.516
X201.168Y-129.032
X201.175Y-96.95
X201.676Y-64.516
X202.2Y-89.525
X202.582Y-107.274
X203.2Y-129.032
X203.875Y-97.275
X203.911Y-95.758
X205.232Y-129.032
X205.74Y-64.516
X207.264Y-129.032
X208.686Y-95.148
X209.296Y-127.508
X209.8Y-97.3
X209.804Y-64.516
X211.328Y-66.04
X211.328Y-68.072
X211.328Y-70.612
X211.328Y-73.152
X211.328Y-75.692
X211.328Y-77.724
X211.328Y-80.264
X211.328Y-83.312
X211.328Y-85.852
X211.328Y-88.9
X211.328Y-91.948
X211.328Y-94.488
X211.328Y-97.536
X211.328Y-100.584
X211.328Y-103.124
X211.328Y-105.664
X211.328Y-108.204
X211.328Y-110.744
X211.328Y-113.284
X211.328Y-115.824
X211.328Y-118.364
X211.328Y-120.904
X211.328Y-123.444
X211.328Y-125.984
T2
X142.015Y-70.065
X142.015Y-71.565
X148.502Y-80.01
X148.844Y-115.609
X148.844Y-117.109
X150.002Y-80.01
X150.876Y-98.679
X150.876Y-100.179
X155.091Y-99.568
X155.194Y-114.929
X155.194Y-116.429
X156.591Y-99.568
X159.461Y-116.679
X159.811Y-99.949
X160.961Y-116.679
X161.311Y-99.949
X166.6Y-112.6
X166.648Y-103.8
X168.1Y-112.6
X168.148Y-103.8
X180.05Y-107.275
X180.1Y-102.3
X181.55Y-107.275
X181.6Y-102.3
X209.789Y-108.497
X209.789Y-109.997
T3
X129.54Y-100.076
X129.54Y-102.616
X129.54Y-105.156
X129.54Y-107.696
X129.54Y-110.236
X129.54Y-112.776
X129.54Y-115.316
X129.54Y-117.856
X129.54Y-120.396
X129.54Y-122.936
X129.54Y-125.476
X132.08Y-100.076
X132.08Y-102.616
X132.08Y-105.156
X132.08Y-107.696
X132.08Y-110.236
X132.08Y-112.776
X132.08Y-115.316
X132.08Y-117.856
X132.08Y-120.396
X132.08Y-122.936
X132.08Y-125.476
X185.25Y-101.51
X185.25Y-104.05
X185.25Y-106.59
X185.25Y-109.13
T4
X194.56Y-114.154
X194.56Y-125.584
X194.712Y-67.367
X194.712Y-78.797
X207.26Y-114.154
X207.26Y-125.584
X207.412Y-67.367
X207.412Y-78.797
T5
X204.06Y-114.154
X204.06Y-125.584
X204.212Y-67.367
X204.212Y-78.797
T6
X197.71Y-116.284
X197.862Y-69.497
T3
G00X126.972Y-74.129
M15
G01X126.972Y-76.129
M16
G05
G00X128.972Y-79.829
M15
G01X130.972Y-79.829
M16
G05
G00X132.972Y-74.129
M15
G01X132.972Y-76.129
M16
G05
M30
