%TF.GenerationSoftware,KiCad,Pcbnew,8.0.0*%
%TF.CreationDate,2024-10-11T15:30:09+02:00*%
%TF.ProjectId,guitar-effect,67756974-6172-42d6-9566-666563742e6b,rev?*%
%TF.SameCoordinates,Original*%
%TF.FileFunction,Copper,L2,Bot*%
%TF.FilePolarity,Positive*%
%FSLAX46Y46*%
G04 Gerber Fmt 4.6, Leading zero omitted, Abs format (unit mm)*
G04 Created by KiCad (PCBNEW 8.0.0) date 2024-10-11 15:30:09*
%MOMM*%
%LPD*%
G01*
G04 APERTURE LIST*
G04 Aperture macros list*
%AMRoundRect*
0 Rectangle with rounded corners*
0 $1 Rounding radius*
0 $2 $3 $4 $5 $6 $7 $8 $9 X,Y pos of 4 corners*
0 Add a 4 corners polygon primitive as box body*
4,1,4,$2,$3,$4,$5,$6,$7,$8,$9,$2,$3,0*
0 Add four circle primitives for the rounded corners*
1,1,$1+$1,$2,$3*
1,1,$1+$1,$4,$5*
1,1,$1+$1,$6,$7*
1,1,$1+$1,$8,$9*
0 Add four rect primitives between the rounded corners*
20,1,$1+$1,$2,$3,$4,$5,0*
20,1,$1+$1,$4,$5,$6,$7,0*
20,1,$1+$1,$6,$7,$8,$9,0*
20,1,$1+$1,$8,$9,$2,$3,0*%
G04 Aperture macros list end*
%TA.AperFunction,ComponentPad*%
%ADD10R,1.700000X1.700000*%
%TD*%
%TA.AperFunction,ComponentPad*%
%ADD11O,1.700000X1.700000*%
%TD*%
%TA.AperFunction,ComponentPad*%
%ADD12R,1.200000X1.200000*%
%TD*%
%TA.AperFunction,ComponentPad*%
%ADD13C,1.200000*%
%TD*%
%TA.AperFunction,ComponentPad*%
%ADD14R,3.500000X3.500000*%
%TD*%
%TA.AperFunction,ComponentPad*%
%ADD15RoundRect,0.750000X-0.750000X-1.000000X0.750000X-1.000000X0.750000X1.000000X-0.750000X1.000000X0*%
%TD*%
%TA.AperFunction,ComponentPad*%
%ADD16RoundRect,0.875000X-0.875000X-0.875000X0.875000X-0.875000X0.875000X0.875000X-0.875000X0.875000X0*%
%TD*%
%TA.AperFunction,ComponentPad*%
%ADD17C,3.000000*%
%TD*%
%TA.AperFunction,ViaPad*%
%ADD18C,0.600000*%
%TD*%
%TA.AperFunction,Conductor*%
%ADD19C,0.300000*%
%TD*%
%TA.AperFunction,Conductor*%
%ADD20C,0.500000*%
%TD*%
G04 APERTURE END LIST*
D10*
%TO.P,J2,1,Pin_1*%
%TO.N,AGND*%
X129540000Y-100076000D03*
D11*
%TO.P,J2,2,Pin_2*%
%TO.N,DATA_OUT*%
X132080000Y-100076000D03*
%TO.P,J2,3,Pin_3*%
%TO.N,AGND*%
X129540000Y-102616000D03*
%TO.P,J2,4,Pin_4*%
%TO.N,BIT*%
X132080000Y-102616000D03*
%TO.P,J2,5,Pin_5*%
%TO.N,AGND*%
X129540000Y-105156000D03*
%TO.P,J2,6,Pin_6*%
%TO.N,LRCLK*%
X132080000Y-105156000D03*
%TO.P,J2,7,Pin_7*%
%TO.N,AGND*%
X129540000Y-107696000D03*
%TO.P,J2,8,Pin_8*%
%TO.N,SYSCLK*%
X132080000Y-107696000D03*
%TO.P,J2,9,Pin_9*%
%TO.N,AGND*%
X129540000Y-110236000D03*
%TO.P,J2,10,Pin_10*%
%TO.N,ML{slash}PDDA*%
X132080000Y-110236000D03*
%TO.P,J2,11,Pin_11*%
%TO.N,AGND*%
X129540000Y-112776000D03*
%TO.P,J2,12,Pin_12*%
%TO.N,RST{slash}PDAD*%
X132080000Y-112776000D03*
%TO.P,J2,13,Pin_13*%
%TO.N,AGND*%
X129540000Y-115316000D03*
%TO.P,J2,14,Pin_14*%
%TO.N,MC{slash}DEM0*%
X132080000Y-115316000D03*
%TO.P,J2,15,Pin_15*%
%TO.N,AGND*%
X129540000Y-117856000D03*
%TO.P,J2,16,Pin_16*%
%TO.N,MC{slash}DEM1*%
X132080000Y-117856000D03*
%TO.P,J2,17,Pin_17*%
%TO.N,AGND*%
X129540000Y-120396000D03*
%TO.P,J2,18,Pin_18*%
%TO.N,DIN*%
X132080000Y-120396000D03*
%TO.P,J2,19,Pin_19*%
%TO.N,AGND*%
X129540000Y-122936000D03*
%TO.P,J2,20,Pin_20*%
%TO.N,ZFLG*%
X132080000Y-122936000D03*
%TO.P,J2,21,Pin_21*%
%TO.N,AGND*%
X129540000Y-125476000D03*
%TO.P,J2,22,Pin_22*%
X132080000Y-125476000D03*
%TD*%
D12*
%TO.P,C_Polarized1,1*%
%TO.N,AVDD*%
X159461000Y-116679000D03*
D13*
%TO.P,C_Polarized1,2*%
%TO.N,AGND*%
X160961000Y-116679000D03*
%TD*%
D14*
%TO.P,J1,1*%
%TO.N,Net-(D2-A)*%
X132971900Y-75128600D03*
D15*
%TO.P,J1,2*%
%TO.N,AGND*%
X126971900Y-75128600D03*
D16*
%TO.P,J1,3*%
X129971900Y-79828600D03*
%TD*%
D12*
%TO.P,C_Polarized11,1*%
%TO.N,Net-(IC1-VOUTL)*%
X180050000Y-107275000D03*
D13*
%TO.P,C_Polarized11,2*%
%TO.N,LCH_OUT*%
X181550000Y-107275000D03*
%TD*%
D12*
%TO.P,C_Polarized10,1*%
%TO.N,Net-(IC1-VINL)*%
X180100000Y-102300000D03*
D13*
%TO.P,C_Polarized10,2*%
%TO.N,LCH_IN*%
X181600000Y-102300000D03*
%TD*%
D12*
%TO.P,C_Polarized6,1*%
%TO.N,Net-(IC1-VREF1)*%
X155091000Y-99568000D03*
D13*
%TO.P,C_Polarized6,2*%
%TO.N,AGND*%
X156591000Y-99568000D03*
%TD*%
D12*
%TO.P,C_Polarized5,1*%
%TO.N,Net-(IC1-VINR)*%
X166648000Y-103800000D03*
D13*
%TO.P,C_Polarized5,2*%
%TO.N,RCH_IN*%
X168148000Y-103800000D03*
%TD*%
D17*
%TO.P,J5,S*%
%TO.N,GUITAR_IN*%
X207412000Y-67367000D03*
%TO.P,J5,SN*%
X207412000Y-78797000D03*
%TO.P,J5,T*%
%TO.N,AGND*%
X194712000Y-67367000D03*
%TO.P,J5,TN*%
X194712000Y-78797000D03*
%TD*%
D12*
%TO.P,C_Polarized2,1*%
%TO.N,AVDD*%
X159811000Y-99949000D03*
D13*
%TO.P,C_Polarized2,2*%
%TO.N,AGND*%
X161311000Y-99949000D03*
%TD*%
D12*
%TO.P,C_Polarized13,1*%
%TO.N,Net-(IC4-VOUT_B)*%
X209788599Y-108497399D03*
D13*
%TO.P,C_Polarized13,2*%
%TO.N,GUITAR_OUT*%
X209788599Y-109997399D03*
%TD*%
D12*
%TO.P,C_Polarized8,1*%
%TO.N,Net-(IC1-VREF2)*%
X150876000Y-100179000D03*
D13*
%TO.P,C_Polarized8,2*%
%TO.N,AGND*%
X150876000Y-98679000D03*
%TD*%
D12*
%TO.P,C_Polarized12,1*%
%TO.N,VDD*%
X148844000Y-115609400D03*
D13*
%TO.P,C_Polarized12,2*%
%TO.N,AGND*%
X148844000Y-117109400D03*
%TD*%
D12*
%TO.P,C_Polarized4,1*%
%TO.N,VCC*%
X148502401Y-80010000D03*
D13*
%TO.P,C_Polarized4,2*%
%TO.N,AGND*%
X150002401Y-80010000D03*
%TD*%
D12*
%TO.P,C_Polarized9,1*%
%TO.N,Net-(IC1-VOUTR)*%
X166600000Y-112600000D03*
D13*
%TO.P,C_Polarized9,2*%
%TO.N,RCH_OUT*%
X168100000Y-112600000D03*
%TD*%
D10*
%TO.P,J3,1,Pin_1*%
%TO.N,LCH_IN*%
X185250000Y-101510000D03*
D11*
%TO.P,J3,2,Pin_2*%
%TO.N,unconnected-(J3-Pin_2-Pad2)*%
X185250000Y-104050000D03*
%TO.P,J3,3,Pin_3*%
%TO.N,LCH_OUT*%
X185250000Y-106590000D03*
%TO.P,J3,4,Pin_4*%
%TO.N,AGND*%
X185250000Y-109130000D03*
%TD*%
D12*
%TO.P,C_Polarized7,1*%
%TO.N,Net-(IC1-VCOM)*%
X155194000Y-114929000D03*
D13*
%TO.P,C_Polarized7,2*%
%TO.N,AGND*%
X155194000Y-116429000D03*
%TD*%
D12*
%TO.P,C_Polarized3,1*%
%TO.N,Net-(D1-K)*%
X142014800Y-70064600D03*
D13*
%TO.P,C_Polarized3,2*%
%TO.N,AGND*%
X142014800Y-71564600D03*
%TD*%
D17*
%TO.P,J4,S*%
%TO.N,GUITAR_OUT*%
X207259600Y-114153800D03*
%TO.P,J4,SN*%
X207259600Y-125583800D03*
%TO.P,J4,T*%
%TO.N,AGND*%
X194559600Y-114153800D03*
%TO.P,J4,TN*%
X194559600Y-125583800D03*
%TD*%
D18*
%TO.N,VDD*%
X138430000Y-94234000D03*
%TO.N,AVDD*%
X158125000Y-91625000D03*
%TO.N,AGND*%
X153535000Y-80920000D03*
X196088000Y-88392000D03*
X160528000Y-129032000D03*
X137500000Y-112900000D03*
X185928000Y-82296000D03*
X184404000Y-120904000D03*
X211328000Y-118364000D03*
X160528000Y-89408000D03*
X156464000Y-129032000D03*
X148111000Y-110329000D03*
X182880000Y-99060000D03*
X143700000Y-108200000D03*
X135700000Y-103800000D03*
X211328000Y-115824000D03*
X211328000Y-77724000D03*
X211328000Y-91948000D03*
X203200000Y-129032000D03*
X196088000Y-93472000D03*
X197104000Y-129032000D03*
X170688000Y-72644000D03*
X164592000Y-72644000D03*
X208686400Y-95148400D03*
X154432000Y-118872000D03*
X184404000Y-80264000D03*
X162560000Y-109220000D03*
X184912000Y-93472000D03*
X211328000Y-97536000D03*
X182880000Y-115824000D03*
X166624000Y-72644000D03*
X156350000Y-112175000D03*
X145107000Y-88072000D03*
X195072000Y-84836000D03*
X160020000Y-80264000D03*
X161036000Y-91440000D03*
X211328000Y-110744000D03*
X211328000Y-94488000D03*
X211328000Y-66040000D03*
X183388000Y-95504000D03*
X211328000Y-88900000D03*
X176784000Y-129032000D03*
X211328000Y-103124000D03*
X147607000Y-87172000D03*
X146576801Y-112894801D03*
X162169499Y-103287499D03*
X207264000Y-129032000D03*
X158450000Y-72630000D03*
X192024000Y-64516000D03*
X182372000Y-67056000D03*
X174752000Y-129032000D03*
X205232000Y-129032000D03*
X135500000Y-106300000D03*
X154432000Y-124968000D03*
X211328000Y-85852000D03*
X168656000Y-129032000D03*
X173736000Y-72136000D03*
X209296000Y-127508000D03*
X162560000Y-72644000D03*
X162509200Y-79552800D03*
X142620000Y-103440000D03*
X158496000Y-129032000D03*
X184404000Y-73152000D03*
X191008000Y-129032000D03*
X186944000Y-92964000D03*
X154432000Y-120904000D03*
X166624000Y-129032000D03*
X157988000Y-92964000D03*
X211328000Y-68072000D03*
X201175000Y-96950000D03*
X199644000Y-64516000D03*
X193040000Y-129032000D03*
X189484000Y-92456000D03*
X178816000Y-111252000D03*
X178816000Y-129032000D03*
X201168000Y-129032000D03*
X164084000Y-111252000D03*
X164800000Y-83200000D03*
X184404000Y-70104000D03*
X159004000Y-110236000D03*
X164592000Y-129032000D03*
X190084400Y-95333400D03*
X196088000Y-89916000D03*
X180848000Y-129032000D03*
X184404000Y-65532000D03*
X202582400Y-107274400D03*
X160528000Y-109220000D03*
X138300000Y-119100000D03*
X184404000Y-127000000D03*
X134500000Y-118900000D03*
X170688000Y-129032000D03*
X193040000Y-90932000D03*
X179324000Y-69088000D03*
X178308000Y-104648000D03*
X184404000Y-124968000D03*
X194564000Y-83312000D03*
X201676000Y-64516000D03*
X149987000Y-86106000D03*
X211328000Y-75692000D03*
X195072000Y-129032000D03*
X183388000Y-93980000D03*
X154432000Y-129032000D03*
X192024000Y-83312000D03*
X182880000Y-129032000D03*
X211328000Y-105664000D03*
X188432400Y-100074400D03*
X135300000Y-116800000D03*
X160528000Y-86868000D03*
X211328000Y-125984000D03*
X180848000Y-68072000D03*
X211328000Y-108204000D03*
X184404000Y-67564000D03*
X211328000Y-83312000D03*
X162560000Y-129032000D03*
X186944000Y-129032000D03*
X135200000Y-108900000D03*
X152536000Y-70484000D03*
X154432000Y-127000000D03*
X188976000Y-83312000D03*
X184912000Y-129032000D03*
X177292000Y-109220000D03*
X184404000Y-118872000D03*
X140350000Y-102280000D03*
X155956000Y-94488000D03*
X196088000Y-86360000D03*
X160528000Y-85344000D03*
X180848000Y-113792000D03*
X188976000Y-129032000D03*
X199136000Y-129032000D03*
X141800000Y-116200000D03*
X192024000Y-92456000D03*
X209804000Y-64516000D03*
X211328000Y-120904000D03*
X183896000Y-117348000D03*
X134500000Y-111200000D03*
X194056000Y-64516000D03*
X135200000Y-101600000D03*
X172720000Y-129032000D03*
X202200000Y-89525000D03*
X211328000Y-100584000D03*
X184404000Y-123444000D03*
X154977589Y-68838997D03*
X211328000Y-123444000D03*
X192024000Y-106883200D03*
X197104000Y-64516000D03*
X211328000Y-73152000D03*
X142777000Y-91948000D03*
X177800000Y-70104000D03*
X154940000Y-95504000D03*
X185420000Y-65024000D03*
X160020000Y-78740000D03*
X154432000Y-122936000D03*
X184404000Y-77724000D03*
X211328000Y-113284000D03*
X205740000Y-64516000D03*
X189992000Y-64516000D03*
X211328000Y-80264000D03*
X187960000Y-64516000D03*
X139400000Y-111100000D03*
X211328000Y-70612000D03*
X175768000Y-71120000D03*
X161544000Y-73660000D03*
%TO.N,AVCC*%
X197732400Y-100974400D03*
X209800000Y-97300000D03*
X197800000Y-92000000D03*
X197800000Y-98856800D03*
%TO.N,RCH_IN*%
X187604400Y-97739200D03*
X203911200Y-95758000D03*
%TO.N,Net-(IC4-VOUT_B)*%
X203875000Y-97275000D03*
%TD*%
D19*
%TO.N,VDD*%
X138430000Y-97536000D02*
X138430000Y-94234000D01*
X147944000Y-115609400D02*
X138430000Y-106095400D01*
X148844000Y-115609400D02*
X147944000Y-115609400D01*
X138430000Y-106095400D02*
X138430000Y-97536000D01*
%TO.N,AVDD*%
X156525000Y-113443000D02*
X153575000Y-110493000D01*
X156525000Y-115600000D02*
X156525000Y-113443000D01*
X153575000Y-110493000D02*
X153575000Y-94750000D01*
X157604000Y-116679000D02*
X156525000Y-115600000D01*
X156700000Y-91625000D02*
X158125000Y-91625000D01*
X153575000Y-94750000D02*
X156700000Y-91625000D01*
X159461000Y-116679000D02*
X157604000Y-116679000D01*
D20*
%TO.N,AVCC*%
X197800000Y-92000000D02*
X208400000Y-92000000D01*
X208400000Y-92000000D02*
X209800000Y-93400000D01*
X197732400Y-98924400D02*
X197800000Y-98856800D01*
X209800000Y-93400000D02*
X209800000Y-97300000D01*
X197732400Y-100974400D02*
X197732400Y-98924400D01*
%TO.N,GUITAR_OUT*%
X209788599Y-109997399D02*
X209788599Y-111267401D01*
X207259600Y-113796400D02*
X207259600Y-114153800D01*
X209788599Y-111267401D02*
X207259600Y-113796400D01*
X207259600Y-125583800D02*
X207259600Y-114153800D01*
%TO.N,RCH_IN*%
X187604400Y-97739200D02*
X194818000Y-97739200D01*
X196799200Y-95758000D02*
X203911200Y-95758000D01*
X194818000Y-97739200D02*
X196799200Y-95758000D01*
%TO.N,Net-(IC4-VOUT_B)*%
X209788599Y-108497399D02*
X209788599Y-100568599D01*
X206495000Y-97275000D02*
X203875000Y-97275000D01*
X209788599Y-100568599D02*
X206495000Y-97275000D01*
%TD*%
%TA.AperFunction,Conductor*%
%TO.N,AGND*%
G36*
X131614075Y-125283007D02*
G01*
X131580000Y-125410174D01*
X131580000Y-125541826D01*
X131614075Y-125668993D01*
X131646988Y-125726000D01*
X129973012Y-125726000D01*
X130005925Y-125668993D01*
X130040000Y-125541826D01*
X130040000Y-125410174D01*
X130005925Y-125283007D01*
X129973012Y-125226000D01*
X131646988Y-125226000D01*
X131614075Y-125283007D01*
G37*
%TD.AperFunction*%
%TA.AperFunction,Conductor*%
G36*
X129790000Y-125042988D02*
G01*
X129732993Y-125010075D01*
X129605826Y-124976000D01*
X129474174Y-124976000D01*
X129347007Y-125010075D01*
X129290000Y-125042988D01*
X129290000Y-123369012D01*
X129347007Y-123401925D01*
X129474174Y-123436000D01*
X129605826Y-123436000D01*
X129732993Y-123401925D01*
X129790000Y-123369012D01*
X129790000Y-125042988D01*
G37*
%TD.AperFunction*%
%TA.AperFunction,Conductor*%
G36*
X129790000Y-122502988D02*
G01*
X129732993Y-122470075D01*
X129605826Y-122436000D01*
X129474174Y-122436000D01*
X129347007Y-122470075D01*
X129290000Y-122502988D01*
X129290000Y-120829012D01*
X129347007Y-120861925D01*
X129474174Y-120896000D01*
X129605826Y-120896000D01*
X129732993Y-120861925D01*
X129790000Y-120829012D01*
X129790000Y-122502988D01*
G37*
%TD.AperFunction*%
%TA.AperFunction,Conductor*%
G36*
X129790000Y-119962988D02*
G01*
X129732993Y-119930075D01*
X129605826Y-119896000D01*
X129474174Y-119896000D01*
X129347007Y-119930075D01*
X129290000Y-119962988D01*
X129290000Y-118289012D01*
X129347007Y-118321925D01*
X129474174Y-118356000D01*
X129605826Y-118356000D01*
X129732993Y-118321925D01*
X129790000Y-118289012D01*
X129790000Y-119962988D01*
G37*
%TD.AperFunction*%
%TA.AperFunction,Conductor*%
G36*
X129790000Y-117422988D02*
G01*
X129732993Y-117390075D01*
X129605826Y-117356000D01*
X129474174Y-117356000D01*
X129347007Y-117390075D01*
X129290000Y-117422988D01*
X129290000Y-115749012D01*
X129347007Y-115781925D01*
X129474174Y-115816000D01*
X129605826Y-115816000D01*
X129732993Y-115781925D01*
X129790000Y-115749012D01*
X129790000Y-117422988D01*
G37*
%TD.AperFunction*%
%TA.AperFunction,Conductor*%
G36*
X129790000Y-114882988D02*
G01*
X129732993Y-114850075D01*
X129605826Y-114816000D01*
X129474174Y-114816000D01*
X129347007Y-114850075D01*
X129290000Y-114882988D01*
X129290000Y-113209012D01*
X129347007Y-113241925D01*
X129474174Y-113276000D01*
X129605826Y-113276000D01*
X129732993Y-113241925D01*
X129790000Y-113209012D01*
X129790000Y-114882988D01*
G37*
%TD.AperFunction*%
%TA.AperFunction,Conductor*%
G36*
X129790000Y-112342988D02*
G01*
X129732993Y-112310075D01*
X129605826Y-112276000D01*
X129474174Y-112276000D01*
X129347007Y-112310075D01*
X129290000Y-112342988D01*
X129290000Y-110669012D01*
X129347007Y-110701925D01*
X129474174Y-110736000D01*
X129605826Y-110736000D01*
X129732993Y-110701925D01*
X129790000Y-110669012D01*
X129790000Y-112342988D01*
G37*
%TD.AperFunction*%
%TA.AperFunction,Conductor*%
G36*
X129790000Y-109802988D02*
G01*
X129732993Y-109770075D01*
X129605826Y-109736000D01*
X129474174Y-109736000D01*
X129347007Y-109770075D01*
X129290000Y-109802988D01*
X129290000Y-108129012D01*
X129347007Y-108161925D01*
X129474174Y-108196000D01*
X129605826Y-108196000D01*
X129732993Y-108161925D01*
X129790000Y-108129012D01*
X129790000Y-109802988D01*
G37*
%TD.AperFunction*%
%TA.AperFunction,Conductor*%
G36*
X129790000Y-107262988D02*
G01*
X129732993Y-107230075D01*
X129605826Y-107196000D01*
X129474174Y-107196000D01*
X129347007Y-107230075D01*
X129290000Y-107262988D01*
X129290000Y-105589012D01*
X129347007Y-105621925D01*
X129474174Y-105656000D01*
X129605826Y-105656000D01*
X129732993Y-105621925D01*
X129790000Y-105589012D01*
X129790000Y-107262988D01*
G37*
%TD.AperFunction*%
%TA.AperFunction,Conductor*%
G36*
X129790000Y-104722988D02*
G01*
X129732993Y-104690075D01*
X129605826Y-104656000D01*
X129474174Y-104656000D01*
X129347007Y-104690075D01*
X129290000Y-104722988D01*
X129290000Y-103049012D01*
X129347007Y-103081925D01*
X129474174Y-103116000D01*
X129605826Y-103116000D01*
X129732993Y-103081925D01*
X129790000Y-103049012D01*
X129790000Y-104722988D01*
G37*
%TD.AperFunction*%
%TA.AperFunction,Conductor*%
G36*
X129790000Y-102182988D02*
G01*
X129732993Y-102150075D01*
X129605826Y-102116000D01*
X129474174Y-102116000D01*
X129347007Y-102150075D01*
X129290000Y-102182988D01*
X129290000Y-100509012D01*
X129347007Y-100541925D01*
X129474174Y-100576000D01*
X129605826Y-100576000D01*
X129732993Y-100541925D01*
X129790000Y-100509012D01*
X129790000Y-102182988D01*
G37*
%TD.AperFunction*%
%TA.AperFunction,Conductor*%
G36*
X210188472Y-64000695D02*
G01*
X210477507Y-64016927D01*
X210491305Y-64018481D01*
X210773265Y-64066388D01*
X210786821Y-64069482D01*
X211061642Y-64148657D01*
X211074768Y-64153250D01*
X211338994Y-64262696D01*
X211351508Y-64268722D01*
X211601830Y-64407070D01*
X211613603Y-64414468D01*
X211846843Y-64579961D01*
X211857704Y-64588622D01*
X212070964Y-64779202D01*
X212080797Y-64789035D01*
X212271373Y-65002290D01*
X212280042Y-65013162D01*
X212445530Y-65246395D01*
X212452929Y-65258169D01*
X212591273Y-65508484D01*
X212597306Y-65521012D01*
X212706749Y-65785232D01*
X212711342Y-65798357D01*
X212790517Y-66073178D01*
X212793611Y-66086735D01*
X212841516Y-66368684D01*
X212843073Y-66382502D01*
X212859305Y-66671527D01*
X212859500Y-66678480D01*
X212859500Y-126880254D01*
X212859305Y-126887209D01*
X212843069Y-127176235D01*
X212841512Y-127190052D01*
X212793604Y-127472007D01*
X212790510Y-127485563D01*
X212711334Y-127760385D01*
X212706741Y-127773510D01*
X212597295Y-128037733D01*
X212591262Y-128050261D01*
X212452920Y-128300572D01*
X212445522Y-128312346D01*
X212280022Y-128545599D01*
X212271352Y-128556471D01*
X212080787Y-128769715D01*
X212070955Y-128779547D01*
X211857699Y-128970128D01*
X211846828Y-128978797D01*
X211613591Y-129144294D01*
X211601817Y-129151693D01*
X211351501Y-129290043D01*
X211338973Y-129296076D01*
X211074752Y-129405525D01*
X211061628Y-129410118D01*
X210786808Y-129489300D01*
X210773251Y-129492394D01*
X210491306Y-129540306D01*
X210477489Y-129541864D01*
X210189451Y-129558049D01*
X210182494Y-129558244D01*
X127074528Y-129558244D01*
X127074499Y-129558242D01*
X127065876Y-129558242D01*
X127058418Y-129558242D01*
X127003459Y-129558243D01*
X126996508Y-129558048D01*
X126707489Y-129541826D01*
X126693671Y-129540270D01*
X126411711Y-129492371D01*
X126398153Y-129489277D01*
X126166796Y-129422630D01*
X126123327Y-129410108D01*
X126110203Y-129405516D01*
X125988407Y-129355069D01*
X125845976Y-129296075D01*
X125833451Y-129290043D01*
X125583135Y-129151702D01*
X125571361Y-129144305D01*
X125338106Y-128978807D01*
X125327234Y-128970136D01*
X125113992Y-128779574D01*
X125104159Y-128769742D01*
X124913576Y-128556483D01*
X124904917Y-128545625D01*
X124739404Y-128312358D01*
X124732017Y-128300600D01*
X124593671Y-128050278D01*
X124587638Y-128037750D01*
X124478197Y-127773532D01*
X124473604Y-127760407D01*
X124473598Y-127760385D01*
X124394426Y-127485563D01*
X124391339Y-127472035D01*
X124343432Y-127190060D01*
X124341878Y-127176265D01*
X124325695Y-126888008D01*
X124325500Y-126881056D01*
X124325500Y-126880254D01*
X124325501Y-126817861D01*
X124325500Y-126817857D01*
X124325500Y-100973844D01*
X128190000Y-100973844D01*
X128196401Y-101033372D01*
X128196403Y-101033379D01*
X128246645Y-101168086D01*
X128246649Y-101168093D01*
X128332809Y-101283187D01*
X128332812Y-101283190D01*
X128447906Y-101369350D01*
X128447913Y-101369354D01*
X128579986Y-101418614D01*
X128635920Y-101460485D01*
X128660337Y-101525949D01*
X128645486Y-101594222D01*
X128624335Y-101622477D01*
X128501886Y-101744926D01*
X128366400Y-101938420D01*
X128366399Y-101938422D01*
X128266570Y-102152507D01*
X128266567Y-102152513D01*
X128209364Y-102365999D01*
X128209364Y-102366000D01*
X129106988Y-102366000D01*
X129074075Y-102423007D01*
X129040000Y-102550174D01*
X129040000Y-102681826D01*
X129074075Y-102808993D01*
X129106988Y-102866000D01*
X128209364Y-102866000D01*
X128266567Y-103079486D01*
X128266570Y-103079492D01*
X128366399Y-103293578D01*
X128501894Y-103487082D01*
X128668917Y-103654105D01*
X128855031Y-103784425D01*
X128898656Y-103839003D01*
X128905848Y-103908501D01*
X128874326Y-103970856D01*
X128855031Y-103987575D01*
X128668922Y-104117890D01*
X128668920Y-104117891D01*
X128501891Y-104284920D01*
X128501886Y-104284926D01*
X128366400Y-104478420D01*
X128366399Y-104478422D01*
X128266570Y-104692507D01*
X128266567Y-104692513D01*
X128209364Y-104905999D01*
X128209364Y-104906000D01*
X129106988Y-104906000D01*
X129074075Y-104963007D01*
X129040000Y-105090174D01*
X129040000Y-105221826D01*
X129074075Y-105348993D01*
X129106988Y-105406000D01*
X128209364Y-105406000D01*
X128266567Y-105619486D01*
X128266570Y-105619492D01*
X128366399Y-105833578D01*
X128501894Y-106027082D01*
X128668917Y-106194105D01*
X128855031Y-106324425D01*
X128898656Y-106379003D01*
X128905848Y-106448501D01*
X128874326Y-106510856D01*
X128855031Y-106527575D01*
X128668922Y-106657890D01*
X128668920Y-106657891D01*
X128501891Y-106824920D01*
X128501886Y-106824926D01*
X128366400Y-107018420D01*
X128366399Y-107018422D01*
X128266570Y-107232507D01*
X128266567Y-107232513D01*
X128209364Y-107445999D01*
X128209364Y-107446000D01*
X129106988Y-107446000D01*
X129074075Y-107503007D01*
X129040000Y-107630174D01*
X129040000Y-107761826D01*
X129074075Y-107888993D01*
X129106988Y-107946000D01*
X128209364Y-107946000D01*
X128266567Y-108159486D01*
X128266570Y-108159492D01*
X128366399Y-108373578D01*
X128501894Y-108567082D01*
X128668917Y-108734105D01*
X128855031Y-108864425D01*
X128898656Y-108919003D01*
X128905848Y-108988501D01*
X128874326Y-109050856D01*
X128855031Y-109067575D01*
X128668922Y-109197890D01*
X128668920Y-109197891D01*
X128501891Y-109364920D01*
X128501886Y-109364926D01*
X128366400Y-109558420D01*
X128366399Y-109558422D01*
X128266570Y-109772507D01*
X128266567Y-109772513D01*
X128209364Y-109985999D01*
X128209364Y-109986000D01*
X129106988Y-109986000D01*
X129074075Y-110043007D01*
X129040000Y-110170174D01*
X129040000Y-110301826D01*
X129074075Y-110428993D01*
X129106988Y-110486000D01*
X128209364Y-110486000D01*
X128266567Y-110699486D01*
X128266570Y-110699492D01*
X128366399Y-110913578D01*
X128501894Y-111107082D01*
X128668917Y-111274105D01*
X128855031Y-111404425D01*
X128898656Y-111459003D01*
X128905848Y-111528501D01*
X128874326Y-111590856D01*
X128855031Y-111607575D01*
X128668922Y-111737890D01*
X128668920Y-111737891D01*
X128501891Y-111904920D01*
X128501886Y-111904926D01*
X128366400Y-112098420D01*
X128366399Y-112098422D01*
X128266570Y-112312507D01*
X128266567Y-112312513D01*
X128209364Y-112525999D01*
X128209364Y-112526000D01*
X129106988Y-112526000D01*
X129074075Y-112583007D01*
X129040000Y-112710174D01*
X129040000Y-112841826D01*
X129074075Y-112968993D01*
X129106988Y-113026000D01*
X128209364Y-113026000D01*
X128266567Y-113239486D01*
X128266570Y-113239492D01*
X128366399Y-113453578D01*
X128501894Y-113647082D01*
X128668917Y-113814105D01*
X128855031Y-113944425D01*
X128898656Y-113999003D01*
X128905848Y-114068501D01*
X128874326Y-114130856D01*
X128855031Y-114147575D01*
X128668922Y-114277890D01*
X128668920Y-114277891D01*
X128501891Y-114444920D01*
X128501886Y-114444926D01*
X128366400Y-114638420D01*
X128366399Y-114638422D01*
X128266570Y-114852507D01*
X128266567Y-114852513D01*
X128209364Y-115065999D01*
X128209364Y-115066000D01*
X129106988Y-115066000D01*
X129074075Y-115123007D01*
X129040000Y-115250174D01*
X129040000Y-115381826D01*
X129074075Y-115508993D01*
X129106988Y-115566000D01*
X128209364Y-115566000D01*
X128266567Y-115779486D01*
X128266570Y-115779492D01*
X128366399Y-115993578D01*
X128501894Y-116187082D01*
X128668917Y-116354105D01*
X128855031Y-116484425D01*
X128898656Y-116539003D01*
X128905848Y-116608501D01*
X128874326Y-116670856D01*
X128855031Y-116687575D01*
X128668922Y-116817890D01*
X128668920Y-116817891D01*
X128501891Y-116984920D01*
X128501886Y-116984926D01*
X128366400Y-117178420D01*
X128366399Y-117178422D01*
X128266570Y-117392507D01*
X128266567Y-117392513D01*
X128209364Y-117605999D01*
X128209364Y-117606000D01*
X129106988Y-117606000D01*
X129074075Y-117663007D01*
X129040000Y-117790174D01*
X129040000Y-117921826D01*
X129074075Y-118048993D01*
X129106988Y-118106000D01*
X128209364Y-118106000D01*
X128266567Y-118319486D01*
X128266570Y-118319492D01*
X128366399Y-118533578D01*
X128501894Y-118727082D01*
X128668917Y-118894105D01*
X128855031Y-119024425D01*
X128898656Y-119079003D01*
X128905848Y-119148501D01*
X128874326Y-119210856D01*
X128855031Y-119227575D01*
X128668922Y-119357890D01*
X128668920Y-119357891D01*
X128501891Y-119524920D01*
X128501886Y-119524926D01*
X128366400Y-119718420D01*
X128366399Y-119718422D01*
X128266570Y-119932507D01*
X128266567Y-119932513D01*
X128209364Y-120145999D01*
X128209364Y-120146000D01*
X129106988Y-120146000D01*
X129074075Y-120203007D01*
X129040000Y-120330174D01*
X129040000Y-120461826D01*
X129074075Y-120588993D01*
X129106988Y-120646000D01*
X128209364Y-120646000D01*
X128266567Y-120859486D01*
X128266570Y-120859492D01*
X128366399Y-121073578D01*
X128501894Y-121267082D01*
X128668917Y-121434105D01*
X128855031Y-121564425D01*
X128898656Y-121619003D01*
X128905848Y-121688501D01*
X128874326Y-121750856D01*
X128855031Y-121767575D01*
X128668922Y-121897890D01*
X128668920Y-121897891D01*
X128501891Y-122064920D01*
X128501886Y-122064926D01*
X128366400Y-122258420D01*
X128366399Y-122258422D01*
X128266570Y-122472507D01*
X128266567Y-122472513D01*
X128209364Y-122685999D01*
X128209364Y-122686000D01*
X129106988Y-122686000D01*
X129074075Y-122743007D01*
X129040000Y-122870174D01*
X129040000Y-123001826D01*
X129074075Y-123128993D01*
X129106988Y-123186000D01*
X128209364Y-123186000D01*
X128266567Y-123399486D01*
X128266570Y-123399492D01*
X128366399Y-123613578D01*
X128501894Y-123807082D01*
X128668917Y-123974105D01*
X128855031Y-124104425D01*
X128898656Y-124159003D01*
X128905848Y-124228501D01*
X128874326Y-124290856D01*
X128855031Y-124307575D01*
X128668922Y-124437890D01*
X128668920Y-124437891D01*
X128501891Y-124604920D01*
X128501886Y-124604926D01*
X128366400Y-124798420D01*
X128366399Y-124798422D01*
X128266570Y-125012507D01*
X128266567Y-125012513D01*
X128209364Y-125225999D01*
X128209364Y-125226000D01*
X129106988Y-125226000D01*
X129074075Y-125283007D01*
X129040000Y-125410174D01*
X129040000Y-125541826D01*
X129074075Y-125668993D01*
X129106988Y-125726000D01*
X128209364Y-125726000D01*
X128266567Y-125939486D01*
X128266570Y-125939492D01*
X128366399Y-126153578D01*
X128501894Y-126347082D01*
X128668917Y-126514105D01*
X128862421Y-126649600D01*
X129076507Y-126749429D01*
X129076516Y-126749433D01*
X129290000Y-126806634D01*
X129290000Y-125909012D01*
X129347007Y-125941925D01*
X129474174Y-125976000D01*
X129605826Y-125976000D01*
X129732993Y-125941925D01*
X129790000Y-125909012D01*
X129790000Y-126806633D01*
X130003483Y-126749433D01*
X130003492Y-126749429D01*
X130217578Y-126649600D01*
X130411082Y-126514105D01*
X130578105Y-126347082D01*
X130708425Y-126160968D01*
X130763002Y-126117344D01*
X130832501Y-126110151D01*
X130894855Y-126141673D01*
X130911575Y-126160968D01*
X131041894Y-126347082D01*
X131208917Y-126514105D01*
X131402421Y-126649600D01*
X131616507Y-126749429D01*
X131616516Y-126749433D01*
X131830000Y-126806634D01*
X131830000Y-125909012D01*
X131887007Y-125941925D01*
X132014174Y-125976000D01*
X132145826Y-125976000D01*
X132272993Y-125941925D01*
X132330000Y-125909012D01*
X132330000Y-126806633D01*
X132543483Y-126749433D01*
X132543492Y-126749429D01*
X132757578Y-126649600D01*
X132951082Y-126514105D01*
X133118105Y-126347082D01*
X133253600Y-126153578D01*
X133353429Y-125939492D01*
X133353432Y-125939486D01*
X133410636Y-125726000D01*
X132513012Y-125726000D01*
X132545925Y-125668993D01*
X132568753Y-125583801D01*
X192554491Y-125583801D01*
X192574900Y-125869162D01*
X192635709Y-126148695D01*
X192735691Y-126416758D01*
X192872791Y-126667838D01*
X192872796Y-126667846D01*
X192979482Y-126810361D01*
X192979483Y-126810362D01*
X193882021Y-125907824D01*
X193894959Y-125939058D01*
X193977037Y-126061897D01*
X194081503Y-126166363D01*
X194204342Y-126248441D01*
X194235574Y-126261378D01*
X193333036Y-127163915D01*
X193475560Y-127270607D01*
X193475561Y-127270608D01*
X193726642Y-127407708D01*
X193726641Y-127407708D01*
X193994704Y-127507690D01*
X194274237Y-127568499D01*
X194559599Y-127588909D01*
X194559601Y-127588909D01*
X194844962Y-127568499D01*
X195124495Y-127507690D01*
X195392558Y-127407708D01*
X195643647Y-127270603D01*
X195786161Y-127163916D01*
X195786162Y-127163915D01*
X194883625Y-126261377D01*
X194914858Y-126248441D01*
X195037697Y-126166363D01*
X195142163Y-126061897D01*
X195224241Y-125939058D01*
X195237178Y-125907825D01*
X196139715Y-126810362D01*
X196139716Y-126810361D01*
X196246403Y-126667847D01*
X196383508Y-126416758D01*
X196483490Y-126148695D01*
X196544299Y-125869162D01*
X196564709Y-125583801D01*
X196564709Y-125583798D01*
X196544299Y-125298437D01*
X196483490Y-125018904D01*
X196383508Y-124750841D01*
X196246408Y-124499761D01*
X196246407Y-124499760D01*
X196139715Y-124357236D01*
X195237177Y-125259773D01*
X195224241Y-125228542D01*
X195142163Y-125105703D01*
X195037697Y-125001237D01*
X194914858Y-124919159D01*
X194883624Y-124906221D01*
X195786162Y-124003683D01*
X195786161Y-124003682D01*
X195643646Y-123896996D01*
X195643638Y-123896991D01*
X195392557Y-123759891D01*
X195392558Y-123759891D01*
X195124495Y-123659909D01*
X194844962Y-123599100D01*
X194559601Y-123578691D01*
X194559599Y-123578691D01*
X194274237Y-123599100D01*
X193994704Y-123659909D01*
X193726641Y-123759891D01*
X193475561Y-123896991D01*
X193475553Y-123896996D01*
X193333037Y-124003682D01*
X193333036Y-124003683D01*
X194235575Y-124906221D01*
X194204342Y-124919159D01*
X194081503Y-125001237D01*
X193977037Y-125105703D01*
X193894959Y-125228542D01*
X193882021Y-125259774D01*
X192979483Y-124357236D01*
X192979482Y-124357237D01*
X192872796Y-124499753D01*
X192872791Y-124499761D01*
X192735691Y-124750841D01*
X192635709Y-125018904D01*
X192574900Y-125298437D01*
X192554491Y-125583798D01*
X192554491Y-125583801D01*
X132568753Y-125583801D01*
X132580000Y-125541826D01*
X132580000Y-125410174D01*
X132545925Y-125283007D01*
X132513012Y-125226000D01*
X133410636Y-125226000D01*
X133410635Y-125225999D01*
X133353432Y-125012513D01*
X133353429Y-125012507D01*
X133253600Y-124798422D01*
X133253599Y-124798420D01*
X133118113Y-124604926D01*
X133118108Y-124604920D01*
X132951078Y-124437890D01*
X132765405Y-124307879D01*
X132721780Y-124253302D01*
X132714588Y-124183804D01*
X132746110Y-124121449D01*
X132765406Y-124104730D01*
X132909716Y-124003683D01*
X132951401Y-123974495D01*
X133118495Y-123807401D01*
X133254035Y-123613830D01*
X133353903Y-123399663D01*
X133415063Y-123171408D01*
X133435659Y-122936000D01*
X133415063Y-122700592D01*
X133353903Y-122472337D01*
X133254035Y-122258171D01*
X133248731Y-122250595D01*
X133118494Y-122064597D01*
X132951402Y-121897506D01*
X132951396Y-121897501D01*
X132765842Y-121767575D01*
X132722217Y-121712998D01*
X132715023Y-121643500D01*
X132746546Y-121581145D01*
X132765842Y-121564425D01*
X132788026Y-121548891D01*
X132951401Y-121434495D01*
X133118495Y-121267401D01*
X133254035Y-121073830D01*
X133353903Y-120859663D01*
X133415063Y-120631408D01*
X133435659Y-120396000D01*
X133415063Y-120160592D01*
X133353903Y-119932337D01*
X133254035Y-119718171D01*
X133248731Y-119710595D01*
X133118494Y-119524597D01*
X132951402Y-119357506D01*
X132951396Y-119357501D01*
X132765842Y-119227575D01*
X132722217Y-119172998D01*
X132715023Y-119103500D01*
X132746546Y-119041145D01*
X132765842Y-119024425D01*
X132788026Y-119008891D01*
X132951401Y-118894495D01*
X133118495Y-118727401D01*
X133254035Y-118533830D01*
X133353903Y-118319663D01*
X133415063Y-118091408D01*
X133419242Y-118043640D01*
X148263311Y-118043640D01*
X148351585Y-118098297D01*
X148541678Y-118171939D01*
X148742072Y-118209400D01*
X148945928Y-118209400D01*
X149146322Y-118171939D01*
X149336412Y-118098299D01*
X149336416Y-118098297D01*
X149424686Y-118043641D01*
X149424686Y-118043640D01*
X148844001Y-117462953D01*
X148844000Y-117462953D01*
X148263311Y-118043640D01*
X133419242Y-118043640D01*
X133435659Y-117856000D01*
X133415063Y-117620592D01*
X133360752Y-117417897D01*
X133353905Y-117392344D01*
X133353904Y-117392343D01*
X133353903Y-117392337D01*
X133254035Y-117178171D01*
X133248731Y-117170595D01*
X133118494Y-116984597D01*
X132951402Y-116817506D01*
X132951396Y-116817501D01*
X132765842Y-116687575D01*
X132722217Y-116632998D01*
X132715023Y-116563500D01*
X132746546Y-116501145D01*
X132765842Y-116484425D01*
X132812534Y-116451731D01*
X132951401Y-116354495D01*
X133118495Y-116187401D01*
X133254035Y-115993830D01*
X133353903Y-115779663D01*
X133415063Y-115551408D01*
X133435659Y-115316000D01*
X133435062Y-115309182D01*
X133428821Y-115237846D01*
X133415063Y-115080592D01*
X133367188Y-114901917D01*
X133353905Y-114852344D01*
X133353904Y-114852343D01*
X133353903Y-114852337D01*
X133254035Y-114638171D01*
X133248731Y-114630595D01*
X133118494Y-114444597D01*
X132951402Y-114277506D01*
X132951396Y-114277501D01*
X132765842Y-114147575D01*
X132722217Y-114092998D01*
X132715023Y-114023500D01*
X132746546Y-113961145D01*
X132765842Y-113944425D01*
X132874364Y-113868437D01*
X132951401Y-113814495D01*
X133118495Y-113647401D01*
X133254035Y-113453830D01*
X133353903Y-113239663D01*
X133415063Y-113011408D01*
X133435659Y-112776000D01*
X133415063Y-112540592D01*
X133353903Y-112312337D01*
X133254035Y-112098171D01*
X133248731Y-112090595D01*
X133118494Y-111904597D01*
X132951402Y-111737506D01*
X132951396Y-111737501D01*
X132765842Y-111607575D01*
X132722217Y-111552998D01*
X132715023Y-111483500D01*
X132746546Y-111421145D01*
X132765842Y-111404425D01*
X132855962Y-111341322D01*
X132951401Y-111274495D01*
X133118495Y-111107401D01*
X133254035Y-110913830D01*
X133353903Y-110699663D01*
X133415063Y-110471408D01*
X133435659Y-110236000D01*
X133415063Y-110000592D01*
X133353903Y-109772337D01*
X133254035Y-109558171D01*
X133248731Y-109550595D01*
X133118494Y-109364597D01*
X132951402Y-109197506D01*
X132951396Y-109197501D01*
X132765842Y-109067575D01*
X132722217Y-109012998D01*
X132715023Y-108943500D01*
X132746546Y-108881145D01*
X132765842Y-108864425D01*
X132825013Y-108822993D01*
X132951401Y-108734495D01*
X133118495Y-108567401D01*
X133254035Y-108373830D01*
X133353903Y-108159663D01*
X133415063Y-107931408D01*
X133435659Y-107696000D01*
X133415063Y-107460592D01*
X133353903Y-107232337D01*
X133254035Y-107018171D01*
X133248731Y-107010595D01*
X133118494Y-106824597D01*
X132951402Y-106657506D01*
X132951396Y-106657501D01*
X132765842Y-106527575D01*
X132722217Y-106472998D01*
X132715023Y-106403500D01*
X132746546Y-106341145D01*
X132765842Y-106324425D01*
X132821941Y-106285144D01*
X132951401Y-106194495D01*
X133118495Y-106027401D01*
X133254035Y-105833830D01*
X133353903Y-105619663D01*
X133415063Y-105391408D01*
X133435659Y-105156000D01*
X133415063Y-104920592D01*
X133353903Y-104692337D01*
X133254035Y-104478171D01*
X133248731Y-104470595D01*
X133118494Y-104284597D01*
X132951402Y-104117506D01*
X132951396Y-104117501D01*
X132765842Y-103987575D01*
X132722217Y-103932998D01*
X132715023Y-103863500D01*
X132746546Y-103801145D01*
X132765842Y-103784425D01*
X132788026Y-103768891D01*
X132951401Y-103654495D01*
X133118495Y-103487401D01*
X133254035Y-103293830D01*
X133353903Y-103079663D01*
X133415063Y-102851408D01*
X133435659Y-102616000D01*
X133434463Y-102602335D01*
X133418774Y-102423007D01*
X133415063Y-102380592D01*
X133353903Y-102152337D01*
X133254035Y-101938171D01*
X133248731Y-101930595D01*
X133118494Y-101744597D01*
X132951402Y-101577506D01*
X132951396Y-101577501D01*
X132765842Y-101447575D01*
X132722217Y-101392998D01*
X132715023Y-101323500D01*
X132746546Y-101261145D01*
X132765842Y-101244425D01*
X132874865Y-101168086D01*
X132951401Y-101114495D01*
X133118495Y-100947401D01*
X133254035Y-100753830D01*
X133353903Y-100539663D01*
X133415063Y-100311408D01*
X133435659Y-100076000D01*
X133415063Y-99840592D01*
X133353903Y-99612337D01*
X133254035Y-99398171D01*
X133232524Y-99367449D01*
X133118494Y-99204597D01*
X132951402Y-99037506D01*
X132951395Y-99037501D01*
X132949328Y-99036054D01*
X132885635Y-98991455D01*
X132757834Y-98901967D01*
X132757830Y-98901965D01*
X132757828Y-98901964D01*
X132543663Y-98802097D01*
X132543659Y-98802096D01*
X132543655Y-98802094D01*
X132315413Y-98740938D01*
X132315403Y-98740936D01*
X132080001Y-98720341D01*
X132079999Y-98720341D01*
X131844596Y-98740936D01*
X131844586Y-98740938D01*
X131616344Y-98802094D01*
X131616335Y-98802098D01*
X131402171Y-98901964D01*
X131402169Y-98901965D01*
X131208600Y-99037503D01*
X131086284Y-99159819D01*
X131024961Y-99193303D01*
X130955269Y-99188319D01*
X130899336Y-99146447D01*
X130882421Y-99115470D01*
X130833354Y-98983913D01*
X130833350Y-98983906D01*
X130747190Y-98868812D01*
X130747187Y-98868809D01*
X130632093Y-98782649D01*
X130632086Y-98782645D01*
X130497379Y-98732403D01*
X130497372Y-98732401D01*
X130437844Y-98726000D01*
X129790000Y-98726000D01*
X129790000Y-99642988D01*
X129732993Y-99610075D01*
X129605826Y-99576000D01*
X129474174Y-99576000D01*
X129347007Y-99610075D01*
X129290000Y-99642988D01*
X129290000Y-98726000D01*
X128642155Y-98726000D01*
X128582627Y-98732401D01*
X128582620Y-98732403D01*
X128447913Y-98782645D01*
X128447906Y-98782649D01*
X128332812Y-98868809D01*
X128332809Y-98868812D01*
X128246649Y-98983906D01*
X128246645Y-98983913D01*
X128196403Y-99118620D01*
X128196401Y-99118627D01*
X128190000Y-99178155D01*
X128190000Y-99826000D01*
X129106988Y-99826000D01*
X129074075Y-99883007D01*
X129040000Y-100010174D01*
X129040000Y-100141826D01*
X129074075Y-100268993D01*
X129106988Y-100326000D01*
X128190000Y-100326000D01*
X128190000Y-100973844D01*
X124325500Y-100973844D01*
X124325500Y-94234003D01*
X137624435Y-94234003D01*
X137644630Y-94413249D01*
X137644631Y-94413254D01*
X137704211Y-94583524D01*
X137760493Y-94673094D01*
X137779500Y-94739067D01*
X137779500Y-97471931D01*
X137779500Y-106159469D01*
X137779500Y-106159471D01*
X137779499Y-106159471D01*
X137804497Y-106285138D01*
X137804499Y-106285144D01*
X137849181Y-106393017D01*
X137853535Y-106403527D01*
X137924723Y-106510069D01*
X137924726Y-106510073D01*
X147529325Y-116114672D01*
X147529332Y-116114678D01*
X147621802Y-116176464D01*
X147621803Y-116176464D01*
X147626514Y-116179611D01*
X147635873Y-116185865D01*
X147635875Y-116185866D01*
X147635877Y-116185867D01*
X147672508Y-116201040D01*
X147726912Y-116244880D01*
X147748345Y-116302345D01*
X147749907Y-116316880D01*
X147800202Y-116451728D01*
X147800206Y-116451735D01*
X147839954Y-116504831D01*
X147864372Y-116570295D01*
X147851688Y-116634413D01*
X147813888Y-116710325D01*
X147813883Y-116710336D01*
X147758097Y-116906407D01*
X147758096Y-116906410D01*
X147739287Y-117109399D01*
X147739287Y-117109400D01*
X147758096Y-117312389D01*
X147758097Y-117312392D01*
X147813883Y-117508463D01*
X147813886Y-117508469D01*
X147904751Y-117690951D01*
X147906533Y-117693311D01*
X148549145Y-117050698D01*
X148544000Y-117069904D01*
X148544000Y-117148896D01*
X148564444Y-117225196D01*
X148603940Y-117293605D01*
X148659795Y-117349460D01*
X148728204Y-117388956D01*
X148804504Y-117409400D01*
X148883496Y-117409400D01*
X148959796Y-117388956D01*
X149028205Y-117349460D01*
X149084060Y-117293605D01*
X149123556Y-117225196D01*
X149144000Y-117148896D01*
X149144000Y-117069904D01*
X149138854Y-117050701D01*
X149781465Y-117693312D01*
X149783247Y-117690953D01*
X149783248Y-117690951D01*
X149874113Y-117508469D01*
X149874116Y-117508463D01*
X149915435Y-117363240D01*
X154613311Y-117363240D01*
X154701585Y-117417897D01*
X154891678Y-117491539D01*
X155092072Y-117529000D01*
X155295928Y-117529000D01*
X155496322Y-117491539D01*
X155686412Y-117417899D01*
X155686416Y-117417897D01*
X155774686Y-117363241D01*
X155774686Y-117363240D01*
X155194001Y-116782553D01*
X155194000Y-116782553D01*
X154613311Y-117363240D01*
X149915435Y-117363240D01*
X149929902Y-117312392D01*
X149929903Y-117312389D01*
X149948713Y-117109400D01*
X149948713Y-117109399D01*
X149929903Y-116906410D01*
X149929902Y-116906408D01*
X149874115Y-116710336D01*
X149874110Y-116710325D01*
X149836311Y-116634413D01*
X149824050Y-116565628D01*
X149848045Y-116504831D01*
X149887796Y-116451731D01*
X149896275Y-116428999D01*
X149914923Y-116379000D01*
X149938091Y-116316883D01*
X149944500Y-116257273D01*
X149944499Y-114961528D01*
X149939299Y-114913157D01*
X149938091Y-114901916D01*
X149887797Y-114767071D01*
X149887793Y-114767064D01*
X149801547Y-114651855D01*
X149801544Y-114651852D01*
X149686335Y-114565606D01*
X149686328Y-114565602D01*
X149551482Y-114515308D01*
X149551483Y-114515308D01*
X149491883Y-114508901D01*
X149491881Y-114508900D01*
X149491873Y-114508900D01*
X149491864Y-114508900D01*
X148196129Y-114508900D01*
X148196123Y-114508901D01*
X148136516Y-114515308D01*
X148001671Y-114565602D01*
X148001669Y-114565603D01*
X147983874Y-114578925D01*
X147918410Y-114603341D01*
X147850137Y-114588489D01*
X147821884Y-114567338D01*
X143811615Y-110557069D01*
X152924500Y-110557069D01*
X152928906Y-110579220D01*
X152933501Y-110602316D01*
X152933501Y-110602319D01*
X152949497Y-110682736D01*
X152949499Y-110682744D01*
X152993966Y-110790098D01*
X152998535Y-110801127D01*
X153035959Y-110857137D01*
X153069726Y-110907673D01*
X153069727Y-110907674D01*
X155778873Y-113616819D01*
X155812358Y-113678142D01*
X155807374Y-113747834D01*
X155765502Y-113803767D01*
X155700038Y-113828184D01*
X155691192Y-113828500D01*
X154546129Y-113828500D01*
X154546123Y-113828501D01*
X154486516Y-113834908D01*
X154351671Y-113885202D01*
X154351664Y-113885206D01*
X154236455Y-113971452D01*
X154236452Y-113971455D01*
X154150206Y-114086664D01*
X154150202Y-114086671D01*
X154099908Y-114221517D01*
X154093501Y-114281116D01*
X154093500Y-114281135D01*
X154093500Y-115576870D01*
X154093501Y-115576876D01*
X154099908Y-115636483D01*
X154150202Y-115771328D01*
X154150206Y-115771335D01*
X154189954Y-115824431D01*
X154214372Y-115889895D01*
X154201688Y-115954013D01*
X154163888Y-116029925D01*
X154163883Y-116029936D01*
X154108097Y-116226007D01*
X154108096Y-116226010D01*
X154089287Y-116428999D01*
X154089287Y-116429000D01*
X154108096Y-116631989D01*
X154108097Y-116631992D01*
X154163883Y-116828063D01*
X154163886Y-116828069D01*
X154254751Y-117010551D01*
X154256533Y-117012911D01*
X154899145Y-116370298D01*
X154894000Y-116389504D01*
X154894000Y-116468496D01*
X154914444Y-116544796D01*
X154953940Y-116613205D01*
X155009795Y-116669060D01*
X155078204Y-116708556D01*
X155154504Y-116729000D01*
X155233496Y-116729000D01*
X155309796Y-116708556D01*
X155378205Y-116669060D01*
X155434060Y-116613205D01*
X155473556Y-116544796D01*
X155494000Y-116468496D01*
X155494000Y-116389504D01*
X155488854Y-116370301D01*
X156131465Y-117012912D01*
X156133247Y-117010553D01*
X156133248Y-117010551D01*
X156224113Y-116828069D01*
X156224116Y-116828063D01*
X156279902Y-116631992D01*
X156279903Y-116631989D01*
X156285818Y-116568156D01*
X156311604Y-116503219D01*
X156368404Y-116462531D01*
X156438185Y-116459011D01*
X156496970Y-116491916D01*
X157189324Y-117184271D01*
X157189331Y-117184277D01*
X157295871Y-117255464D01*
X157295870Y-117255464D01*
X157330544Y-117269826D01*
X157414256Y-117304501D01*
X157414260Y-117304501D01*
X157414261Y-117304502D01*
X157539928Y-117329500D01*
X157539931Y-117329500D01*
X158259560Y-117329500D01*
X158326599Y-117349185D01*
X158372354Y-117401989D01*
X158375742Y-117410167D01*
X158417202Y-117521328D01*
X158417206Y-117521335D01*
X158503452Y-117636544D01*
X158503455Y-117636547D01*
X158618664Y-117722793D01*
X158618671Y-117722797D01*
X158753517Y-117773091D01*
X158753516Y-117773091D01*
X158760444Y-117773835D01*
X158813127Y-117779500D01*
X160108872Y-117779499D01*
X160168483Y-117773091D01*
X160303329Y-117722797D01*
X160303329Y-117722796D01*
X160303331Y-117722796D01*
X160352993Y-117685618D01*
X160418454Y-117661201D01*
X160472097Y-117669258D01*
X160658678Y-117741539D01*
X160859072Y-117779000D01*
X161062928Y-117779000D01*
X161263322Y-117741539D01*
X161453412Y-117667899D01*
X161453416Y-117667897D01*
X161541686Y-117613241D01*
X161541686Y-117613240D01*
X160902300Y-116973854D01*
X160921504Y-116979000D01*
X161000496Y-116979000D01*
X161076796Y-116958556D01*
X161145205Y-116919060D01*
X161201060Y-116863205D01*
X161240556Y-116794796D01*
X161261000Y-116718496D01*
X161261000Y-116679000D01*
X161314553Y-116679000D01*
X161898465Y-117262912D01*
X161900247Y-117260553D01*
X161900248Y-117260551D01*
X161991113Y-117078069D01*
X161991116Y-117078063D01*
X162046902Y-116881992D01*
X162046903Y-116881989D01*
X162065713Y-116679000D01*
X162065713Y-116678999D01*
X162046903Y-116476010D01*
X162046902Y-116476007D01*
X161991116Y-116279936D01*
X161991113Y-116279930D01*
X161900249Y-116097449D01*
X161900247Y-116097447D01*
X161898465Y-116095087D01*
X161314553Y-116679000D01*
X161261000Y-116679000D01*
X161261000Y-116639504D01*
X161240556Y-116563204D01*
X161201060Y-116494795D01*
X161145205Y-116438940D01*
X161076796Y-116399444D01*
X161000496Y-116379000D01*
X160921504Y-116379000D01*
X160902301Y-116384145D01*
X160961000Y-116325447D01*
X161541687Y-115744758D01*
X161453413Y-115690101D01*
X161453411Y-115690100D01*
X161263321Y-115616460D01*
X161062928Y-115579000D01*
X160859072Y-115579000D01*
X160658677Y-115616460D01*
X160472098Y-115688741D01*
X160402474Y-115694603D01*
X160352993Y-115672381D01*
X160349183Y-115669529D01*
X160303331Y-115635204D01*
X160303329Y-115635203D01*
X160303328Y-115635202D01*
X160168482Y-115584908D01*
X160168483Y-115584908D01*
X160108883Y-115578501D01*
X160108881Y-115578500D01*
X160108873Y-115578500D01*
X160108864Y-115578500D01*
X158813129Y-115578500D01*
X158813123Y-115578501D01*
X158753516Y-115584908D01*
X158618671Y-115635202D01*
X158618664Y-115635206D01*
X158503455Y-115721452D01*
X158503452Y-115721455D01*
X158417206Y-115836664D01*
X158417202Y-115836671D01*
X158375742Y-115947833D01*
X158333871Y-116003767D01*
X158268407Y-116028184D01*
X158259560Y-116028500D01*
X157924808Y-116028500D01*
X157857769Y-116008815D01*
X157837127Y-115992181D01*
X157211819Y-115366873D01*
X157178334Y-115305550D01*
X157175500Y-115279192D01*
X157175500Y-114153801D01*
X192554491Y-114153801D01*
X192574900Y-114439162D01*
X192635709Y-114718695D01*
X192735691Y-114986758D01*
X192872791Y-115237838D01*
X192872796Y-115237846D01*
X192979482Y-115380361D01*
X192979483Y-115380362D01*
X193882021Y-114477824D01*
X193894959Y-114509058D01*
X193977037Y-114631897D01*
X194081503Y-114736363D01*
X194204342Y-114818441D01*
X194235574Y-114831378D01*
X193333036Y-115733915D01*
X193475560Y-115840607D01*
X193475561Y-115840608D01*
X193726642Y-115977708D01*
X193726641Y-115977708D01*
X193994704Y-116077690D01*
X194274237Y-116138499D01*
X194559599Y-116158909D01*
X194559601Y-116158909D01*
X194844962Y-116138499D01*
X195124495Y-116077690D01*
X195392558Y-115977708D01*
X195643638Y-115840608D01*
X195643639Y-115840607D01*
X195822744Y-115706531D01*
X195888209Y-115682114D01*
X195956482Y-115696966D01*
X196005887Y-115746371D01*
X196020739Y-115814644D01*
X196016830Y-115837890D01*
X196015990Y-115841026D01*
X195989052Y-115941562D01*
X195989051Y-115941570D01*
X195959100Y-116169058D01*
X195959100Y-116398541D01*
X195981713Y-116570295D01*
X195989052Y-116626038D01*
X196026737Y-116766681D01*
X196048442Y-116847687D01*
X196136250Y-117059676D01*
X196136257Y-117059690D01*
X196250992Y-117258417D01*
X196390681Y-117440461D01*
X196390689Y-117440470D01*
X196552930Y-117602711D01*
X196552938Y-117602718D01*
X196552939Y-117602719D01*
X196576237Y-117620596D01*
X196734982Y-117742407D01*
X196734985Y-117742408D01*
X196734988Y-117742411D01*
X196933712Y-117857144D01*
X196933717Y-117857146D01*
X196933723Y-117857149D01*
X197025080Y-117894990D01*
X197145713Y-117944958D01*
X197367362Y-118004348D01*
X197594866Y-118034300D01*
X197594873Y-118034300D01*
X197824327Y-118034300D01*
X197824334Y-118034300D01*
X198051838Y-118004348D01*
X198273487Y-117944958D01*
X198485488Y-117857144D01*
X198684212Y-117742411D01*
X198866261Y-117602719D01*
X198866265Y-117602714D01*
X198866270Y-117602711D01*
X199028511Y-117440470D01*
X199028514Y-117440465D01*
X199028519Y-117440461D01*
X199168211Y-117258412D01*
X199282944Y-117059688D01*
X199370758Y-116847687D01*
X199430148Y-116626038D01*
X199460100Y-116398534D01*
X199460100Y-116169066D01*
X199430148Y-115941562D01*
X199370758Y-115719913D01*
X199311508Y-115576872D01*
X199282949Y-115507923D01*
X199282946Y-115507917D01*
X199282944Y-115507912D01*
X199168211Y-115309188D01*
X199168208Y-115309185D01*
X199168207Y-115309182D01*
X199028518Y-115127138D01*
X199028511Y-115127130D01*
X198866270Y-114964889D01*
X198866261Y-114964881D01*
X198684217Y-114825192D01*
X198485490Y-114710457D01*
X198485476Y-114710450D01*
X198273487Y-114622642D01*
X198051838Y-114563252D01*
X198013815Y-114558246D01*
X197824341Y-114533300D01*
X197824334Y-114533300D01*
X197594866Y-114533300D01*
X197594858Y-114533300D01*
X197378315Y-114561809D01*
X197367362Y-114563252D01*
X197358577Y-114565606D01*
X197145712Y-114622642D01*
X196933723Y-114710450D01*
X196933709Y-114710457D01*
X196734983Y-114825192D01*
X196669571Y-114875385D01*
X196604402Y-114900579D01*
X196535957Y-114886541D01*
X196485968Y-114837727D01*
X196470304Y-114769635D01*
X196477904Y-114733674D01*
X196483489Y-114718699D01*
X196483489Y-114718698D01*
X196544299Y-114439162D01*
X196564709Y-114153801D01*
X196564709Y-114153798D01*
X196544299Y-113868437D01*
X196483490Y-113588904D01*
X196383508Y-113320841D01*
X196246408Y-113069761D01*
X196246407Y-113069760D01*
X196139715Y-112927236D01*
X195237177Y-113829774D01*
X195224241Y-113798542D01*
X195142163Y-113675703D01*
X195037697Y-113571237D01*
X194914858Y-113489159D01*
X194883624Y-113476221D01*
X195786162Y-112573683D01*
X195786161Y-112573682D01*
X195643646Y-112466996D01*
X195643638Y-112466991D01*
X195392557Y-112329891D01*
X195392558Y-112329891D01*
X195124495Y-112229909D01*
X194844962Y-112169100D01*
X194559601Y-112148691D01*
X194559599Y-112148691D01*
X194274237Y-112169100D01*
X193994704Y-112229909D01*
X193726641Y-112329891D01*
X193475561Y-112466991D01*
X193475553Y-112466996D01*
X193333037Y-112573682D01*
X193333036Y-112573683D01*
X194235575Y-113476221D01*
X194204342Y-113489159D01*
X194081503Y-113571237D01*
X193977037Y-113675703D01*
X193894959Y-113798542D01*
X193882021Y-113829774D01*
X192979483Y-112927236D01*
X192979482Y-112927237D01*
X192872796Y-113069753D01*
X192872791Y-113069761D01*
X192735691Y-113320841D01*
X192635709Y-113588904D01*
X192574900Y-113868437D01*
X192554491Y-114153798D01*
X192554491Y-114153801D01*
X157175500Y-114153801D01*
X157175500Y-113378928D01*
X157150502Y-113253261D01*
X157150501Y-113253260D01*
X157150501Y-113253256D01*
X157148270Y-113247870D01*
X165499500Y-113247870D01*
X165499501Y-113247876D01*
X165505908Y-113307483D01*
X165556202Y-113442328D01*
X165556206Y-113442335D01*
X165642452Y-113557544D01*
X165642455Y-113557547D01*
X165757664Y-113643793D01*
X165757671Y-113643797D01*
X165892517Y-113694091D01*
X165892516Y-113694091D01*
X165899444Y-113694835D01*
X165952127Y-113700500D01*
X167247872Y-113700499D01*
X167307483Y-113694091D01*
X167361953Y-113673775D01*
X167442329Y-113643797D01*
X167442329Y-113643796D01*
X167442331Y-113643796D01*
X167491521Y-113606971D01*
X167556982Y-113582554D01*
X167610622Y-113590610D01*
X167797544Y-113663024D01*
X167998024Y-113700500D01*
X167998026Y-113700500D01*
X168201974Y-113700500D01*
X168201976Y-113700500D01*
X168402456Y-113663024D01*
X168592637Y-113589348D01*
X168766041Y-113481981D01*
X168916764Y-113344579D01*
X169039673Y-113181821D01*
X169130582Y-112999250D01*
X169186397Y-112803083D01*
X169205215Y-112600000D01*
X169202776Y-112573683D01*
X169186397Y-112396917D01*
X169167196Y-112329433D01*
X169130582Y-112200750D01*
X169115734Y-112170932D01*
X169075731Y-112090594D01*
X169039673Y-112018179D01*
X168980704Y-111940091D01*
X168916762Y-111855418D01*
X168766041Y-111718019D01*
X168766039Y-111718017D01*
X168592642Y-111610655D01*
X168592635Y-111610651D01*
X168497546Y-111573814D01*
X168402456Y-111536976D01*
X168201976Y-111499500D01*
X167998024Y-111499500D01*
X167797544Y-111536976D01*
X167797541Y-111536976D01*
X167797541Y-111536977D01*
X167610626Y-111609388D01*
X167541002Y-111615250D01*
X167491521Y-111593027D01*
X167442335Y-111556206D01*
X167442328Y-111556202D01*
X167307482Y-111505908D01*
X167307483Y-111505908D01*
X167247883Y-111499501D01*
X167247881Y-111499500D01*
X167247873Y-111499500D01*
X167247864Y-111499500D01*
X165952129Y-111499500D01*
X165952123Y-111499501D01*
X165892516Y-111505908D01*
X165757671Y-111556202D01*
X165757664Y-111556206D01*
X165642455Y-111642452D01*
X165642452Y-111642455D01*
X165556206Y-111757664D01*
X165556202Y-111757671D01*
X165505908Y-111892517D01*
X165499501Y-111952116D01*
X165499500Y-111952135D01*
X165499500Y-113247870D01*
X157148270Y-113247870D01*
X157101465Y-113134873D01*
X157085039Y-113110289D01*
X157057959Y-113069761D01*
X157030275Y-113028328D01*
X154261819Y-110259872D01*
X154228334Y-110198549D01*
X154225500Y-110172191D01*
X154225500Y-107922870D01*
X178949500Y-107922870D01*
X178949501Y-107922876D01*
X178955908Y-107982483D01*
X179006202Y-108117328D01*
X179006206Y-108117335D01*
X179092452Y-108232544D01*
X179092455Y-108232547D01*
X179207664Y-108318793D01*
X179207671Y-108318797D01*
X179342517Y-108369091D01*
X179342516Y-108369091D01*
X179349444Y-108369835D01*
X179402127Y-108375500D01*
X180697872Y-108375499D01*
X180757483Y-108369091D01*
X180840778Y-108338024D01*
X180892329Y-108318797D01*
X180892329Y-108318796D01*
X180892331Y-108318796D01*
X180941521Y-108281971D01*
X181006982Y-108257554D01*
X181060622Y-108265610D01*
X181247544Y-108338024D01*
X181448024Y-108375500D01*
X181448026Y-108375500D01*
X181651974Y-108375500D01*
X181651976Y-108375500D01*
X181852456Y-108338024D01*
X182042637Y-108264348D01*
X182216041Y-108156981D01*
X182366764Y-108019579D01*
X182489673Y-107856821D01*
X182580582Y-107674250D01*
X182636397Y-107478083D01*
X182655215Y-107275000D01*
X182636397Y-107071917D01*
X182580582Y-106875750D01*
X182555517Y-106825413D01*
X182536272Y-106786764D01*
X182489673Y-106693179D01*
X182411756Y-106590000D01*
X183894341Y-106590000D01*
X183914936Y-106825403D01*
X183914938Y-106825413D01*
X183976094Y-107053655D01*
X183976096Y-107053659D01*
X183976097Y-107053663D01*
X183984609Y-107071917D01*
X184075965Y-107267830D01*
X184075967Y-107267834D01*
X184127969Y-107342100D01*
X184210941Y-107460596D01*
X184211501Y-107461395D01*
X184211506Y-107461402D01*
X184378597Y-107628493D01*
X184378603Y-107628498D01*
X184564594Y-107758730D01*
X184608219Y-107813307D01*
X184615413Y-107882805D01*
X184583890Y-107945160D01*
X184564595Y-107961880D01*
X184378922Y-108091890D01*
X184378920Y-108091891D01*
X184211891Y-108258920D01*
X184211886Y-108258926D01*
X184076400Y-108452420D01*
X184076399Y-108452422D01*
X183976570Y-108666507D01*
X183976567Y-108666513D01*
X183919364Y-108879999D01*
X183919364Y-108880000D01*
X184816988Y-108880000D01*
X184784075Y-108937007D01*
X184750000Y-109064174D01*
X184750000Y-109195826D01*
X184784075Y-109322993D01*
X184816988Y-109380000D01*
X183919364Y-109380000D01*
X183976567Y-109593486D01*
X183976570Y-109593492D01*
X184076399Y-109807578D01*
X184211894Y-110001082D01*
X184378917Y-110168105D01*
X184572421Y-110303600D01*
X184786507Y-110403429D01*
X184786516Y-110403433D01*
X185000000Y-110460634D01*
X185000000Y-109563012D01*
X185057007Y-109595925D01*
X185184174Y-109630000D01*
X185315826Y-109630000D01*
X185442993Y-109595925D01*
X185500000Y-109563012D01*
X185500000Y-110460633D01*
X185713483Y-110403433D01*
X185713492Y-110403429D01*
X185927578Y-110303600D01*
X186121082Y-110168105D01*
X186288105Y-110001082D01*
X186423600Y-109807578D01*
X186523429Y-109593492D01*
X186523432Y-109593486D01*
X186580636Y-109380000D01*
X185683012Y-109380000D01*
X185715925Y-109322993D01*
X185750000Y-109195826D01*
X185750000Y-109064174D01*
X185715925Y-108937007D01*
X185683012Y-108880000D01*
X186580636Y-108880000D01*
X186580635Y-108879999D01*
X186523432Y-108666513D01*
X186523429Y-108666507D01*
X186423600Y-108452422D01*
X186423599Y-108452420D01*
X186288113Y-108258926D01*
X186288108Y-108258920D01*
X186121078Y-108091890D01*
X185935405Y-107961879D01*
X185891780Y-107907302D01*
X185884588Y-107837804D01*
X185916110Y-107775449D01*
X185935406Y-107758730D01*
X186121401Y-107628495D01*
X186288495Y-107461401D01*
X186424035Y-107267830D01*
X186523903Y-107053663D01*
X186585063Y-106825408D01*
X186605659Y-106590000D01*
X186585063Y-106354592D01*
X186523903Y-106126337D01*
X186424035Y-105912171D01*
X186389097Y-105862273D01*
X186288494Y-105718597D01*
X186121402Y-105551506D01*
X186121396Y-105551501D01*
X185935842Y-105421575D01*
X185892217Y-105366998D01*
X185885023Y-105297500D01*
X185916546Y-105235145D01*
X185935842Y-105218425D01*
X186024995Y-105155999D01*
X186121401Y-105088495D01*
X186288495Y-104921401D01*
X186424035Y-104727830D01*
X186523903Y-104513663D01*
X186585063Y-104285408D01*
X186605659Y-104050000D01*
X186585063Y-103814592D01*
X186523903Y-103586337D01*
X186424035Y-103372171D01*
X186417630Y-103363024D01*
X186288496Y-103178600D01*
X186252224Y-103142328D01*
X186166567Y-103056671D01*
X186133084Y-102995351D01*
X186138068Y-102925659D01*
X186179939Y-102869725D01*
X186210915Y-102852810D01*
X186342331Y-102803796D01*
X186457546Y-102717546D01*
X186543796Y-102602331D01*
X186594091Y-102467483D01*
X186600500Y-102407873D01*
X186600499Y-100974403D01*
X196926835Y-100974403D01*
X196947030Y-101153649D01*
X196947031Y-101153654D01*
X197006611Y-101323923D01*
X197076738Y-101435529D01*
X197102584Y-101476662D01*
X197230138Y-101604216D01*
X197382878Y-101700189D01*
X197510712Y-101744920D01*
X197553145Y-101759768D01*
X197553150Y-101759769D01*
X197732396Y-101779965D01*
X197732400Y-101779965D01*
X197732404Y-101779965D01*
X197911649Y-101759769D01*
X197911652Y-101759768D01*
X197911655Y-101759768D01*
X198081922Y-101700189D01*
X198234662Y-101604216D01*
X198362216Y-101476662D01*
X198458189Y-101323922D01*
X198517768Y-101153655D01*
X198522180Y-101114498D01*
X198537965Y-100974403D01*
X198537965Y-100974396D01*
X198521343Y-100826872D01*
X198517768Y-100795145D01*
X198489858Y-100715382D01*
X198482900Y-100674428D01*
X198482900Y-99310303D01*
X198501907Y-99244330D01*
X198525788Y-99206324D01*
X198526392Y-99204599D01*
X198585368Y-99036055D01*
X198590393Y-98991455D01*
X198605565Y-98856803D01*
X198605565Y-98856796D01*
X198585369Y-98677550D01*
X198585368Y-98677545D01*
X198550921Y-98579101D01*
X198525789Y-98507278D01*
X198517945Y-98494795D01*
X198461075Y-98404287D01*
X198429816Y-98354538D01*
X198302262Y-98226984D01*
X198149523Y-98131011D01*
X197979254Y-98071431D01*
X197979249Y-98071430D01*
X197800004Y-98051235D01*
X197799996Y-98051235D01*
X197620750Y-98071430D01*
X197620745Y-98071431D01*
X197450476Y-98131011D01*
X197297737Y-98226984D01*
X197170184Y-98354537D01*
X197074210Y-98507278D01*
X197014630Y-98677548D01*
X197013034Y-98691713D01*
X197011432Y-98702012D01*
X196981900Y-98850477D01*
X196981900Y-100674428D01*
X196974942Y-100715382D01*
X196947031Y-100795147D01*
X196926835Y-100974396D01*
X196926835Y-100974403D01*
X186600499Y-100974403D01*
X186600499Y-100612128D01*
X186594091Y-100552517D01*
X186593227Y-100550201D01*
X186543797Y-100417671D01*
X186543793Y-100417664D01*
X186457547Y-100302455D01*
X186457544Y-100302452D01*
X186342335Y-100216206D01*
X186342328Y-100216202D01*
X186207482Y-100165908D01*
X186207483Y-100165908D01*
X186147883Y-100159501D01*
X186147881Y-100159500D01*
X186147873Y-100159500D01*
X186147864Y-100159500D01*
X184352129Y-100159500D01*
X184352123Y-100159501D01*
X184292516Y-100165908D01*
X184157671Y-100216202D01*
X184157664Y-100216206D01*
X184042455Y-100302452D01*
X184042452Y-100302455D01*
X183956206Y-100417664D01*
X183956202Y-100417671D01*
X183905908Y-100552517D01*
X183899535Y-100611797D01*
X183899501Y-100612123D01*
X183899500Y-100612135D01*
X183899500Y-102407870D01*
X183899501Y-102407876D01*
X183905908Y-102467483D01*
X183956202Y-102602328D01*
X183956206Y-102602335D01*
X184042452Y-102717544D01*
X184042455Y-102717547D01*
X184157664Y-102803793D01*
X184157671Y-102803797D01*
X184289081Y-102852810D01*
X184345015Y-102894681D01*
X184369432Y-102960145D01*
X184354580Y-103028418D01*
X184333430Y-103056673D01*
X184211503Y-103178600D01*
X184075965Y-103372169D01*
X184075964Y-103372171D01*
X183976098Y-103586335D01*
X183976094Y-103586344D01*
X183914938Y-103814586D01*
X183914936Y-103814596D01*
X183894341Y-104049999D01*
X183894341Y-104050000D01*
X183914936Y-104285403D01*
X183914938Y-104285413D01*
X183976094Y-104513655D01*
X183976096Y-104513659D01*
X183976097Y-104513663D01*
X184036095Y-104642328D01*
X184075965Y-104727830D01*
X184075967Y-104727834D01*
X184170629Y-104863024D01*
X184210941Y-104920596D01*
X184211501Y-104921395D01*
X184211506Y-104921402D01*
X184378597Y-105088493D01*
X184378603Y-105088498D01*
X184564158Y-105218425D01*
X184607783Y-105273002D01*
X184614977Y-105342500D01*
X184583454Y-105404855D01*
X184564158Y-105421575D01*
X184378597Y-105551505D01*
X184211505Y-105718597D01*
X184075965Y-105912169D01*
X184075964Y-105912171D01*
X183976098Y-106126335D01*
X183976094Y-106126344D01*
X183914938Y-106354586D01*
X183914936Y-106354596D01*
X183894341Y-106589999D01*
X183894341Y-106590000D01*
X182411756Y-106590000D01*
X182366764Y-106530421D01*
X182366762Y-106530418D01*
X182216041Y-106393019D01*
X182216039Y-106393017D01*
X182042642Y-106285655D01*
X182042635Y-106285651D01*
X181947546Y-106248814D01*
X181852456Y-106211976D01*
X181651976Y-106174500D01*
X181448024Y-106174500D01*
X181247544Y-106211976D01*
X181247541Y-106211976D01*
X181247541Y-106211977D01*
X181060626Y-106284388D01*
X180991002Y-106290250D01*
X180941521Y-106268027D01*
X180892335Y-106231206D01*
X180892328Y-106231202D01*
X180757482Y-106180908D01*
X180757483Y-106180908D01*
X180697883Y-106174501D01*
X180697881Y-106174500D01*
X180697873Y-106174500D01*
X180697864Y-106174500D01*
X179402129Y-106174500D01*
X179402123Y-106174501D01*
X179342516Y-106180908D01*
X179207671Y-106231202D01*
X179207664Y-106231206D01*
X179092455Y-106317452D01*
X179092452Y-106317455D01*
X179006206Y-106432664D01*
X179006202Y-106432671D01*
X178955908Y-106567517D01*
X178949501Y-106627116D01*
X178949500Y-106627135D01*
X178949500Y-107922870D01*
X154225500Y-107922870D01*
X154225500Y-104447870D01*
X165547500Y-104447870D01*
X165547501Y-104447876D01*
X165553908Y-104507483D01*
X165604202Y-104642328D01*
X165604206Y-104642335D01*
X165690452Y-104757544D01*
X165690455Y-104757547D01*
X165805664Y-104843793D01*
X165805671Y-104843797D01*
X165940517Y-104894091D01*
X165940516Y-104894091D01*
X165947444Y-104894835D01*
X166000127Y-104900500D01*
X167295872Y-104900499D01*
X167355483Y-104894091D01*
X167438778Y-104863024D01*
X167490329Y-104843797D01*
X167490329Y-104843796D01*
X167490331Y-104843796D01*
X167539521Y-104806971D01*
X167604982Y-104782554D01*
X167658622Y-104790610D01*
X167845544Y-104863024D01*
X168046024Y-104900500D01*
X168046026Y-104900500D01*
X168249974Y-104900500D01*
X168249976Y-104900500D01*
X168450456Y-104863024D01*
X168640637Y-104789348D01*
X168814041Y-104681981D01*
X168964764Y-104544579D01*
X169087673Y-104381821D01*
X169178582Y-104199250D01*
X169234397Y-104003083D01*
X169253215Y-103800000D01*
X169234397Y-103596917D01*
X169178582Y-103400750D01*
X169175266Y-103394091D01*
X169119507Y-103282110D01*
X169087673Y-103218179D01*
X168984779Y-103081925D01*
X168964762Y-103055418D01*
X168846786Y-102947870D01*
X178999500Y-102947870D01*
X178999501Y-102947876D01*
X179005908Y-103007483D01*
X179056202Y-103142328D01*
X179056206Y-103142335D01*
X179142452Y-103257544D01*
X179142455Y-103257547D01*
X179257664Y-103343793D01*
X179257671Y-103343797D01*
X179392517Y-103394091D01*
X179392516Y-103394091D01*
X179399444Y-103394835D01*
X179452127Y-103400500D01*
X180747872Y-103400499D01*
X180807483Y-103394091D01*
X180890778Y-103363024D01*
X180942329Y-103343797D01*
X180942329Y-103343796D01*
X180942331Y-103343796D01*
X180991521Y-103306971D01*
X181056982Y-103282554D01*
X181110622Y-103290610D01*
X181297544Y-103363024D01*
X181498024Y-103400500D01*
X181498026Y-103400500D01*
X181701974Y-103400500D01*
X181701976Y-103400500D01*
X181902456Y-103363024D01*
X182092637Y-103289348D01*
X182266041Y-103181981D01*
X182403496Y-103056674D01*
X182416762Y-103044581D01*
X182428968Y-103028418D01*
X182539673Y-102881821D01*
X182630582Y-102699250D01*
X182686397Y-102503083D01*
X182705215Y-102300000D01*
X182686397Y-102096917D01*
X182630582Y-101900750D01*
X182539673Y-101718179D01*
X182453612Y-101604216D01*
X182416762Y-101555418D01*
X182266041Y-101418019D01*
X182266039Y-101418017D01*
X182092642Y-101310655D01*
X182092635Y-101310651D01*
X181964844Y-101261145D01*
X181902456Y-101236976D01*
X181701976Y-101199500D01*
X181498024Y-101199500D01*
X181297544Y-101236976D01*
X181297541Y-101236976D01*
X181297541Y-101236977D01*
X181110626Y-101309388D01*
X181041002Y-101315250D01*
X180991521Y-101293027D01*
X180942335Y-101256206D01*
X180942328Y-101256202D01*
X180807482Y-101205908D01*
X180807483Y-101205908D01*
X180747883Y-101199501D01*
X180747881Y-101199500D01*
X180747873Y-101199500D01*
X180747864Y-101199500D01*
X179452129Y-101199500D01*
X179452123Y-101199501D01*
X179392516Y-101205908D01*
X179257671Y-101256202D01*
X179257664Y-101256206D01*
X179142455Y-101342452D01*
X179142452Y-101342455D01*
X179056206Y-101457664D01*
X179056202Y-101457671D01*
X179005908Y-101592517D01*
X178999501Y-101652116D01*
X178999500Y-101652135D01*
X178999500Y-102947870D01*
X168846786Y-102947870D01*
X168814041Y-102918019D01*
X168814039Y-102918017D01*
X168640642Y-102810655D01*
X168640635Y-102810651D01*
X168545546Y-102773814D01*
X168450456Y-102736976D01*
X168249976Y-102699500D01*
X168046024Y-102699500D01*
X167845544Y-102736976D01*
X167845541Y-102736976D01*
X167845541Y-102736977D01*
X167795910Y-102756204D01*
X167659646Y-102808993D01*
X167658626Y-102809388D01*
X167589002Y-102815250D01*
X167539521Y-102793027D01*
X167490335Y-102756206D01*
X167490328Y-102756202D01*
X167355482Y-102705908D01*
X167355483Y-102705908D01*
X167295883Y-102699501D01*
X167295881Y-102699500D01*
X167295873Y-102699500D01*
X167295864Y-102699500D01*
X166000129Y-102699500D01*
X166000123Y-102699501D01*
X165940516Y-102705908D01*
X165805671Y-102756202D01*
X165805664Y-102756206D01*
X165690455Y-102842452D01*
X165690452Y-102842455D01*
X165604206Y-102957664D01*
X165604202Y-102957671D01*
X165553908Y-103092517D01*
X165547501Y-103152116D01*
X165547500Y-103152135D01*
X165547500Y-104447870D01*
X154225500Y-104447870D01*
X154225500Y-100781467D01*
X154245185Y-100714428D01*
X154297989Y-100668673D01*
X154367147Y-100658729D01*
X154378020Y-100660791D01*
X154383510Y-100662088D01*
X154383517Y-100662091D01*
X154383523Y-100662091D01*
X154383525Y-100662092D01*
X154392232Y-100663028D01*
X154443127Y-100668500D01*
X155738872Y-100668499D01*
X155798483Y-100662091D01*
X155933329Y-100611797D01*
X155933329Y-100611796D01*
X155933331Y-100611796D01*
X155982993Y-100574618D01*
X156048454Y-100550201D01*
X156102097Y-100558258D01*
X156288678Y-100630539D01*
X156489072Y-100668000D01*
X156692928Y-100668000D01*
X156893322Y-100630539D01*
X156980233Y-100596870D01*
X158710500Y-100596870D01*
X158710501Y-100596876D01*
X158716908Y-100656483D01*
X158767202Y-100791328D01*
X158767206Y-100791335D01*
X158853452Y-100906544D01*
X158853455Y-100906547D01*
X158968664Y-100992793D01*
X158968671Y-100992797D01*
X159103517Y-101043091D01*
X159103516Y-101043091D01*
X159110444Y-101043835D01*
X159163127Y-101049500D01*
X160458872Y-101049499D01*
X160518483Y-101043091D01*
X160576833Y-101021328D01*
X160653329Y-100992797D01*
X160653329Y-100992796D01*
X160653331Y-100992796D01*
X160702993Y-100955618D01*
X160768454Y-100931201D01*
X160822097Y-100939258D01*
X161008678Y-101011539D01*
X161209072Y-101049000D01*
X161412928Y-101049000D01*
X161613322Y-101011539D01*
X161803412Y-100937899D01*
X161803416Y-100937897D01*
X161891686Y-100883241D01*
X161891686Y-100883240D01*
X161252300Y-100243854D01*
X161271504Y-100249000D01*
X161350496Y-100249000D01*
X161426796Y-100228556D01*
X161495205Y-100189060D01*
X161551060Y-100133205D01*
X161590556Y-100064796D01*
X161611000Y-99988496D01*
X161611000Y-99949000D01*
X161664553Y-99949000D01*
X162248465Y-100532912D01*
X162250247Y-100530553D01*
X162250248Y-100530551D01*
X162341113Y-100348069D01*
X162341116Y-100348063D01*
X162396902Y-100151992D01*
X162396903Y-100151989D01*
X162415713Y-99949000D01*
X162415713Y-99948999D01*
X162396903Y-99746010D01*
X162396902Y-99746007D01*
X162341116Y-99549936D01*
X162341113Y-99549930D01*
X162250249Y-99367449D01*
X162250247Y-99367447D01*
X162248465Y-99365087D01*
X161664553Y-99949000D01*
X161611000Y-99949000D01*
X161611000Y-99909504D01*
X161590556Y-99833204D01*
X161551060Y-99764795D01*
X161495205Y-99708940D01*
X161426796Y-99669444D01*
X161350496Y-99649000D01*
X161271504Y-99649000D01*
X161252301Y-99654145D01*
X161311000Y-99595447D01*
X161891687Y-99014758D01*
X161803413Y-98960101D01*
X161803411Y-98960100D01*
X161613321Y-98886460D01*
X161412928Y-98849000D01*
X161209072Y-98849000D01*
X161008677Y-98886460D01*
X160822098Y-98958741D01*
X160752474Y-98964603D01*
X160702993Y-98942381D01*
X160653331Y-98905204D01*
X160653329Y-98905203D01*
X160653328Y-98905202D01*
X160518482Y-98854908D01*
X160518483Y-98854908D01*
X160458883Y-98848501D01*
X160458881Y-98848500D01*
X160458873Y-98848500D01*
X160458864Y-98848500D01*
X159163129Y-98848500D01*
X159163123Y-98848501D01*
X159103516Y-98854908D01*
X158968671Y-98905202D01*
X158968664Y-98905206D01*
X158853455Y-98991452D01*
X158853452Y-98991455D01*
X158767206Y-99106664D01*
X158767202Y-99106671D01*
X158716908Y-99241517D01*
X158710501Y-99301116D01*
X158710500Y-99301135D01*
X158710500Y-100596870D01*
X156980233Y-100596870D01*
X157083412Y-100556899D01*
X157083416Y-100556897D01*
X157171686Y-100502241D01*
X157171686Y-100502240D01*
X156532300Y-99862854D01*
X156551504Y-99868000D01*
X156630496Y-99868000D01*
X156706796Y-99847556D01*
X156775205Y-99808060D01*
X156831060Y-99752205D01*
X156870556Y-99683796D01*
X156891000Y-99607496D01*
X156891000Y-99568000D01*
X156944553Y-99568000D01*
X157528465Y-100151912D01*
X157530247Y-100149553D01*
X157530248Y-100149551D01*
X157621113Y-99967069D01*
X157621116Y-99967063D01*
X157676902Y-99770992D01*
X157676903Y-99770989D01*
X157695713Y-99568000D01*
X157695713Y-99567999D01*
X157676903Y-99365010D01*
X157676902Y-99365007D01*
X157621116Y-99168936D01*
X157621113Y-99168930D01*
X157530249Y-98986449D01*
X157530247Y-98986447D01*
X157528465Y-98984087D01*
X156944553Y-99568000D01*
X156891000Y-99568000D01*
X156891000Y-99528504D01*
X156870556Y-99452204D01*
X156831060Y-99383795D01*
X156775205Y-99327940D01*
X156706796Y-99288444D01*
X156630496Y-99268000D01*
X156551504Y-99268000D01*
X156532301Y-99273145D01*
X156591000Y-99214447D01*
X157171687Y-98633758D01*
X157083413Y-98579101D01*
X157083411Y-98579100D01*
X156893321Y-98505460D01*
X156692928Y-98468000D01*
X156489072Y-98468000D01*
X156288677Y-98505460D01*
X156102098Y-98577741D01*
X156032474Y-98583603D01*
X155982993Y-98561381D01*
X155933331Y-98524204D01*
X155933329Y-98524203D01*
X155933328Y-98524202D01*
X155798482Y-98473908D01*
X155798483Y-98473908D01*
X155738883Y-98467501D01*
X155738881Y-98467500D01*
X155738873Y-98467500D01*
X155738864Y-98467500D01*
X154443129Y-98467500D01*
X154443123Y-98467501D01*
X154383518Y-98473908D01*
X154378016Y-98475209D01*
X154308247Y-98471469D01*
X154251575Y-98430602D01*
X154225994Y-98365584D01*
X154225500Y-98354532D01*
X154225500Y-97739203D01*
X186798835Y-97739203D01*
X186819030Y-97918449D01*
X186819031Y-97918454D01*
X186878611Y-98088723D01*
X186889194Y-98105565D01*
X186974584Y-98241462D01*
X187102138Y-98369016D01*
X187192480Y-98425782D01*
X187248303Y-98460858D01*
X187254878Y-98464989D01*
X187375733Y-98507278D01*
X187425145Y-98524568D01*
X187425150Y-98524569D01*
X187604396Y-98544765D01*
X187604400Y-98544765D01*
X187604404Y-98544765D01*
X187783649Y-98524569D01*
X187783652Y-98524568D01*
X187783655Y-98524568D01*
X187863417Y-98496657D01*
X187904372Y-98489700D01*
X194891920Y-98489700D01*
X194989462Y-98470296D01*
X195036913Y-98460858D01*
X195173495Y-98404284D01*
X195226277Y-98369016D01*
X195296416Y-98322152D01*
X197073749Y-96544819D01*
X197135072Y-96511334D01*
X197161430Y-96508500D01*
X203210060Y-96508500D01*
X203277099Y-96528185D01*
X203322854Y-96580989D01*
X203332798Y-96650147D01*
X203303773Y-96713703D01*
X203297741Y-96720181D01*
X203245184Y-96772737D01*
X203149211Y-96925476D01*
X203089631Y-97095745D01*
X203089630Y-97095750D01*
X203069435Y-97274996D01*
X203069435Y-97275003D01*
X203089630Y-97454249D01*
X203089631Y-97454254D01*
X203149211Y-97624523D01*
X203221268Y-97739200D01*
X203245184Y-97777262D01*
X203372738Y-97904816D01*
X203525478Y-98000789D01*
X203695745Y-98060368D01*
X203695750Y-98060369D01*
X203874996Y-98080565D01*
X203875000Y-98080565D01*
X203875004Y-98080565D01*
X204054249Y-98060369D01*
X204054252Y-98060368D01*
X204054255Y-98060368D01*
X204134017Y-98032457D01*
X204174972Y-98025500D01*
X206132770Y-98025500D01*
X206199809Y-98045185D01*
X206220451Y-98061819D01*
X209001780Y-100843147D01*
X209035265Y-100904470D01*
X209038099Y-100930828D01*
X209038099Y-107333257D01*
X209018414Y-107400296D01*
X208965610Y-107446051D01*
X208957446Y-107449433D01*
X208946268Y-107453603D01*
X208946263Y-107453605D01*
X208831054Y-107539851D01*
X208831051Y-107539854D01*
X208744805Y-107655063D01*
X208744801Y-107655070D01*
X208694507Y-107789916D01*
X208689359Y-107837804D01*
X208688100Y-107849522D01*
X208688099Y-107849534D01*
X208688099Y-109145269D01*
X208688100Y-109145275D01*
X208694507Y-109204882D01*
X208744801Y-109339727D01*
X208744805Y-109339734D01*
X208784217Y-109392381D01*
X208808635Y-109457845D01*
X208795952Y-109521962D01*
X208758018Y-109598146D01*
X208758017Y-109598149D01*
X208757089Y-109601412D01*
X208702201Y-109794316D01*
X208683384Y-109997398D01*
X208683384Y-109997399D01*
X208702201Y-110200481D01*
X208758016Y-110396646D01*
X208758021Y-110396659D01*
X208802508Y-110486000D01*
X208848926Y-110579220D01*
X208941588Y-110701925D01*
X208971836Y-110741979D01*
X208997637Y-110765500D01*
X209033919Y-110825211D01*
X209038099Y-110857137D01*
X209038099Y-110905171D01*
X209018414Y-110972210D01*
X209001780Y-110992852D01*
X207823699Y-112170932D01*
X207762376Y-112204417D01*
X207709660Y-112204417D01*
X207545033Y-112168604D01*
X207259601Y-112148190D01*
X207259599Y-112148190D01*
X206974166Y-112168604D01*
X206694562Y-112229428D01*
X206426433Y-112329435D01*
X206175290Y-112466570D01*
X206175282Y-112466575D01*
X205946212Y-112638054D01*
X205946194Y-112638070D01*
X205743870Y-112840394D01*
X205743854Y-112840412D01*
X205572375Y-113069482D01*
X205572370Y-113069490D01*
X205435235Y-113320633D01*
X205366170Y-113505804D01*
X205324298Y-113561737D01*
X205258834Y-113586154D01*
X205190561Y-113571302D01*
X205141156Y-113521897D01*
X205139503Y-113518765D01*
X205129123Y-113498394D01*
X205013428Y-113339154D01*
X204874246Y-113199972D01*
X204715005Y-113084276D01*
X204685438Y-113069211D01*
X204539629Y-112994917D01*
X204352426Y-112934090D01*
X204158022Y-112903300D01*
X204158017Y-112903300D01*
X203961183Y-112903300D01*
X203961178Y-112903300D01*
X203766773Y-112934090D01*
X203579570Y-112994917D01*
X203404194Y-113084276D01*
X203334549Y-113134877D01*
X203244954Y-113199972D01*
X203244952Y-113199974D01*
X203244951Y-113199974D01*
X203105774Y-113339151D01*
X203105774Y-113339152D01*
X203105772Y-113339154D01*
X203076872Y-113378931D01*
X202990076Y-113498394D01*
X202900717Y-113673770D01*
X202839890Y-113860973D01*
X202809100Y-114055377D01*
X202809100Y-114252222D01*
X202839890Y-114446626D01*
X202900717Y-114633829D01*
X202986300Y-114801795D01*
X202990076Y-114809205D01*
X203105772Y-114968446D01*
X203244954Y-115107628D01*
X203404195Y-115223324D01*
X203487055Y-115265543D01*
X203579570Y-115312682D01*
X203579572Y-115312682D01*
X203579575Y-115312684D01*
X203634573Y-115330554D01*
X203766773Y-115373509D01*
X203961178Y-115404300D01*
X203961183Y-115404300D01*
X204158022Y-115404300D01*
X204352426Y-115373509D01*
X204372849Y-115366873D01*
X204539625Y-115312684D01*
X204715005Y-115223324D01*
X204874246Y-115107628D01*
X205013428Y-114968446D01*
X205129124Y-114809205D01*
X205139502Y-114788834D01*
X205187476Y-114738039D01*
X205255297Y-114721243D01*
X205321432Y-114743779D01*
X205364884Y-114798494D01*
X205366157Y-114801762D01*
X205426998Y-114964881D01*
X205435235Y-114986966D01*
X205572370Y-115238109D01*
X205572375Y-115238117D01*
X205743854Y-115467187D01*
X205743870Y-115467205D01*
X205946194Y-115669529D01*
X205946212Y-115669545D01*
X206175282Y-115841024D01*
X206175290Y-115841029D01*
X206426433Y-115978164D01*
X206426434Y-115978164D01*
X206426439Y-115978167D01*
X206428424Y-115978907D01*
X206428994Y-115979333D01*
X206430462Y-115980004D01*
X206430316Y-115980323D01*
X206484361Y-116020773D01*
X206508783Y-116086235D01*
X206509100Y-116095092D01*
X206509100Y-123642506D01*
X206489415Y-123709545D01*
X206436611Y-123755300D01*
X206428451Y-123758681D01*
X206426448Y-123759428D01*
X206175290Y-123896570D01*
X206175282Y-123896575D01*
X205946212Y-124068054D01*
X205946194Y-124068070D01*
X205743870Y-124270394D01*
X205743854Y-124270412D01*
X205572375Y-124499482D01*
X205572370Y-124499490D01*
X205435235Y-124750633D01*
X205366170Y-124935804D01*
X205324298Y-124991737D01*
X205258834Y-125016154D01*
X205190561Y-125001302D01*
X205141156Y-124951897D01*
X205139503Y-124948765D01*
X205129123Y-124928394D01*
X205013428Y-124769154D01*
X204874246Y-124629972D01*
X204715005Y-124514276D01*
X204685970Y-124499482D01*
X204539629Y-124424917D01*
X204352426Y-124364090D01*
X204158022Y-124333300D01*
X204158017Y-124333300D01*
X203961183Y-124333300D01*
X203961178Y-124333300D01*
X203766773Y-124364090D01*
X203579570Y-124424917D01*
X203404194Y-124514276D01*
X203313341Y-124580285D01*
X203244954Y-124629972D01*
X203244952Y-124629974D01*
X203244951Y-124629974D01*
X203105774Y-124769151D01*
X203105774Y-124769152D01*
X203105772Y-124769154D01*
X203075859Y-124810326D01*
X202990076Y-124928394D01*
X202900717Y-125103770D01*
X202839890Y-125290973D01*
X202809100Y-125485377D01*
X202809100Y-125682222D01*
X202839890Y-125876626D01*
X202900717Y-126063829D01*
X202986300Y-126231795D01*
X202990076Y-126239205D01*
X203105772Y-126398446D01*
X203244954Y-126537628D01*
X203404195Y-126653324D01*
X203487055Y-126695543D01*
X203579570Y-126742682D01*
X203579572Y-126742682D01*
X203579575Y-126742684D01*
X203679917Y-126775287D01*
X203766773Y-126803509D01*
X203961178Y-126834300D01*
X203961183Y-126834300D01*
X204158022Y-126834300D01*
X204352426Y-126803509D01*
X204539625Y-126742684D01*
X204715005Y-126653324D01*
X204874246Y-126537628D01*
X205013428Y-126398446D01*
X205129124Y-126239205D01*
X205139502Y-126218834D01*
X205187476Y-126168039D01*
X205255297Y-126151243D01*
X205321432Y-126173779D01*
X205364884Y-126228494D01*
X205366157Y-126231762D01*
X205428327Y-126398446D01*
X205435235Y-126416966D01*
X205572370Y-126668109D01*
X205572375Y-126668117D01*
X205743854Y-126897187D01*
X205743870Y-126897205D01*
X205946194Y-127099529D01*
X205946212Y-127099545D01*
X206175282Y-127271024D01*
X206175290Y-127271029D01*
X206426433Y-127408164D01*
X206426432Y-127408164D01*
X206426436Y-127408165D01*
X206426439Y-127408167D01*
X206694554Y-127508169D01*
X206694560Y-127508170D01*
X206694562Y-127508171D01*
X206974166Y-127568995D01*
X206974168Y-127568995D01*
X206974172Y-127568996D01*
X207227820Y-127587137D01*
X207259599Y-127589410D01*
X207259600Y-127589410D01*
X207259601Y-127589410D01*
X207288195Y-127587364D01*
X207545028Y-127568996D01*
X207824646Y-127508169D01*
X208092761Y-127408167D01*
X208343915Y-127271026D01*
X208572995Y-127099539D01*
X208775339Y-126897195D01*
X208946826Y-126668115D01*
X209083967Y-126416961D01*
X209183969Y-126148846D01*
X209229512Y-125939486D01*
X209244795Y-125869233D01*
X209244795Y-125869232D01*
X209244796Y-125869228D01*
X209265210Y-125583800D01*
X209244796Y-125298372D01*
X209243186Y-125290973D01*
X209183971Y-125018762D01*
X209183970Y-125018760D01*
X209183969Y-125018754D01*
X209083967Y-124750639D01*
X209004401Y-124604926D01*
X208946829Y-124499490D01*
X208946824Y-124499482D01*
X208775345Y-124270412D01*
X208775329Y-124270394D01*
X208573005Y-124068070D01*
X208572987Y-124068054D01*
X208343917Y-123896575D01*
X208343909Y-123896570D01*
X208180023Y-123807082D01*
X208092761Y-123759433D01*
X208092758Y-123759432D01*
X208092751Y-123759428D01*
X208090749Y-123758681D01*
X208090175Y-123758251D01*
X208088723Y-123757588D01*
X208088867Y-123757271D01*
X208034822Y-123716802D01*
X208010415Y-123651334D01*
X208010100Y-123642506D01*
X208010100Y-116095092D01*
X208029785Y-116028053D01*
X208082589Y-115982298D01*
X208090767Y-115978910D01*
X208092761Y-115978167D01*
X208343915Y-115841026D01*
X208572995Y-115669539D01*
X208775339Y-115467195D01*
X208946826Y-115238115D01*
X209083967Y-114986961D01*
X209183969Y-114718846D01*
X209214407Y-114578925D01*
X209244795Y-114439233D01*
X209244795Y-114439232D01*
X209244796Y-114439228D01*
X209265210Y-114153800D01*
X209244796Y-113868372D01*
X209243186Y-113860973D01*
X209183971Y-113588762D01*
X209183970Y-113588760D01*
X209183969Y-113588754D01*
X209083967Y-113320639D01*
X209027002Y-113216317D01*
X209012151Y-113148046D01*
X209036568Y-113082582D01*
X209048147Y-113069218D01*
X210371551Y-111745816D01*
X210398804Y-111705028D01*
X210453683Y-111622896D01*
X210489272Y-111536976D01*
X210510258Y-111486313D01*
X210539099Y-111341318D01*
X210539099Y-111193483D01*
X210539099Y-110857137D01*
X210558784Y-110790098D01*
X210579561Y-110765500D01*
X210590537Y-110755492D01*
X210605363Y-110741978D01*
X210728272Y-110579220D01*
X210819181Y-110396649D01*
X210874996Y-110200482D01*
X210893814Y-109997399D01*
X210874996Y-109794316D01*
X210819181Y-109598149D01*
X210781244Y-109521961D01*
X210768983Y-109453179D01*
X210792978Y-109392383D01*
X210832395Y-109339730D01*
X210838638Y-109322993D01*
X210882690Y-109204881D01*
X210883441Y-109197894D01*
X210889099Y-109145272D01*
X210889098Y-107849527D01*
X210882690Y-107789916D01*
X210877294Y-107775449D01*
X210832396Y-107655070D01*
X210832392Y-107655063D01*
X210746146Y-107539854D01*
X210746143Y-107539851D01*
X210630934Y-107453605D01*
X210630931Y-107453604D01*
X210630930Y-107453603D01*
X210619760Y-107449437D01*
X210563830Y-107407565D01*
X210539415Y-107342100D01*
X210539099Y-107333257D01*
X210539099Y-100494678D01*
X210510258Y-100349691D01*
X210510257Y-100349690D01*
X210510257Y-100349686D01*
X210494400Y-100311403D01*
X210453686Y-100213110D01*
X210453679Y-100213097D01*
X210371551Y-100090184D01*
X210346163Y-100064796D01*
X210267015Y-99985648D01*
X209450297Y-99168930D01*
X206973421Y-96692052D01*
X206973414Y-96692046D01*
X206899729Y-96642812D01*
X206899729Y-96642813D01*
X206850491Y-96609913D01*
X206713917Y-96553343D01*
X206713907Y-96553340D01*
X206568920Y-96524500D01*
X206568918Y-96524500D01*
X204576140Y-96524500D01*
X204509101Y-96504815D01*
X204463346Y-96452011D01*
X204453402Y-96382853D01*
X204482427Y-96319297D01*
X204488459Y-96312819D01*
X204541016Y-96260262D01*
X204636989Y-96107522D01*
X204696568Y-95937255D01*
X204716765Y-95758000D01*
X204696568Y-95578745D01*
X204636989Y-95408478D01*
X204541016Y-95255738D01*
X204413462Y-95128184D01*
X204409689Y-95125813D01*
X204260723Y-95032211D01*
X204090454Y-94972631D01*
X204090449Y-94972630D01*
X203911204Y-94952435D01*
X203911196Y-94952435D01*
X203731950Y-94972630D01*
X203731945Y-94972631D01*
X203652183Y-95000542D01*
X203611228Y-95007500D01*
X196725280Y-95007500D01*
X196580292Y-95036340D01*
X196580286Y-95036342D01*
X196443708Y-95092914D01*
X196443696Y-95092921D01*
X196394469Y-95125813D01*
X196320788Y-95175044D01*
X196320780Y-95175050D01*
X194543451Y-96952381D01*
X194482128Y-96985866D01*
X194455770Y-96988700D01*
X187904372Y-96988700D01*
X187863417Y-96981742D01*
X187783654Y-96953831D01*
X187783649Y-96953830D01*
X187604404Y-96933635D01*
X187604396Y-96933635D01*
X187425150Y-96953830D01*
X187425145Y-96953831D01*
X187254876Y-97013411D01*
X187102137Y-97109384D01*
X186974584Y-97236937D01*
X186878611Y-97389676D01*
X186819031Y-97559945D01*
X186819030Y-97559950D01*
X186798835Y-97739196D01*
X186798835Y-97739203D01*
X154225500Y-97739203D01*
X154225500Y-95070808D01*
X154245185Y-95003769D01*
X154261819Y-94983127D01*
X156933127Y-92311819D01*
X156994450Y-92278334D01*
X157020808Y-92275500D01*
X157619932Y-92275500D01*
X157685904Y-92294506D01*
X157775477Y-92350789D01*
X157775481Y-92350790D01*
X157945737Y-92410366D01*
X157945743Y-92410367D01*
X157945745Y-92410368D01*
X157945746Y-92410368D01*
X157945750Y-92410369D01*
X158124996Y-92430565D01*
X158125000Y-92430565D01*
X158125004Y-92430565D01*
X158304249Y-92410369D01*
X158304252Y-92410368D01*
X158304255Y-92410368D01*
X158474522Y-92350789D01*
X158627262Y-92254816D01*
X158754816Y-92127262D01*
X158834778Y-92000003D01*
X196994435Y-92000003D01*
X197014630Y-92179249D01*
X197014631Y-92179254D01*
X197074211Y-92349523D01*
X197170184Y-92502262D01*
X197297738Y-92629816D01*
X197450478Y-92725789D01*
X197620745Y-92785368D01*
X197620750Y-92785369D01*
X197799996Y-92805565D01*
X197800000Y-92805565D01*
X197800004Y-92805565D01*
X197979249Y-92785369D01*
X197979252Y-92785368D01*
X197979255Y-92785368D01*
X198059017Y-92757457D01*
X198099972Y-92750500D01*
X208037770Y-92750500D01*
X208104809Y-92770185D01*
X208125451Y-92786819D01*
X209013181Y-93674549D01*
X209046666Y-93735872D01*
X209049500Y-93762230D01*
X209049500Y-97000028D01*
X209042542Y-97040982D01*
X209014631Y-97120747D01*
X208994435Y-97299996D01*
X208994435Y-97300003D01*
X209014630Y-97479249D01*
X209014631Y-97479254D01*
X209074211Y-97649523D01*
X209099710Y-97690104D01*
X209170184Y-97802262D01*
X209297738Y-97929816D01*
X209450478Y-98025789D01*
X209580918Y-98071432D01*
X209620745Y-98085368D01*
X209620750Y-98085369D01*
X209799996Y-98105565D01*
X209800000Y-98105565D01*
X209800004Y-98105565D01*
X209979249Y-98085369D01*
X209979252Y-98085368D01*
X209979255Y-98085368D01*
X210149522Y-98025789D01*
X210302262Y-97929816D01*
X210429816Y-97802262D01*
X210525789Y-97649522D01*
X210585368Y-97479255D01*
X210585369Y-97479249D01*
X210605565Y-97300003D01*
X210605565Y-97299996D01*
X210585368Y-97120747D01*
X210585368Y-97120745D01*
X210557458Y-97040982D01*
X210550500Y-97000028D01*
X210550500Y-93326079D01*
X210521659Y-93181092D01*
X210521658Y-93181091D01*
X210521658Y-93181087D01*
X210465084Y-93044505D01*
X210432186Y-92995270D01*
X210432185Y-92995268D01*
X210382956Y-92921589D01*
X210382952Y-92921584D01*
X208878421Y-91417052D01*
X208878414Y-91417046D01*
X208804729Y-91367812D01*
X208804729Y-91367813D01*
X208755491Y-91334913D01*
X208618917Y-91278343D01*
X208618907Y-91278340D01*
X208473920Y-91249500D01*
X208473918Y-91249500D01*
X198099972Y-91249500D01*
X198059017Y-91242542D01*
X197979254Y-91214631D01*
X197979249Y-91214630D01*
X197800004Y-91194435D01*
X197799996Y-91194435D01*
X197620750Y-91214630D01*
X197620745Y-91214631D01*
X197450476Y-91274211D01*
X197297737Y-91370184D01*
X197170184Y-91497737D01*
X197074211Y-91650476D01*
X197014631Y-91820745D01*
X197014630Y-91820750D01*
X196994435Y-91999996D01*
X196994435Y-92000003D01*
X158834778Y-92000003D01*
X158850789Y-91974522D01*
X158910368Y-91804255D01*
X158910369Y-91804249D01*
X158930565Y-91625003D01*
X158930565Y-91624996D01*
X158910369Y-91445750D01*
X158910368Y-91445745D01*
X158871586Y-91334913D01*
X158850789Y-91275478D01*
X158754816Y-91122738D01*
X158627262Y-90995184D01*
X158564096Y-90955494D01*
X158474523Y-90899211D01*
X158304254Y-90839631D01*
X158304249Y-90839630D01*
X158125004Y-90819435D01*
X158124996Y-90819435D01*
X157945750Y-90839630D01*
X157945737Y-90839633D01*
X157775481Y-90899209D01*
X157775477Y-90899210D01*
X157685904Y-90955494D01*
X157619932Y-90974500D01*
X156635929Y-90974500D01*
X156510261Y-90999497D01*
X156510255Y-90999499D01*
X156391870Y-91048535D01*
X156285331Y-91119722D01*
X156285324Y-91119728D01*
X153069726Y-94335326D01*
X153017658Y-94413254D01*
X153017656Y-94413256D01*
X152998539Y-94441865D01*
X152998533Y-94441875D01*
X152949499Y-94560255D01*
X152949497Y-94560261D01*
X152924500Y-94685928D01*
X152924500Y-94685931D01*
X152924500Y-110557069D01*
X143811615Y-110557069D01*
X139116819Y-105862273D01*
X139083334Y-105800950D01*
X139080500Y-105774592D01*
X139080500Y-98679000D01*
X149771287Y-98679000D01*
X149790096Y-98881989D01*
X149790097Y-98881991D01*
X149845884Y-99078063D01*
X149845890Y-99078078D01*
X149883688Y-99153985D01*
X149895949Y-99222770D01*
X149871955Y-99283568D01*
X149832204Y-99336668D01*
X149832202Y-99336671D01*
X149781908Y-99471517D01*
X149775782Y-99528504D01*
X149775501Y-99531123D01*
X149775500Y-99531135D01*
X149775500Y-100826870D01*
X149775501Y-100826876D01*
X149781908Y-100886483D01*
X149832202Y-101021328D01*
X149832206Y-101021335D01*
X149918452Y-101136544D01*
X149918455Y-101136547D01*
X150033664Y-101222793D01*
X150033671Y-101222797D01*
X150168517Y-101273091D01*
X150168516Y-101273091D01*
X150175444Y-101273835D01*
X150228127Y-101279500D01*
X151523872Y-101279499D01*
X151583483Y-101273091D01*
X151718331Y-101222796D01*
X151833546Y-101136546D01*
X151919796Y-101021331D01*
X151970091Y-100886483D01*
X151976500Y-100826873D01*
X151976499Y-99531128D01*
X151970091Y-99471517D01*
X151931275Y-99367447D01*
X151919797Y-99336671D01*
X151919795Y-99336668D01*
X151880044Y-99283567D01*
X151855627Y-99218103D01*
X151868311Y-99153983D01*
X151906114Y-99078064D01*
X151906115Y-99078063D01*
X151961902Y-98881991D01*
X151961903Y-98881989D01*
X151980713Y-98679000D01*
X151980713Y-98678999D01*
X151961903Y-98476010D01*
X151961902Y-98476007D01*
X151906116Y-98279936D01*
X151906113Y-98279930D01*
X151815249Y-98097449D01*
X151815247Y-98097447D01*
X151813465Y-98095087D01*
X151170855Y-98737696D01*
X151176000Y-98718496D01*
X151176000Y-98639504D01*
X151155556Y-98563204D01*
X151116060Y-98494795D01*
X151060205Y-98438940D01*
X150991796Y-98399444D01*
X150915496Y-98379000D01*
X150836504Y-98379000D01*
X150760204Y-98399444D01*
X150691795Y-98438940D01*
X150635940Y-98494795D01*
X150596444Y-98563204D01*
X150576000Y-98639504D01*
X150576000Y-98718496D01*
X150581145Y-98737699D01*
X149938533Y-98095087D01*
X149936755Y-98097442D01*
X149936754Y-98097443D01*
X149845886Y-98279930D01*
X149845883Y-98279936D01*
X149790097Y-98476007D01*
X149790096Y-98476010D01*
X149771287Y-98678999D01*
X149771287Y-98679000D01*
X139080500Y-98679000D01*
X139080500Y-97744758D01*
X150295311Y-97744758D01*
X150876000Y-98325446D01*
X150876001Y-98325446D01*
X151456687Y-97744758D01*
X151368413Y-97690101D01*
X151368411Y-97690100D01*
X151178321Y-97616460D01*
X150977928Y-97579000D01*
X150774072Y-97579000D01*
X150573678Y-97616460D01*
X150383588Y-97690100D01*
X150383581Y-97690104D01*
X150295312Y-97744757D01*
X150295311Y-97744758D01*
X139080500Y-97744758D01*
X139080500Y-94739067D01*
X139099507Y-94673094D01*
X139155788Y-94583524D01*
X139205357Y-94441865D01*
X139215368Y-94413255D01*
X139224148Y-94335331D01*
X139235565Y-94234003D01*
X139235565Y-94233996D01*
X139215369Y-94054750D01*
X139215368Y-94054745D01*
X139155788Y-93884476D01*
X139078975Y-93762230D01*
X139059816Y-93731738D01*
X138932262Y-93604184D01*
X138779523Y-93508211D01*
X138609254Y-93448631D01*
X138609249Y-93448630D01*
X138430004Y-93428435D01*
X138429996Y-93428435D01*
X138250750Y-93448630D01*
X138250745Y-93448631D01*
X138080476Y-93508211D01*
X137927737Y-93604184D01*
X137800184Y-93731737D01*
X137704211Y-93884476D01*
X137644631Y-94054745D01*
X137644630Y-94054750D01*
X137624435Y-94233996D01*
X137624435Y-94234003D01*
X124325500Y-94234003D01*
X124325500Y-79578600D01*
X127721900Y-79578600D01*
X128538888Y-79578600D01*
X128505975Y-79635607D01*
X128471900Y-79762774D01*
X128471900Y-79894426D01*
X128505975Y-80021593D01*
X128538888Y-80078600D01*
X127721901Y-80078600D01*
X127721901Y-80797188D01*
X127724694Y-80849791D01*
X127769137Y-81079587D01*
X127851779Y-81298575D01*
X127970239Y-81500441D01*
X127970244Y-81500448D01*
X128121111Y-81679386D01*
X128121113Y-81679388D01*
X128300051Y-81830255D01*
X128300058Y-81830260D01*
X128501924Y-81948720D01*
X128720912Y-82031362D01*
X128950709Y-82075805D01*
X129003282Y-82078598D01*
X129003321Y-82078599D01*
X129721899Y-82078599D01*
X129721900Y-82078598D01*
X129721900Y-80328600D01*
X130221900Y-80328600D01*
X130221900Y-82078599D01*
X130940476Y-82078599D01*
X130940488Y-82078598D01*
X130993091Y-82075805D01*
X131222887Y-82031362D01*
X131441875Y-81948720D01*
X131643741Y-81830260D01*
X131643748Y-81830255D01*
X131822686Y-81679388D01*
X131822688Y-81679386D01*
X131973555Y-81500448D01*
X131973560Y-81500441D01*
X132092020Y-81298575D01*
X132174662Y-81079587D01*
X132219105Y-80849791D01*
X132219105Y-80849790D01*
X132221898Y-80797217D01*
X132221900Y-80797178D01*
X132221900Y-80657870D01*
X147401901Y-80657870D01*
X147401902Y-80657876D01*
X147408309Y-80717483D01*
X147458603Y-80852328D01*
X147458607Y-80852335D01*
X147544853Y-80967544D01*
X147544856Y-80967547D01*
X147660065Y-81053793D01*
X147660072Y-81053797D01*
X147794918Y-81104091D01*
X147794917Y-81104091D01*
X147801845Y-81104835D01*
X147854528Y-81110500D01*
X149150273Y-81110499D01*
X149209884Y-81104091D01*
X149275583Y-81079587D01*
X149344730Y-81053797D01*
X149344730Y-81053796D01*
X149344732Y-81053796D01*
X149394394Y-81016618D01*
X149459855Y-80992201D01*
X149513498Y-81000258D01*
X149700079Y-81072539D01*
X149900473Y-81110000D01*
X150104329Y-81110000D01*
X150304723Y-81072539D01*
X150494813Y-80998899D01*
X150494817Y-80998897D01*
X150583087Y-80944241D01*
X150583087Y-80944240D01*
X149943701Y-80304854D01*
X149962905Y-80310000D01*
X150041897Y-80310000D01*
X150118197Y-80289556D01*
X150186606Y-80250060D01*
X150242461Y-80194205D01*
X150281957Y-80125796D01*
X150302401Y-80049496D01*
X150302401Y-80010000D01*
X150355954Y-80010000D01*
X150939866Y-80593912D01*
X150941648Y-80591553D01*
X150941649Y-80591551D01*
X151032514Y-80409069D01*
X151032517Y-80409063D01*
X151088303Y-80212992D01*
X151088304Y-80212989D01*
X151107114Y-80010000D01*
X151107114Y-80009999D01*
X151088304Y-79807010D01*
X151088303Y-79807007D01*
X151032517Y-79610936D01*
X151032514Y-79610930D01*
X150941650Y-79428449D01*
X150941648Y-79428447D01*
X150939866Y-79426087D01*
X150355954Y-80010000D01*
X150302401Y-80010000D01*
X150302401Y-79970504D01*
X150281957Y-79894204D01*
X150242461Y-79825795D01*
X150186606Y-79769940D01*
X150118197Y-79730444D01*
X150041897Y-79710000D01*
X149962905Y-79710000D01*
X149943702Y-79715145D01*
X150002401Y-79656447D01*
X150583088Y-79075758D01*
X150494814Y-79021101D01*
X150494812Y-79021100D01*
X150304722Y-78947460D01*
X150104329Y-78910000D01*
X149900473Y-78910000D01*
X149700078Y-78947460D01*
X149513499Y-79019741D01*
X149443875Y-79025603D01*
X149394394Y-79003381D01*
X149344732Y-78966204D01*
X149344730Y-78966203D01*
X149344729Y-78966202D01*
X149209883Y-78915908D01*
X149209884Y-78915908D01*
X149150284Y-78909501D01*
X149150282Y-78909500D01*
X149150274Y-78909500D01*
X149150265Y-78909500D01*
X147854530Y-78909500D01*
X147854524Y-78909501D01*
X147794917Y-78915908D01*
X147660072Y-78966202D01*
X147660065Y-78966206D01*
X147544856Y-79052452D01*
X147544853Y-79052455D01*
X147458607Y-79167664D01*
X147458603Y-79167671D01*
X147408309Y-79302517D01*
X147401902Y-79362116D01*
X147401901Y-79362135D01*
X147401901Y-80657870D01*
X132221900Y-80657870D01*
X132221900Y-80078600D01*
X131404912Y-80078600D01*
X131437825Y-80021593D01*
X131471900Y-79894426D01*
X131471900Y-79762774D01*
X131437825Y-79635607D01*
X131404912Y-79578600D01*
X132221899Y-79578600D01*
X132221899Y-78860023D01*
X132221898Y-78860011D01*
X132219105Y-78807408D01*
X132217092Y-78797001D01*
X192706891Y-78797001D01*
X192727300Y-79082362D01*
X192788109Y-79361895D01*
X192888091Y-79629958D01*
X193025191Y-79881038D01*
X193025196Y-79881046D01*
X193131882Y-80023561D01*
X193131883Y-80023562D01*
X194034421Y-79121024D01*
X194047359Y-79152258D01*
X194129437Y-79275097D01*
X194233903Y-79379563D01*
X194356742Y-79461641D01*
X194387974Y-79474578D01*
X193485436Y-80377115D01*
X193627960Y-80483807D01*
X193627961Y-80483808D01*
X193879042Y-80620908D01*
X193879041Y-80620908D01*
X194147104Y-80720890D01*
X194426637Y-80781699D01*
X194711999Y-80802109D01*
X194712001Y-80802109D01*
X194997362Y-80781699D01*
X195276895Y-80720890D01*
X195544958Y-80620908D01*
X195796047Y-80483803D01*
X195938561Y-80377116D01*
X195938562Y-80377115D01*
X195036025Y-79474577D01*
X195067258Y-79461641D01*
X195190097Y-79379563D01*
X195294563Y-79275097D01*
X195376641Y-79152258D01*
X195389578Y-79121025D01*
X196292115Y-80023562D01*
X196292116Y-80023561D01*
X196398803Y-79881047D01*
X196535908Y-79629958D01*
X196635890Y-79361895D01*
X196696699Y-79082362D01*
X196710070Y-78895422D01*
X202961500Y-78895422D01*
X202992290Y-79089826D01*
X203053117Y-79277029D01*
X203138700Y-79444995D01*
X203142476Y-79452405D01*
X203258172Y-79611646D01*
X203397354Y-79750828D01*
X203556595Y-79866524D01*
X203611356Y-79894426D01*
X203731970Y-79955882D01*
X203731972Y-79955882D01*
X203731975Y-79955884D01*
X203832317Y-79988487D01*
X203919173Y-80016709D01*
X204113578Y-80047500D01*
X204113583Y-80047500D01*
X204310422Y-80047500D01*
X204504826Y-80016709D01*
X204525477Y-80009999D01*
X204692025Y-79955884D01*
X204867405Y-79866524D01*
X205026646Y-79750828D01*
X205165828Y-79611646D01*
X205281524Y-79452405D01*
X205291902Y-79432034D01*
X205339876Y-79381239D01*
X205407697Y-79364443D01*
X205473832Y-79386979D01*
X205517284Y-79441694D01*
X205518557Y-79444962D01*
X205580727Y-79611646D01*
X205587635Y-79630166D01*
X205724770Y-79881309D01*
X205724775Y-79881317D01*
X205896254Y-80110387D01*
X205896270Y-80110405D01*
X206098594Y-80312729D01*
X206098612Y-80312745D01*
X206327682Y-80484224D01*
X206327690Y-80484229D01*
X206578833Y-80621364D01*
X206578832Y-80621364D01*
X206578836Y-80621365D01*
X206578839Y-80621367D01*
X206846954Y-80721369D01*
X206846960Y-80721370D01*
X206846962Y-80721371D01*
X207126566Y-80782195D01*
X207126568Y-80782195D01*
X207126572Y-80782196D01*
X207380220Y-80800337D01*
X207411999Y-80802610D01*
X207412000Y-80802610D01*
X207412001Y-80802610D01*
X207440595Y-80800564D01*
X207697428Y-80782196D01*
X207977046Y-80721369D01*
X208245161Y-80621367D01*
X208496315Y-80484226D01*
X208725395Y-80312739D01*
X208927739Y-80110395D01*
X209099226Y-79881315D01*
X209236367Y-79630161D01*
X209336369Y-79362046D01*
X209378654Y-79167664D01*
X209397195Y-79082433D01*
X209397195Y-79082432D01*
X209397196Y-79082428D01*
X209417610Y-78797000D01*
X209397196Y-78511572D01*
X209395586Y-78504173D01*
X209336371Y-78231962D01*
X209336370Y-78231960D01*
X209336369Y-78231954D01*
X209236367Y-77963839D01*
X209161616Y-77826944D01*
X209099229Y-77712690D01*
X209099224Y-77712682D01*
X208927745Y-77483612D01*
X208927729Y-77483594D01*
X208725405Y-77281270D01*
X208725387Y-77281254D01*
X208496317Y-77109775D01*
X208496309Y-77109770D01*
X208245166Y-76972635D01*
X208245167Y-76972635D01*
X208121410Y-76926476D01*
X207977046Y-76872631D01*
X207977043Y-76872630D01*
X207977037Y-76872628D01*
X207697433Y-76811804D01*
X207412001Y-76791390D01*
X207411999Y-76791390D01*
X207126566Y-76811804D01*
X206846962Y-76872628D01*
X206578833Y-76972635D01*
X206327690Y-77109770D01*
X206327682Y-77109775D01*
X206098612Y-77281254D01*
X206098594Y-77281270D01*
X205896270Y-77483594D01*
X205896254Y-77483612D01*
X205724775Y-77712682D01*
X205724770Y-77712690D01*
X205587635Y-77963833D01*
X205518570Y-78149004D01*
X205476698Y-78204937D01*
X205411234Y-78229354D01*
X205342961Y-78214502D01*
X205293556Y-78165097D01*
X205291903Y-78161965D01*
X205281523Y-78141594D01*
X205165828Y-77982354D01*
X205026646Y-77843172D01*
X204867405Y-77727476D01*
X204830121Y-77708479D01*
X204692029Y-77638117D01*
X204504826Y-77577290D01*
X204310422Y-77546500D01*
X204310417Y-77546500D01*
X204113583Y-77546500D01*
X204113578Y-77546500D01*
X203919173Y-77577290D01*
X203731970Y-77638117D01*
X203556594Y-77727476D01*
X203465741Y-77793485D01*
X203397354Y-77843172D01*
X203397352Y-77843174D01*
X203397351Y-77843174D01*
X203258174Y-77982351D01*
X203258174Y-77982352D01*
X203258172Y-77982354D01*
X203211204Y-78047000D01*
X203142476Y-78141594D01*
X203053117Y-78316970D01*
X202992290Y-78504173D01*
X202961500Y-78698577D01*
X202961500Y-78895422D01*
X196710070Y-78895422D01*
X196717109Y-78797001D01*
X196717109Y-78796998D01*
X196696699Y-78511637D01*
X196635890Y-78232104D01*
X196535908Y-77964041D01*
X196398808Y-77712961D01*
X196398807Y-77712960D01*
X196292115Y-77570436D01*
X195389577Y-78472973D01*
X195376641Y-78441742D01*
X195294563Y-78318903D01*
X195190097Y-78214437D01*
X195067258Y-78132359D01*
X195036024Y-78119421D01*
X195938562Y-77216883D01*
X195938561Y-77216882D01*
X195796046Y-77110196D01*
X195796038Y-77110191D01*
X195544957Y-76973091D01*
X195544958Y-76973091D01*
X195276895Y-76873109D01*
X194997362Y-76812300D01*
X194712001Y-76791891D01*
X194711999Y-76791891D01*
X194426637Y-76812300D01*
X194147104Y-76873109D01*
X193879041Y-76973091D01*
X193627961Y-77110191D01*
X193627953Y-77110196D01*
X193485437Y-77216882D01*
X193485436Y-77216883D01*
X194387975Y-78119421D01*
X194356742Y-78132359D01*
X194233903Y-78214437D01*
X194129437Y-78318903D01*
X194047359Y-78441742D01*
X194034421Y-78472974D01*
X193131883Y-77570436D01*
X193131882Y-77570437D01*
X193025196Y-77712953D01*
X193025191Y-77712961D01*
X192888091Y-77964041D01*
X192788109Y-78232104D01*
X192727300Y-78511637D01*
X192706891Y-78796998D01*
X192706891Y-78797001D01*
X132217092Y-78797001D01*
X132174662Y-78577612D01*
X132092020Y-78358624D01*
X131973560Y-78156758D01*
X131973555Y-78156751D01*
X131822688Y-77977813D01*
X131822686Y-77977811D01*
X131643748Y-77826944D01*
X131643741Y-77826939D01*
X131441875Y-77708479D01*
X131222884Y-77625836D01*
X131217740Y-77624841D01*
X131155660Y-77592780D01*
X131120769Y-77532246D01*
X131124144Y-77462458D01*
X131164714Y-77405573D01*
X131229597Y-77379652D01*
X131241274Y-77379099D01*
X134769772Y-77379099D01*
X134829383Y-77372691D01*
X134964231Y-77322396D01*
X135079446Y-77236146D01*
X135165696Y-77120931D01*
X135215991Y-76986083D01*
X135222400Y-76926473D01*
X135222399Y-73330728D01*
X135215991Y-73271117D01*
X135176471Y-73165159D01*
X135165697Y-73136271D01*
X135165693Y-73136264D01*
X135079447Y-73021055D01*
X135079444Y-73021052D01*
X134964235Y-72934806D01*
X134964228Y-72934802D01*
X134829382Y-72884508D01*
X134829383Y-72884508D01*
X134769783Y-72878101D01*
X134769781Y-72878100D01*
X134769773Y-72878100D01*
X134769764Y-72878100D01*
X131174029Y-72878100D01*
X131174023Y-72878101D01*
X131114416Y-72884508D01*
X130979571Y-72934802D01*
X130979564Y-72934806D01*
X130864355Y-73021052D01*
X130864352Y-73021055D01*
X130778106Y-73136264D01*
X130778102Y-73136271D01*
X130727808Y-73271117D01*
X130721401Y-73330716D01*
X130721401Y-73330723D01*
X130721400Y-73330735D01*
X130721400Y-76926470D01*
X130721401Y-76926476D01*
X130727808Y-76986083D01*
X130778102Y-77120928D01*
X130778106Y-77120935D01*
X130864352Y-77236144D01*
X130864355Y-77236147D01*
X130979564Y-77322393D01*
X130979573Y-77322398D01*
X131028406Y-77340611D01*
X131084340Y-77382481D01*
X131108758Y-77447945D01*
X131093907Y-77516218D01*
X131044503Y-77565624D01*
X130978498Y-77580618D01*
X130940525Y-77578601D01*
X130940479Y-77578600D01*
X130221900Y-77578600D01*
X130221900Y-79328600D01*
X129721900Y-79328600D01*
X129721900Y-77578600D01*
X129003323Y-77578600D01*
X129003311Y-77578601D01*
X128950708Y-77581394D01*
X128720912Y-77625837D01*
X128501924Y-77708479D01*
X128300058Y-77826939D01*
X128300051Y-77826944D01*
X128121113Y-77977811D01*
X128121111Y-77977813D01*
X127970244Y-78156751D01*
X127970239Y-78156758D01*
X127851779Y-78358624D01*
X127769137Y-78577612D01*
X127724694Y-78807408D01*
X127724694Y-78807409D01*
X127721901Y-78859982D01*
X127721900Y-78860021D01*
X127721900Y-79578600D01*
X124325500Y-79578600D01*
X124325500Y-74878600D01*
X124971900Y-74878600D01*
X126471900Y-74878600D01*
X126471900Y-75378600D01*
X124971901Y-75378600D01*
X124971901Y-76192797D01*
X124982300Y-76324932D01*
X125037277Y-76543119D01*
X125130328Y-76747974D01*
X125130331Y-76747980D01*
X125258459Y-76932923D01*
X125258469Y-76932935D01*
X125417564Y-77092030D01*
X125417576Y-77092040D01*
X125602519Y-77220168D01*
X125602525Y-77220171D01*
X125807380Y-77313222D01*
X126025567Y-77368199D01*
X126157710Y-77378599D01*
X126721899Y-77378599D01*
X126721900Y-77378598D01*
X126721900Y-76561612D01*
X126778907Y-76594525D01*
X126906074Y-76628600D01*
X127037726Y-76628600D01*
X127164893Y-76594525D01*
X127221900Y-76561612D01*
X127221900Y-77378599D01*
X127786082Y-77378599D01*
X127786097Y-77378598D01*
X127918232Y-77368199D01*
X128136419Y-77313222D01*
X128341274Y-77220171D01*
X128341280Y-77220168D01*
X128526223Y-77092040D01*
X128526235Y-77092030D01*
X128685330Y-76932935D01*
X128685340Y-76932923D01*
X128813468Y-76747980D01*
X128813471Y-76747974D01*
X128906522Y-76543119D01*
X128961499Y-76324932D01*
X128971899Y-76192796D01*
X128971900Y-76192784D01*
X128971900Y-75378600D01*
X127471900Y-75378600D01*
X127471900Y-74878600D01*
X128971899Y-74878600D01*
X128971899Y-74064417D01*
X128971898Y-74064402D01*
X128961499Y-73932267D01*
X128906522Y-73714080D01*
X128813471Y-73509225D01*
X128813468Y-73509219D01*
X128685340Y-73324276D01*
X128685330Y-73324264D01*
X128526235Y-73165169D01*
X128526223Y-73165159D01*
X128341280Y-73037031D01*
X128341274Y-73037028D01*
X128136419Y-72943977D01*
X127918232Y-72889000D01*
X127786096Y-72878600D01*
X127221900Y-72878600D01*
X127221900Y-73695588D01*
X127164893Y-73662675D01*
X127037726Y-73628600D01*
X126906074Y-73628600D01*
X126778907Y-73662675D01*
X126721900Y-73695588D01*
X126721900Y-72878600D01*
X126157717Y-72878600D01*
X126157702Y-72878601D01*
X126025567Y-72889000D01*
X125807380Y-72943977D01*
X125602525Y-73037028D01*
X125602519Y-73037031D01*
X125417576Y-73165159D01*
X125417564Y-73165169D01*
X125258469Y-73324264D01*
X125258459Y-73324276D01*
X125130331Y-73509219D01*
X125130328Y-73509225D01*
X125037277Y-73714080D01*
X124982300Y-73932267D01*
X124971900Y-74064403D01*
X124971900Y-74878600D01*
X124325500Y-74878600D01*
X124325500Y-72498840D01*
X141434111Y-72498840D01*
X141522385Y-72553497D01*
X141712478Y-72627139D01*
X141912872Y-72664600D01*
X142116728Y-72664600D01*
X142317122Y-72627139D01*
X142507212Y-72553499D01*
X142507216Y-72553497D01*
X142595486Y-72498841D01*
X142595486Y-72498840D01*
X142014801Y-71918153D01*
X142014800Y-71918153D01*
X141434111Y-72498840D01*
X124325500Y-72498840D01*
X124325500Y-71564600D01*
X140910087Y-71564600D01*
X140928896Y-71767589D01*
X140928897Y-71767592D01*
X140984683Y-71963663D01*
X140984686Y-71963669D01*
X141075551Y-72146151D01*
X141077333Y-72148511D01*
X141719945Y-71505898D01*
X141714800Y-71525104D01*
X141714800Y-71604096D01*
X141735244Y-71680396D01*
X141774740Y-71748805D01*
X141830595Y-71804660D01*
X141899004Y-71844156D01*
X141975304Y-71864600D01*
X142054296Y-71864600D01*
X142130596Y-71844156D01*
X142199005Y-71804660D01*
X142254860Y-71748805D01*
X142294356Y-71680396D01*
X142314800Y-71604096D01*
X142314800Y-71525104D01*
X142309654Y-71505901D01*
X142952265Y-72148512D01*
X142954047Y-72146153D01*
X142954048Y-72146151D01*
X143044913Y-71963669D01*
X143044916Y-71963663D01*
X143100702Y-71767592D01*
X143100703Y-71767589D01*
X143119513Y-71564600D01*
X143119513Y-71564599D01*
X143100703Y-71361610D01*
X143100702Y-71361608D01*
X143044915Y-71165536D01*
X143044910Y-71165525D01*
X143007111Y-71089613D01*
X142994850Y-71020828D01*
X143018845Y-70960031D01*
X143058596Y-70906931D01*
X143108891Y-70772083D01*
X143115300Y-70712473D01*
X143115299Y-69416728D01*
X143108891Y-69357117D01*
X143107055Y-69352195D01*
X143058597Y-69222271D01*
X143058593Y-69222264D01*
X142972347Y-69107055D01*
X142972344Y-69107052D01*
X142857135Y-69020806D01*
X142857128Y-69020802D01*
X142722282Y-68970508D01*
X142722283Y-68970508D01*
X142662683Y-68964101D01*
X142662681Y-68964100D01*
X142662673Y-68964100D01*
X142662664Y-68964100D01*
X141366929Y-68964100D01*
X141366923Y-68964101D01*
X141307316Y-68970508D01*
X141172471Y-69020802D01*
X141172464Y-69020806D01*
X141057255Y-69107052D01*
X141057252Y-69107055D01*
X140971006Y-69222264D01*
X140971002Y-69222271D01*
X140920708Y-69357117D01*
X140918004Y-69382272D01*
X140914301Y-69416723D01*
X140914300Y-69416735D01*
X140914300Y-70712470D01*
X140914301Y-70712476D01*
X140920708Y-70772083D01*
X140971002Y-70906928D01*
X140971006Y-70906935D01*
X141010754Y-70960031D01*
X141035172Y-71025495D01*
X141022488Y-71089613D01*
X140984688Y-71165525D01*
X140984683Y-71165536D01*
X140928897Y-71361607D01*
X140928896Y-71361610D01*
X140910087Y-71564599D01*
X140910087Y-71564600D01*
X124325500Y-71564600D01*
X124325500Y-67367001D01*
X192706891Y-67367001D01*
X192727300Y-67652362D01*
X192788109Y-67931895D01*
X192888091Y-68199958D01*
X193025191Y-68451038D01*
X193025196Y-68451046D01*
X193131882Y-68593561D01*
X193131883Y-68593562D01*
X194034421Y-67691024D01*
X194047359Y-67722258D01*
X194129437Y-67845097D01*
X194233903Y-67949563D01*
X194356742Y-68031641D01*
X194387974Y-68044578D01*
X193485436Y-68947115D01*
X193627960Y-69053807D01*
X193627961Y-69053808D01*
X193879042Y-69190908D01*
X193879041Y-69190908D01*
X194147104Y-69290890D01*
X194426637Y-69351699D01*
X194711999Y-69372109D01*
X194712001Y-69372109D01*
X194997362Y-69351699D01*
X195276895Y-69290890D01*
X195544958Y-69190908D01*
X195796038Y-69053808D01*
X195796039Y-69053807D01*
X195975144Y-68919731D01*
X196040609Y-68895314D01*
X196108882Y-68910166D01*
X196158287Y-68959571D01*
X196173139Y-69027844D01*
X196169230Y-69051090D01*
X196168390Y-69054226D01*
X196141452Y-69154762D01*
X196141451Y-69154770D01*
X196111500Y-69382258D01*
X196111500Y-69611741D01*
X196136446Y-69801215D01*
X196141452Y-69839238D01*
X196141453Y-69839240D01*
X196200842Y-70060887D01*
X196288650Y-70272876D01*
X196288657Y-70272890D01*
X196403392Y-70471617D01*
X196543081Y-70653661D01*
X196543089Y-70653670D01*
X196705330Y-70815911D01*
X196705338Y-70815918D01*
X196887382Y-70955607D01*
X196887385Y-70955608D01*
X196887388Y-70955611D01*
X197086112Y-71070344D01*
X197086117Y-71070346D01*
X197086123Y-71070349D01*
X197132631Y-71089613D01*
X197298113Y-71158158D01*
X197519762Y-71217548D01*
X197747266Y-71247500D01*
X197747273Y-71247500D01*
X197976727Y-71247500D01*
X197976734Y-71247500D01*
X198204238Y-71217548D01*
X198425887Y-71158158D01*
X198637888Y-71070344D01*
X198836612Y-70955611D01*
X199018661Y-70815919D01*
X199018665Y-70815914D01*
X199018670Y-70815911D01*
X199180911Y-70653670D01*
X199180914Y-70653665D01*
X199180919Y-70653661D01*
X199320611Y-70471612D01*
X199435344Y-70272888D01*
X199523158Y-70060887D01*
X199582548Y-69839238D01*
X199612500Y-69611734D01*
X199612500Y-69382266D01*
X199582548Y-69154762D01*
X199523158Y-68933113D01*
X199435344Y-68721112D01*
X199320611Y-68522388D01*
X199320608Y-68522385D01*
X199320607Y-68522382D01*
X199180918Y-68340338D01*
X199180911Y-68340330D01*
X199018670Y-68178089D01*
X199018661Y-68178081D01*
X198836617Y-68038392D01*
X198637890Y-67923657D01*
X198637876Y-67923650D01*
X198425887Y-67835842D01*
X198204238Y-67776452D01*
X198166215Y-67771446D01*
X197976741Y-67746500D01*
X197976734Y-67746500D01*
X197747266Y-67746500D01*
X197747258Y-67746500D01*
X197530715Y-67775009D01*
X197519762Y-67776452D01*
X197426076Y-67801554D01*
X197298112Y-67835842D01*
X197086123Y-67923650D01*
X197086109Y-67923657D01*
X196887383Y-68038392D01*
X196821971Y-68088585D01*
X196756802Y-68113779D01*
X196688357Y-68099741D01*
X196638368Y-68050927D01*
X196622704Y-67982835D01*
X196630304Y-67946874D01*
X196635889Y-67931899D01*
X196635889Y-67931898D01*
X196696699Y-67652362D01*
X196710070Y-67465422D01*
X202961500Y-67465422D01*
X202992290Y-67659826D01*
X203053117Y-67847029D01*
X203138700Y-68014995D01*
X203142476Y-68022405D01*
X203258172Y-68181646D01*
X203397354Y-68320828D01*
X203556595Y-68436524D01*
X203639455Y-68478743D01*
X203731970Y-68525882D01*
X203731972Y-68525882D01*
X203731975Y-68525884D01*
X203832317Y-68558487D01*
X203919173Y-68586709D01*
X204113578Y-68617500D01*
X204113583Y-68617500D01*
X204310422Y-68617500D01*
X204504826Y-68586709D01*
X204692025Y-68525884D01*
X204867405Y-68436524D01*
X205026646Y-68320828D01*
X205165828Y-68181646D01*
X205281524Y-68022405D01*
X205291902Y-68002034D01*
X205339876Y-67951239D01*
X205407697Y-67934443D01*
X205473832Y-67956979D01*
X205517284Y-68011694D01*
X205518557Y-68014962D01*
X205579398Y-68178081D01*
X205587635Y-68200166D01*
X205724770Y-68451309D01*
X205724775Y-68451317D01*
X205896254Y-68680387D01*
X205896270Y-68680405D01*
X206098594Y-68882729D01*
X206098612Y-68882745D01*
X206327682Y-69054224D01*
X206327690Y-69054229D01*
X206578833Y-69191364D01*
X206578832Y-69191364D01*
X206578836Y-69191365D01*
X206578839Y-69191367D01*
X206846954Y-69291369D01*
X206846960Y-69291370D01*
X206846962Y-69291371D01*
X207126566Y-69352195D01*
X207126568Y-69352195D01*
X207126572Y-69352196D01*
X207380220Y-69370337D01*
X207411999Y-69372610D01*
X207412000Y-69372610D01*
X207412001Y-69372610D01*
X207440595Y-69370564D01*
X207697428Y-69352196D01*
X207977046Y-69291369D01*
X208245161Y-69191367D01*
X208496315Y-69054226D01*
X208725395Y-68882739D01*
X208927739Y-68680395D01*
X209099226Y-68451315D01*
X209236367Y-68200161D01*
X209336369Y-67932046D01*
X209376732Y-67746500D01*
X209397195Y-67652433D01*
X209397195Y-67652432D01*
X209397196Y-67652428D01*
X209417610Y-67367000D01*
X209397196Y-67081572D01*
X209395586Y-67074173D01*
X209336371Y-66801962D01*
X209336370Y-66801960D01*
X209336369Y-66801954D01*
X209236367Y-66533839D01*
X209153730Y-66382502D01*
X209099229Y-66282690D01*
X209099224Y-66282682D01*
X208927745Y-66053612D01*
X208927729Y-66053594D01*
X208725405Y-65851270D01*
X208725387Y-65851254D01*
X208496317Y-65679775D01*
X208496309Y-65679770D01*
X208245166Y-65542635D01*
X208245167Y-65542635D01*
X208137915Y-65502632D01*
X207977046Y-65442631D01*
X207977043Y-65442630D01*
X207977037Y-65442628D01*
X207697433Y-65381804D01*
X207412001Y-65361390D01*
X207411999Y-65361390D01*
X207126566Y-65381804D01*
X206846962Y-65442628D01*
X206578833Y-65542635D01*
X206327690Y-65679770D01*
X206327682Y-65679775D01*
X206098612Y-65851254D01*
X206098594Y-65851270D01*
X205896270Y-66053594D01*
X205896254Y-66053612D01*
X205724775Y-66282682D01*
X205724770Y-66282690D01*
X205587635Y-66533833D01*
X205518570Y-66719004D01*
X205476698Y-66774937D01*
X205411234Y-66799354D01*
X205342961Y-66784502D01*
X205293556Y-66735097D01*
X205291903Y-66731965D01*
X205281523Y-66711594D01*
X205165828Y-66552354D01*
X205026646Y-66413172D01*
X204867405Y-66297476D01*
X204838370Y-66282682D01*
X204692029Y-66208117D01*
X204504826Y-66147290D01*
X204310422Y-66116500D01*
X204310417Y-66116500D01*
X204113583Y-66116500D01*
X204113578Y-66116500D01*
X203919173Y-66147290D01*
X203731970Y-66208117D01*
X203556594Y-66297476D01*
X203465741Y-66363485D01*
X203397354Y-66413172D01*
X203397352Y-66413174D01*
X203397351Y-66413174D01*
X203258174Y-66552351D01*
X203258174Y-66552352D01*
X203258172Y-66552354D01*
X203216938Y-66609108D01*
X203142476Y-66711594D01*
X203053117Y-66886970D01*
X202992290Y-67074173D01*
X202961500Y-67268577D01*
X202961500Y-67465422D01*
X196710070Y-67465422D01*
X196717109Y-67367001D01*
X196717109Y-67366998D01*
X196696699Y-67081637D01*
X196635890Y-66802104D01*
X196535908Y-66534041D01*
X196398808Y-66282961D01*
X196398807Y-66282960D01*
X196292115Y-66140436D01*
X195389577Y-67042974D01*
X195376641Y-67011742D01*
X195294563Y-66888903D01*
X195190097Y-66784437D01*
X195067258Y-66702359D01*
X195036024Y-66689421D01*
X195938562Y-65786883D01*
X195938561Y-65786882D01*
X195796046Y-65680196D01*
X195796038Y-65680191D01*
X195544957Y-65543091D01*
X195544958Y-65543091D01*
X195276895Y-65443109D01*
X194997362Y-65382300D01*
X194712001Y-65361891D01*
X194711999Y-65361891D01*
X194426637Y-65382300D01*
X194147104Y-65443109D01*
X193879041Y-65543091D01*
X193627961Y-65680191D01*
X193627953Y-65680196D01*
X193485437Y-65786882D01*
X193485436Y-65786883D01*
X194387975Y-66689421D01*
X194356742Y-66702359D01*
X194233903Y-66784437D01*
X194129437Y-66888903D01*
X194047359Y-67011742D01*
X194034421Y-67042974D01*
X193131883Y-66140436D01*
X193131882Y-66140437D01*
X193025196Y-66282953D01*
X193025191Y-66282961D01*
X192888091Y-66534041D01*
X192788109Y-66802104D01*
X192727300Y-67081637D01*
X192706891Y-67366998D01*
X192706891Y-67367001D01*
X124325500Y-67367001D01*
X124325500Y-66678480D01*
X124325695Y-66671527D01*
X124329200Y-66609108D01*
X124341927Y-66382490D01*
X124343481Y-66368696D01*
X124391389Y-66086730D01*
X124394482Y-66073178D01*
X124473657Y-65798357D01*
X124478250Y-65785232D01*
X124587699Y-65520997D01*
X124593719Y-65508498D01*
X124732076Y-65258159D01*
X124739463Y-65246404D01*
X124904968Y-65013147D01*
X124913614Y-65002304D01*
X125104212Y-64789024D01*
X125114024Y-64779212D01*
X125327304Y-64588614D01*
X125338147Y-64579968D01*
X125571404Y-64414463D01*
X125583159Y-64407076D01*
X125833498Y-64268719D01*
X125845997Y-64262699D01*
X126110236Y-64153248D01*
X126123353Y-64148658D01*
X126398184Y-64069480D01*
X126411730Y-64066389D01*
X126693696Y-64018481D01*
X126707490Y-64016927D01*
X126996528Y-64000695D01*
X127003481Y-64000500D01*
X127065892Y-64000500D01*
X210119108Y-64000500D01*
X210181519Y-64000500D01*
X210188472Y-64000695D01*
G37*
%TD.AperFunction*%
%TD*%
M02*
