%TF.GenerationSoftware,KiCad,Pcbnew,8.0.0*%
%TF.CreationDate,2024-09-30T13:32:15+02:00*%
%TF.ProjectId,guitar-effect,67756974-6172-42d6-9566-666563742e6b,rev?*%
%TF.SameCoordinates,Original*%
%TF.FileFunction,Copper,L1,Top*%
%TF.FilePolarity,Positive*%
%FSLAX46Y46*%
G04 Gerber Fmt 4.6, Leading zero omitted, Abs format (unit mm)*
G04 Created by KiCad (PCBNEW 8.0.0) date 2024-09-30 13:32:15*
%MOMM*%
%LPD*%
G01*
G04 APERTURE LIST*
G04 Aperture macros list*
%AMRoundRect*
0 Rectangle with rounded corners*
0 $1 Rounding radius*
0 $2 $3 $4 $5 $6 $7 $8 $9 X,Y pos of 4 corners*
0 Add a 4 corners polygon primitive as box body*
4,1,4,$2,$3,$4,$5,$6,$7,$8,$9,$2,$3,0*
0 Add four circle primitives for the rounded corners*
1,1,$1+$1,$2,$3*
1,1,$1+$1,$4,$5*
1,1,$1+$1,$6,$7*
1,1,$1+$1,$8,$9*
0 Add four rect primitives between the rounded corners*
20,1,$1+$1,$2,$3,$4,$5,0*
20,1,$1+$1,$4,$5,$6,$7,0*
20,1,$1+$1,$6,$7,$8,$9,0*
20,1,$1+$1,$8,$9,$2,$3,0*%
G04 Aperture macros list end*
%TA.AperFunction,ComponentPad*%
%ADD10RoundRect,0.875000X-0.875000X-0.875000X0.875000X-0.875000X0.875000X0.875000X-0.875000X0.875000X0*%
%TD*%
%TA.AperFunction,ComponentPad*%
%ADD11RoundRect,0.750000X-0.750000X-1.000000X0.750000X-1.000000X0.750000X1.000000X-0.750000X1.000000X0*%
%TD*%
%TA.AperFunction,ComponentPad*%
%ADD12R,3.500000X3.500000*%
%TD*%
%TA.AperFunction,ComponentPad*%
%ADD13C,3.000000*%
%TD*%
%TA.AperFunction,ComponentPad*%
%ADD14R,1.200000X1.200000*%
%TD*%
%TA.AperFunction,ComponentPad*%
%ADD15C,1.200000*%
%TD*%
%TA.AperFunction,SMDPad,CuDef*%
%ADD16RoundRect,0.250000X-1.000000X-0.650000X1.000000X-0.650000X1.000000X0.650000X-1.000000X0.650000X0*%
%TD*%
%TA.AperFunction,SMDPad,CuDef*%
%ADD17RoundRect,0.250000X-0.450000X0.325000X-0.450000X-0.325000X0.450000X-0.325000X0.450000X0.325000X0*%
%TD*%
%TA.AperFunction,SMDPad,CuDef*%
%ADD18RoundRect,0.250000X-0.250000X-0.475000X0.250000X-0.475000X0.250000X0.475000X-0.250000X0.475000X0*%
%TD*%
%TA.AperFunction,SMDPad,CuDef*%
%ADD19R,0.650000X1.500000*%
%TD*%
%TA.AperFunction,SMDPad,CuDef*%
%ADD20RoundRect,0.250000X-0.450000X0.262500X-0.450000X-0.262500X0.450000X-0.262500X0.450000X0.262500X0*%
%TD*%
%TA.AperFunction,SMDPad,CuDef*%
%ADD21RoundRect,0.250000X-0.262500X-0.450000X0.262500X-0.450000X0.262500X0.450000X-0.262500X0.450000X0*%
%TD*%
%TA.AperFunction,SMDPad,CuDef*%
%ADD22RoundRect,0.250000X-0.475000X0.250000X-0.475000X-0.250000X0.475000X-0.250000X0.475000X0.250000X0*%
%TD*%
%TA.AperFunction,SMDPad,CuDef*%
%ADD23RoundRect,0.250000X0.262500X0.450000X-0.262500X0.450000X-0.262500X-0.450000X0.262500X-0.450000X0*%
%TD*%
%TA.AperFunction,SMDPad,CuDef*%
%ADD24RoundRect,0.375000X-0.375000X0.625000X-0.375000X-0.625000X0.375000X-0.625000X0.375000X0.625000X0*%
%TD*%
%TA.AperFunction,SMDPad,CuDef*%
%ADD25RoundRect,0.500000X-1.400000X0.500000X-1.400000X-0.500000X1.400000X-0.500000X1.400000X0.500000X0*%
%TD*%
%TA.AperFunction,SMDPad,CuDef*%
%ADD26RoundRect,0.250000X0.250000X0.475000X-0.250000X0.475000X-0.250000X-0.475000X0.250000X-0.475000X0*%
%TD*%
%TA.AperFunction,SMDPad,CuDef*%
%ADD27R,0.450000X1.800000*%
%TD*%
%TA.AperFunction,SMDPad,CuDef*%
%ADD28RoundRect,0.250000X0.450000X-0.262500X0.450000X0.262500X-0.450000X0.262500X-0.450000X-0.262500X0*%
%TD*%
%TA.AperFunction,SMDPad,CuDef*%
%ADD29RoundRect,0.250000X-0.325000X-0.450000X0.325000X-0.450000X0.325000X0.450000X-0.325000X0.450000X0*%
%TD*%
%TA.AperFunction,SMDPad,CuDef*%
%ADD30RoundRect,0.250000X0.475000X-0.250000X0.475000X0.250000X-0.475000X0.250000X-0.475000X-0.250000X0*%
%TD*%
%TA.AperFunction,ComponentPad*%
%ADD31O,1.700000X1.700000*%
%TD*%
%TA.AperFunction,ComponentPad*%
%ADD32R,1.700000X1.700000*%
%TD*%
%TA.AperFunction,SMDPad,CuDef*%
%ADD33RoundRect,0.250000X-0.650000X1.000000X-0.650000X-1.000000X0.650000X-1.000000X0.650000X1.000000X0*%
%TD*%
%TA.AperFunction,ViaPad*%
%ADD34C,0.600000*%
%TD*%
%TA.AperFunction,Conductor*%
%ADD35C,0.300000*%
%TD*%
%TA.AperFunction,Conductor*%
%ADD36C,0.500000*%
%TD*%
G04 APERTURE END LIST*
D10*
%TO.P,J1,3*%
%TO.N,GND*%
X132611900Y-80408600D03*
D11*
%TO.P,J1,2*%
X129611900Y-75708600D03*
D12*
%TO.P,J1,1*%
%TO.N,Net-(D2-A)*%
X135611900Y-75708600D03*
%TD*%
D13*
%TO.P,J5,TN*%
%TO.N,AGND*%
X194287600Y-115367800D03*
%TO.P,J5,T*%
X194287600Y-103937800D03*
%TO.P,J5,SN*%
%TO.N,GUITAR_IN*%
X206987600Y-115367800D03*
%TO.P,J5,S*%
X206987600Y-103937800D03*
%TD*%
%TO.P,J4,TN*%
%TO.N,AGND*%
X195049600Y-78690200D03*
%TO.P,J4,T*%
X195049600Y-67260200D03*
%TO.P,J4,SN*%
%TO.N,GUITAR_OUT*%
X207749600Y-78690200D03*
%TO.P,J4,S*%
X207749600Y-67260200D03*
%TD*%
D14*
%TO.P,C_Polarized11,1*%
%TO.N,Net-(IC1-VOUTL)*%
X157337599Y-111037399D03*
D15*
%TO.P,C_Polarized11,2*%
%TO.N,LCH_OUT*%
X157337599Y-112537399D03*
%TD*%
D14*
%TO.P,C_Polarized10,1*%
%TO.N,Net-(IC1-VINL)*%
X167497599Y-109132399D03*
D15*
%TO.P,C_Polarized10,2*%
%TO.N,LCH_IN*%
X167497599Y-110632399D03*
%TD*%
%TO.P,C_Polarized1,2*%
%TO.N,AGND*%
X166750000Y-102750000D03*
D14*
%TO.P,C_Polarized1,1*%
%TO.N,AVDD*%
X165250000Y-102750000D03*
%TD*%
D15*
%TO.P,C_Polarized6,2*%
%TO.N,AGND*%
X166500000Y-84500000D03*
D14*
%TO.P,C_Polarized6,1*%
%TO.N,Net-(IC1-VREF1)*%
X165000000Y-84500000D03*
%TD*%
D15*
%TO.P,C_Polarized5,2*%
%TO.N,RCH_IN*%
X171850000Y-98150000D03*
D14*
%TO.P,C_Polarized5,1*%
%TO.N,Net-(IC1-VINR)*%
X170350000Y-98150000D03*
%TD*%
D15*
%TO.P,C_Polarized2,2*%
%TO.N,AGND*%
X167100000Y-92800000D03*
D14*
%TO.P,C_Polarized2,1*%
%TO.N,AVDD*%
X165600000Y-92800000D03*
%TD*%
D15*
%TO.P,C_Polarized8,2*%
%TO.N,AGND*%
X161000000Y-84750000D03*
D14*
%TO.P,C_Polarized8,1*%
%TO.N,Net-(IC1-VREF2)*%
X161000000Y-86250000D03*
%TD*%
D15*
%TO.P,C_Polarized12,2*%
%TO.N,GND*%
X153919899Y-102369401D03*
D14*
%TO.P,C_Polarized12,1*%
%TO.N,AVDD*%
X155419899Y-102369401D03*
%TD*%
D15*
%TO.P,C_Polarized4,2*%
%TO.N,GND*%
X161399001Y-69961001D03*
D14*
%TO.P,C_Polarized4,1*%
%TO.N,VCC*%
X161399001Y-68461001D03*
%TD*%
D15*
%TO.P,C_Polarized9,2*%
%TO.N,RCH_OUT*%
X175400000Y-93600000D03*
D14*
%TO.P,C_Polarized9,1*%
%TO.N,Net-(IC1-VOUTR)*%
X173900000Y-93600000D03*
%TD*%
D15*
%TO.P,C_Polarized7,2*%
%TO.N,AGND*%
X161250000Y-102500000D03*
D14*
%TO.P,C_Polarized7,1*%
%TO.N,Net-(IC1-VCOM)*%
X161250000Y-101000000D03*
%TD*%
D15*
%TO.P,C_Polarized3,2*%
%TO.N,GND*%
X144654800Y-72144600D03*
D14*
%TO.P,C_Polarized3,1*%
%TO.N,Net-(D1-K)*%
X144654800Y-70644600D03*
%TD*%
D16*
%TO.P,D1,2,A*%
%TO.N,VCC*%
X152554900Y-66751700D03*
%TO.P,D1,1,K*%
%TO.N,Net-(D1-K)*%
X148554900Y-66751700D03*
%TD*%
D17*
%TO.P,L2,2,2*%
%TO.N,AVDD*%
X172500000Y-78025000D03*
%TO.P,L2,1,1*%
%TO.N,VDD*%
X172500000Y-75975000D03*
%TD*%
D18*
%TO.P,C4,2*%
%TO.N,GND*%
X169696000Y-65576800D03*
%TO.P,C4,1*%
%TO.N,VDD*%
X167796000Y-65576800D03*
%TD*%
D19*
%TO.P,IC4,8,VDD*%
%TO.N,AVCC*%
X180503300Y-91866700D03*
%TO.P,IC4,7,VOUT_B*%
%TO.N,GUITAR_OUT*%
X181773300Y-91866700D03*
%TO.P,IC4,6,VIN_B-*%
%TO.N,Net-(IC4-VIN_B-)*%
X183043300Y-91866700D03*
%TO.P,IC4,5,VINB+*%
%TO.N,Net-(IC4-VINB+)*%
X184313300Y-91866700D03*
%TO.P,IC4,4,VSS*%
%TO.N,AGND*%
X184313300Y-97266700D03*
%TO.P,IC4,3,VINA+*%
%TO.N,Net-(IC4-VINA+)*%
X183043300Y-97266700D03*
%TO.P,IC4,2,VINA-*%
%TO.N,Net-(IC4-VINA-)*%
X181773300Y-97266700D03*
%TO.P,IC4,1,VOUT_A*%
%TO.N,RCH_IN*%
X180503300Y-97266700D03*
%TD*%
D20*
%TO.P,R9,2*%
%TO.N,Net-(C17-Pad2)*%
X177836300Y-102538500D03*
%TO.P,R9,1*%
%TO.N,RCH_IN*%
X177836300Y-100713500D03*
%TD*%
D21*
%TO.P,R4,2*%
%TO.N,VGND*%
X182000000Y-109500000D03*
%TO.P,R4,1*%
%TO.N,Net-(C12-Pad1)*%
X180175000Y-109500000D03*
%TD*%
D22*
%TO.P,C5,2*%
%TO.N,AGND*%
X162700000Y-77550000D03*
%TO.P,C5,1*%
%TO.N,AVCC*%
X162700000Y-75650000D03*
%TD*%
D23*
%TO.P,R14,2*%
%TO.N,Net-(IC4-VINA+)*%
X183121400Y-99545100D03*
%TO.P,R14,1*%
%TO.N,VGND*%
X184946400Y-99545100D03*
%TD*%
D21*
%TO.P,R17,2*%
%TO.N,AGND*%
X194432700Y-85881800D03*
%TO.P,R17,1*%
%TO.N,/VMID*%
X192607700Y-85881800D03*
%TD*%
D24*
%TO.P,U1,3,VI*%
%TO.N,Net-(D1-K)*%
X148400000Y-70300000D03*
D25*
%TO.P,U1,2,VO*%
%TO.N,VCC*%
X150700000Y-76600000D03*
D24*
X150700000Y-70300000D03*
%TO.P,U1,1,GND*%
%TO.N,GND*%
X153000000Y-70300000D03*
%TD*%
D26*
%TO.P,C6,2*%
%TO.N,GND*%
X153884299Y-98965801D03*
%TO.P,C6,1*%
%TO.N,AVDD*%
X155784299Y-98965801D03*
%TD*%
D18*
%TO.P,C2,2*%
%TO.N,AGND*%
X166748400Y-89358499D03*
%TO.P,C2,1*%
%TO.N,AVDD*%
X164848400Y-89358499D03*
%TD*%
%TO.P,C1,2*%
%TO.N,AGND*%
X165364599Y-98762601D03*
%TO.P,C1,1*%
%TO.N,AVDD*%
X163464599Y-98762601D03*
%TD*%
D22*
%TO.P,C3,2*%
%TO.N,GND*%
X155627600Y-69421600D03*
%TO.P,C3,1*%
%TO.N,VCC*%
X155627600Y-67521600D03*
%TD*%
D27*
%TO.P,IC1,24,VCC2*%
%TO.N,AVDD*%
X162960399Y-96419801D03*
%TO.P,IC1,23,AGND1*%
%TO.N,AGND*%
X162310399Y-96419801D03*
%TO.P,IC1,22,AGND2*%
X161660399Y-96419801D03*
%TO.P,IC1,21,VCOM*%
%TO.N,Net-(IC1-VCOM)*%
X161010399Y-96419801D03*
%TO.P,IC1,20,VOUTR*%
%TO.N,Net-(IC1-VOUTR)*%
X160360399Y-96419801D03*
%TO.P,IC1,19,VOUTL*%
%TO.N,Net-(IC1-VOUTL)*%
X159710399Y-96419801D03*
%TO.P,IC1,18,MC*%
%TO.N,MC{slash}DEM0*%
X159060399Y-96419801D03*
%TO.P,IC1,17,MD*%
%TO.N,MC{slash}DEM1*%
X158410399Y-96419801D03*
%TO.P,IC1,16,~{ZFLG}*%
%TO.N,ZFLG*%
X157760399Y-96419801D03*
%TO.P,IC1,15,DIN*%
%TO.N,DIN*%
X157110399Y-96419801D03*
%TO.P,IC1,14,VDD*%
%TO.N,AVDD*%
X156460399Y-96419801D03*
%TO.P,IC1,13,DGND*%
%TO.N,GND*%
X155810399Y-96419801D03*
%TO.P,IC1,12,DOUT*%
%TO.N,DATA_OUT*%
X155810399Y-89319801D03*
%TO.P,IC1,11,BCKIN*%
%TO.N,BIT*%
X156460399Y-89319801D03*
%TO.P,IC1,10,LRCIN*%
%TO.N,LRCLK*%
X157110399Y-89319801D03*
%TO.P,IC1,9,SYSCLK*%
%TO.N,SYSCLK*%
X157760399Y-89319801D03*
%TO.P,IC1,8,ML*%
%TO.N,ML{slash}PDDA*%
X158410399Y-89319801D03*
%TO.P,IC1,7,~{RST}*%
%TO.N,RST{slash}PDAD*%
X159060399Y-89319801D03*
%TO.P,IC1,6,VINL*%
%TO.N,Net-(IC1-VINL)*%
X159710399Y-89319801D03*
%TO.P,IC1,5,VREF2*%
%TO.N,Net-(IC1-VREF2)*%
X160360399Y-89319801D03*
%TO.P,IC1,4,VREF1*%
%TO.N,Net-(IC1-VREF1)*%
X161010399Y-89319801D03*
%TO.P,IC1,3,VINR*%
%TO.N,Net-(IC1-VINR)*%
X161660399Y-89319801D03*
%TO.P,IC1,2,VCC1_2*%
%TO.N,AVDD*%
X162310399Y-89319801D03*
%TO.P,IC1,1,VCC1_1*%
X162960399Y-89319801D03*
%TD*%
D24*
%TO.P,U2,3,VI*%
%TO.N,VCC*%
X165125200Y-68116400D03*
D25*
%TO.P,U2,2,VO*%
%TO.N,VDD*%
X167425200Y-74416400D03*
D24*
X167425200Y-68116400D03*
%TO.P,U2,1,GND*%
%TO.N,GND*%
X169725200Y-68116400D03*
%TD*%
D28*
%TO.P,R8,2*%
%TO.N,Net-(C16-Pad2)*%
X178379900Y-87710600D03*
%TO.P,R8,1*%
%TO.N,GUITAR_OUT*%
X178379900Y-89535600D03*
%TD*%
D22*
%TO.P,C11,2*%
%TO.N,RCH_OUT*%
X175992300Y-89725500D03*
%TO.P,C11,1*%
%TO.N,Net-(C11-Pad1)*%
X175992300Y-87825500D03*
%TD*%
D28*
%TO.P,R11,2*%
%TO.N,Net-(IC4-VINA-)*%
X180122300Y-103050300D03*
%TO.P,R11,1*%
%TO.N,Net-(C17-Pad2)*%
X180122300Y-104875300D03*
%TD*%
D20*
%TO.P,R6,2*%
%TO.N,Net-(C16-Pad2)*%
X178450000Y-85812500D03*
%TO.P,R6,1*%
%TO.N,Net-(C11-Pad1)*%
X178450000Y-83987500D03*
%TD*%
D21*
%TO.P,R3,2*%
%TO.N,VGND*%
X182462500Y-82000000D03*
%TO.P,R3,1*%
%TO.N,Net-(C11-Pad1)*%
X180637500Y-82000000D03*
%TD*%
D29*
%TO.P,L1,2,2*%
%TO.N,AVCC*%
X158470587Y-77855376D03*
%TO.P,L1,1,1*%
%TO.N,VCC*%
X156420587Y-77855376D03*
%TD*%
D22*
%TO.P,C7,2*%
%TO.N,AGND*%
X160486087Y-79747976D03*
%TO.P,C7,1*%
%TO.N,AVCC*%
X160486087Y-77847976D03*
%TD*%
%TO.P,C18,2*%
%TO.N,GUITAR_OUT*%
X180564300Y-89573100D03*
%TO.P,C18,1*%
%TO.N,Net-(IC4-VIN_B-)*%
X180564300Y-87673100D03*
%TD*%
D28*
%TO.P,R7,2*%
%TO.N,Net-(C17-Pad2)*%
X178024300Y-107217800D03*
%TO.P,R7,1*%
%TO.N,Net-(C12-Pad1)*%
X178024300Y-109042800D03*
%TD*%
D30*
%TO.P,C19,2*%
%TO.N,RCH_IN*%
X180107100Y-99255500D03*
%TO.P,C19,1*%
%TO.N,Net-(IC4-VINA-)*%
X180107100Y-101155500D03*
%TD*%
D22*
%TO.P,C16,2*%
%TO.N,Net-(C16-Pad2)*%
X180600000Y-85850000D03*
%TO.P,C16,1*%
%TO.N,AGND*%
X180600000Y-83950000D03*
%TD*%
D18*
%TO.P,C12,2*%
%TO.N,GUITAR_IN*%
X179950000Y-112000000D03*
%TO.P,C12,1*%
%TO.N,Net-(C12-Pad1)*%
X178050000Y-112000000D03*
%TD*%
D31*
%TO.P,J2,11,Pin_11*%
%TO.N,GND*%
X131135900Y-111688200D03*
%TO.P,J2,10,Pin_10*%
%TO.N,ZFLG*%
X131135900Y-109148200D03*
%TO.P,J2,9,Pin_9*%
%TO.N,DIN*%
X131135900Y-106608200D03*
%TO.P,J2,8,Pin_8*%
%TO.N,MC{slash}DEM1*%
X131135900Y-104068200D03*
%TO.P,J2,7,Pin_7*%
%TO.N,MC{slash}DEM0*%
X131135900Y-101528200D03*
%TO.P,J2,6,Pin_6*%
%TO.N,RST{slash}PDAD*%
X131135900Y-98988200D03*
%TO.P,J2,5,Pin_5*%
%TO.N,ML{slash}PDDA*%
X131135900Y-96448200D03*
%TO.P,J2,4,Pin_4*%
%TO.N,SYSCLK*%
X131135900Y-93908200D03*
%TO.P,J2,3,Pin_3*%
%TO.N,LRCLK*%
X131135900Y-91368200D03*
%TO.P,J2,2,Pin_2*%
%TO.N,BIT*%
X131135900Y-88828200D03*
D32*
%TO.P,J2,1,Pin_1*%
%TO.N,DATA_OUT*%
X131135900Y-86288200D03*
%TD*%
D33*
%TO.P,D2,2,A*%
%TO.N,Net-(D2-A)*%
X139800000Y-75700000D03*
%TO.P,D2,1,K*%
%TO.N,Net-(D1-K)*%
X139800000Y-71700000D03*
%TD*%
D26*
%TO.P,C17,2*%
%TO.N,Net-(C17-Pad2)*%
X180020700Y-106860300D03*
%TO.P,C17,1*%
%TO.N,AGND*%
X181920700Y-106860300D03*
%TD*%
D21*
%TO.P,R16,2*%
%TO.N,/VMID*%
X190876700Y-85881800D03*
%TO.P,R16,1*%
%TO.N,AVCC*%
X189051700Y-85881800D03*
%TD*%
D31*
%TO.P,J3,8,Pin_8*%
%TO.N,LCH_OUT*%
X157300000Y-116500000D03*
%TO.P,J3,7,Pin_7*%
%TO.N,unconnected-(J3-Pin_7-Pad7)*%
X159840000Y-116500000D03*
%TO.P,J3,6,Pin_6*%
%TO.N,unconnected-(J3-Pin_6-Pad6)*%
X162380000Y-116500000D03*
%TO.P,J3,5,Pin_5*%
%TO.N,LCH_IN*%
X164920000Y-116500000D03*
%TO.P,J3,4,Pin_4*%
%TO.N,unconnected-(J3-Pin_4-Pad4)*%
X167460000Y-116500000D03*
%TO.P,J3,3,Pin_3*%
%TO.N,AGND*%
X170000000Y-116500000D03*
%TO.P,J3,2,Pin_2*%
%TO.N,unconnected-(J3-Pin_2-Pad2)*%
X172540000Y-116500000D03*
D32*
%TO.P,J3,1,Pin_1*%
%TO.N,unconnected-(J3-Pin_1-Pad1)*%
X175080000Y-116500000D03*
%TD*%
D30*
%TO.P,C25,2*%
%TO.N,AGND*%
X191300000Y-89400000D03*
%TO.P,C25,1*%
%TO.N,VGND*%
X191300000Y-91300000D03*
%TD*%
D20*
%TO.P,R10,2*%
%TO.N,Net-(IC4-VIN_B-)*%
X182799500Y-87402000D03*
%TO.P,R10,1*%
%TO.N,Net-(C16-Pad2)*%
X182799500Y-85577000D03*
%TD*%
D18*
%TO.P,C8,2*%
%TO.N,AGND*%
X176350000Y-78000000D03*
%TO.P,C8,1*%
%TO.N,AVDD*%
X174450000Y-78000000D03*
%TD*%
D23*
%TO.P,R13,2*%
%TO.N,Net-(IC4-VINB+)*%
X184274600Y-89639100D03*
%TO.P,R13,1*%
%TO.N,VGND*%
X186099600Y-89639100D03*
%TD*%
D19*
%TO.P,IC5,8,VDD*%
%TO.N,AVCC*%
X189378100Y-93390700D03*
%TO.P,IC5,7,VOUT_B*%
%TO.N,VGND*%
X190648100Y-93390700D03*
%TO.P,IC5,6,VIN_B-*%
X191918100Y-93390700D03*
%TO.P,IC5,5,VINB+*%
%TO.N,/VMID*%
X193188100Y-93390700D03*
%TO.P,IC5,4,VSS*%
%TO.N,AGND*%
X193188100Y-98790700D03*
%TO.P,IC5,3,VINA+*%
X191918100Y-98790700D03*
%TO.P,IC5,2,VINA-*%
%TO.N,Net-(IC5-VINA-)*%
X190648100Y-98790700D03*
%TO.P,IC5,1,VOUT_A*%
X189378100Y-98790700D03*
%TD*%
D28*
%TO.P,R1,2*%
%TO.N,AVDD*%
X147250000Y-102387500D03*
%TO.P,R1,1*%
%TO.N,ZFLG*%
X147250000Y-104212500D03*
%TD*%
D34*
%TO.N,GND*%
X153900000Y-96400000D03*
X172500000Y-68100000D03*
X171600000Y-65600000D03*
X152365801Y-98965801D03*
X155176000Y-71064000D03*
X157617589Y-69418997D03*
%TO.N,AVDD*%
X164200000Y-96400000D03*
X157100000Y-98000000D03*
%TO.N,AGND*%
X189600000Y-89400000D03*
X163900000Y-78850000D03*
X194698400Y-98800800D03*
X177800000Y-78000000D03*
X167958499Y-89358499D03*
X160500000Y-81000000D03*
X162200000Y-94700000D03*
X182450000Y-83950000D03*
X183000000Y-104500000D03*
X183700000Y-95600000D03*
X194432700Y-83750000D03*
X166800000Y-99100000D03*
%TO.N,AVCC*%
X187300000Y-90250000D03*
X187300000Y-84100000D03*
X181300000Y-94600000D03*
X186849600Y-94600000D03*
X187300000Y-92300000D03*
X166600000Y-80400000D03*
%TO.N,GUITAR_OUT*%
X182250000Y-93500000D03*
%TO.N,RCH_IN*%
X176300000Y-100700000D03*
X174200000Y-100700000D03*
%TO.N,Net-(IC1-VOUTR)*%
X169250000Y-91000000D03*
X160400000Y-94600000D03*
%TD*%
D35*
%TO.N,AGND*%
X161660399Y-96419801D02*
X162310399Y-96419801D01*
D36*
%TO.N,GUITAR_OUT*%
X181773300Y-90273300D02*
X181773300Y-91866700D01*
X181073100Y-89573100D02*
X181773300Y-90273300D01*
X180564300Y-89573100D02*
X181073100Y-89573100D01*
X178379900Y-89535600D02*
X180526800Y-89535600D01*
D35*
%TO.N,Net-(IC1-VREF1)*%
X162155200Y-87000000D02*
X163250000Y-87000000D01*
X165000000Y-85250000D02*
X165000000Y-84500000D01*
X161010399Y-88144801D02*
X162155200Y-87000000D01*
X161010399Y-89319801D02*
X161010399Y-88144801D01*
X163250000Y-87000000D02*
X165000000Y-85250000D01*
%TO.N,Net-(IC1-VREF2)*%
X160360399Y-86889601D02*
X161000000Y-86250000D01*
X160360399Y-89319801D02*
X160360399Y-86889601D01*
%TO.N,AVDD*%
X163464599Y-99714599D02*
X163464599Y-98762601D01*
X165250000Y-101500000D02*
X163464599Y-99714599D01*
X165250000Y-102750000D02*
X165250000Y-101500000D01*
%TO.N,Net-(IC1-VCOM)*%
X161010399Y-100760399D02*
X161250000Y-101000000D01*
X161010399Y-96419801D02*
X161010399Y-100760399D01*
%TO.N,Net-(IC1-VINL)*%
X168750000Y-99534402D02*
X168750000Y-107879998D01*
X168750000Y-107879998D02*
X167497599Y-109132399D01*
X159710399Y-89319801D02*
X159710399Y-90494801D01*
X159710399Y-90494801D02*
X168750000Y-99534402D01*
%TO.N,Net-(IC1-VOUTR)*%
X172100000Y-93600000D02*
X173900000Y-93600000D01*
X169500000Y-91000000D02*
X172100000Y-93600000D01*
X169250000Y-91000000D02*
X169500000Y-91000000D01*
D36*
%TO.N,AVCC*%
X166600000Y-78600000D02*
X163650000Y-75650000D01*
X163650000Y-75650000D02*
X162700000Y-75650000D01*
X166600000Y-80400000D02*
X166600000Y-78600000D01*
%TO.N,LCH_IN*%
X164920000Y-115080000D02*
X167497599Y-112502401D01*
X164920000Y-116500000D02*
X164920000Y-115080000D01*
X167497599Y-112502401D02*
X167497599Y-110632399D01*
%TO.N,LCH_OUT*%
X157300000Y-116500000D02*
X157300000Y-112574998D01*
X157300000Y-112574998D02*
X157337599Y-112537399D01*
D35*
%TO.N,Net-(IC1-VOUTL)*%
X157900000Y-110474998D02*
X157337599Y-111037399D01*
X159710399Y-96419801D02*
X159710399Y-97989601D01*
X159710399Y-97989601D02*
X157900000Y-99800000D01*
X157900000Y-99800000D02*
X157900000Y-110474998D01*
D36*
%TO.N,Net-(D1-K)*%
X140444600Y-70644600D02*
X144654800Y-70644600D01*
X139800000Y-71700000D02*
X139800000Y-71289200D01*
X148554900Y-70145100D02*
X148400000Y-70300000D01*
X148554900Y-66751700D02*
X148554900Y-70145100D01*
X148055400Y-70644600D02*
X148400000Y-70300000D01*
X139800000Y-71289200D02*
X140444600Y-70644600D01*
X144654800Y-70644600D02*
X148055400Y-70644600D01*
%TO.N,GND*%
X169725200Y-68116400D02*
X172483600Y-68116400D01*
X157614986Y-69421600D02*
X157617589Y-69418997D01*
X169696000Y-65576800D02*
X171576800Y-65576800D01*
X171576800Y-65576800D02*
X171600000Y-65600000D01*
X169696000Y-65576800D02*
X169696000Y-68087200D01*
X172483600Y-68116400D02*
X172500000Y-68100000D01*
D35*
X155810399Y-96419801D02*
X153919801Y-96419801D01*
X153919801Y-96419801D02*
X153900000Y-96400000D01*
X152365801Y-98965801D02*
X153884299Y-98965801D01*
D36*
X155627600Y-69421600D02*
X157614986Y-69421600D01*
X169696000Y-68087200D02*
X169725200Y-68116400D01*
X154412000Y-70300000D02*
X155176000Y-71064000D01*
X153000000Y-70300000D02*
X154412000Y-70300000D01*
%TO.N,VCC*%
X155627600Y-67521600D02*
X160459600Y-67521600D01*
X161399001Y-68461001D02*
X164780599Y-68461001D01*
X156420587Y-77855376D02*
X154855376Y-77855376D01*
X164780599Y-68461001D02*
X165125200Y-68116400D01*
X160459600Y-67521600D02*
X161399001Y-68461001D01*
X153600000Y-76600000D02*
X150700000Y-76600000D01*
X154855376Y-77855376D02*
X153600000Y-76600000D01*
%TO.N,VDD*%
X167658200Y-74649400D02*
X167425200Y-74416400D01*
X167425200Y-65947600D02*
X167796000Y-65576800D01*
X172500000Y-75657200D02*
X171492200Y-74649400D01*
X171492200Y-74649400D02*
X167658200Y-74649400D01*
X167425200Y-68116400D02*
X167425200Y-65947600D01*
X172500000Y-75975000D02*
X172500000Y-75657200D01*
D35*
%TO.N,AVDD*%
X164848400Y-90448400D02*
X165600000Y-91200000D01*
X157100000Y-98000000D02*
X156460399Y-98000000D01*
X155784299Y-98965801D02*
X156460399Y-98289701D01*
X155784299Y-101084299D02*
X155784299Y-98965801D01*
X164848400Y-89358499D02*
X164848400Y-90448400D01*
X163464599Y-98762601D02*
X162960399Y-98258401D01*
X162310399Y-89319801D02*
X162960399Y-89319801D01*
X162960399Y-98258401D02*
X162960399Y-96419801D01*
D36*
X172500000Y-78025000D02*
X174425000Y-78025000D01*
D35*
X162960399Y-89319801D02*
X164809702Y-89319801D01*
X155419899Y-102369401D02*
X155800000Y-101989300D01*
X155800000Y-101100000D02*
X155784299Y-101084299D01*
X149491746Y-95108254D02*
X147250000Y-97350000D01*
X147250000Y-97350000D02*
X147250000Y-102387500D01*
X156291746Y-95108254D02*
X149491746Y-95108254D01*
X156460399Y-95276907D02*
X156291746Y-95108254D01*
X155800000Y-101989300D02*
X155800000Y-101100000D01*
X165600000Y-91200000D02*
X165600000Y-92800000D01*
X172500000Y-81706899D02*
X172500000Y-78025000D01*
X156460399Y-96419801D02*
X156460399Y-95276907D01*
X156460399Y-98000000D02*
X156460399Y-96419801D01*
X164848400Y-89358499D02*
X172500000Y-81706899D01*
D36*
X174425000Y-78025000D02*
X174450000Y-78000000D01*
D35*
X164180199Y-96419801D02*
X164200000Y-96400000D01*
X164809702Y-89319801D02*
X164848400Y-89358499D01*
X156460399Y-98289701D02*
X156460399Y-98000000D01*
X162960399Y-96419801D02*
X164180199Y-96419801D01*
D36*
%TO.N,AGND*%
X191918100Y-98790700D02*
X193188100Y-98790700D01*
X166462601Y-98762601D02*
X166800000Y-99100000D01*
X176350000Y-78000000D02*
X177800000Y-78000000D01*
X182450000Y-83950000D02*
X180600000Y-83950000D01*
X181920700Y-106860300D02*
X181920700Y-105579300D01*
X189600000Y-89400000D02*
X191300000Y-89400000D01*
X162700000Y-77550000D02*
X162700000Y-78250000D01*
X184313300Y-96213300D02*
X184313300Y-97266700D01*
D35*
X162310399Y-94810399D02*
X162200000Y-94700000D01*
D36*
X167958499Y-89358499D02*
X166748400Y-89358499D01*
X194688300Y-98790700D02*
X194698400Y-98800800D01*
X181920700Y-105579300D02*
X183000000Y-104500000D01*
X165364599Y-98762601D02*
X166462601Y-98762601D01*
X162700000Y-78250000D02*
X162950000Y-78500000D01*
X193188100Y-98790700D02*
X194688300Y-98790700D01*
X160486087Y-80986087D02*
X160486087Y-79747976D01*
X163300000Y-78850000D02*
X163900000Y-78850000D01*
X160500000Y-81000000D02*
X160486087Y-80986087D01*
X194432700Y-83750000D02*
X194432700Y-85881800D01*
X162950000Y-78500000D02*
X163300000Y-78850000D01*
D35*
X162310399Y-96419801D02*
X162310399Y-94810399D01*
D36*
X183700000Y-95600000D02*
X184313300Y-96213300D01*
%TO.N,AVCC*%
X187318200Y-85881800D02*
X187300000Y-85900000D01*
X160486087Y-77847976D02*
X158477987Y-77847976D01*
X189378100Y-93390700D02*
X189087400Y-93100000D01*
X158477987Y-77847976D02*
X158470587Y-77855376D01*
X180503300Y-93803300D02*
X180503300Y-91866700D01*
X181300000Y-94600000D02*
X180503300Y-93803300D01*
X187300000Y-84100000D02*
X187300000Y-85900000D01*
X189051700Y-85881800D02*
X187318200Y-85881800D01*
X158470587Y-76079413D02*
X158900000Y-75650000D01*
X158470587Y-77855376D02*
X158470587Y-76079413D01*
X187300000Y-93100000D02*
X187300000Y-94149600D01*
X187300000Y-94149600D02*
X186849600Y-94600000D01*
X158900000Y-75650000D02*
X162700000Y-75650000D01*
X187300000Y-92300000D02*
X187300000Y-93100000D01*
X187300000Y-85900000D02*
X187300000Y-90250000D01*
X189087400Y-93100000D02*
X187300000Y-93100000D01*
%TO.N,RCH_OUT*%
X176000000Y-93000000D02*
X176000000Y-89733200D01*
X176000000Y-89733200D02*
X175992300Y-89725500D01*
X175400000Y-93600000D02*
X176000000Y-93000000D01*
%TO.N,GUITAR_IN*%
X201250000Y-112000000D02*
X201500000Y-112000000D01*
X206987600Y-115367800D02*
X203619800Y-112000000D01*
X179950000Y-112000000D02*
X201250000Y-112000000D01*
X203619800Y-112000000D02*
X201250000Y-112000000D01*
X201500000Y-112000000D02*
X201500000Y-109425400D01*
X201500000Y-109425400D02*
X206987600Y-103937800D01*
%TO.N,GUITAR_OUT*%
X181773300Y-91866700D02*
X181773300Y-93023300D01*
X181773300Y-93023300D02*
X182250000Y-93500000D01*
X207749600Y-67260200D02*
X207749600Y-78690200D01*
%TO.N,Net-(IC4-VIN_B-)*%
X182799500Y-87402000D02*
X183056338Y-87658838D01*
X183056338Y-87658838D02*
X183056338Y-91853662D01*
X183056338Y-91853662D02*
X183043300Y-91866700D01*
X180564300Y-87673100D02*
X182528400Y-87673100D01*
X182528400Y-87673100D02*
X182799500Y-87402000D01*
%TO.N,RCH_IN*%
X177836300Y-99663700D02*
X178244500Y-99255500D01*
X177836300Y-100713500D02*
X177836300Y-99663700D01*
X180107100Y-99255500D02*
X180503300Y-98859300D01*
X171850000Y-99850000D02*
X171850000Y-98150000D01*
X177836300Y-100713500D02*
X176313500Y-100713500D01*
X180503300Y-98859300D02*
X180503300Y-97266700D01*
X178244500Y-99255500D02*
X180107100Y-99255500D01*
X174200000Y-100700000D02*
X172700000Y-100700000D01*
X176313500Y-100713500D02*
X176300000Y-100700000D01*
X172700000Y-100700000D02*
X171850000Y-99850000D01*
%TO.N,Net-(IC4-VINA-)*%
X180107100Y-101155500D02*
X180107100Y-103035100D01*
X180107100Y-101155500D02*
X180844500Y-101155500D01*
X180107100Y-103035100D02*
X180122300Y-103050300D01*
X181773300Y-100226700D02*
X181773300Y-97266700D01*
X180844500Y-101155500D02*
X181773300Y-100226700D01*
%TO.N,VGND*%
X186099600Y-98391900D02*
X184946400Y-99545100D01*
X182462500Y-82000000D02*
X184050000Y-82000000D01*
X191900000Y-91900000D02*
X191900000Y-93372600D01*
X183500000Y-109500000D02*
X184946400Y-108053600D01*
X182000000Y-109500000D02*
X183500000Y-109500000D01*
X184050000Y-82000000D02*
X186099600Y-84049600D01*
X186125131Y-93390700D02*
X186099600Y-93416231D01*
X184946400Y-108053600D02*
X184946400Y-99545100D01*
X191300000Y-91300000D02*
X186099600Y-91300000D01*
X186099600Y-89639100D02*
X186099600Y-91300000D01*
X186099600Y-84049600D02*
X186099600Y-89639100D01*
X191900000Y-93372600D02*
X191918100Y-93390700D01*
X191300000Y-91300000D02*
X191900000Y-91900000D01*
X186099600Y-93416231D02*
X186099600Y-98391900D01*
X186099600Y-91300000D02*
X186099600Y-93416231D01*
X190648100Y-93390700D02*
X191918100Y-93390700D01*
D35*
%TO.N,Net-(IC1-VINR)*%
X161660399Y-91660399D02*
X161660399Y-89319801D01*
X168150000Y-98150000D02*
X161660399Y-91660399D01*
X170350000Y-98150000D02*
X168150000Y-98150000D01*
%TO.N,Net-(IC1-VOUTR)*%
X160400000Y-96380200D02*
X160360399Y-96419801D01*
X160400000Y-94600000D02*
X160400000Y-96380200D01*
D36*
%TO.N,Net-(D2-A)*%
X139791400Y-75708600D02*
X139800000Y-75700000D01*
X135611900Y-75708600D02*
X139791400Y-75708600D01*
D35*
%TO.N,MC{slash}DEM0*%
X159060399Y-95048481D02*
X157361918Y-93350000D01*
X139757588Y-101528200D02*
X131135900Y-101528200D01*
X157361918Y-93350000D02*
X147935788Y-93350000D01*
X159060399Y-96419801D02*
X159060399Y-95048481D01*
X147935788Y-93350000D02*
X139757588Y-101528200D01*
%TO.N,LRCLK*%
X156437306Y-91250000D02*
X131254100Y-91250000D01*
X157110399Y-90576907D02*
X156437306Y-91250000D01*
X131254100Y-91250000D02*
X131135900Y-91368200D01*
X157110399Y-89319801D02*
X157110399Y-90576907D01*
%TO.N,ZFLG*%
X157760399Y-96419801D02*
X157760399Y-98314601D01*
X138007106Y-105400000D02*
X134258906Y-109148200D01*
X155825000Y-105400000D02*
X147250000Y-105400000D01*
X147250000Y-105400000D02*
X138007106Y-105400000D01*
X157400000Y-98675000D02*
X157400000Y-103825000D01*
X157400000Y-103825000D02*
X155825000Y-105400000D01*
X147250000Y-104212500D02*
X147250000Y-105400000D01*
X157760399Y-98314601D02*
X157400000Y-98675000D01*
X134258906Y-109148200D02*
X131135900Y-109148200D01*
%TO.N,DIN*%
X157110399Y-95219801D02*
X156240598Y-94350000D01*
X136091800Y-106608200D02*
X131135900Y-106608200D01*
X148350000Y-94350000D02*
X136091800Y-106608200D01*
X157110399Y-96419801D02*
X157110399Y-95219801D01*
X156240598Y-94350000D02*
X148350000Y-94350000D01*
%TO.N,RST{slash}PDAD*%
X157058624Y-92750000D02*
X139450000Y-92750000D01*
X159060399Y-89319801D02*
X159060399Y-90748225D01*
X139450000Y-92750000D02*
X133211800Y-98988200D01*
X159060399Y-90748225D02*
X157058624Y-92750000D01*
X133211800Y-98988200D02*
X131135900Y-98988200D01*
%TO.N,MC{slash}DEM1*%
X158350000Y-96100000D02*
X158350000Y-95045188D01*
X158350000Y-95045188D02*
X157154812Y-93850000D01*
X158410399Y-96419801D02*
X158410399Y-96160399D01*
X148142894Y-93850000D02*
X137924694Y-104068200D01*
X137924694Y-104068200D02*
X131135900Y-104068200D01*
X158410399Y-96160399D02*
X158350000Y-96100000D01*
X157154812Y-93850000D02*
X148142894Y-93850000D01*
%TO.N,ML{slash}PDDA*%
X158410399Y-89319801D02*
X158410399Y-90691119D01*
X156851518Y-92250000D02*
X138000000Y-92250000D01*
X138000000Y-92250000D02*
X133801800Y-96448200D01*
X133801800Y-96448200D02*
X131135900Y-96448200D01*
X158410399Y-90691119D02*
X156851518Y-92250000D01*
%TO.N,BIT*%
X135150000Y-90750000D02*
X133228200Y-88828200D01*
X156460399Y-90519801D02*
X156230200Y-90750000D01*
X133228200Y-88828200D02*
X131135900Y-88828200D01*
X156460399Y-89319801D02*
X156460399Y-90519801D01*
X156230200Y-90750000D02*
X135150000Y-90750000D01*
%TO.N,SYSCLK*%
X135250000Y-91750000D02*
X133091800Y-93908200D01*
X157760399Y-89319801D02*
X157760399Y-90634013D01*
X156644412Y-91750000D02*
X135250000Y-91750000D01*
X157760399Y-90634013D02*
X156644412Y-91750000D01*
X133091800Y-93908200D02*
X131135900Y-93908200D01*
%TO.N,DATA_OUT*%
X155780200Y-89350000D02*
X136600000Y-89350000D01*
X136600000Y-89350000D02*
X133538200Y-86288200D01*
X133538200Y-86288200D02*
X131135900Y-86288200D01*
D36*
%TO.N,Net-(IC4-VINB+)*%
X184313300Y-91866700D02*
X184313300Y-89677800D01*
X184313300Y-89677800D02*
X184274600Y-89639100D01*
%TO.N,Net-(IC4-VINA+)*%
X183048342Y-99472042D02*
X183048342Y-97271742D01*
X183121400Y-99545100D02*
X183048342Y-99472042D01*
%TO.N,/VMID*%
X193200000Y-88200000D02*
X192607700Y-87607700D01*
X190876700Y-85881800D02*
X192607700Y-85881800D01*
X193200000Y-93378800D02*
X193200000Y-88200000D01*
X192607700Y-87607700D02*
X192607700Y-85881800D01*
X193188100Y-93390700D02*
X193200000Y-93378800D01*
%TO.N,Net-(C11-Pad1)*%
X178450000Y-82900000D02*
X179350000Y-82000000D01*
X175992300Y-87825500D02*
X175992300Y-85507700D01*
X178450000Y-83987500D02*
X178450000Y-82900000D01*
X179350000Y-82000000D02*
X180637500Y-82000000D01*
X175992300Y-85507700D02*
X177512500Y-83987500D01*
X177512500Y-83987500D02*
X178450000Y-83987500D01*
%TO.N,Net-(C12-Pad1)*%
X178050000Y-112000000D02*
X178050000Y-109068500D01*
X178481500Y-109500000D02*
X178024300Y-109042800D01*
X180175000Y-109500000D02*
X178481500Y-109500000D01*
X178050000Y-109068500D02*
X178024300Y-109042800D01*
X178024300Y-109042800D02*
X178042800Y-109042800D01*
X178042800Y-109042800D02*
X178110700Y-109110700D01*
%TO.N,Net-(C16-Pad2)*%
X180562500Y-85812500D02*
X180600000Y-85850000D01*
X182526500Y-85850000D02*
X182799500Y-85577000D01*
X178450000Y-85812500D02*
X180562500Y-85812500D01*
X180600000Y-85850000D02*
X182526500Y-85850000D01*
X182746800Y-85524300D02*
X182799500Y-85577000D01*
X178450000Y-87640500D02*
X178379900Y-87710600D01*
X178450000Y-85812500D02*
X178450000Y-87640500D01*
%TO.N,Net-(C17-Pad2)*%
X180020700Y-104976900D02*
X180122300Y-104875300D01*
X178024300Y-107217800D02*
X178381868Y-106860232D01*
X177836300Y-104236300D02*
X178475300Y-104875300D01*
X177836300Y-102538500D02*
X177836300Y-104236300D01*
X178381868Y-106860232D02*
X180020632Y-106860232D01*
X178475300Y-104875300D02*
X180122300Y-104875300D01*
X180020700Y-106860300D02*
X180020700Y-104976900D01*
%TO.N,Net-(IC5-VINA-)*%
X189378100Y-98790700D02*
X190648100Y-98790700D01*
%TD*%
%TA.AperFunction,Conductor*%
%TO.N,VDD*%
G36*
X168145677Y-64479685D02*
G01*
X168166319Y-64496319D01*
X168601681Y-64931681D01*
X168635166Y-64993004D01*
X168638000Y-65019362D01*
X168638000Y-65946456D01*
X168618315Y-66013495D01*
X168617174Y-66015239D01*
X168130000Y-66746000D01*
X168466260Y-67250391D01*
X168487068Y-67317091D01*
X168483422Y-67349096D01*
X168477600Y-67372506D01*
X168474700Y-67415279D01*
X168474700Y-68817522D01*
X168474701Y-68817525D01*
X168477599Y-68860286D01*
X168477599Y-68860287D01*
X168523560Y-69045096D01*
X168608167Y-69215691D01*
X168608168Y-69215692D01*
X168608170Y-69215696D01*
X168610645Y-69218776D01*
X168611570Y-69221015D01*
X168611788Y-69221356D01*
X168611726Y-69221395D01*
X168637305Y-69283357D01*
X168638000Y-69296464D01*
X168638000Y-72842000D01*
X168637999Y-72842000D01*
X169604400Y-73566800D01*
X169646221Y-73622771D01*
X169654000Y-73666000D01*
X169654000Y-75061637D01*
X169634315Y-75128676D01*
X169598783Y-75164811D01*
X168923239Y-75615174D01*
X168856540Y-75635982D01*
X168854456Y-75636000D01*
X165881544Y-75636000D01*
X165814505Y-75616315D01*
X165812761Y-75615174D01*
X165137217Y-75164811D01*
X165092356Y-75111246D01*
X165082000Y-75061637D01*
X165082000Y-73674207D01*
X165101685Y-73607168D01*
X165142203Y-73567878D01*
X165144000Y-73566800D01*
X166352000Y-72842000D01*
X166352000Y-68959115D01*
X166355666Y-68929188D01*
X166372798Y-68860299D01*
X166372798Y-68860297D01*
X166372800Y-68860289D01*
X166375700Y-68817523D01*
X166375699Y-67509994D01*
X166395384Y-67442956D01*
X166396525Y-67441212D01*
X166479273Y-67317091D01*
X166860000Y-66746000D01*
X166860000Y-65019362D01*
X166879685Y-64952323D01*
X166896319Y-64931681D01*
X167331681Y-64496319D01*
X167393004Y-64462834D01*
X167419362Y-64460000D01*
X168078638Y-64460000D01*
X168145677Y-64479685D01*
G37*
%TD.AperFunction*%
%TD*%
%TA.AperFunction,Conductor*%
%TO.N,VCC*%
G36*
X153671089Y-65482363D02*
G01*
X154373638Y-65716546D01*
X154431013Y-65756420D01*
X154437600Y-65765400D01*
X154922000Y-66492000D01*
X156416728Y-66492000D01*
X156472182Y-66505091D01*
X156885454Y-66711727D01*
X156936613Y-66759314D01*
X156954000Y-66822636D01*
X156954000Y-67732728D01*
X156940909Y-67788182D01*
X156734273Y-68201454D01*
X156686686Y-68252613D01*
X156623364Y-68270000D01*
X154414000Y-68270000D01*
X154413999Y-68270000D01*
X154413998Y-68270001D01*
X154194273Y-68709454D01*
X154146686Y-68760613D01*
X154083364Y-68778000D01*
X152381999Y-68778000D01*
X152360288Y-68810566D01*
X152312210Y-68852870D01*
X152150704Y-68932969D01*
X152002278Y-69052277D01*
X152002277Y-69052278D01*
X151882969Y-69200704D01*
X151882967Y-69200707D01*
X151798360Y-69371302D01*
X151752400Y-69556107D01*
X151752400Y-69556111D01*
X151749543Y-69598252D01*
X151749500Y-69598879D01*
X151749500Y-71001122D01*
X151749501Y-71001125D01*
X151752399Y-71043886D01*
X151752399Y-71043887D01*
X151798359Y-71228694D01*
X151861088Y-71355174D01*
X151874000Y-71410269D01*
X151874000Y-74620000D01*
X153097462Y-75598770D01*
X153137514Y-75656020D01*
X153144000Y-75695597D01*
X153144000Y-77347637D01*
X153124315Y-77414676D01*
X153088783Y-77450811D01*
X152413239Y-77901174D01*
X152346540Y-77921982D01*
X152344456Y-77922000D01*
X149117544Y-77922000D01*
X149050505Y-77902315D01*
X149048761Y-77901174D01*
X148373217Y-77450811D01*
X148328356Y-77397246D01*
X148318000Y-77347637D01*
X148318000Y-75695597D01*
X148337685Y-75628558D01*
X148364536Y-75598771D01*
X149588000Y-74620000D01*
X149588000Y-71285257D01*
X149599742Y-71235156D01*
X149599323Y-71235002D01*
X149600582Y-71231574D01*
X149600914Y-71230159D01*
X149600998Y-71229988D01*
X149601641Y-71228693D01*
X149647600Y-71043889D01*
X149650500Y-71001123D01*
X149650499Y-69598878D01*
X149647600Y-69556111D01*
X149647596Y-69556095D01*
X149647110Y-69552995D01*
X149647293Y-69551587D01*
X149647231Y-69550662D01*
X149647416Y-69550649D01*
X149656153Y-69483713D01*
X149681922Y-69446077D01*
X150087321Y-69040678D01*
X150106209Y-69025193D01*
X150858000Y-68524000D01*
X150858000Y-66035362D01*
X150877685Y-65968323D01*
X150894319Y-65947681D01*
X151329681Y-65512319D01*
X151391004Y-65478834D01*
X151417362Y-65476000D01*
X153631877Y-65476000D01*
X153671089Y-65482363D01*
G37*
%TD.AperFunction*%
%TD*%
M02*
