%TF.GenerationSoftware,KiCad,Pcbnew,8.0.0*%
%TF.CreationDate,2024-10-11T15:30:09+02:00*%
%TF.ProjectId,guitar-effect,67756974-6172-42d6-9566-666563742e6b,rev?*%
%TF.SameCoordinates,Original*%
%TF.FileFunction,Soldermask,Top*%
%TF.FilePolarity,Negative*%
%FSLAX46Y46*%
G04 Gerber Fmt 4.6, Leading zero omitted, Abs format (unit mm)*
G04 Created by KiCad (PCBNEW 8.0.0) date 2024-10-11 15:30:09*
%MOMM*%
%LPD*%
G01*
G04 APERTURE LIST*
G04 Aperture macros list*
%AMRoundRect*
0 Rectangle with rounded corners*
0 $1 Rounding radius*
0 $2 $3 $4 $5 $6 $7 $8 $9 X,Y pos of 4 corners*
0 Add a 4 corners polygon primitive as box body*
4,1,4,$2,$3,$4,$5,$6,$7,$8,$9,$2,$3,0*
0 Add four circle primitives for the rounded corners*
1,1,$1+$1,$2,$3*
1,1,$1+$1,$4,$5*
1,1,$1+$1,$6,$7*
1,1,$1+$1,$8,$9*
0 Add four rect primitives between the rounded corners*
20,1,$1+$1,$2,$3,$4,$5,0*
20,1,$1+$1,$4,$5,$6,$7,0*
20,1,$1+$1,$6,$7,$8,$9,0*
20,1,$1+$1,$8,$9,$2,$3,0*%
G04 Aperture macros list end*
%ADD10R,1.700000X1.700000*%
%ADD11O,1.700000X1.700000*%
%ADD12RoundRect,0.250000X-1.000000X-0.650000X1.000000X-0.650000X1.000000X0.650000X-1.000000X0.650000X0*%
%ADD13RoundRect,0.250000X-0.325000X-0.450000X0.325000X-0.450000X0.325000X0.450000X-0.325000X0.450000X0*%
%ADD14RoundRect,0.250000X0.250000X0.475000X-0.250000X0.475000X-0.250000X-0.475000X0.250000X-0.475000X0*%
%ADD15RoundRect,0.250000X-0.475000X0.250000X-0.475000X-0.250000X0.475000X-0.250000X0.475000X0.250000X0*%
%ADD16R,1.200000X1.200000*%
%ADD17C,1.200000*%
%ADD18R,0.650000X1.500000*%
%ADD19RoundRect,0.250000X0.450000X-0.262500X0.450000X0.262500X-0.450000X0.262500X-0.450000X-0.262500X0*%
%ADD20RoundRect,0.250000X-0.450000X0.262500X-0.450000X-0.262500X0.450000X-0.262500X0.450000X0.262500X0*%
%ADD21R,3.500000X3.500000*%
%ADD22RoundRect,0.750000X-0.750000X-1.000000X0.750000X-1.000000X0.750000X1.000000X-0.750000X1.000000X0*%
%ADD23RoundRect,0.875000X-0.875000X-0.875000X0.875000X-0.875000X0.875000X0.875000X-0.875000X0.875000X0*%
%ADD24RoundRect,0.250000X-0.262500X-0.450000X0.262500X-0.450000X0.262500X0.450000X-0.262500X0.450000X0*%
%ADD25RoundRect,0.250000X0.262500X0.450000X-0.262500X0.450000X-0.262500X-0.450000X0.262500X-0.450000X0*%
%ADD26RoundRect,0.250000X-0.250000X-0.475000X0.250000X-0.475000X0.250000X0.475000X-0.250000X0.475000X0*%
%ADD27RoundRect,0.250000X0.650000X-0.325000X0.650000X0.325000X-0.650000X0.325000X-0.650000X-0.325000X0*%
%ADD28R,0.450000X1.800000*%
%ADD29RoundRect,0.375000X0.625000X0.375000X-0.625000X0.375000X-0.625000X-0.375000X0.625000X-0.375000X0*%
%ADD30RoundRect,0.500000X0.500000X1.400000X-0.500000X1.400000X-0.500000X-1.400000X0.500000X-1.400000X0*%
%ADD31RoundRect,0.375000X-0.375000X0.625000X-0.375000X-0.625000X0.375000X-0.625000X0.375000X0.625000X0*%
%ADD32RoundRect,0.500000X-1.400000X0.500000X-1.400000X-0.500000X1.400000X-0.500000X1.400000X0.500000X0*%
%ADD33RoundRect,0.250000X-0.325000X-0.650000X0.325000X-0.650000X0.325000X0.650000X-0.325000X0.650000X0*%
%ADD34RoundRect,0.250000X0.475000X-0.250000X0.475000X0.250000X-0.475000X0.250000X-0.475000X-0.250000X0*%
%ADD35RoundRect,0.250000X-0.650000X0.325000X-0.650000X-0.325000X0.650000X-0.325000X0.650000X0.325000X0*%
%ADD36C,3.000000*%
%ADD37C,2.000000*%
%ADD38RoundRect,0.250000X-0.650000X1.000000X-0.650000X-1.000000X0.650000X-1.000000X0.650000X1.000000X0*%
%ADD39RoundRect,0.250000X0.325000X0.650000X-0.325000X0.650000X-0.325000X-0.650000X0.325000X-0.650000X0*%
%ADD40RoundRect,0.250000X0.325000X0.450000X-0.325000X0.450000X-0.325000X-0.450000X0.325000X-0.450000X0*%
%ADD41RoundRect,0.250000X-0.450000X0.350000X-0.450000X-0.350000X0.450000X-0.350000X0.450000X0.350000X0*%
%ADD42R,1.500000X0.650000*%
G04 APERTURE END LIST*
D10*
%TO.C,J2*%
X129540000Y-100076000D03*
D11*
X132080000Y-100076000D03*
X129540000Y-102616000D03*
X132080000Y-102616000D03*
X129540000Y-105156000D03*
X132080000Y-105156000D03*
X129540000Y-107696000D03*
X132080000Y-107696000D03*
X129540000Y-110236000D03*
X132080000Y-110236000D03*
X129540000Y-112776000D03*
X132080000Y-112776000D03*
X129540000Y-115316000D03*
X132080000Y-115316000D03*
X129540000Y-117856000D03*
X132080000Y-117856000D03*
X129540000Y-120396000D03*
X132080000Y-120396000D03*
X129540000Y-122936000D03*
X132080000Y-122936000D03*
X129540000Y-125476000D03*
X132080000Y-125476000D03*
%TD*%
D12*
%TO.C,D1*%
X145914900Y-66171700D03*
X149914900Y-66171700D03*
%TD*%
D13*
%TO.C,L2*%
X157292000Y-83185000D03*
X159342000Y-83185000D03*
%TD*%
D14*
%TO.C,C20*%
X194082400Y-103461400D03*
X192182400Y-103461400D03*
%TD*%
D15*
%TO.C,C4*%
X147630200Y-83368000D03*
X147630200Y-85268000D03*
%TD*%
D16*
%TO.C,C_Polarized1*%
X159461000Y-116679000D03*
D17*
X160961000Y-116679000D03*
%TD*%
D18*
%TO.C,IC4*%
X204529100Y-93957700D03*
X203259100Y-93957700D03*
X201989100Y-93957700D03*
X200719100Y-93957700D03*
X200719100Y-99357700D03*
X201989100Y-99357700D03*
X203259100Y-99357700D03*
X204529100Y-99357700D03*
%TD*%
D19*
%TO.C,R9*%
X207196100Y-90510900D03*
X207196100Y-88685900D03*
%TD*%
D20*
%TO.C,R4*%
X199412700Y-86525100D03*
X199412700Y-88350100D03*
%TD*%
D21*
%TO.C,J1*%
X132971900Y-75128600D03*
D22*
X126971900Y-75128600D03*
D23*
X129971900Y-79828600D03*
%TD*%
D24*
%TO.C,R14*%
X200086000Y-91679300D03*
X201911000Y-91679300D03*
%TD*%
D25*
%TO.C,R17*%
X195869900Y-105919400D03*
X194044900Y-105919400D03*
%TD*%
D16*
%TO.C,C_Polarized11*%
X180050000Y-107275000D03*
D17*
X181550000Y-107275000D03*
%TD*%
D14*
%TO.C,C6*%
X149995299Y-112894801D03*
X148095299Y-112894801D03*
%TD*%
D26*
%TO.C,C2*%
X159059400Y-103287499D03*
X160959400Y-103287499D03*
%TD*%
%TO.C,C1*%
X157675599Y-112691601D03*
X159575599Y-112691601D03*
%TD*%
D15*
%TO.C,C3*%
X152987600Y-66941600D03*
X152987600Y-68841600D03*
%TD*%
D27*
%TO.C,C9*%
X206848400Y-98078400D03*
X206848400Y-95128400D03*
%TD*%
D28*
%TO.C,IC1*%
X157171399Y-103248801D03*
X156521399Y-103248801D03*
X155871399Y-103248801D03*
X155221399Y-103248801D03*
X154571399Y-103248801D03*
X153921399Y-103248801D03*
X153271399Y-103248801D03*
X152621399Y-103248801D03*
X151971399Y-103248801D03*
X151321399Y-103248801D03*
X150671399Y-103248801D03*
X150021399Y-103248801D03*
X150021399Y-110348801D03*
X150671399Y-110348801D03*
X151321399Y-110348801D03*
X151971399Y-110348801D03*
X152621399Y-110348801D03*
X153271399Y-110348801D03*
X153921399Y-110348801D03*
X154571399Y-110348801D03*
X155221399Y-110348801D03*
X155871399Y-110348801D03*
X156521399Y-110348801D03*
X157171399Y-110348801D03*
%TD*%
D16*
%TO.C,C_Polarized10*%
X180100000Y-102300000D03*
D17*
X181600000Y-102300000D03*
%TD*%
D29*
%TO.C,U2*%
X145090600Y-85297200D03*
X145090600Y-82997200D03*
D30*
X138790600Y-82997200D03*
D29*
X145090600Y-80697200D03*
%TD*%
D20*
%TO.C,R8*%
X206652500Y-101688800D03*
X206652500Y-103513800D03*
%TD*%
D14*
%TO.C,C11*%
X198714400Y-110286800D03*
X196814400Y-110286800D03*
%TD*%
D20*
%TO.C,R11*%
X204910100Y-86349100D03*
X204910100Y-88174100D03*
%TD*%
D19*
%TO.C,R6*%
X206582400Y-107236900D03*
X206582400Y-105411900D03*
%TD*%
D25*
%TO.C,R3*%
X204394900Y-109224400D03*
X202569900Y-109224400D03*
%TD*%
D31*
%TO.C,U3*%
X150496500Y-69456500D03*
X148196500Y-69456500D03*
D32*
X148196500Y-75756500D03*
D31*
X145896500Y-69456500D03*
%TD*%
D16*
%TO.C,C_Polarized6*%
X155091000Y-99568000D03*
D17*
X156591000Y-99568000D03*
%TD*%
D13*
%TO.C,L1*%
X158429787Y-76408176D03*
X160479787Y-76408176D03*
%TD*%
D33*
%TO.C,C23*%
X138332000Y-89408000D03*
X141282000Y-89408000D03*
%TD*%
D15*
%TO.C,C7*%
X162495287Y-76400776D03*
X162495287Y-78300776D03*
%TD*%
D34*
%TO.C,C18*%
X204468100Y-103551300D03*
X204468100Y-101651300D03*
%TD*%
D24*
%TO.C,R7*%
X199869900Y-84374400D03*
X201694900Y-84374400D03*
%TD*%
D15*
%TO.C,C19*%
X204925300Y-90068900D03*
X204925300Y-91968900D03*
%TD*%
D16*
%TO.C,C_Polarized5*%
X166648000Y-103800000D03*
D17*
X168148000Y-103800000D03*
%TD*%
D35*
%TO.C,C13*%
X152146000Y-83156000D03*
X152146000Y-86106000D03*
%TD*%
D36*
%TO.C,J5*%
X197862000Y-69497000D03*
D37*
X204212000Y-67367000D03*
X204212000Y-78797000D03*
D36*
X207412000Y-67367000D03*
X207412000Y-78797000D03*
X194712000Y-67367000D03*
X194712000Y-78797000D03*
%TD*%
D34*
%TO.C,C16*%
X204432400Y-107274400D03*
X204432400Y-105374400D03*
%TD*%
%TO.C,C12*%
X197764400Y-84770000D03*
X197764400Y-82870000D03*
%TD*%
D16*
%TO.C,C_Polarized2*%
X159811000Y-99949000D03*
D17*
X161311000Y-99949000D03*
%TD*%
D16*
%TO.C,C_Polarized13*%
X209788599Y-108497399D03*
D17*
X209788599Y-109997399D03*
%TD*%
D38*
%TO.C,D2*%
X137160000Y-71120000D03*
X137160000Y-75120000D03*
%TD*%
D34*
%TO.C,C17*%
X202052400Y-88270800D03*
X202052400Y-86370800D03*
%TD*%
D39*
%TO.C,C10*%
X194607400Y-95333400D03*
X191657400Y-95333400D03*
%TD*%
D16*
%TO.C,C_Polarized8*%
X150876000Y-100179000D03*
D17*
X150876000Y-98679000D03*
%TD*%
D16*
%TO.C,C_Polarized12*%
X148844000Y-115609400D03*
D17*
X148844000Y-117109400D03*
%TD*%
D16*
%TO.C,C_Polarized4*%
X148502401Y-80010000D03*
D17*
X150002401Y-80010000D03*
%TD*%
D25*
%TO.C,R16*%
X197719900Y-108144400D03*
X195894900Y-108144400D03*
%TD*%
D33*
%TO.C,C24*%
X138332000Y-91948000D03*
X141282000Y-91948000D03*
%TD*%
D16*
%TO.C,C_Polarized9*%
X166600000Y-112600000D03*
D17*
X168100000Y-112600000D03*
%TD*%
D35*
%TO.C,C22*%
X153535000Y-76345000D03*
X153535000Y-79295000D03*
%TD*%
%TO.C,C21*%
X156035000Y-76345000D03*
X156035000Y-79295000D03*
%TD*%
D10*
%TO.C,J3*%
X185250000Y-101510000D03*
D11*
X185250000Y-104050000D03*
X185250000Y-106590000D03*
X185250000Y-109130000D03*
%TD*%
D16*
%TO.C,C_Polarized7*%
X155194000Y-114929000D03*
D17*
X155194000Y-116429000D03*
%TD*%
D40*
%TO.C,D3*%
X158410000Y-66970000D03*
X156360000Y-66970000D03*
%TD*%
D41*
%TO.C,R2*%
X158440000Y-69080000D03*
X158440000Y-71080000D03*
%TD*%
D19*
%TO.C,R10*%
X202232900Y-105647400D03*
X202232900Y-103822400D03*
%TD*%
D26*
%TO.C,C8*%
X161168000Y-83185000D03*
X163068000Y-83185000D03*
%TD*%
D16*
%TO.C,C_Polarized3*%
X142014800Y-70064600D03*
D17*
X142014800Y-71564600D03*
%TD*%
D24*
%TO.C,R13*%
X198932800Y-101585300D03*
X200757800Y-101585300D03*
%TD*%
D42*
%TO.C,IC5*%
X190432400Y-97519400D03*
X190432400Y-98789400D03*
X190432400Y-100059400D03*
X190432400Y-101329400D03*
X195832400Y-101329400D03*
X195832400Y-100059400D03*
X195832400Y-98789400D03*
X195832400Y-97519400D03*
%TD*%
D19*
%TO.C,R1*%
X144706000Y-117461500D03*
X144706000Y-115636500D03*
%TD*%
D36*
%TO.C,J4*%
X197709600Y-116283800D03*
D37*
X204059600Y-114153800D03*
X204059600Y-125583800D03*
D36*
X207259600Y-114153800D03*
X207259600Y-125583800D03*
X194559600Y-114153800D03*
X194559600Y-125583800D03*
%TD*%
D35*
%TO.C,C5*%
X154686000Y-83156000D03*
X154686000Y-86106000D03*
%TD*%
M02*
