%TF.GenerationSoftware,KiCad,Pcbnew,8.0.0*%
%TF.CreationDate,2024-09-30T13:32:15+02:00*%
%TF.ProjectId,guitar-effect,67756974-6172-42d6-9566-666563742e6b,rev?*%
%TF.SameCoordinates,Original*%
%TF.FileFunction,Legend,Top*%
%TF.FilePolarity,Positive*%
%FSLAX46Y46*%
G04 Gerber Fmt 4.6, Leading zero omitted, Abs format (unit mm)*
G04 Created by KiCad (PCBNEW 8.0.0) date 2024-09-30 13:32:15*
%MOMM*%
%LPD*%
G01*
G04 APERTURE LIST*
%ADD10C,0.150000*%
%ADD11C,0.254000*%
%ADD12C,0.100000*%
%ADD13C,0.120000*%
%ADD14C,0.200000*%
G04 APERTURE END LIST*
D10*
X133766666Y-68954819D02*
X133766666Y-69669104D01*
X133766666Y-69669104D02*
X133719047Y-69811961D01*
X133719047Y-69811961D02*
X133623809Y-69907200D01*
X133623809Y-69907200D02*
X133480952Y-69954819D01*
X133480952Y-69954819D02*
X133385714Y-69954819D01*
X134766666Y-69954819D02*
X134195238Y-69954819D01*
X134480952Y-69954819D02*
X134480952Y-68954819D01*
X134480952Y-68954819D02*
X134385714Y-69097676D01*
X134385714Y-69097676D02*
X134290476Y-69192914D01*
X134290476Y-69192914D02*
X134195238Y-69240533D01*
X200304266Y-99892619D02*
X200304266Y-100606904D01*
X200304266Y-100606904D02*
X200256647Y-100749761D01*
X200256647Y-100749761D02*
X200161409Y-100845000D01*
X200161409Y-100845000D02*
X200018552Y-100892619D01*
X200018552Y-100892619D02*
X199923314Y-100892619D01*
X201256647Y-99892619D02*
X200780457Y-99892619D01*
X200780457Y-99892619D02*
X200732838Y-100368809D01*
X200732838Y-100368809D02*
X200780457Y-100321190D01*
X200780457Y-100321190D02*
X200875695Y-100273571D01*
X200875695Y-100273571D02*
X201113790Y-100273571D01*
X201113790Y-100273571D02*
X201209028Y-100321190D01*
X201209028Y-100321190D02*
X201256647Y-100368809D01*
X201256647Y-100368809D02*
X201304266Y-100464047D01*
X201304266Y-100464047D02*
X201304266Y-100702142D01*
X201304266Y-100702142D02*
X201256647Y-100797380D01*
X201256647Y-100797380D02*
X201209028Y-100845000D01*
X201209028Y-100845000D02*
X201113790Y-100892619D01*
X201113790Y-100892619D02*
X200875695Y-100892619D01*
X200875695Y-100892619D02*
X200780457Y-100845000D01*
X200780457Y-100845000D02*
X200732838Y-100797380D01*
X185086666Y-68034819D02*
X185086666Y-68749104D01*
X185086666Y-68749104D02*
X185039047Y-68891961D01*
X185039047Y-68891961D02*
X184943809Y-68987200D01*
X184943809Y-68987200D02*
X184800952Y-69034819D01*
X184800952Y-69034819D02*
X184705714Y-69034819D01*
X185991428Y-68368152D02*
X185991428Y-69034819D01*
X185753333Y-67987200D02*
X185515238Y-68701485D01*
X185515238Y-68701485D02*
X186134285Y-68701485D01*
X145844189Y-114151580D02*
X145796570Y-114199200D01*
X145796570Y-114199200D02*
X145653713Y-114246819D01*
X145653713Y-114246819D02*
X145558475Y-114246819D01*
X145558475Y-114246819D02*
X145415618Y-114199200D01*
X145415618Y-114199200D02*
X145320380Y-114103961D01*
X145320380Y-114103961D02*
X145272761Y-114008723D01*
X145272761Y-114008723D02*
X145225142Y-113818247D01*
X145225142Y-113818247D02*
X145225142Y-113675390D01*
X145225142Y-113675390D02*
X145272761Y-113484914D01*
X145272761Y-113484914D02*
X145320380Y-113389676D01*
X145320380Y-113389676D02*
X145415618Y-113294438D01*
X145415618Y-113294438D02*
X145558475Y-113246819D01*
X145558475Y-113246819D02*
X145653713Y-113246819D01*
X145653713Y-113246819D02*
X145796570Y-113294438D01*
X145796570Y-113294438D02*
X145844189Y-113342057D01*
X146034666Y-114342057D02*
X146796570Y-114342057D01*
X147034666Y-114246819D02*
X147034666Y-113246819D01*
X147034666Y-113246819D02*
X147415618Y-113246819D01*
X147415618Y-113246819D02*
X147510856Y-113294438D01*
X147510856Y-113294438D02*
X147558475Y-113342057D01*
X147558475Y-113342057D02*
X147606094Y-113437295D01*
X147606094Y-113437295D02*
X147606094Y-113580152D01*
X147606094Y-113580152D02*
X147558475Y-113675390D01*
X147558475Y-113675390D02*
X147510856Y-113723009D01*
X147510856Y-113723009D02*
X147415618Y-113770628D01*
X147415618Y-113770628D02*
X147034666Y-113770628D01*
X148177523Y-114246819D02*
X148082285Y-114199200D01*
X148082285Y-114199200D02*
X148034666Y-114151580D01*
X148034666Y-114151580D02*
X147987047Y-114056342D01*
X147987047Y-114056342D02*
X147987047Y-113770628D01*
X147987047Y-113770628D02*
X148034666Y-113675390D01*
X148034666Y-113675390D02*
X148082285Y-113627771D01*
X148082285Y-113627771D02*
X148177523Y-113580152D01*
X148177523Y-113580152D02*
X148320380Y-113580152D01*
X148320380Y-113580152D02*
X148415618Y-113627771D01*
X148415618Y-113627771D02*
X148463237Y-113675390D01*
X148463237Y-113675390D02*
X148510856Y-113770628D01*
X148510856Y-113770628D02*
X148510856Y-114056342D01*
X148510856Y-114056342D02*
X148463237Y-114151580D01*
X148463237Y-114151580D02*
X148415618Y-114199200D01*
X148415618Y-114199200D02*
X148320380Y-114246819D01*
X148320380Y-114246819D02*
X148177523Y-114246819D01*
X149082285Y-114246819D02*
X148987047Y-114199200D01*
X148987047Y-114199200D02*
X148939428Y-114103961D01*
X148939428Y-114103961D02*
X148939428Y-113246819D01*
X149891809Y-114246819D02*
X149891809Y-113723009D01*
X149891809Y-113723009D02*
X149844190Y-113627771D01*
X149844190Y-113627771D02*
X149748952Y-113580152D01*
X149748952Y-113580152D02*
X149558476Y-113580152D01*
X149558476Y-113580152D02*
X149463238Y-113627771D01*
X149891809Y-114199200D02*
X149796571Y-114246819D01*
X149796571Y-114246819D02*
X149558476Y-114246819D01*
X149558476Y-114246819D02*
X149463238Y-114199200D01*
X149463238Y-114199200D02*
X149415619Y-114103961D01*
X149415619Y-114103961D02*
X149415619Y-114008723D01*
X149415619Y-114008723D02*
X149463238Y-113913485D01*
X149463238Y-113913485D02*
X149558476Y-113865866D01*
X149558476Y-113865866D02*
X149796571Y-113865866D01*
X149796571Y-113865866D02*
X149891809Y-113818247D01*
X150368000Y-114246819D02*
X150368000Y-113580152D01*
X150368000Y-113770628D02*
X150415619Y-113675390D01*
X150415619Y-113675390D02*
X150463238Y-113627771D01*
X150463238Y-113627771D02*
X150558476Y-113580152D01*
X150558476Y-113580152D02*
X150653714Y-113580152D01*
X150987048Y-114246819D02*
X150987048Y-113580152D01*
X150987048Y-113246819D02*
X150939429Y-113294438D01*
X150939429Y-113294438D02*
X150987048Y-113342057D01*
X150987048Y-113342057D02*
X151034667Y-113294438D01*
X151034667Y-113294438D02*
X150987048Y-113246819D01*
X150987048Y-113246819D02*
X150987048Y-113342057D01*
X151368000Y-113580152D02*
X151891809Y-113580152D01*
X151891809Y-113580152D02*
X151368000Y-114246819D01*
X151368000Y-114246819D02*
X151891809Y-114246819D01*
X152653714Y-114199200D02*
X152558476Y-114246819D01*
X152558476Y-114246819D02*
X152368000Y-114246819D01*
X152368000Y-114246819D02*
X152272762Y-114199200D01*
X152272762Y-114199200D02*
X152225143Y-114103961D01*
X152225143Y-114103961D02*
X152225143Y-113723009D01*
X152225143Y-113723009D02*
X152272762Y-113627771D01*
X152272762Y-113627771D02*
X152368000Y-113580152D01*
X152368000Y-113580152D02*
X152558476Y-113580152D01*
X152558476Y-113580152D02*
X152653714Y-113627771D01*
X152653714Y-113627771D02*
X152701333Y-113723009D01*
X152701333Y-113723009D02*
X152701333Y-113818247D01*
X152701333Y-113818247D02*
X152225143Y-113913485D01*
X153558476Y-114246819D02*
X153558476Y-113246819D01*
X153558476Y-114199200D02*
X153463238Y-114246819D01*
X153463238Y-114246819D02*
X153272762Y-114246819D01*
X153272762Y-114246819D02*
X153177524Y-114199200D01*
X153177524Y-114199200D02*
X153129905Y-114151580D01*
X153129905Y-114151580D02*
X153082286Y-114056342D01*
X153082286Y-114056342D02*
X153082286Y-113770628D01*
X153082286Y-113770628D02*
X153129905Y-113675390D01*
X153129905Y-113675390D02*
X153177524Y-113627771D01*
X153177524Y-113627771D02*
X153272762Y-113580152D01*
X153272762Y-113580152D02*
X153463238Y-113580152D01*
X153463238Y-113580152D02*
X153558476Y-113627771D01*
X154558476Y-114246819D02*
X153987048Y-114246819D01*
X154272762Y-114246819D02*
X154272762Y-113246819D01*
X154272762Y-113246819D02*
X154177524Y-113389676D01*
X154177524Y-113389676D02*
X154082286Y-113484914D01*
X154082286Y-113484914D02*
X153987048Y-113532533D01*
X155510857Y-114246819D02*
X154939429Y-114246819D01*
X155225143Y-114246819D02*
X155225143Y-113246819D01*
X155225143Y-113246819D02*
X155129905Y-113389676D01*
X155129905Y-113389676D02*
X155034667Y-113484914D01*
X155034667Y-113484914D02*
X154939429Y-113532533D01*
X165910189Y-113389580D02*
X165862570Y-113437200D01*
X165862570Y-113437200D02*
X165719713Y-113484819D01*
X165719713Y-113484819D02*
X165624475Y-113484819D01*
X165624475Y-113484819D02*
X165481618Y-113437200D01*
X165481618Y-113437200D02*
X165386380Y-113341961D01*
X165386380Y-113341961D02*
X165338761Y-113246723D01*
X165338761Y-113246723D02*
X165291142Y-113056247D01*
X165291142Y-113056247D02*
X165291142Y-112913390D01*
X165291142Y-112913390D02*
X165338761Y-112722914D01*
X165338761Y-112722914D02*
X165386380Y-112627676D01*
X165386380Y-112627676D02*
X165481618Y-112532438D01*
X165481618Y-112532438D02*
X165624475Y-112484819D01*
X165624475Y-112484819D02*
X165719713Y-112484819D01*
X165719713Y-112484819D02*
X165862570Y-112532438D01*
X165862570Y-112532438D02*
X165910189Y-112580057D01*
X166100666Y-113580057D02*
X166862570Y-113580057D01*
X167100666Y-113484819D02*
X167100666Y-112484819D01*
X167100666Y-112484819D02*
X167481618Y-112484819D01*
X167481618Y-112484819D02*
X167576856Y-112532438D01*
X167576856Y-112532438D02*
X167624475Y-112580057D01*
X167624475Y-112580057D02*
X167672094Y-112675295D01*
X167672094Y-112675295D02*
X167672094Y-112818152D01*
X167672094Y-112818152D02*
X167624475Y-112913390D01*
X167624475Y-112913390D02*
X167576856Y-112961009D01*
X167576856Y-112961009D02*
X167481618Y-113008628D01*
X167481618Y-113008628D02*
X167100666Y-113008628D01*
X168243523Y-113484819D02*
X168148285Y-113437200D01*
X168148285Y-113437200D02*
X168100666Y-113389580D01*
X168100666Y-113389580D02*
X168053047Y-113294342D01*
X168053047Y-113294342D02*
X168053047Y-113008628D01*
X168053047Y-113008628D02*
X168100666Y-112913390D01*
X168100666Y-112913390D02*
X168148285Y-112865771D01*
X168148285Y-112865771D02*
X168243523Y-112818152D01*
X168243523Y-112818152D02*
X168386380Y-112818152D01*
X168386380Y-112818152D02*
X168481618Y-112865771D01*
X168481618Y-112865771D02*
X168529237Y-112913390D01*
X168529237Y-112913390D02*
X168576856Y-113008628D01*
X168576856Y-113008628D02*
X168576856Y-113294342D01*
X168576856Y-113294342D02*
X168529237Y-113389580D01*
X168529237Y-113389580D02*
X168481618Y-113437200D01*
X168481618Y-113437200D02*
X168386380Y-113484819D01*
X168386380Y-113484819D02*
X168243523Y-113484819D01*
X169148285Y-113484819D02*
X169053047Y-113437200D01*
X169053047Y-113437200D02*
X169005428Y-113341961D01*
X169005428Y-113341961D02*
X169005428Y-112484819D01*
X169957809Y-113484819D02*
X169957809Y-112961009D01*
X169957809Y-112961009D02*
X169910190Y-112865771D01*
X169910190Y-112865771D02*
X169814952Y-112818152D01*
X169814952Y-112818152D02*
X169624476Y-112818152D01*
X169624476Y-112818152D02*
X169529238Y-112865771D01*
X169957809Y-113437200D02*
X169862571Y-113484819D01*
X169862571Y-113484819D02*
X169624476Y-113484819D01*
X169624476Y-113484819D02*
X169529238Y-113437200D01*
X169529238Y-113437200D02*
X169481619Y-113341961D01*
X169481619Y-113341961D02*
X169481619Y-113246723D01*
X169481619Y-113246723D02*
X169529238Y-113151485D01*
X169529238Y-113151485D02*
X169624476Y-113103866D01*
X169624476Y-113103866D02*
X169862571Y-113103866D01*
X169862571Y-113103866D02*
X169957809Y-113056247D01*
X170434000Y-113484819D02*
X170434000Y-112818152D01*
X170434000Y-113008628D02*
X170481619Y-112913390D01*
X170481619Y-112913390D02*
X170529238Y-112865771D01*
X170529238Y-112865771D02*
X170624476Y-112818152D01*
X170624476Y-112818152D02*
X170719714Y-112818152D01*
X171053048Y-113484819D02*
X171053048Y-112818152D01*
X171053048Y-112484819D02*
X171005429Y-112532438D01*
X171005429Y-112532438D02*
X171053048Y-112580057D01*
X171053048Y-112580057D02*
X171100667Y-112532438D01*
X171100667Y-112532438D02*
X171053048Y-112484819D01*
X171053048Y-112484819D02*
X171053048Y-112580057D01*
X171434000Y-112818152D02*
X171957809Y-112818152D01*
X171957809Y-112818152D02*
X171434000Y-113484819D01*
X171434000Y-113484819D02*
X171957809Y-113484819D01*
X172719714Y-113437200D02*
X172624476Y-113484819D01*
X172624476Y-113484819D02*
X172434000Y-113484819D01*
X172434000Y-113484819D02*
X172338762Y-113437200D01*
X172338762Y-113437200D02*
X172291143Y-113341961D01*
X172291143Y-113341961D02*
X172291143Y-112961009D01*
X172291143Y-112961009D02*
X172338762Y-112865771D01*
X172338762Y-112865771D02*
X172434000Y-112818152D01*
X172434000Y-112818152D02*
X172624476Y-112818152D01*
X172624476Y-112818152D02*
X172719714Y-112865771D01*
X172719714Y-112865771D02*
X172767333Y-112961009D01*
X172767333Y-112961009D02*
X172767333Y-113056247D01*
X172767333Y-113056247D02*
X172291143Y-113151485D01*
X173624476Y-113484819D02*
X173624476Y-112484819D01*
X173624476Y-113437200D02*
X173529238Y-113484819D01*
X173529238Y-113484819D02*
X173338762Y-113484819D01*
X173338762Y-113484819D02*
X173243524Y-113437200D01*
X173243524Y-113437200D02*
X173195905Y-113389580D01*
X173195905Y-113389580D02*
X173148286Y-113294342D01*
X173148286Y-113294342D02*
X173148286Y-113008628D01*
X173148286Y-113008628D02*
X173195905Y-112913390D01*
X173195905Y-112913390D02*
X173243524Y-112865771D01*
X173243524Y-112865771D02*
X173338762Y-112818152D01*
X173338762Y-112818152D02*
X173529238Y-112818152D01*
X173529238Y-112818152D02*
X173624476Y-112865771D01*
X174624476Y-113484819D02*
X174053048Y-113484819D01*
X174338762Y-113484819D02*
X174338762Y-112484819D01*
X174338762Y-112484819D02*
X174243524Y-112627676D01*
X174243524Y-112627676D02*
X174148286Y-112722914D01*
X174148286Y-112722914D02*
X174053048Y-112770533D01*
X175243524Y-112484819D02*
X175338762Y-112484819D01*
X175338762Y-112484819D02*
X175434000Y-112532438D01*
X175434000Y-112532438D02*
X175481619Y-112580057D01*
X175481619Y-112580057D02*
X175529238Y-112675295D01*
X175529238Y-112675295D02*
X175576857Y-112865771D01*
X175576857Y-112865771D02*
X175576857Y-113103866D01*
X175576857Y-113103866D02*
X175529238Y-113294342D01*
X175529238Y-113294342D02*
X175481619Y-113389580D01*
X175481619Y-113389580D02*
X175434000Y-113437200D01*
X175434000Y-113437200D02*
X175338762Y-113484819D01*
X175338762Y-113484819D02*
X175243524Y-113484819D01*
X175243524Y-113484819D02*
X175148286Y-113437200D01*
X175148286Y-113437200D02*
X175100667Y-113389580D01*
X175100667Y-113389580D02*
X175053048Y-113294342D01*
X175053048Y-113294342D02*
X175005429Y-113103866D01*
X175005429Y-113103866D02*
X175005429Y-112865771D01*
X175005429Y-112865771D02*
X175053048Y-112675295D01*
X175053048Y-112675295D02*
X175100667Y-112580057D01*
X175100667Y-112580057D02*
X175148286Y-112532438D01*
X175148286Y-112532438D02*
X175243524Y-112484819D01*
X164569580Y-113528619D02*
X164617200Y-113576238D01*
X164617200Y-113576238D02*
X164664819Y-113719095D01*
X164664819Y-113719095D02*
X164664819Y-113814333D01*
X164664819Y-113814333D02*
X164617200Y-113957190D01*
X164617200Y-113957190D02*
X164521961Y-114052428D01*
X164521961Y-114052428D02*
X164426723Y-114100047D01*
X164426723Y-114100047D02*
X164236247Y-114147666D01*
X164236247Y-114147666D02*
X164093390Y-114147666D01*
X164093390Y-114147666D02*
X163902914Y-114100047D01*
X163902914Y-114100047D02*
X163807676Y-114052428D01*
X163807676Y-114052428D02*
X163712438Y-113957190D01*
X163712438Y-113957190D02*
X163664819Y-113814333D01*
X163664819Y-113814333D02*
X163664819Y-113719095D01*
X163664819Y-113719095D02*
X163712438Y-113576238D01*
X163712438Y-113576238D02*
X163760057Y-113528619D01*
X164760057Y-113338143D02*
X164760057Y-112576238D01*
X164664819Y-112338142D02*
X163664819Y-112338142D01*
X163664819Y-112338142D02*
X163664819Y-111957190D01*
X163664819Y-111957190D02*
X163712438Y-111861952D01*
X163712438Y-111861952D02*
X163760057Y-111814333D01*
X163760057Y-111814333D02*
X163855295Y-111766714D01*
X163855295Y-111766714D02*
X163998152Y-111766714D01*
X163998152Y-111766714D02*
X164093390Y-111814333D01*
X164093390Y-111814333D02*
X164141009Y-111861952D01*
X164141009Y-111861952D02*
X164188628Y-111957190D01*
X164188628Y-111957190D02*
X164188628Y-112338142D01*
X164664819Y-111195285D02*
X164617200Y-111290523D01*
X164617200Y-111290523D02*
X164569580Y-111338142D01*
X164569580Y-111338142D02*
X164474342Y-111385761D01*
X164474342Y-111385761D02*
X164188628Y-111385761D01*
X164188628Y-111385761D02*
X164093390Y-111338142D01*
X164093390Y-111338142D02*
X164045771Y-111290523D01*
X164045771Y-111290523D02*
X163998152Y-111195285D01*
X163998152Y-111195285D02*
X163998152Y-111052428D01*
X163998152Y-111052428D02*
X164045771Y-110957190D01*
X164045771Y-110957190D02*
X164093390Y-110909571D01*
X164093390Y-110909571D02*
X164188628Y-110861952D01*
X164188628Y-110861952D02*
X164474342Y-110861952D01*
X164474342Y-110861952D02*
X164569580Y-110909571D01*
X164569580Y-110909571D02*
X164617200Y-110957190D01*
X164617200Y-110957190D02*
X164664819Y-111052428D01*
X164664819Y-111052428D02*
X164664819Y-111195285D01*
X164664819Y-110290523D02*
X164617200Y-110385761D01*
X164617200Y-110385761D02*
X164521961Y-110433380D01*
X164521961Y-110433380D02*
X163664819Y-110433380D01*
X164664819Y-109480999D02*
X164141009Y-109480999D01*
X164141009Y-109480999D02*
X164045771Y-109528618D01*
X164045771Y-109528618D02*
X163998152Y-109623856D01*
X163998152Y-109623856D02*
X163998152Y-109814332D01*
X163998152Y-109814332D02*
X164045771Y-109909570D01*
X164617200Y-109480999D02*
X164664819Y-109576237D01*
X164664819Y-109576237D02*
X164664819Y-109814332D01*
X164664819Y-109814332D02*
X164617200Y-109909570D01*
X164617200Y-109909570D02*
X164521961Y-109957189D01*
X164521961Y-109957189D02*
X164426723Y-109957189D01*
X164426723Y-109957189D02*
X164331485Y-109909570D01*
X164331485Y-109909570D02*
X164283866Y-109814332D01*
X164283866Y-109814332D02*
X164283866Y-109576237D01*
X164283866Y-109576237D02*
X164236247Y-109480999D01*
X164664819Y-109004808D02*
X163998152Y-109004808D01*
X164188628Y-109004808D02*
X164093390Y-108957189D01*
X164093390Y-108957189D02*
X164045771Y-108909570D01*
X164045771Y-108909570D02*
X163998152Y-108814332D01*
X163998152Y-108814332D02*
X163998152Y-108719094D01*
X164664819Y-108385760D02*
X163998152Y-108385760D01*
X163664819Y-108385760D02*
X163712438Y-108433379D01*
X163712438Y-108433379D02*
X163760057Y-108385760D01*
X163760057Y-108385760D02*
X163712438Y-108338141D01*
X163712438Y-108338141D02*
X163664819Y-108385760D01*
X163664819Y-108385760D02*
X163760057Y-108385760D01*
X163998152Y-108004808D02*
X163998152Y-107480999D01*
X163998152Y-107480999D02*
X164664819Y-108004808D01*
X164664819Y-108004808D02*
X164664819Y-107480999D01*
X164617200Y-106719094D02*
X164664819Y-106814332D01*
X164664819Y-106814332D02*
X164664819Y-107004808D01*
X164664819Y-107004808D02*
X164617200Y-107100046D01*
X164617200Y-107100046D02*
X164521961Y-107147665D01*
X164521961Y-107147665D02*
X164141009Y-107147665D01*
X164141009Y-107147665D02*
X164045771Y-107100046D01*
X164045771Y-107100046D02*
X163998152Y-107004808D01*
X163998152Y-107004808D02*
X163998152Y-106814332D01*
X163998152Y-106814332D02*
X164045771Y-106719094D01*
X164045771Y-106719094D02*
X164141009Y-106671475D01*
X164141009Y-106671475D02*
X164236247Y-106671475D01*
X164236247Y-106671475D02*
X164331485Y-107147665D01*
X164664819Y-105814332D02*
X163664819Y-105814332D01*
X164617200Y-105814332D02*
X164664819Y-105909570D01*
X164664819Y-105909570D02*
X164664819Y-106100046D01*
X164664819Y-106100046D02*
X164617200Y-106195284D01*
X164617200Y-106195284D02*
X164569580Y-106242903D01*
X164569580Y-106242903D02*
X164474342Y-106290522D01*
X164474342Y-106290522D02*
X164188628Y-106290522D01*
X164188628Y-106290522D02*
X164093390Y-106242903D01*
X164093390Y-106242903D02*
X164045771Y-106195284D01*
X164045771Y-106195284D02*
X163998152Y-106100046D01*
X163998152Y-106100046D02*
X163998152Y-105909570D01*
X163998152Y-105909570D02*
X164045771Y-105814332D01*
X164664819Y-104814332D02*
X164664819Y-105385760D01*
X164664819Y-105100046D02*
X163664819Y-105100046D01*
X163664819Y-105100046D02*
X163807676Y-105195284D01*
X163807676Y-105195284D02*
X163902914Y-105290522D01*
X163902914Y-105290522D02*
X163950533Y-105385760D01*
X164552381Y-81782180D02*
X164504762Y-81829800D01*
X164504762Y-81829800D02*
X164361905Y-81877419D01*
X164361905Y-81877419D02*
X164266667Y-81877419D01*
X164266667Y-81877419D02*
X164123810Y-81829800D01*
X164123810Y-81829800D02*
X164028572Y-81734561D01*
X164028572Y-81734561D02*
X163980953Y-81639323D01*
X163980953Y-81639323D02*
X163933334Y-81448847D01*
X163933334Y-81448847D02*
X163933334Y-81305990D01*
X163933334Y-81305990D02*
X163980953Y-81115514D01*
X163980953Y-81115514D02*
X164028572Y-81020276D01*
X164028572Y-81020276D02*
X164123810Y-80925038D01*
X164123810Y-80925038D02*
X164266667Y-80877419D01*
X164266667Y-80877419D02*
X164361905Y-80877419D01*
X164361905Y-80877419D02*
X164504762Y-80925038D01*
X164504762Y-80925038D02*
X164552381Y-80972657D01*
X164742858Y-81972657D02*
X165504762Y-81972657D01*
X165742858Y-81877419D02*
X165742858Y-80877419D01*
X165742858Y-80877419D02*
X166123810Y-80877419D01*
X166123810Y-80877419D02*
X166219048Y-80925038D01*
X166219048Y-80925038D02*
X166266667Y-80972657D01*
X166266667Y-80972657D02*
X166314286Y-81067895D01*
X166314286Y-81067895D02*
X166314286Y-81210752D01*
X166314286Y-81210752D02*
X166266667Y-81305990D01*
X166266667Y-81305990D02*
X166219048Y-81353609D01*
X166219048Y-81353609D02*
X166123810Y-81401228D01*
X166123810Y-81401228D02*
X165742858Y-81401228D01*
X166885715Y-81877419D02*
X166790477Y-81829800D01*
X166790477Y-81829800D02*
X166742858Y-81782180D01*
X166742858Y-81782180D02*
X166695239Y-81686942D01*
X166695239Y-81686942D02*
X166695239Y-81401228D01*
X166695239Y-81401228D02*
X166742858Y-81305990D01*
X166742858Y-81305990D02*
X166790477Y-81258371D01*
X166790477Y-81258371D02*
X166885715Y-81210752D01*
X166885715Y-81210752D02*
X167028572Y-81210752D01*
X167028572Y-81210752D02*
X167123810Y-81258371D01*
X167123810Y-81258371D02*
X167171429Y-81305990D01*
X167171429Y-81305990D02*
X167219048Y-81401228D01*
X167219048Y-81401228D02*
X167219048Y-81686942D01*
X167219048Y-81686942D02*
X167171429Y-81782180D01*
X167171429Y-81782180D02*
X167123810Y-81829800D01*
X167123810Y-81829800D02*
X167028572Y-81877419D01*
X167028572Y-81877419D02*
X166885715Y-81877419D01*
X167790477Y-81877419D02*
X167695239Y-81829800D01*
X167695239Y-81829800D02*
X167647620Y-81734561D01*
X167647620Y-81734561D02*
X167647620Y-80877419D01*
X168600001Y-81877419D02*
X168600001Y-81353609D01*
X168600001Y-81353609D02*
X168552382Y-81258371D01*
X168552382Y-81258371D02*
X168457144Y-81210752D01*
X168457144Y-81210752D02*
X168266668Y-81210752D01*
X168266668Y-81210752D02*
X168171430Y-81258371D01*
X168600001Y-81829800D02*
X168504763Y-81877419D01*
X168504763Y-81877419D02*
X168266668Y-81877419D01*
X168266668Y-81877419D02*
X168171430Y-81829800D01*
X168171430Y-81829800D02*
X168123811Y-81734561D01*
X168123811Y-81734561D02*
X168123811Y-81639323D01*
X168123811Y-81639323D02*
X168171430Y-81544085D01*
X168171430Y-81544085D02*
X168266668Y-81496466D01*
X168266668Y-81496466D02*
X168504763Y-81496466D01*
X168504763Y-81496466D02*
X168600001Y-81448847D01*
X169076192Y-81877419D02*
X169076192Y-81210752D01*
X169076192Y-81401228D02*
X169123811Y-81305990D01*
X169123811Y-81305990D02*
X169171430Y-81258371D01*
X169171430Y-81258371D02*
X169266668Y-81210752D01*
X169266668Y-81210752D02*
X169361906Y-81210752D01*
X169695240Y-81877419D02*
X169695240Y-81210752D01*
X169695240Y-80877419D02*
X169647621Y-80925038D01*
X169647621Y-80925038D02*
X169695240Y-80972657D01*
X169695240Y-80972657D02*
X169742859Y-80925038D01*
X169742859Y-80925038D02*
X169695240Y-80877419D01*
X169695240Y-80877419D02*
X169695240Y-80972657D01*
X170076192Y-81210752D02*
X170600001Y-81210752D01*
X170600001Y-81210752D02*
X170076192Y-81877419D01*
X170076192Y-81877419D02*
X170600001Y-81877419D01*
X171361906Y-81829800D02*
X171266668Y-81877419D01*
X171266668Y-81877419D02*
X171076192Y-81877419D01*
X171076192Y-81877419D02*
X170980954Y-81829800D01*
X170980954Y-81829800D02*
X170933335Y-81734561D01*
X170933335Y-81734561D02*
X170933335Y-81353609D01*
X170933335Y-81353609D02*
X170980954Y-81258371D01*
X170980954Y-81258371D02*
X171076192Y-81210752D01*
X171076192Y-81210752D02*
X171266668Y-81210752D01*
X171266668Y-81210752D02*
X171361906Y-81258371D01*
X171361906Y-81258371D02*
X171409525Y-81353609D01*
X171409525Y-81353609D02*
X171409525Y-81448847D01*
X171409525Y-81448847D02*
X170933335Y-81544085D01*
X172266668Y-81877419D02*
X172266668Y-80877419D01*
X172266668Y-81829800D02*
X172171430Y-81877419D01*
X172171430Y-81877419D02*
X171980954Y-81877419D01*
X171980954Y-81877419D02*
X171885716Y-81829800D01*
X171885716Y-81829800D02*
X171838097Y-81782180D01*
X171838097Y-81782180D02*
X171790478Y-81686942D01*
X171790478Y-81686942D02*
X171790478Y-81401228D01*
X171790478Y-81401228D02*
X171838097Y-81305990D01*
X171838097Y-81305990D02*
X171885716Y-81258371D01*
X171885716Y-81258371D02*
X171980954Y-81210752D01*
X171980954Y-81210752D02*
X172171430Y-81210752D01*
X172171430Y-81210752D02*
X172266668Y-81258371D01*
X173171430Y-80877419D02*
X172980954Y-80877419D01*
X172980954Y-80877419D02*
X172885716Y-80925038D01*
X172885716Y-80925038D02*
X172838097Y-80972657D01*
X172838097Y-80972657D02*
X172742859Y-81115514D01*
X172742859Y-81115514D02*
X172695240Y-81305990D01*
X172695240Y-81305990D02*
X172695240Y-81686942D01*
X172695240Y-81686942D02*
X172742859Y-81782180D01*
X172742859Y-81782180D02*
X172790478Y-81829800D01*
X172790478Y-81829800D02*
X172885716Y-81877419D01*
X172885716Y-81877419D02*
X173076192Y-81877419D01*
X173076192Y-81877419D02*
X173171430Y-81829800D01*
X173171430Y-81829800D02*
X173219049Y-81782180D01*
X173219049Y-81782180D02*
X173266668Y-81686942D01*
X173266668Y-81686942D02*
X173266668Y-81448847D01*
X173266668Y-81448847D02*
X173219049Y-81353609D01*
X173219049Y-81353609D02*
X173171430Y-81305990D01*
X173171430Y-81305990D02*
X173076192Y-81258371D01*
X173076192Y-81258371D02*
X172885716Y-81258371D01*
X172885716Y-81258371D02*
X172790478Y-81305990D01*
X172790478Y-81305990D02*
X172742859Y-81353609D01*
X172742859Y-81353609D02*
X172695240Y-81448847D01*
X171682580Y-109838619D02*
X171730200Y-109886238D01*
X171730200Y-109886238D02*
X171777819Y-110029095D01*
X171777819Y-110029095D02*
X171777819Y-110124333D01*
X171777819Y-110124333D02*
X171730200Y-110267190D01*
X171730200Y-110267190D02*
X171634961Y-110362428D01*
X171634961Y-110362428D02*
X171539723Y-110410047D01*
X171539723Y-110410047D02*
X171349247Y-110457666D01*
X171349247Y-110457666D02*
X171206390Y-110457666D01*
X171206390Y-110457666D02*
X171015914Y-110410047D01*
X171015914Y-110410047D02*
X170920676Y-110362428D01*
X170920676Y-110362428D02*
X170825438Y-110267190D01*
X170825438Y-110267190D02*
X170777819Y-110124333D01*
X170777819Y-110124333D02*
X170777819Y-110029095D01*
X170777819Y-110029095D02*
X170825438Y-109886238D01*
X170825438Y-109886238D02*
X170873057Y-109838619D01*
X171873057Y-109648143D02*
X171873057Y-108886238D01*
X171777819Y-108648142D02*
X170777819Y-108648142D01*
X170777819Y-108648142D02*
X170777819Y-108267190D01*
X170777819Y-108267190D02*
X170825438Y-108171952D01*
X170825438Y-108171952D02*
X170873057Y-108124333D01*
X170873057Y-108124333D02*
X170968295Y-108076714D01*
X170968295Y-108076714D02*
X171111152Y-108076714D01*
X171111152Y-108076714D02*
X171206390Y-108124333D01*
X171206390Y-108124333D02*
X171254009Y-108171952D01*
X171254009Y-108171952D02*
X171301628Y-108267190D01*
X171301628Y-108267190D02*
X171301628Y-108648142D01*
X171777819Y-107505285D02*
X171730200Y-107600523D01*
X171730200Y-107600523D02*
X171682580Y-107648142D01*
X171682580Y-107648142D02*
X171587342Y-107695761D01*
X171587342Y-107695761D02*
X171301628Y-107695761D01*
X171301628Y-107695761D02*
X171206390Y-107648142D01*
X171206390Y-107648142D02*
X171158771Y-107600523D01*
X171158771Y-107600523D02*
X171111152Y-107505285D01*
X171111152Y-107505285D02*
X171111152Y-107362428D01*
X171111152Y-107362428D02*
X171158771Y-107267190D01*
X171158771Y-107267190D02*
X171206390Y-107219571D01*
X171206390Y-107219571D02*
X171301628Y-107171952D01*
X171301628Y-107171952D02*
X171587342Y-107171952D01*
X171587342Y-107171952D02*
X171682580Y-107219571D01*
X171682580Y-107219571D02*
X171730200Y-107267190D01*
X171730200Y-107267190D02*
X171777819Y-107362428D01*
X171777819Y-107362428D02*
X171777819Y-107505285D01*
X171777819Y-106600523D02*
X171730200Y-106695761D01*
X171730200Y-106695761D02*
X171634961Y-106743380D01*
X171634961Y-106743380D02*
X170777819Y-106743380D01*
X171777819Y-105790999D02*
X171254009Y-105790999D01*
X171254009Y-105790999D02*
X171158771Y-105838618D01*
X171158771Y-105838618D02*
X171111152Y-105933856D01*
X171111152Y-105933856D02*
X171111152Y-106124332D01*
X171111152Y-106124332D02*
X171158771Y-106219570D01*
X171730200Y-105790999D02*
X171777819Y-105886237D01*
X171777819Y-105886237D02*
X171777819Y-106124332D01*
X171777819Y-106124332D02*
X171730200Y-106219570D01*
X171730200Y-106219570D02*
X171634961Y-106267189D01*
X171634961Y-106267189D02*
X171539723Y-106267189D01*
X171539723Y-106267189D02*
X171444485Y-106219570D01*
X171444485Y-106219570D02*
X171396866Y-106124332D01*
X171396866Y-106124332D02*
X171396866Y-105886237D01*
X171396866Y-105886237D02*
X171349247Y-105790999D01*
X171777819Y-105314808D02*
X171111152Y-105314808D01*
X171301628Y-105314808D02*
X171206390Y-105267189D01*
X171206390Y-105267189D02*
X171158771Y-105219570D01*
X171158771Y-105219570D02*
X171111152Y-105124332D01*
X171111152Y-105124332D02*
X171111152Y-105029094D01*
X171777819Y-104695760D02*
X171111152Y-104695760D01*
X170777819Y-104695760D02*
X170825438Y-104743379D01*
X170825438Y-104743379D02*
X170873057Y-104695760D01*
X170873057Y-104695760D02*
X170825438Y-104648141D01*
X170825438Y-104648141D02*
X170777819Y-104695760D01*
X170777819Y-104695760D02*
X170873057Y-104695760D01*
X171111152Y-104314808D02*
X171111152Y-103790999D01*
X171111152Y-103790999D02*
X171777819Y-104314808D01*
X171777819Y-104314808D02*
X171777819Y-103790999D01*
X171730200Y-103029094D02*
X171777819Y-103124332D01*
X171777819Y-103124332D02*
X171777819Y-103314808D01*
X171777819Y-103314808D02*
X171730200Y-103410046D01*
X171730200Y-103410046D02*
X171634961Y-103457665D01*
X171634961Y-103457665D02*
X171254009Y-103457665D01*
X171254009Y-103457665D02*
X171158771Y-103410046D01*
X171158771Y-103410046D02*
X171111152Y-103314808D01*
X171111152Y-103314808D02*
X171111152Y-103124332D01*
X171111152Y-103124332D02*
X171158771Y-103029094D01*
X171158771Y-103029094D02*
X171254009Y-102981475D01*
X171254009Y-102981475D02*
X171349247Y-102981475D01*
X171349247Y-102981475D02*
X171444485Y-103457665D01*
X171777819Y-102124332D02*
X170777819Y-102124332D01*
X171730200Y-102124332D02*
X171777819Y-102219570D01*
X171777819Y-102219570D02*
X171777819Y-102410046D01*
X171777819Y-102410046D02*
X171730200Y-102505284D01*
X171730200Y-102505284D02*
X171682580Y-102552903D01*
X171682580Y-102552903D02*
X171587342Y-102600522D01*
X171587342Y-102600522D02*
X171301628Y-102600522D01*
X171301628Y-102600522D02*
X171206390Y-102552903D01*
X171206390Y-102552903D02*
X171158771Y-102505284D01*
X171158771Y-102505284D02*
X171111152Y-102410046D01*
X171111152Y-102410046D02*
X171111152Y-102219570D01*
X171111152Y-102219570D02*
X171158771Y-102124332D01*
X170777819Y-101171951D02*
X170777819Y-101648141D01*
X170777819Y-101648141D02*
X171254009Y-101695760D01*
X171254009Y-101695760D02*
X171206390Y-101648141D01*
X171206390Y-101648141D02*
X171158771Y-101552903D01*
X171158771Y-101552903D02*
X171158771Y-101314808D01*
X171158771Y-101314808D02*
X171206390Y-101219570D01*
X171206390Y-101219570D02*
X171254009Y-101171951D01*
X171254009Y-101171951D02*
X171349247Y-101124332D01*
X171349247Y-101124332D02*
X171587342Y-101124332D01*
X171587342Y-101124332D02*
X171682580Y-101171951D01*
X171682580Y-101171951D02*
X171730200Y-101219570D01*
X171730200Y-101219570D02*
X171777819Y-101314808D01*
X171777819Y-101314808D02*
X171777819Y-101552903D01*
X171777819Y-101552903D02*
X171730200Y-101648141D01*
X171730200Y-101648141D02*
X171682580Y-101695760D01*
X169904580Y-95360619D02*
X169952200Y-95408238D01*
X169952200Y-95408238D02*
X169999819Y-95551095D01*
X169999819Y-95551095D02*
X169999819Y-95646333D01*
X169999819Y-95646333D02*
X169952200Y-95789190D01*
X169952200Y-95789190D02*
X169856961Y-95884428D01*
X169856961Y-95884428D02*
X169761723Y-95932047D01*
X169761723Y-95932047D02*
X169571247Y-95979666D01*
X169571247Y-95979666D02*
X169428390Y-95979666D01*
X169428390Y-95979666D02*
X169237914Y-95932047D01*
X169237914Y-95932047D02*
X169142676Y-95884428D01*
X169142676Y-95884428D02*
X169047438Y-95789190D01*
X169047438Y-95789190D02*
X168999819Y-95646333D01*
X168999819Y-95646333D02*
X168999819Y-95551095D01*
X168999819Y-95551095D02*
X169047438Y-95408238D01*
X169047438Y-95408238D02*
X169095057Y-95360619D01*
X170095057Y-95170143D02*
X170095057Y-94408238D01*
X169999819Y-94170142D02*
X168999819Y-94170142D01*
X168999819Y-94170142D02*
X168999819Y-93789190D01*
X168999819Y-93789190D02*
X169047438Y-93693952D01*
X169047438Y-93693952D02*
X169095057Y-93646333D01*
X169095057Y-93646333D02*
X169190295Y-93598714D01*
X169190295Y-93598714D02*
X169333152Y-93598714D01*
X169333152Y-93598714D02*
X169428390Y-93646333D01*
X169428390Y-93646333D02*
X169476009Y-93693952D01*
X169476009Y-93693952D02*
X169523628Y-93789190D01*
X169523628Y-93789190D02*
X169523628Y-94170142D01*
X169999819Y-93027285D02*
X169952200Y-93122523D01*
X169952200Y-93122523D02*
X169904580Y-93170142D01*
X169904580Y-93170142D02*
X169809342Y-93217761D01*
X169809342Y-93217761D02*
X169523628Y-93217761D01*
X169523628Y-93217761D02*
X169428390Y-93170142D01*
X169428390Y-93170142D02*
X169380771Y-93122523D01*
X169380771Y-93122523D02*
X169333152Y-93027285D01*
X169333152Y-93027285D02*
X169333152Y-92884428D01*
X169333152Y-92884428D02*
X169380771Y-92789190D01*
X169380771Y-92789190D02*
X169428390Y-92741571D01*
X169428390Y-92741571D02*
X169523628Y-92693952D01*
X169523628Y-92693952D02*
X169809342Y-92693952D01*
X169809342Y-92693952D02*
X169904580Y-92741571D01*
X169904580Y-92741571D02*
X169952200Y-92789190D01*
X169952200Y-92789190D02*
X169999819Y-92884428D01*
X169999819Y-92884428D02*
X169999819Y-93027285D01*
X169999819Y-92122523D02*
X169952200Y-92217761D01*
X169952200Y-92217761D02*
X169856961Y-92265380D01*
X169856961Y-92265380D02*
X168999819Y-92265380D01*
X169999819Y-91312999D02*
X169476009Y-91312999D01*
X169476009Y-91312999D02*
X169380771Y-91360618D01*
X169380771Y-91360618D02*
X169333152Y-91455856D01*
X169333152Y-91455856D02*
X169333152Y-91646332D01*
X169333152Y-91646332D02*
X169380771Y-91741570D01*
X169952200Y-91312999D02*
X169999819Y-91408237D01*
X169999819Y-91408237D02*
X169999819Y-91646332D01*
X169999819Y-91646332D02*
X169952200Y-91741570D01*
X169952200Y-91741570D02*
X169856961Y-91789189D01*
X169856961Y-91789189D02*
X169761723Y-91789189D01*
X169761723Y-91789189D02*
X169666485Y-91741570D01*
X169666485Y-91741570D02*
X169618866Y-91646332D01*
X169618866Y-91646332D02*
X169618866Y-91408237D01*
X169618866Y-91408237D02*
X169571247Y-91312999D01*
X169999819Y-90836808D02*
X169333152Y-90836808D01*
X169523628Y-90836808D02*
X169428390Y-90789189D01*
X169428390Y-90789189D02*
X169380771Y-90741570D01*
X169380771Y-90741570D02*
X169333152Y-90646332D01*
X169333152Y-90646332D02*
X169333152Y-90551094D01*
X169999819Y-90217760D02*
X169333152Y-90217760D01*
X168999819Y-90217760D02*
X169047438Y-90265379D01*
X169047438Y-90265379D02*
X169095057Y-90217760D01*
X169095057Y-90217760D02*
X169047438Y-90170141D01*
X169047438Y-90170141D02*
X168999819Y-90217760D01*
X168999819Y-90217760D02*
X169095057Y-90217760D01*
X169333152Y-89836808D02*
X169333152Y-89312999D01*
X169333152Y-89312999D02*
X169999819Y-89836808D01*
X169999819Y-89836808D02*
X169999819Y-89312999D01*
X169952200Y-88551094D02*
X169999819Y-88646332D01*
X169999819Y-88646332D02*
X169999819Y-88836808D01*
X169999819Y-88836808D02*
X169952200Y-88932046D01*
X169952200Y-88932046D02*
X169856961Y-88979665D01*
X169856961Y-88979665D02*
X169476009Y-88979665D01*
X169476009Y-88979665D02*
X169380771Y-88932046D01*
X169380771Y-88932046D02*
X169333152Y-88836808D01*
X169333152Y-88836808D02*
X169333152Y-88646332D01*
X169333152Y-88646332D02*
X169380771Y-88551094D01*
X169380771Y-88551094D02*
X169476009Y-88503475D01*
X169476009Y-88503475D02*
X169571247Y-88503475D01*
X169571247Y-88503475D02*
X169666485Y-88979665D01*
X169999819Y-87646332D02*
X168999819Y-87646332D01*
X169952200Y-87646332D02*
X169999819Y-87741570D01*
X169999819Y-87741570D02*
X169999819Y-87932046D01*
X169999819Y-87932046D02*
X169952200Y-88027284D01*
X169952200Y-88027284D02*
X169904580Y-88074903D01*
X169904580Y-88074903D02*
X169809342Y-88122522D01*
X169809342Y-88122522D02*
X169523628Y-88122522D01*
X169523628Y-88122522D02*
X169428390Y-88074903D01*
X169428390Y-88074903D02*
X169380771Y-88027284D01*
X169380771Y-88027284D02*
X169333152Y-87932046D01*
X169333152Y-87932046D02*
X169333152Y-87741570D01*
X169333152Y-87741570D02*
X169380771Y-87646332D01*
X169095057Y-87217760D02*
X169047438Y-87170141D01*
X169047438Y-87170141D02*
X168999819Y-87074903D01*
X168999819Y-87074903D02*
X168999819Y-86836808D01*
X168999819Y-86836808D02*
X169047438Y-86741570D01*
X169047438Y-86741570D02*
X169095057Y-86693951D01*
X169095057Y-86693951D02*
X169190295Y-86646332D01*
X169190295Y-86646332D02*
X169285533Y-86646332D01*
X169285533Y-86646332D02*
X169428390Y-86693951D01*
X169428390Y-86693951D02*
X169999819Y-87265379D01*
X169999819Y-87265379D02*
X169999819Y-86646332D01*
X149482980Y-85986981D02*
X149435361Y-86034601D01*
X149435361Y-86034601D02*
X149292504Y-86082220D01*
X149292504Y-86082220D02*
X149197266Y-86082220D01*
X149197266Y-86082220D02*
X149054409Y-86034601D01*
X149054409Y-86034601D02*
X148959171Y-85939362D01*
X148959171Y-85939362D02*
X148911552Y-85844124D01*
X148911552Y-85844124D02*
X148863933Y-85653648D01*
X148863933Y-85653648D02*
X148863933Y-85510791D01*
X148863933Y-85510791D02*
X148911552Y-85320315D01*
X148911552Y-85320315D02*
X148959171Y-85225077D01*
X148959171Y-85225077D02*
X149054409Y-85129839D01*
X149054409Y-85129839D02*
X149197266Y-85082220D01*
X149197266Y-85082220D02*
X149292504Y-85082220D01*
X149292504Y-85082220D02*
X149435361Y-85129839D01*
X149435361Y-85129839D02*
X149482980Y-85177458D01*
X149673457Y-86177458D02*
X150435361Y-86177458D01*
X150673457Y-86082220D02*
X150673457Y-85082220D01*
X150673457Y-85082220D02*
X151054409Y-85082220D01*
X151054409Y-85082220D02*
X151149647Y-85129839D01*
X151149647Y-85129839D02*
X151197266Y-85177458D01*
X151197266Y-85177458D02*
X151244885Y-85272696D01*
X151244885Y-85272696D02*
X151244885Y-85415553D01*
X151244885Y-85415553D02*
X151197266Y-85510791D01*
X151197266Y-85510791D02*
X151149647Y-85558410D01*
X151149647Y-85558410D02*
X151054409Y-85606029D01*
X151054409Y-85606029D02*
X150673457Y-85606029D01*
X151816314Y-86082220D02*
X151721076Y-86034601D01*
X151721076Y-86034601D02*
X151673457Y-85986981D01*
X151673457Y-85986981D02*
X151625838Y-85891743D01*
X151625838Y-85891743D02*
X151625838Y-85606029D01*
X151625838Y-85606029D02*
X151673457Y-85510791D01*
X151673457Y-85510791D02*
X151721076Y-85463172D01*
X151721076Y-85463172D02*
X151816314Y-85415553D01*
X151816314Y-85415553D02*
X151959171Y-85415553D01*
X151959171Y-85415553D02*
X152054409Y-85463172D01*
X152054409Y-85463172D02*
X152102028Y-85510791D01*
X152102028Y-85510791D02*
X152149647Y-85606029D01*
X152149647Y-85606029D02*
X152149647Y-85891743D01*
X152149647Y-85891743D02*
X152102028Y-85986981D01*
X152102028Y-85986981D02*
X152054409Y-86034601D01*
X152054409Y-86034601D02*
X151959171Y-86082220D01*
X151959171Y-86082220D02*
X151816314Y-86082220D01*
X152721076Y-86082220D02*
X152625838Y-86034601D01*
X152625838Y-86034601D02*
X152578219Y-85939362D01*
X152578219Y-85939362D02*
X152578219Y-85082220D01*
X153530600Y-86082220D02*
X153530600Y-85558410D01*
X153530600Y-85558410D02*
X153482981Y-85463172D01*
X153482981Y-85463172D02*
X153387743Y-85415553D01*
X153387743Y-85415553D02*
X153197267Y-85415553D01*
X153197267Y-85415553D02*
X153102029Y-85463172D01*
X153530600Y-86034601D02*
X153435362Y-86082220D01*
X153435362Y-86082220D02*
X153197267Y-86082220D01*
X153197267Y-86082220D02*
X153102029Y-86034601D01*
X153102029Y-86034601D02*
X153054410Y-85939362D01*
X153054410Y-85939362D02*
X153054410Y-85844124D01*
X153054410Y-85844124D02*
X153102029Y-85748886D01*
X153102029Y-85748886D02*
X153197267Y-85701267D01*
X153197267Y-85701267D02*
X153435362Y-85701267D01*
X153435362Y-85701267D02*
X153530600Y-85653648D01*
X154006791Y-86082220D02*
X154006791Y-85415553D01*
X154006791Y-85606029D02*
X154054410Y-85510791D01*
X154054410Y-85510791D02*
X154102029Y-85463172D01*
X154102029Y-85463172D02*
X154197267Y-85415553D01*
X154197267Y-85415553D02*
X154292505Y-85415553D01*
X154625839Y-86082220D02*
X154625839Y-85415553D01*
X154625839Y-85082220D02*
X154578220Y-85129839D01*
X154578220Y-85129839D02*
X154625839Y-85177458D01*
X154625839Y-85177458D02*
X154673458Y-85129839D01*
X154673458Y-85129839D02*
X154625839Y-85082220D01*
X154625839Y-85082220D02*
X154625839Y-85177458D01*
X155006791Y-85415553D02*
X155530600Y-85415553D01*
X155530600Y-85415553D02*
X155006791Y-86082220D01*
X155006791Y-86082220D02*
X155530600Y-86082220D01*
X156292505Y-86034601D02*
X156197267Y-86082220D01*
X156197267Y-86082220D02*
X156006791Y-86082220D01*
X156006791Y-86082220D02*
X155911553Y-86034601D01*
X155911553Y-86034601D02*
X155863934Y-85939362D01*
X155863934Y-85939362D02*
X155863934Y-85558410D01*
X155863934Y-85558410D02*
X155911553Y-85463172D01*
X155911553Y-85463172D02*
X156006791Y-85415553D01*
X156006791Y-85415553D02*
X156197267Y-85415553D01*
X156197267Y-85415553D02*
X156292505Y-85463172D01*
X156292505Y-85463172D02*
X156340124Y-85558410D01*
X156340124Y-85558410D02*
X156340124Y-85653648D01*
X156340124Y-85653648D02*
X155863934Y-85748886D01*
X157197267Y-86082220D02*
X157197267Y-85082220D01*
X157197267Y-86034601D02*
X157102029Y-86082220D01*
X157102029Y-86082220D02*
X156911553Y-86082220D01*
X156911553Y-86082220D02*
X156816315Y-86034601D01*
X156816315Y-86034601D02*
X156768696Y-85986981D01*
X156768696Y-85986981D02*
X156721077Y-85891743D01*
X156721077Y-85891743D02*
X156721077Y-85606029D01*
X156721077Y-85606029D02*
X156768696Y-85510791D01*
X156768696Y-85510791D02*
X156816315Y-85463172D01*
X156816315Y-85463172D02*
X156911553Y-85415553D01*
X156911553Y-85415553D02*
X157102029Y-85415553D01*
X157102029Y-85415553D02*
X157197267Y-85463172D01*
X157816315Y-85510791D02*
X157721077Y-85463172D01*
X157721077Y-85463172D02*
X157673458Y-85415553D01*
X157673458Y-85415553D02*
X157625839Y-85320315D01*
X157625839Y-85320315D02*
X157625839Y-85272696D01*
X157625839Y-85272696D02*
X157673458Y-85177458D01*
X157673458Y-85177458D02*
X157721077Y-85129839D01*
X157721077Y-85129839D02*
X157816315Y-85082220D01*
X157816315Y-85082220D02*
X158006791Y-85082220D01*
X158006791Y-85082220D02*
X158102029Y-85129839D01*
X158102029Y-85129839D02*
X158149648Y-85177458D01*
X158149648Y-85177458D02*
X158197267Y-85272696D01*
X158197267Y-85272696D02*
X158197267Y-85320315D01*
X158197267Y-85320315D02*
X158149648Y-85415553D01*
X158149648Y-85415553D02*
X158102029Y-85463172D01*
X158102029Y-85463172D02*
X158006791Y-85510791D01*
X158006791Y-85510791D02*
X157816315Y-85510791D01*
X157816315Y-85510791D02*
X157721077Y-85558410D01*
X157721077Y-85558410D02*
X157673458Y-85606029D01*
X157673458Y-85606029D02*
X157625839Y-85701267D01*
X157625839Y-85701267D02*
X157625839Y-85891743D01*
X157625839Y-85891743D02*
X157673458Y-85986981D01*
X157673458Y-85986981D02*
X157721077Y-86034601D01*
X157721077Y-86034601D02*
X157816315Y-86082220D01*
X157816315Y-86082220D02*
X158006791Y-86082220D01*
X158006791Y-86082220D02*
X158102029Y-86034601D01*
X158102029Y-86034601D02*
X158149648Y-85986981D01*
X158149648Y-85986981D02*
X158197267Y-85891743D01*
X158197267Y-85891743D02*
X158197267Y-85701267D01*
X158197267Y-85701267D02*
X158149648Y-85606029D01*
X158149648Y-85606029D02*
X158102029Y-85558410D01*
X158102029Y-85558410D02*
X158006791Y-85510791D01*
X151235580Y-109679810D02*
X151283200Y-109727429D01*
X151283200Y-109727429D02*
X151330819Y-109870286D01*
X151330819Y-109870286D02*
X151330819Y-109965524D01*
X151330819Y-109965524D02*
X151283200Y-110108381D01*
X151283200Y-110108381D02*
X151187961Y-110203619D01*
X151187961Y-110203619D02*
X151092723Y-110251238D01*
X151092723Y-110251238D02*
X150902247Y-110298857D01*
X150902247Y-110298857D02*
X150759390Y-110298857D01*
X150759390Y-110298857D02*
X150568914Y-110251238D01*
X150568914Y-110251238D02*
X150473676Y-110203619D01*
X150473676Y-110203619D02*
X150378438Y-110108381D01*
X150378438Y-110108381D02*
X150330819Y-109965524D01*
X150330819Y-109965524D02*
X150330819Y-109870286D01*
X150330819Y-109870286D02*
X150378438Y-109727429D01*
X150378438Y-109727429D02*
X150426057Y-109679810D01*
X151426057Y-109489334D02*
X151426057Y-108727429D01*
X151330819Y-108489333D02*
X150330819Y-108489333D01*
X150330819Y-108489333D02*
X150330819Y-108108381D01*
X150330819Y-108108381D02*
X150378438Y-108013143D01*
X150378438Y-108013143D02*
X150426057Y-107965524D01*
X150426057Y-107965524D02*
X150521295Y-107917905D01*
X150521295Y-107917905D02*
X150664152Y-107917905D01*
X150664152Y-107917905D02*
X150759390Y-107965524D01*
X150759390Y-107965524D02*
X150807009Y-108013143D01*
X150807009Y-108013143D02*
X150854628Y-108108381D01*
X150854628Y-108108381D02*
X150854628Y-108489333D01*
X151330819Y-107346476D02*
X151283200Y-107441714D01*
X151283200Y-107441714D02*
X151235580Y-107489333D01*
X151235580Y-107489333D02*
X151140342Y-107536952D01*
X151140342Y-107536952D02*
X150854628Y-107536952D01*
X150854628Y-107536952D02*
X150759390Y-107489333D01*
X150759390Y-107489333D02*
X150711771Y-107441714D01*
X150711771Y-107441714D02*
X150664152Y-107346476D01*
X150664152Y-107346476D02*
X150664152Y-107203619D01*
X150664152Y-107203619D02*
X150711771Y-107108381D01*
X150711771Y-107108381D02*
X150759390Y-107060762D01*
X150759390Y-107060762D02*
X150854628Y-107013143D01*
X150854628Y-107013143D02*
X151140342Y-107013143D01*
X151140342Y-107013143D02*
X151235580Y-107060762D01*
X151235580Y-107060762D02*
X151283200Y-107108381D01*
X151283200Y-107108381D02*
X151330819Y-107203619D01*
X151330819Y-107203619D02*
X151330819Y-107346476D01*
X151330819Y-106441714D02*
X151283200Y-106536952D01*
X151283200Y-106536952D02*
X151187961Y-106584571D01*
X151187961Y-106584571D02*
X150330819Y-106584571D01*
X151330819Y-105632190D02*
X150807009Y-105632190D01*
X150807009Y-105632190D02*
X150711771Y-105679809D01*
X150711771Y-105679809D02*
X150664152Y-105775047D01*
X150664152Y-105775047D02*
X150664152Y-105965523D01*
X150664152Y-105965523D02*
X150711771Y-106060761D01*
X151283200Y-105632190D02*
X151330819Y-105727428D01*
X151330819Y-105727428D02*
X151330819Y-105965523D01*
X151330819Y-105965523D02*
X151283200Y-106060761D01*
X151283200Y-106060761D02*
X151187961Y-106108380D01*
X151187961Y-106108380D02*
X151092723Y-106108380D01*
X151092723Y-106108380D02*
X150997485Y-106060761D01*
X150997485Y-106060761D02*
X150949866Y-105965523D01*
X150949866Y-105965523D02*
X150949866Y-105727428D01*
X150949866Y-105727428D02*
X150902247Y-105632190D01*
X151330819Y-105155999D02*
X150664152Y-105155999D01*
X150854628Y-105155999D02*
X150759390Y-105108380D01*
X150759390Y-105108380D02*
X150711771Y-105060761D01*
X150711771Y-105060761D02*
X150664152Y-104965523D01*
X150664152Y-104965523D02*
X150664152Y-104870285D01*
X151330819Y-104536951D02*
X150664152Y-104536951D01*
X150330819Y-104536951D02*
X150378438Y-104584570D01*
X150378438Y-104584570D02*
X150426057Y-104536951D01*
X150426057Y-104536951D02*
X150378438Y-104489332D01*
X150378438Y-104489332D02*
X150330819Y-104536951D01*
X150330819Y-104536951D02*
X150426057Y-104536951D01*
X150664152Y-104155999D02*
X150664152Y-103632190D01*
X150664152Y-103632190D02*
X151330819Y-104155999D01*
X151330819Y-104155999D02*
X151330819Y-103632190D01*
X151283200Y-102870285D02*
X151330819Y-102965523D01*
X151330819Y-102965523D02*
X151330819Y-103155999D01*
X151330819Y-103155999D02*
X151283200Y-103251237D01*
X151283200Y-103251237D02*
X151187961Y-103298856D01*
X151187961Y-103298856D02*
X150807009Y-103298856D01*
X150807009Y-103298856D02*
X150711771Y-103251237D01*
X150711771Y-103251237D02*
X150664152Y-103155999D01*
X150664152Y-103155999D02*
X150664152Y-102965523D01*
X150664152Y-102965523D02*
X150711771Y-102870285D01*
X150711771Y-102870285D02*
X150807009Y-102822666D01*
X150807009Y-102822666D02*
X150902247Y-102822666D01*
X150902247Y-102822666D02*
X150997485Y-103298856D01*
X151330819Y-101965523D02*
X150330819Y-101965523D01*
X151283200Y-101965523D02*
X151330819Y-102060761D01*
X151330819Y-102060761D02*
X151330819Y-102251237D01*
X151330819Y-102251237D02*
X151283200Y-102346475D01*
X151283200Y-102346475D02*
X151235580Y-102394094D01*
X151235580Y-102394094D02*
X151140342Y-102441713D01*
X151140342Y-102441713D02*
X150854628Y-102441713D01*
X150854628Y-102441713D02*
X150759390Y-102394094D01*
X150759390Y-102394094D02*
X150711771Y-102346475D01*
X150711771Y-102346475D02*
X150664152Y-102251237D01*
X150664152Y-102251237D02*
X150664152Y-102060761D01*
X150664152Y-102060761D02*
X150711771Y-101965523D01*
X151330819Y-100965523D02*
X151330819Y-101536951D01*
X151330819Y-101251237D02*
X150330819Y-101251237D01*
X150330819Y-101251237D02*
X150473676Y-101346475D01*
X150473676Y-101346475D02*
X150568914Y-101441713D01*
X150568914Y-101441713D02*
X150616533Y-101536951D01*
X150426057Y-100584570D02*
X150378438Y-100536951D01*
X150378438Y-100536951D02*
X150330819Y-100441713D01*
X150330819Y-100441713D02*
X150330819Y-100203618D01*
X150330819Y-100203618D02*
X150378438Y-100108380D01*
X150378438Y-100108380D02*
X150426057Y-100060761D01*
X150426057Y-100060761D02*
X150521295Y-100013142D01*
X150521295Y-100013142D02*
X150616533Y-100013142D01*
X150616533Y-100013142D02*
X150759390Y-100060761D01*
X150759390Y-100060761D02*
X151330819Y-100632189D01*
X151330819Y-100632189D02*
X151330819Y-100013142D01*
X157452380Y-65859580D02*
X157404761Y-65907200D01*
X157404761Y-65907200D02*
X157261904Y-65954819D01*
X157261904Y-65954819D02*
X157166666Y-65954819D01*
X157166666Y-65954819D02*
X157023809Y-65907200D01*
X157023809Y-65907200D02*
X156928571Y-65811961D01*
X156928571Y-65811961D02*
X156880952Y-65716723D01*
X156880952Y-65716723D02*
X156833333Y-65526247D01*
X156833333Y-65526247D02*
X156833333Y-65383390D01*
X156833333Y-65383390D02*
X156880952Y-65192914D01*
X156880952Y-65192914D02*
X156928571Y-65097676D01*
X156928571Y-65097676D02*
X157023809Y-65002438D01*
X157023809Y-65002438D02*
X157166666Y-64954819D01*
X157166666Y-64954819D02*
X157261904Y-64954819D01*
X157261904Y-64954819D02*
X157404761Y-65002438D01*
X157404761Y-65002438D02*
X157452380Y-65050057D01*
X157642857Y-66050057D02*
X158404761Y-66050057D01*
X158642857Y-65954819D02*
X158642857Y-64954819D01*
X158642857Y-64954819D02*
X159023809Y-64954819D01*
X159023809Y-64954819D02*
X159119047Y-65002438D01*
X159119047Y-65002438D02*
X159166666Y-65050057D01*
X159166666Y-65050057D02*
X159214285Y-65145295D01*
X159214285Y-65145295D02*
X159214285Y-65288152D01*
X159214285Y-65288152D02*
X159166666Y-65383390D01*
X159166666Y-65383390D02*
X159119047Y-65431009D01*
X159119047Y-65431009D02*
X159023809Y-65478628D01*
X159023809Y-65478628D02*
X158642857Y-65478628D01*
X159785714Y-65954819D02*
X159690476Y-65907200D01*
X159690476Y-65907200D02*
X159642857Y-65859580D01*
X159642857Y-65859580D02*
X159595238Y-65764342D01*
X159595238Y-65764342D02*
X159595238Y-65478628D01*
X159595238Y-65478628D02*
X159642857Y-65383390D01*
X159642857Y-65383390D02*
X159690476Y-65335771D01*
X159690476Y-65335771D02*
X159785714Y-65288152D01*
X159785714Y-65288152D02*
X159928571Y-65288152D01*
X159928571Y-65288152D02*
X160023809Y-65335771D01*
X160023809Y-65335771D02*
X160071428Y-65383390D01*
X160071428Y-65383390D02*
X160119047Y-65478628D01*
X160119047Y-65478628D02*
X160119047Y-65764342D01*
X160119047Y-65764342D02*
X160071428Y-65859580D01*
X160071428Y-65859580D02*
X160023809Y-65907200D01*
X160023809Y-65907200D02*
X159928571Y-65954819D01*
X159928571Y-65954819D02*
X159785714Y-65954819D01*
X160690476Y-65954819D02*
X160595238Y-65907200D01*
X160595238Y-65907200D02*
X160547619Y-65811961D01*
X160547619Y-65811961D02*
X160547619Y-64954819D01*
X161500000Y-65954819D02*
X161500000Y-65431009D01*
X161500000Y-65431009D02*
X161452381Y-65335771D01*
X161452381Y-65335771D02*
X161357143Y-65288152D01*
X161357143Y-65288152D02*
X161166667Y-65288152D01*
X161166667Y-65288152D02*
X161071429Y-65335771D01*
X161500000Y-65907200D02*
X161404762Y-65954819D01*
X161404762Y-65954819D02*
X161166667Y-65954819D01*
X161166667Y-65954819D02*
X161071429Y-65907200D01*
X161071429Y-65907200D02*
X161023810Y-65811961D01*
X161023810Y-65811961D02*
X161023810Y-65716723D01*
X161023810Y-65716723D02*
X161071429Y-65621485D01*
X161071429Y-65621485D02*
X161166667Y-65573866D01*
X161166667Y-65573866D02*
X161404762Y-65573866D01*
X161404762Y-65573866D02*
X161500000Y-65526247D01*
X161976191Y-65954819D02*
X161976191Y-65288152D01*
X161976191Y-65478628D02*
X162023810Y-65383390D01*
X162023810Y-65383390D02*
X162071429Y-65335771D01*
X162071429Y-65335771D02*
X162166667Y-65288152D01*
X162166667Y-65288152D02*
X162261905Y-65288152D01*
X162595239Y-65954819D02*
X162595239Y-65288152D01*
X162595239Y-64954819D02*
X162547620Y-65002438D01*
X162547620Y-65002438D02*
X162595239Y-65050057D01*
X162595239Y-65050057D02*
X162642858Y-65002438D01*
X162642858Y-65002438D02*
X162595239Y-64954819D01*
X162595239Y-64954819D02*
X162595239Y-65050057D01*
X162976191Y-65288152D02*
X163500000Y-65288152D01*
X163500000Y-65288152D02*
X162976191Y-65954819D01*
X162976191Y-65954819D02*
X163500000Y-65954819D01*
X164261905Y-65907200D02*
X164166667Y-65954819D01*
X164166667Y-65954819D02*
X163976191Y-65954819D01*
X163976191Y-65954819D02*
X163880953Y-65907200D01*
X163880953Y-65907200D02*
X163833334Y-65811961D01*
X163833334Y-65811961D02*
X163833334Y-65431009D01*
X163833334Y-65431009D02*
X163880953Y-65335771D01*
X163880953Y-65335771D02*
X163976191Y-65288152D01*
X163976191Y-65288152D02*
X164166667Y-65288152D01*
X164166667Y-65288152D02*
X164261905Y-65335771D01*
X164261905Y-65335771D02*
X164309524Y-65431009D01*
X164309524Y-65431009D02*
X164309524Y-65526247D01*
X164309524Y-65526247D02*
X163833334Y-65621485D01*
X165166667Y-65954819D02*
X165166667Y-64954819D01*
X165166667Y-65907200D02*
X165071429Y-65954819D01*
X165071429Y-65954819D02*
X164880953Y-65954819D01*
X164880953Y-65954819D02*
X164785715Y-65907200D01*
X164785715Y-65907200D02*
X164738096Y-65859580D01*
X164738096Y-65859580D02*
X164690477Y-65764342D01*
X164690477Y-65764342D02*
X164690477Y-65478628D01*
X164690477Y-65478628D02*
X164738096Y-65383390D01*
X164738096Y-65383390D02*
X164785715Y-65335771D01*
X164785715Y-65335771D02*
X164880953Y-65288152D01*
X164880953Y-65288152D02*
X165071429Y-65288152D01*
X165071429Y-65288152D02*
X165166667Y-65335771D01*
X166071429Y-65288152D02*
X166071429Y-65954819D01*
X165833334Y-64907200D02*
X165595239Y-65621485D01*
X165595239Y-65621485D02*
X166214286Y-65621485D01*
X171809580Y-92820619D02*
X171857200Y-92868238D01*
X171857200Y-92868238D02*
X171904819Y-93011095D01*
X171904819Y-93011095D02*
X171904819Y-93106333D01*
X171904819Y-93106333D02*
X171857200Y-93249190D01*
X171857200Y-93249190D02*
X171761961Y-93344428D01*
X171761961Y-93344428D02*
X171666723Y-93392047D01*
X171666723Y-93392047D02*
X171476247Y-93439666D01*
X171476247Y-93439666D02*
X171333390Y-93439666D01*
X171333390Y-93439666D02*
X171142914Y-93392047D01*
X171142914Y-93392047D02*
X171047676Y-93344428D01*
X171047676Y-93344428D02*
X170952438Y-93249190D01*
X170952438Y-93249190D02*
X170904819Y-93106333D01*
X170904819Y-93106333D02*
X170904819Y-93011095D01*
X170904819Y-93011095D02*
X170952438Y-92868238D01*
X170952438Y-92868238D02*
X171000057Y-92820619D01*
X172000057Y-92630143D02*
X172000057Y-91868238D01*
X171904819Y-91630142D02*
X170904819Y-91630142D01*
X170904819Y-91630142D02*
X170904819Y-91249190D01*
X170904819Y-91249190D02*
X170952438Y-91153952D01*
X170952438Y-91153952D02*
X171000057Y-91106333D01*
X171000057Y-91106333D02*
X171095295Y-91058714D01*
X171095295Y-91058714D02*
X171238152Y-91058714D01*
X171238152Y-91058714D02*
X171333390Y-91106333D01*
X171333390Y-91106333D02*
X171381009Y-91153952D01*
X171381009Y-91153952D02*
X171428628Y-91249190D01*
X171428628Y-91249190D02*
X171428628Y-91630142D01*
X171904819Y-90487285D02*
X171857200Y-90582523D01*
X171857200Y-90582523D02*
X171809580Y-90630142D01*
X171809580Y-90630142D02*
X171714342Y-90677761D01*
X171714342Y-90677761D02*
X171428628Y-90677761D01*
X171428628Y-90677761D02*
X171333390Y-90630142D01*
X171333390Y-90630142D02*
X171285771Y-90582523D01*
X171285771Y-90582523D02*
X171238152Y-90487285D01*
X171238152Y-90487285D02*
X171238152Y-90344428D01*
X171238152Y-90344428D02*
X171285771Y-90249190D01*
X171285771Y-90249190D02*
X171333390Y-90201571D01*
X171333390Y-90201571D02*
X171428628Y-90153952D01*
X171428628Y-90153952D02*
X171714342Y-90153952D01*
X171714342Y-90153952D02*
X171809580Y-90201571D01*
X171809580Y-90201571D02*
X171857200Y-90249190D01*
X171857200Y-90249190D02*
X171904819Y-90344428D01*
X171904819Y-90344428D02*
X171904819Y-90487285D01*
X171904819Y-89582523D02*
X171857200Y-89677761D01*
X171857200Y-89677761D02*
X171761961Y-89725380D01*
X171761961Y-89725380D02*
X170904819Y-89725380D01*
X171904819Y-88772999D02*
X171381009Y-88772999D01*
X171381009Y-88772999D02*
X171285771Y-88820618D01*
X171285771Y-88820618D02*
X171238152Y-88915856D01*
X171238152Y-88915856D02*
X171238152Y-89106332D01*
X171238152Y-89106332D02*
X171285771Y-89201570D01*
X171857200Y-88772999D02*
X171904819Y-88868237D01*
X171904819Y-88868237D02*
X171904819Y-89106332D01*
X171904819Y-89106332D02*
X171857200Y-89201570D01*
X171857200Y-89201570D02*
X171761961Y-89249189D01*
X171761961Y-89249189D02*
X171666723Y-89249189D01*
X171666723Y-89249189D02*
X171571485Y-89201570D01*
X171571485Y-89201570D02*
X171523866Y-89106332D01*
X171523866Y-89106332D02*
X171523866Y-88868237D01*
X171523866Y-88868237D02*
X171476247Y-88772999D01*
X171904819Y-88296808D02*
X171238152Y-88296808D01*
X171428628Y-88296808D02*
X171333390Y-88249189D01*
X171333390Y-88249189D02*
X171285771Y-88201570D01*
X171285771Y-88201570D02*
X171238152Y-88106332D01*
X171238152Y-88106332D02*
X171238152Y-88011094D01*
X171904819Y-87677760D02*
X171238152Y-87677760D01*
X170904819Y-87677760D02*
X170952438Y-87725379D01*
X170952438Y-87725379D02*
X171000057Y-87677760D01*
X171000057Y-87677760D02*
X170952438Y-87630141D01*
X170952438Y-87630141D02*
X170904819Y-87677760D01*
X170904819Y-87677760D02*
X171000057Y-87677760D01*
X171238152Y-87296808D02*
X171238152Y-86772999D01*
X171238152Y-86772999D02*
X171904819Y-87296808D01*
X171904819Y-87296808D02*
X171904819Y-86772999D01*
X171857200Y-86011094D02*
X171904819Y-86106332D01*
X171904819Y-86106332D02*
X171904819Y-86296808D01*
X171904819Y-86296808D02*
X171857200Y-86392046D01*
X171857200Y-86392046D02*
X171761961Y-86439665D01*
X171761961Y-86439665D02*
X171381009Y-86439665D01*
X171381009Y-86439665D02*
X171285771Y-86392046D01*
X171285771Y-86392046D02*
X171238152Y-86296808D01*
X171238152Y-86296808D02*
X171238152Y-86106332D01*
X171238152Y-86106332D02*
X171285771Y-86011094D01*
X171285771Y-86011094D02*
X171381009Y-85963475D01*
X171381009Y-85963475D02*
X171476247Y-85963475D01*
X171476247Y-85963475D02*
X171571485Y-86439665D01*
X171904819Y-85106332D02*
X170904819Y-85106332D01*
X171857200Y-85106332D02*
X171904819Y-85201570D01*
X171904819Y-85201570D02*
X171904819Y-85392046D01*
X171904819Y-85392046D02*
X171857200Y-85487284D01*
X171857200Y-85487284D02*
X171809580Y-85534903D01*
X171809580Y-85534903D02*
X171714342Y-85582522D01*
X171714342Y-85582522D02*
X171428628Y-85582522D01*
X171428628Y-85582522D02*
X171333390Y-85534903D01*
X171333390Y-85534903D02*
X171285771Y-85487284D01*
X171285771Y-85487284D02*
X171238152Y-85392046D01*
X171238152Y-85392046D02*
X171238152Y-85201570D01*
X171238152Y-85201570D02*
X171285771Y-85106332D01*
X171904819Y-84582522D02*
X171904819Y-84392046D01*
X171904819Y-84392046D02*
X171857200Y-84296808D01*
X171857200Y-84296808D02*
X171809580Y-84249189D01*
X171809580Y-84249189D02*
X171666723Y-84153951D01*
X171666723Y-84153951D02*
X171476247Y-84106332D01*
X171476247Y-84106332D02*
X171095295Y-84106332D01*
X171095295Y-84106332D02*
X171000057Y-84153951D01*
X171000057Y-84153951D02*
X170952438Y-84201570D01*
X170952438Y-84201570D02*
X170904819Y-84296808D01*
X170904819Y-84296808D02*
X170904819Y-84487284D01*
X170904819Y-84487284D02*
X170952438Y-84582522D01*
X170952438Y-84582522D02*
X171000057Y-84630141D01*
X171000057Y-84630141D02*
X171095295Y-84677760D01*
X171095295Y-84677760D02*
X171333390Y-84677760D01*
X171333390Y-84677760D02*
X171428628Y-84630141D01*
X171428628Y-84630141D02*
X171476247Y-84582522D01*
X171476247Y-84582522D02*
X171523866Y-84487284D01*
X171523866Y-84487284D02*
X171523866Y-84296808D01*
X171523866Y-84296808D02*
X171476247Y-84201570D01*
X171476247Y-84201570D02*
X171428628Y-84153951D01*
X171428628Y-84153951D02*
X171333390Y-84106332D01*
X161812381Y-113357417D02*
X161860001Y-113405036D01*
X161860001Y-113405036D02*
X161907620Y-113547893D01*
X161907620Y-113547893D02*
X161907620Y-113643131D01*
X161907620Y-113643131D02*
X161860001Y-113785988D01*
X161860001Y-113785988D02*
X161764762Y-113881226D01*
X161764762Y-113881226D02*
X161669524Y-113928845D01*
X161669524Y-113928845D02*
X161479048Y-113976464D01*
X161479048Y-113976464D02*
X161336191Y-113976464D01*
X161336191Y-113976464D02*
X161145715Y-113928845D01*
X161145715Y-113928845D02*
X161050477Y-113881226D01*
X161050477Y-113881226D02*
X160955239Y-113785988D01*
X160955239Y-113785988D02*
X160907620Y-113643131D01*
X160907620Y-113643131D02*
X160907620Y-113547893D01*
X160907620Y-113547893D02*
X160955239Y-113405036D01*
X160955239Y-113405036D02*
X161002858Y-113357417D01*
X162002858Y-113166941D02*
X162002858Y-112405036D01*
X161907620Y-112166940D02*
X160907620Y-112166940D01*
X160907620Y-112166940D02*
X160907620Y-111785988D01*
X160907620Y-111785988D02*
X160955239Y-111690750D01*
X160955239Y-111690750D02*
X161002858Y-111643131D01*
X161002858Y-111643131D02*
X161098096Y-111595512D01*
X161098096Y-111595512D02*
X161240953Y-111595512D01*
X161240953Y-111595512D02*
X161336191Y-111643131D01*
X161336191Y-111643131D02*
X161383810Y-111690750D01*
X161383810Y-111690750D02*
X161431429Y-111785988D01*
X161431429Y-111785988D02*
X161431429Y-112166940D01*
X161907620Y-111024083D02*
X161860001Y-111119321D01*
X161860001Y-111119321D02*
X161812381Y-111166940D01*
X161812381Y-111166940D02*
X161717143Y-111214559D01*
X161717143Y-111214559D02*
X161431429Y-111214559D01*
X161431429Y-111214559D02*
X161336191Y-111166940D01*
X161336191Y-111166940D02*
X161288572Y-111119321D01*
X161288572Y-111119321D02*
X161240953Y-111024083D01*
X161240953Y-111024083D02*
X161240953Y-110881226D01*
X161240953Y-110881226D02*
X161288572Y-110785988D01*
X161288572Y-110785988D02*
X161336191Y-110738369D01*
X161336191Y-110738369D02*
X161431429Y-110690750D01*
X161431429Y-110690750D02*
X161717143Y-110690750D01*
X161717143Y-110690750D02*
X161812381Y-110738369D01*
X161812381Y-110738369D02*
X161860001Y-110785988D01*
X161860001Y-110785988D02*
X161907620Y-110881226D01*
X161907620Y-110881226D02*
X161907620Y-111024083D01*
X161907620Y-110119321D02*
X161860001Y-110214559D01*
X161860001Y-110214559D02*
X161764762Y-110262178D01*
X161764762Y-110262178D02*
X160907620Y-110262178D01*
X161907620Y-109309797D02*
X161383810Y-109309797D01*
X161383810Y-109309797D02*
X161288572Y-109357416D01*
X161288572Y-109357416D02*
X161240953Y-109452654D01*
X161240953Y-109452654D02*
X161240953Y-109643130D01*
X161240953Y-109643130D02*
X161288572Y-109738368D01*
X161860001Y-109309797D02*
X161907620Y-109405035D01*
X161907620Y-109405035D02*
X161907620Y-109643130D01*
X161907620Y-109643130D02*
X161860001Y-109738368D01*
X161860001Y-109738368D02*
X161764762Y-109785987D01*
X161764762Y-109785987D02*
X161669524Y-109785987D01*
X161669524Y-109785987D02*
X161574286Y-109738368D01*
X161574286Y-109738368D02*
X161526667Y-109643130D01*
X161526667Y-109643130D02*
X161526667Y-109405035D01*
X161526667Y-109405035D02*
X161479048Y-109309797D01*
X161907620Y-108833606D02*
X161240953Y-108833606D01*
X161431429Y-108833606D02*
X161336191Y-108785987D01*
X161336191Y-108785987D02*
X161288572Y-108738368D01*
X161288572Y-108738368D02*
X161240953Y-108643130D01*
X161240953Y-108643130D02*
X161240953Y-108547892D01*
X161907620Y-108214558D02*
X161240953Y-108214558D01*
X160907620Y-108214558D02*
X160955239Y-108262177D01*
X160955239Y-108262177D02*
X161002858Y-108214558D01*
X161002858Y-108214558D02*
X160955239Y-108166939D01*
X160955239Y-108166939D02*
X160907620Y-108214558D01*
X160907620Y-108214558D02*
X161002858Y-108214558D01*
X161240953Y-107833606D02*
X161240953Y-107309797D01*
X161240953Y-107309797D02*
X161907620Y-107833606D01*
X161907620Y-107833606D02*
X161907620Y-107309797D01*
X161860001Y-106547892D02*
X161907620Y-106643130D01*
X161907620Y-106643130D02*
X161907620Y-106833606D01*
X161907620Y-106833606D02*
X161860001Y-106928844D01*
X161860001Y-106928844D02*
X161764762Y-106976463D01*
X161764762Y-106976463D02*
X161383810Y-106976463D01*
X161383810Y-106976463D02*
X161288572Y-106928844D01*
X161288572Y-106928844D02*
X161240953Y-106833606D01*
X161240953Y-106833606D02*
X161240953Y-106643130D01*
X161240953Y-106643130D02*
X161288572Y-106547892D01*
X161288572Y-106547892D02*
X161383810Y-106500273D01*
X161383810Y-106500273D02*
X161479048Y-106500273D01*
X161479048Y-106500273D02*
X161574286Y-106976463D01*
X161907620Y-105643130D02*
X160907620Y-105643130D01*
X161860001Y-105643130D02*
X161907620Y-105738368D01*
X161907620Y-105738368D02*
X161907620Y-105928844D01*
X161907620Y-105928844D02*
X161860001Y-106024082D01*
X161860001Y-106024082D02*
X161812381Y-106071701D01*
X161812381Y-106071701D02*
X161717143Y-106119320D01*
X161717143Y-106119320D02*
X161431429Y-106119320D01*
X161431429Y-106119320D02*
X161336191Y-106071701D01*
X161336191Y-106071701D02*
X161288572Y-106024082D01*
X161288572Y-106024082D02*
X161240953Y-105928844D01*
X161240953Y-105928844D02*
X161240953Y-105738368D01*
X161240953Y-105738368D02*
X161288572Y-105643130D01*
X160907620Y-105262177D02*
X160907620Y-104595511D01*
X160907620Y-104595511D02*
X161907620Y-105024082D01*
X136702380Y-68109580D02*
X136654761Y-68157200D01*
X136654761Y-68157200D02*
X136511904Y-68204819D01*
X136511904Y-68204819D02*
X136416666Y-68204819D01*
X136416666Y-68204819D02*
X136273809Y-68157200D01*
X136273809Y-68157200D02*
X136178571Y-68061961D01*
X136178571Y-68061961D02*
X136130952Y-67966723D01*
X136130952Y-67966723D02*
X136083333Y-67776247D01*
X136083333Y-67776247D02*
X136083333Y-67633390D01*
X136083333Y-67633390D02*
X136130952Y-67442914D01*
X136130952Y-67442914D02*
X136178571Y-67347676D01*
X136178571Y-67347676D02*
X136273809Y-67252438D01*
X136273809Y-67252438D02*
X136416666Y-67204819D01*
X136416666Y-67204819D02*
X136511904Y-67204819D01*
X136511904Y-67204819D02*
X136654761Y-67252438D01*
X136654761Y-67252438D02*
X136702380Y-67300057D01*
X136892857Y-68300057D02*
X137654761Y-68300057D01*
X137892857Y-68204819D02*
X137892857Y-67204819D01*
X137892857Y-67204819D02*
X138273809Y-67204819D01*
X138273809Y-67204819D02*
X138369047Y-67252438D01*
X138369047Y-67252438D02*
X138416666Y-67300057D01*
X138416666Y-67300057D02*
X138464285Y-67395295D01*
X138464285Y-67395295D02*
X138464285Y-67538152D01*
X138464285Y-67538152D02*
X138416666Y-67633390D01*
X138416666Y-67633390D02*
X138369047Y-67681009D01*
X138369047Y-67681009D02*
X138273809Y-67728628D01*
X138273809Y-67728628D02*
X137892857Y-67728628D01*
X139035714Y-68204819D02*
X138940476Y-68157200D01*
X138940476Y-68157200D02*
X138892857Y-68109580D01*
X138892857Y-68109580D02*
X138845238Y-68014342D01*
X138845238Y-68014342D02*
X138845238Y-67728628D01*
X138845238Y-67728628D02*
X138892857Y-67633390D01*
X138892857Y-67633390D02*
X138940476Y-67585771D01*
X138940476Y-67585771D02*
X139035714Y-67538152D01*
X139035714Y-67538152D02*
X139178571Y-67538152D01*
X139178571Y-67538152D02*
X139273809Y-67585771D01*
X139273809Y-67585771D02*
X139321428Y-67633390D01*
X139321428Y-67633390D02*
X139369047Y-67728628D01*
X139369047Y-67728628D02*
X139369047Y-68014342D01*
X139369047Y-68014342D02*
X139321428Y-68109580D01*
X139321428Y-68109580D02*
X139273809Y-68157200D01*
X139273809Y-68157200D02*
X139178571Y-68204819D01*
X139178571Y-68204819D02*
X139035714Y-68204819D01*
X139940476Y-68204819D02*
X139845238Y-68157200D01*
X139845238Y-68157200D02*
X139797619Y-68061961D01*
X139797619Y-68061961D02*
X139797619Y-67204819D01*
X140750000Y-68204819D02*
X140750000Y-67681009D01*
X140750000Y-67681009D02*
X140702381Y-67585771D01*
X140702381Y-67585771D02*
X140607143Y-67538152D01*
X140607143Y-67538152D02*
X140416667Y-67538152D01*
X140416667Y-67538152D02*
X140321429Y-67585771D01*
X140750000Y-68157200D02*
X140654762Y-68204819D01*
X140654762Y-68204819D02*
X140416667Y-68204819D01*
X140416667Y-68204819D02*
X140321429Y-68157200D01*
X140321429Y-68157200D02*
X140273810Y-68061961D01*
X140273810Y-68061961D02*
X140273810Y-67966723D01*
X140273810Y-67966723D02*
X140321429Y-67871485D01*
X140321429Y-67871485D02*
X140416667Y-67823866D01*
X140416667Y-67823866D02*
X140654762Y-67823866D01*
X140654762Y-67823866D02*
X140750000Y-67776247D01*
X141226191Y-68204819D02*
X141226191Y-67538152D01*
X141226191Y-67728628D02*
X141273810Y-67633390D01*
X141273810Y-67633390D02*
X141321429Y-67585771D01*
X141321429Y-67585771D02*
X141416667Y-67538152D01*
X141416667Y-67538152D02*
X141511905Y-67538152D01*
X141845239Y-68204819D02*
X141845239Y-67538152D01*
X141845239Y-67204819D02*
X141797620Y-67252438D01*
X141797620Y-67252438D02*
X141845239Y-67300057D01*
X141845239Y-67300057D02*
X141892858Y-67252438D01*
X141892858Y-67252438D02*
X141845239Y-67204819D01*
X141845239Y-67204819D02*
X141845239Y-67300057D01*
X142226191Y-67538152D02*
X142750000Y-67538152D01*
X142750000Y-67538152D02*
X142226191Y-68204819D01*
X142226191Y-68204819D02*
X142750000Y-68204819D01*
X143511905Y-68157200D02*
X143416667Y-68204819D01*
X143416667Y-68204819D02*
X143226191Y-68204819D01*
X143226191Y-68204819D02*
X143130953Y-68157200D01*
X143130953Y-68157200D02*
X143083334Y-68061961D01*
X143083334Y-68061961D02*
X143083334Y-67681009D01*
X143083334Y-67681009D02*
X143130953Y-67585771D01*
X143130953Y-67585771D02*
X143226191Y-67538152D01*
X143226191Y-67538152D02*
X143416667Y-67538152D01*
X143416667Y-67538152D02*
X143511905Y-67585771D01*
X143511905Y-67585771D02*
X143559524Y-67681009D01*
X143559524Y-67681009D02*
X143559524Y-67776247D01*
X143559524Y-67776247D02*
X143083334Y-67871485D01*
X144416667Y-68204819D02*
X144416667Y-67204819D01*
X144416667Y-68157200D02*
X144321429Y-68204819D01*
X144321429Y-68204819D02*
X144130953Y-68204819D01*
X144130953Y-68204819D02*
X144035715Y-68157200D01*
X144035715Y-68157200D02*
X143988096Y-68109580D01*
X143988096Y-68109580D02*
X143940477Y-68014342D01*
X143940477Y-68014342D02*
X143940477Y-67728628D01*
X143940477Y-67728628D02*
X143988096Y-67633390D01*
X143988096Y-67633390D02*
X144035715Y-67585771D01*
X144035715Y-67585771D02*
X144130953Y-67538152D01*
X144130953Y-67538152D02*
X144321429Y-67538152D01*
X144321429Y-67538152D02*
X144416667Y-67585771D01*
X144797620Y-67204819D02*
X145416667Y-67204819D01*
X145416667Y-67204819D02*
X145083334Y-67585771D01*
X145083334Y-67585771D02*
X145226191Y-67585771D01*
X145226191Y-67585771D02*
X145321429Y-67633390D01*
X145321429Y-67633390D02*
X145369048Y-67681009D01*
X145369048Y-67681009D02*
X145416667Y-67776247D01*
X145416667Y-67776247D02*
X145416667Y-68014342D01*
X145416667Y-68014342D02*
X145369048Y-68109580D01*
X145369048Y-68109580D02*
X145321429Y-68157200D01*
X145321429Y-68157200D02*
X145226191Y-68204819D01*
X145226191Y-68204819D02*
X144940477Y-68204819D01*
X144940477Y-68204819D02*
X144845239Y-68157200D01*
X144845239Y-68157200D02*
X144797620Y-68109580D01*
X144761905Y-65954819D02*
X144761905Y-64954819D01*
X144761905Y-64954819D02*
X145000000Y-64954819D01*
X145000000Y-64954819D02*
X145142857Y-65002438D01*
X145142857Y-65002438D02*
X145238095Y-65097676D01*
X145238095Y-65097676D02*
X145285714Y-65192914D01*
X145285714Y-65192914D02*
X145333333Y-65383390D01*
X145333333Y-65383390D02*
X145333333Y-65526247D01*
X145333333Y-65526247D02*
X145285714Y-65716723D01*
X145285714Y-65716723D02*
X145238095Y-65811961D01*
X145238095Y-65811961D02*
X145142857Y-65907200D01*
X145142857Y-65907200D02*
X145000000Y-65954819D01*
X145000000Y-65954819D02*
X144761905Y-65954819D01*
X146285714Y-65954819D02*
X145714286Y-65954819D01*
X146000000Y-65954819D02*
X146000000Y-64954819D01*
X146000000Y-64954819D02*
X145904762Y-65097676D01*
X145904762Y-65097676D02*
X145809524Y-65192914D01*
X145809524Y-65192914D02*
X145714286Y-65240533D01*
X173833334Y-74954818D02*
X173357144Y-74954818D01*
X173357144Y-74954818D02*
X173357144Y-73954818D01*
X174119049Y-74050056D02*
X174166668Y-74002437D01*
X174166668Y-74002437D02*
X174261906Y-73954818D01*
X174261906Y-73954818D02*
X174500001Y-73954818D01*
X174500001Y-73954818D02*
X174595239Y-74002437D01*
X174595239Y-74002437D02*
X174642858Y-74050056D01*
X174642858Y-74050056D02*
X174690477Y-74145294D01*
X174690477Y-74145294D02*
X174690477Y-74240532D01*
X174690477Y-74240532D02*
X174642858Y-74383389D01*
X174642858Y-74383389D02*
X174071430Y-74954818D01*
X174071430Y-74954818D02*
X174690477Y-74954818D01*
X173010533Y-65739180D02*
X172962914Y-65786800D01*
X172962914Y-65786800D02*
X172820057Y-65834419D01*
X172820057Y-65834419D02*
X172724819Y-65834419D01*
X172724819Y-65834419D02*
X172581962Y-65786800D01*
X172581962Y-65786800D02*
X172486724Y-65691561D01*
X172486724Y-65691561D02*
X172439105Y-65596323D01*
X172439105Y-65596323D02*
X172391486Y-65405847D01*
X172391486Y-65405847D02*
X172391486Y-65262990D01*
X172391486Y-65262990D02*
X172439105Y-65072514D01*
X172439105Y-65072514D02*
X172486724Y-64977276D01*
X172486724Y-64977276D02*
X172581962Y-64882038D01*
X172581962Y-64882038D02*
X172724819Y-64834419D01*
X172724819Y-64834419D02*
X172820057Y-64834419D01*
X172820057Y-64834419D02*
X172962914Y-64882038D01*
X172962914Y-64882038D02*
X173010533Y-64929657D01*
X173867676Y-65167752D02*
X173867676Y-65834419D01*
X173629581Y-64786800D02*
X173391486Y-65501085D01*
X173391486Y-65501085D02*
X174010533Y-65501085D01*
D11*
X182982618Y-95806462D02*
X181712618Y-95806462D01*
X182861665Y-94475985D02*
X182922142Y-94536461D01*
X182922142Y-94536461D02*
X182982618Y-94717890D01*
X182982618Y-94717890D02*
X182982618Y-94838842D01*
X182982618Y-94838842D02*
X182922142Y-95020271D01*
X182922142Y-95020271D02*
X182801189Y-95141223D01*
X182801189Y-95141223D02*
X182680237Y-95201700D01*
X182680237Y-95201700D02*
X182438332Y-95262176D01*
X182438332Y-95262176D02*
X182256903Y-95262176D01*
X182256903Y-95262176D02*
X182014999Y-95201700D01*
X182014999Y-95201700D02*
X181894046Y-95141223D01*
X181894046Y-95141223D02*
X181773094Y-95020271D01*
X181773094Y-95020271D02*
X181712618Y-94838842D01*
X181712618Y-94838842D02*
X181712618Y-94717890D01*
X181712618Y-94717890D02*
X181773094Y-94536461D01*
X181773094Y-94536461D02*
X181833570Y-94475985D01*
X182135951Y-93387414D02*
X182982618Y-93387414D01*
X181652142Y-93689795D02*
X182559284Y-93992176D01*
X182559284Y-93992176D02*
X182559284Y-93205985D01*
D10*
X176614719Y-101741866D02*
X176138528Y-102075199D01*
X176614719Y-102313294D02*
X175614719Y-102313294D01*
X175614719Y-102313294D02*
X175614719Y-101932342D01*
X175614719Y-101932342D02*
X175662338Y-101837104D01*
X175662338Y-101837104D02*
X175709957Y-101789485D01*
X175709957Y-101789485D02*
X175805195Y-101741866D01*
X175805195Y-101741866D02*
X175948052Y-101741866D01*
X175948052Y-101741866D02*
X176043290Y-101789485D01*
X176043290Y-101789485D02*
X176090909Y-101837104D01*
X176090909Y-101837104D02*
X176138528Y-101932342D01*
X176138528Y-101932342D02*
X176138528Y-102313294D01*
X176614719Y-101265675D02*
X176614719Y-101075199D01*
X176614719Y-101075199D02*
X176567100Y-100979961D01*
X176567100Y-100979961D02*
X176519480Y-100932342D01*
X176519480Y-100932342D02*
X176376623Y-100837104D01*
X176376623Y-100837104D02*
X176186147Y-100789485D01*
X176186147Y-100789485D02*
X175805195Y-100789485D01*
X175805195Y-100789485D02*
X175709957Y-100837104D01*
X175709957Y-100837104D02*
X175662338Y-100884723D01*
X175662338Y-100884723D02*
X175614719Y-100979961D01*
X175614719Y-100979961D02*
X175614719Y-101170437D01*
X175614719Y-101170437D02*
X175662338Y-101265675D01*
X175662338Y-101265675D02*
X175709957Y-101313294D01*
X175709957Y-101313294D02*
X175805195Y-101360913D01*
X175805195Y-101360913D02*
X176043290Y-101360913D01*
X176043290Y-101360913D02*
X176138528Y-101313294D01*
X176138528Y-101313294D02*
X176186147Y-101265675D01*
X176186147Y-101265675D02*
X176233766Y-101170437D01*
X176233766Y-101170437D02*
X176233766Y-100979961D01*
X176233766Y-100979961D02*
X176186147Y-100884723D01*
X176186147Y-100884723D02*
X176138528Y-100837104D01*
X176138528Y-100837104D02*
X176043290Y-100789485D01*
X183980718Y-111343065D02*
X183504527Y-111676398D01*
X183980718Y-111914493D02*
X182980718Y-111914493D01*
X182980718Y-111914493D02*
X182980718Y-111533541D01*
X182980718Y-111533541D02*
X183028337Y-111438303D01*
X183028337Y-111438303D02*
X183075956Y-111390684D01*
X183075956Y-111390684D02*
X183171194Y-111343065D01*
X183171194Y-111343065D02*
X183314051Y-111343065D01*
X183314051Y-111343065D02*
X183409289Y-111390684D01*
X183409289Y-111390684D02*
X183456908Y-111438303D01*
X183456908Y-111438303D02*
X183504527Y-111533541D01*
X183504527Y-111533541D02*
X183504527Y-111914493D01*
X183314051Y-110485922D02*
X183980718Y-110485922D01*
X182933099Y-110724017D02*
X183647384Y-110962112D01*
X183647384Y-110962112D02*
X183647384Y-110343065D01*
X161583334Y-74359579D02*
X161535715Y-74407199D01*
X161535715Y-74407199D02*
X161392858Y-74454818D01*
X161392858Y-74454818D02*
X161297620Y-74454818D01*
X161297620Y-74454818D02*
X161154763Y-74407199D01*
X161154763Y-74407199D02*
X161059525Y-74311960D01*
X161059525Y-74311960D02*
X161011906Y-74216722D01*
X161011906Y-74216722D02*
X160964287Y-74026246D01*
X160964287Y-74026246D02*
X160964287Y-73883389D01*
X160964287Y-73883389D02*
X161011906Y-73692913D01*
X161011906Y-73692913D02*
X161059525Y-73597675D01*
X161059525Y-73597675D02*
X161154763Y-73502437D01*
X161154763Y-73502437D02*
X161297620Y-73454818D01*
X161297620Y-73454818D02*
X161392858Y-73454818D01*
X161392858Y-73454818D02*
X161535715Y-73502437D01*
X161535715Y-73502437D02*
X161583334Y-73550056D01*
X162488096Y-73454818D02*
X162011906Y-73454818D01*
X162011906Y-73454818D02*
X161964287Y-73931008D01*
X161964287Y-73931008D02*
X162011906Y-73883389D01*
X162011906Y-73883389D02*
X162107144Y-73835770D01*
X162107144Y-73835770D02*
X162345239Y-73835770D01*
X162345239Y-73835770D02*
X162440477Y-73883389D01*
X162440477Y-73883389D02*
X162488096Y-73931008D01*
X162488096Y-73931008D02*
X162535715Y-74026246D01*
X162535715Y-74026246D02*
X162535715Y-74264341D01*
X162535715Y-74264341D02*
X162488096Y-74359579D01*
X162488096Y-74359579D02*
X162440477Y-74407199D01*
X162440477Y-74407199D02*
X162345239Y-74454818D01*
X162345239Y-74454818D02*
X162107144Y-74454818D01*
X162107144Y-74454818D02*
X162011906Y-74407199D01*
X162011906Y-74407199D02*
X161964287Y-74359579D01*
X183391042Y-101649919D02*
X183057709Y-101173728D01*
X182819614Y-101649919D02*
X182819614Y-100649919D01*
X182819614Y-100649919D02*
X183200566Y-100649919D01*
X183200566Y-100649919D02*
X183295804Y-100697538D01*
X183295804Y-100697538D02*
X183343423Y-100745157D01*
X183343423Y-100745157D02*
X183391042Y-100840395D01*
X183391042Y-100840395D02*
X183391042Y-100983252D01*
X183391042Y-100983252D02*
X183343423Y-101078490D01*
X183343423Y-101078490D02*
X183295804Y-101126109D01*
X183295804Y-101126109D02*
X183200566Y-101173728D01*
X183200566Y-101173728D02*
X182819614Y-101173728D01*
X184343423Y-101649919D02*
X183771995Y-101649919D01*
X184057709Y-101649919D02*
X184057709Y-100649919D01*
X184057709Y-100649919D02*
X183962471Y-100792776D01*
X183962471Y-100792776D02*
X183867233Y-100888014D01*
X183867233Y-100888014D02*
X183771995Y-100935633D01*
X185200566Y-100983252D02*
X185200566Y-101649919D01*
X184962471Y-100602300D02*
X184724376Y-101316585D01*
X184724376Y-101316585D02*
X185343423Y-101316585D01*
X192824642Y-88013019D02*
X192491309Y-87536828D01*
X192253214Y-88013019D02*
X192253214Y-87013019D01*
X192253214Y-87013019D02*
X192634166Y-87013019D01*
X192634166Y-87013019D02*
X192729404Y-87060638D01*
X192729404Y-87060638D02*
X192777023Y-87108257D01*
X192777023Y-87108257D02*
X192824642Y-87203495D01*
X192824642Y-87203495D02*
X192824642Y-87346352D01*
X192824642Y-87346352D02*
X192777023Y-87441590D01*
X192777023Y-87441590D02*
X192729404Y-87489209D01*
X192729404Y-87489209D02*
X192634166Y-87536828D01*
X192634166Y-87536828D02*
X192253214Y-87536828D01*
X193777023Y-88013019D02*
X193205595Y-88013019D01*
X193491309Y-88013019D02*
X193491309Y-87013019D01*
X193491309Y-87013019D02*
X193396071Y-87155876D01*
X193396071Y-87155876D02*
X193300833Y-87251114D01*
X193300833Y-87251114D02*
X193205595Y-87298733D01*
X194110357Y-87013019D02*
X194777023Y-87013019D01*
X194777023Y-87013019D02*
X194348452Y-88013019D01*
X154625219Y-75380304D02*
X155434742Y-75380304D01*
X155434742Y-75380304D02*
X155529980Y-75332685D01*
X155529980Y-75332685D02*
X155577600Y-75285066D01*
X155577600Y-75285066D02*
X155625219Y-75189828D01*
X155625219Y-75189828D02*
X155625219Y-74999352D01*
X155625219Y-74999352D02*
X155577600Y-74904114D01*
X155577600Y-74904114D02*
X155529980Y-74856495D01*
X155529980Y-74856495D02*
X155434742Y-74808876D01*
X155434742Y-74808876D02*
X154625219Y-74808876D01*
X155625219Y-73808876D02*
X155625219Y-74380304D01*
X155625219Y-74094590D02*
X154625219Y-74094590D01*
X154625219Y-74094590D02*
X154768076Y-74189828D01*
X154768076Y-74189828D02*
X154863314Y-74285066D01*
X154863314Y-74285066D02*
X154910933Y-74380304D01*
X152233333Y-97759580D02*
X152185714Y-97807200D01*
X152185714Y-97807200D02*
X152042857Y-97854819D01*
X152042857Y-97854819D02*
X151947619Y-97854819D01*
X151947619Y-97854819D02*
X151804762Y-97807200D01*
X151804762Y-97807200D02*
X151709524Y-97711961D01*
X151709524Y-97711961D02*
X151661905Y-97616723D01*
X151661905Y-97616723D02*
X151614286Y-97426247D01*
X151614286Y-97426247D02*
X151614286Y-97283390D01*
X151614286Y-97283390D02*
X151661905Y-97092914D01*
X151661905Y-97092914D02*
X151709524Y-96997676D01*
X151709524Y-96997676D02*
X151804762Y-96902438D01*
X151804762Y-96902438D02*
X151947619Y-96854819D01*
X151947619Y-96854819D02*
X152042857Y-96854819D01*
X152042857Y-96854819D02*
X152185714Y-96902438D01*
X152185714Y-96902438D02*
X152233333Y-96950057D01*
X153090476Y-96854819D02*
X152900000Y-96854819D01*
X152900000Y-96854819D02*
X152804762Y-96902438D01*
X152804762Y-96902438D02*
X152757143Y-96950057D01*
X152757143Y-96950057D02*
X152661905Y-97092914D01*
X152661905Y-97092914D02*
X152614286Y-97283390D01*
X152614286Y-97283390D02*
X152614286Y-97664342D01*
X152614286Y-97664342D02*
X152661905Y-97759580D01*
X152661905Y-97759580D02*
X152709524Y-97807200D01*
X152709524Y-97807200D02*
X152804762Y-97854819D01*
X152804762Y-97854819D02*
X152995238Y-97854819D01*
X152995238Y-97854819D02*
X153090476Y-97807200D01*
X153090476Y-97807200D02*
X153138095Y-97759580D01*
X153138095Y-97759580D02*
X153185714Y-97664342D01*
X153185714Y-97664342D02*
X153185714Y-97426247D01*
X153185714Y-97426247D02*
X153138095Y-97331009D01*
X153138095Y-97331009D02*
X153090476Y-97283390D01*
X153090476Y-97283390D02*
X152995238Y-97235771D01*
X152995238Y-97235771D02*
X152804762Y-97235771D01*
X152804762Y-97235771D02*
X152709524Y-97283390D01*
X152709524Y-97283390D02*
X152661905Y-97331009D01*
X152661905Y-97331009D02*
X152614286Y-97426247D01*
X167600333Y-87990879D02*
X167552714Y-88038499D01*
X167552714Y-88038499D02*
X167409857Y-88086118D01*
X167409857Y-88086118D02*
X167314619Y-88086118D01*
X167314619Y-88086118D02*
X167171762Y-88038499D01*
X167171762Y-88038499D02*
X167076524Y-87943260D01*
X167076524Y-87943260D02*
X167028905Y-87848022D01*
X167028905Y-87848022D02*
X166981286Y-87657546D01*
X166981286Y-87657546D02*
X166981286Y-87514689D01*
X166981286Y-87514689D02*
X167028905Y-87324213D01*
X167028905Y-87324213D02*
X167076524Y-87228975D01*
X167076524Y-87228975D02*
X167171762Y-87133737D01*
X167171762Y-87133737D02*
X167314619Y-87086118D01*
X167314619Y-87086118D02*
X167409857Y-87086118D01*
X167409857Y-87086118D02*
X167552714Y-87133737D01*
X167552714Y-87133737D02*
X167600333Y-87181356D01*
X167981286Y-87181356D02*
X168028905Y-87133737D01*
X168028905Y-87133737D02*
X168124143Y-87086118D01*
X168124143Y-87086118D02*
X168362238Y-87086118D01*
X168362238Y-87086118D02*
X168457476Y-87133737D01*
X168457476Y-87133737D02*
X168505095Y-87181356D01*
X168505095Y-87181356D02*
X168552714Y-87276594D01*
X168552714Y-87276594D02*
X168552714Y-87371832D01*
X168552714Y-87371832D02*
X168505095Y-87514689D01*
X168505095Y-87514689D02*
X167933667Y-88086118D01*
X167933667Y-88086118D02*
X168552714Y-88086118D01*
X167473333Y-100308580D02*
X167425714Y-100356200D01*
X167425714Y-100356200D02*
X167282857Y-100403819D01*
X167282857Y-100403819D02*
X167187619Y-100403819D01*
X167187619Y-100403819D02*
X167044762Y-100356200D01*
X167044762Y-100356200D02*
X166949524Y-100260961D01*
X166949524Y-100260961D02*
X166901905Y-100165723D01*
X166901905Y-100165723D02*
X166854286Y-99975247D01*
X166854286Y-99975247D02*
X166854286Y-99832390D01*
X166854286Y-99832390D02*
X166901905Y-99641914D01*
X166901905Y-99641914D02*
X166949524Y-99546676D01*
X166949524Y-99546676D02*
X167044762Y-99451438D01*
X167044762Y-99451438D02*
X167187619Y-99403819D01*
X167187619Y-99403819D02*
X167282857Y-99403819D01*
X167282857Y-99403819D02*
X167425714Y-99451438D01*
X167425714Y-99451438D02*
X167473333Y-99499057D01*
X168425714Y-100403819D02*
X167854286Y-100403819D01*
X168140000Y-100403819D02*
X168140000Y-99403819D01*
X168140000Y-99403819D02*
X168044762Y-99546676D01*
X168044762Y-99546676D02*
X167949524Y-99641914D01*
X167949524Y-99641914D02*
X167854286Y-99689533D01*
X156398933Y-71428780D02*
X156351314Y-71476400D01*
X156351314Y-71476400D02*
X156208457Y-71524019D01*
X156208457Y-71524019D02*
X156113219Y-71524019D01*
X156113219Y-71524019D02*
X155970362Y-71476400D01*
X155970362Y-71476400D02*
X155875124Y-71381161D01*
X155875124Y-71381161D02*
X155827505Y-71285923D01*
X155827505Y-71285923D02*
X155779886Y-71095447D01*
X155779886Y-71095447D02*
X155779886Y-70952590D01*
X155779886Y-70952590D02*
X155827505Y-70762114D01*
X155827505Y-70762114D02*
X155875124Y-70666876D01*
X155875124Y-70666876D02*
X155970362Y-70571638D01*
X155970362Y-70571638D02*
X156113219Y-70524019D01*
X156113219Y-70524019D02*
X156208457Y-70524019D01*
X156208457Y-70524019D02*
X156351314Y-70571638D01*
X156351314Y-70571638D02*
X156398933Y-70619257D01*
X156732267Y-70524019D02*
X157351314Y-70524019D01*
X157351314Y-70524019D02*
X157017981Y-70904971D01*
X157017981Y-70904971D02*
X157160838Y-70904971D01*
X157160838Y-70904971D02*
X157256076Y-70952590D01*
X157256076Y-70952590D02*
X157303695Y-71000209D01*
X157303695Y-71000209D02*
X157351314Y-71095447D01*
X157351314Y-71095447D02*
X157351314Y-71333542D01*
X157351314Y-71333542D02*
X157303695Y-71428780D01*
X157303695Y-71428780D02*
X157256076Y-71476400D01*
X157256076Y-71476400D02*
X157160838Y-71524019D01*
X157160838Y-71524019D02*
X156875124Y-71524019D01*
X156875124Y-71524019D02*
X156779886Y-71476400D01*
X156779886Y-71476400D02*
X156732267Y-71428780D01*
D11*
X159959717Y-94109563D02*
X158689717Y-94109563D01*
X159838764Y-92779086D02*
X159899241Y-92839562D01*
X159899241Y-92839562D02*
X159959717Y-93020991D01*
X159959717Y-93020991D02*
X159959717Y-93141943D01*
X159959717Y-93141943D02*
X159899241Y-93323372D01*
X159899241Y-93323372D02*
X159778288Y-93444324D01*
X159778288Y-93444324D02*
X159657336Y-93504801D01*
X159657336Y-93504801D02*
X159415431Y-93565277D01*
X159415431Y-93565277D02*
X159234002Y-93565277D01*
X159234002Y-93565277D02*
X158992098Y-93504801D01*
X158992098Y-93504801D02*
X158871145Y-93444324D01*
X158871145Y-93444324D02*
X158750193Y-93323372D01*
X158750193Y-93323372D02*
X158689717Y-93141943D01*
X158689717Y-93141943D02*
X158689717Y-93020991D01*
X158689717Y-93020991D02*
X158750193Y-92839562D01*
X158750193Y-92839562D02*
X158810669Y-92779086D01*
X159959717Y-91569562D02*
X159959717Y-92295277D01*
X159959717Y-91932420D02*
X158689717Y-91932420D01*
X158689717Y-91932420D02*
X158871145Y-92053372D01*
X158871145Y-92053372D02*
X158992098Y-92174324D01*
X158992098Y-92174324D02*
X159052574Y-92295277D01*
D10*
X171270319Y-73159404D02*
X172079842Y-73159404D01*
X172079842Y-73159404D02*
X172175080Y-73111785D01*
X172175080Y-73111785D02*
X172222700Y-73064166D01*
X172222700Y-73064166D02*
X172270319Y-72968928D01*
X172270319Y-72968928D02*
X172270319Y-72778452D01*
X172270319Y-72778452D02*
X172222700Y-72683214D01*
X172222700Y-72683214D02*
X172175080Y-72635595D01*
X172175080Y-72635595D02*
X172079842Y-72587976D01*
X172079842Y-72587976D02*
X171270319Y-72587976D01*
X171365557Y-72159404D02*
X171317938Y-72111785D01*
X171317938Y-72111785D02*
X171270319Y-72016547D01*
X171270319Y-72016547D02*
X171270319Y-71778452D01*
X171270319Y-71778452D02*
X171317938Y-71683214D01*
X171317938Y-71683214D02*
X171365557Y-71635595D01*
X171365557Y-71635595D02*
X171460795Y-71587976D01*
X171460795Y-71587976D02*
X171556033Y-71587976D01*
X171556033Y-71587976D02*
X171698890Y-71635595D01*
X171698890Y-71635595D02*
X172270319Y-72207023D01*
X172270319Y-72207023D02*
X172270319Y-71587976D01*
X177704819Y-91666666D02*
X177228628Y-91999999D01*
X177704819Y-92238094D02*
X176704819Y-92238094D01*
X176704819Y-92238094D02*
X176704819Y-91857142D01*
X176704819Y-91857142D02*
X176752438Y-91761904D01*
X176752438Y-91761904D02*
X176800057Y-91714285D01*
X176800057Y-91714285D02*
X176895295Y-91666666D01*
X176895295Y-91666666D02*
X177038152Y-91666666D01*
X177038152Y-91666666D02*
X177133390Y-91714285D01*
X177133390Y-91714285D02*
X177181009Y-91761904D01*
X177181009Y-91761904D02*
X177228628Y-91857142D01*
X177228628Y-91857142D02*
X177228628Y-92238094D01*
X177133390Y-91095237D02*
X177085771Y-91190475D01*
X177085771Y-91190475D02*
X177038152Y-91238094D01*
X177038152Y-91238094D02*
X176942914Y-91285713D01*
X176942914Y-91285713D02*
X176895295Y-91285713D01*
X176895295Y-91285713D02*
X176800057Y-91238094D01*
X176800057Y-91238094D02*
X176752438Y-91190475D01*
X176752438Y-91190475D02*
X176704819Y-91095237D01*
X176704819Y-91095237D02*
X176704819Y-90904761D01*
X176704819Y-90904761D02*
X176752438Y-90809523D01*
X176752438Y-90809523D02*
X176800057Y-90761904D01*
X176800057Y-90761904D02*
X176895295Y-90714285D01*
X176895295Y-90714285D02*
X176942914Y-90714285D01*
X176942914Y-90714285D02*
X177038152Y-90761904D01*
X177038152Y-90761904D02*
X177085771Y-90809523D01*
X177085771Y-90809523D02*
X177133390Y-90904761D01*
X177133390Y-90904761D02*
X177133390Y-91095237D01*
X177133390Y-91095237D02*
X177181009Y-91190475D01*
X177181009Y-91190475D02*
X177228628Y-91238094D01*
X177228628Y-91238094D02*
X177323866Y-91285713D01*
X177323866Y-91285713D02*
X177514342Y-91285713D01*
X177514342Y-91285713D02*
X177609580Y-91238094D01*
X177609580Y-91238094D02*
X177657200Y-91190475D01*
X177657200Y-91190475D02*
X177704819Y-91095237D01*
X177704819Y-91095237D02*
X177704819Y-90904761D01*
X177704819Y-90904761D02*
X177657200Y-90809523D01*
X177657200Y-90809523D02*
X177609580Y-90761904D01*
X177609580Y-90761904D02*
X177514342Y-90714285D01*
X177514342Y-90714285D02*
X177323866Y-90714285D01*
X177323866Y-90714285D02*
X177228628Y-90761904D01*
X177228628Y-90761904D02*
X177181009Y-90809523D01*
X177181009Y-90809523D02*
X177133390Y-90904761D01*
X174523080Y-89773957D02*
X174570700Y-89821576D01*
X174570700Y-89821576D02*
X174618319Y-89964433D01*
X174618319Y-89964433D02*
X174618319Y-90059671D01*
X174618319Y-90059671D02*
X174570700Y-90202528D01*
X174570700Y-90202528D02*
X174475461Y-90297766D01*
X174475461Y-90297766D02*
X174380223Y-90345385D01*
X174380223Y-90345385D02*
X174189747Y-90393004D01*
X174189747Y-90393004D02*
X174046890Y-90393004D01*
X174046890Y-90393004D02*
X173856414Y-90345385D01*
X173856414Y-90345385D02*
X173761176Y-90297766D01*
X173761176Y-90297766D02*
X173665938Y-90202528D01*
X173665938Y-90202528D02*
X173618319Y-90059671D01*
X173618319Y-90059671D02*
X173618319Y-89964433D01*
X173618319Y-89964433D02*
X173665938Y-89821576D01*
X173665938Y-89821576D02*
X173713557Y-89773957D01*
X174618319Y-88821576D02*
X174618319Y-89393004D01*
X174618319Y-89107290D02*
X173618319Y-89107290D01*
X173618319Y-89107290D02*
X173761176Y-89202528D01*
X173761176Y-89202528D02*
X173856414Y-89297766D01*
X173856414Y-89297766D02*
X173904033Y-89393004D01*
X174618319Y-87869195D02*
X174618319Y-88440623D01*
X174618319Y-88154909D02*
X173618319Y-88154909D01*
X173618319Y-88154909D02*
X173761176Y-88250147D01*
X173761176Y-88250147D02*
X173856414Y-88345385D01*
X173856414Y-88345385D02*
X173904033Y-88440623D01*
X182339919Y-104709157D02*
X181863728Y-105042490D01*
X182339919Y-105280585D02*
X181339919Y-105280585D01*
X181339919Y-105280585D02*
X181339919Y-104899633D01*
X181339919Y-104899633D02*
X181387538Y-104804395D01*
X181387538Y-104804395D02*
X181435157Y-104756776D01*
X181435157Y-104756776D02*
X181530395Y-104709157D01*
X181530395Y-104709157D02*
X181673252Y-104709157D01*
X181673252Y-104709157D02*
X181768490Y-104756776D01*
X181768490Y-104756776D02*
X181816109Y-104804395D01*
X181816109Y-104804395D02*
X181863728Y-104899633D01*
X181863728Y-104899633D02*
X181863728Y-105280585D01*
X182339919Y-103756776D02*
X182339919Y-104328204D01*
X182339919Y-104042490D02*
X181339919Y-104042490D01*
X181339919Y-104042490D02*
X181482776Y-104137728D01*
X181482776Y-104137728D02*
X181578014Y-104232966D01*
X181578014Y-104232966D02*
X181625633Y-104328204D01*
X182339919Y-102804395D02*
X182339919Y-103375823D01*
X182339919Y-103090109D02*
X181339919Y-103090109D01*
X181339919Y-103090109D02*
X181482776Y-103185347D01*
X181482776Y-103185347D02*
X181578014Y-103280585D01*
X181578014Y-103280585D02*
X181625633Y-103375823D01*
X175883333Y-84054819D02*
X175550000Y-83578628D01*
X175311905Y-84054819D02*
X175311905Y-83054819D01*
X175311905Y-83054819D02*
X175692857Y-83054819D01*
X175692857Y-83054819D02*
X175788095Y-83102438D01*
X175788095Y-83102438D02*
X175835714Y-83150057D01*
X175835714Y-83150057D02*
X175883333Y-83245295D01*
X175883333Y-83245295D02*
X175883333Y-83388152D01*
X175883333Y-83388152D02*
X175835714Y-83483390D01*
X175835714Y-83483390D02*
X175788095Y-83531009D01*
X175788095Y-83531009D02*
X175692857Y-83578628D01*
X175692857Y-83578628D02*
X175311905Y-83578628D01*
X176740476Y-83054819D02*
X176550000Y-83054819D01*
X176550000Y-83054819D02*
X176454762Y-83102438D01*
X176454762Y-83102438D02*
X176407143Y-83150057D01*
X176407143Y-83150057D02*
X176311905Y-83292914D01*
X176311905Y-83292914D02*
X176264286Y-83483390D01*
X176264286Y-83483390D02*
X176264286Y-83864342D01*
X176264286Y-83864342D02*
X176311905Y-83959580D01*
X176311905Y-83959580D02*
X176359524Y-84007200D01*
X176359524Y-84007200D02*
X176454762Y-84054819D01*
X176454762Y-84054819D02*
X176645238Y-84054819D01*
X176645238Y-84054819D02*
X176740476Y-84007200D01*
X176740476Y-84007200D02*
X176788095Y-83959580D01*
X176788095Y-83959580D02*
X176835714Y-83864342D01*
X176835714Y-83864342D02*
X176835714Y-83626247D01*
X176835714Y-83626247D02*
X176788095Y-83531009D01*
X176788095Y-83531009D02*
X176740476Y-83483390D01*
X176740476Y-83483390D02*
X176645238Y-83435771D01*
X176645238Y-83435771D02*
X176454762Y-83435771D01*
X176454762Y-83435771D02*
X176359524Y-83483390D01*
X176359524Y-83483390D02*
X176311905Y-83531009D01*
X176311905Y-83531009D02*
X176264286Y-83626247D01*
X184333333Y-81154819D02*
X184000000Y-80678628D01*
X183761905Y-81154819D02*
X183761905Y-80154819D01*
X183761905Y-80154819D02*
X184142857Y-80154819D01*
X184142857Y-80154819D02*
X184238095Y-80202438D01*
X184238095Y-80202438D02*
X184285714Y-80250057D01*
X184285714Y-80250057D02*
X184333333Y-80345295D01*
X184333333Y-80345295D02*
X184333333Y-80488152D01*
X184333333Y-80488152D02*
X184285714Y-80583390D01*
X184285714Y-80583390D02*
X184238095Y-80631009D01*
X184238095Y-80631009D02*
X184142857Y-80678628D01*
X184142857Y-80678628D02*
X183761905Y-80678628D01*
X184666667Y-80154819D02*
X185285714Y-80154819D01*
X185285714Y-80154819D02*
X184952381Y-80535771D01*
X184952381Y-80535771D02*
X185095238Y-80535771D01*
X185095238Y-80535771D02*
X185190476Y-80583390D01*
X185190476Y-80583390D02*
X185238095Y-80631009D01*
X185238095Y-80631009D02*
X185285714Y-80726247D01*
X185285714Y-80726247D02*
X185285714Y-80964342D01*
X185285714Y-80964342D02*
X185238095Y-81059580D01*
X185238095Y-81059580D02*
X185190476Y-81107200D01*
X185190476Y-81107200D02*
X185095238Y-81154819D01*
X185095238Y-81154819D02*
X184809524Y-81154819D01*
X184809524Y-81154819D02*
X184714286Y-81107200D01*
X184714286Y-81107200D02*
X184666667Y-81059580D01*
X157278920Y-76660195D02*
X156802730Y-76660195D01*
X156802730Y-76660195D02*
X156802730Y-75660195D01*
X158136063Y-76660195D02*
X157564635Y-76660195D01*
X157850349Y-76660195D02*
X157850349Y-75660195D01*
X157850349Y-75660195D02*
X157755111Y-75803052D01*
X157755111Y-75803052D02*
X157659873Y-75898290D01*
X157659873Y-75898290D02*
X157564635Y-75945909D01*
X162273420Y-80037556D02*
X162225801Y-80085176D01*
X162225801Y-80085176D02*
X162082944Y-80132795D01*
X162082944Y-80132795D02*
X161987706Y-80132795D01*
X161987706Y-80132795D02*
X161844849Y-80085176D01*
X161844849Y-80085176D02*
X161749611Y-79989937D01*
X161749611Y-79989937D02*
X161701992Y-79894699D01*
X161701992Y-79894699D02*
X161654373Y-79704223D01*
X161654373Y-79704223D02*
X161654373Y-79561366D01*
X161654373Y-79561366D02*
X161701992Y-79370890D01*
X161701992Y-79370890D02*
X161749611Y-79275652D01*
X161749611Y-79275652D02*
X161844849Y-79180414D01*
X161844849Y-79180414D02*
X161987706Y-79132795D01*
X161987706Y-79132795D02*
X162082944Y-79132795D01*
X162082944Y-79132795D02*
X162225801Y-79180414D01*
X162225801Y-79180414D02*
X162273420Y-79228033D01*
X162606754Y-79132795D02*
X163273420Y-79132795D01*
X163273420Y-79132795D02*
X162844849Y-80132795D01*
X182859580Y-90142857D02*
X182907200Y-90190476D01*
X182907200Y-90190476D02*
X182954819Y-90333333D01*
X182954819Y-90333333D02*
X182954819Y-90428571D01*
X182954819Y-90428571D02*
X182907200Y-90571428D01*
X182907200Y-90571428D02*
X182811961Y-90666666D01*
X182811961Y-90666666D02*
X182716723Y-90714285D01*
X182716723Y-90714285D02*
X182526247Y-90761904D01*
X182526247Y-90761904D02*
X182383390Y-90761904D01*
X182383390Y-90761904D02*
X182192914Y-90714285D01*
X182192914Y-90714285D02*
X182097676Y-90666666D01*
X182097676Y-90666666D02*
X182002438Y-90571428D01*
X182002438Y-90571428D02*
X181954819Y-90428571D01*
X181954819Y-90428571D02*
X181954819Y-90333333D01*
X181954819Y-90333333D02*
X182002438Y-90190476D01*
X182002438Y-90190476D02*
X182050057Y-90142857D01*
X182954819Y-89190476D02*
X182954819Y-89761904D01*
X182954819Y-89476190D02*
X181954819Y-89476190D01*
X181954819Y-89476190D02*
X182097676Y-89571428D01*
X182097676Y-89571428D02*
X182192914Y-89666666D01*
X182192914Y-89666666D02*
X182240533Y-89761904D01*
X182383390Y-88619047D02*
X182335771Y-88714285D01*
X182335771Y-88714285D02*
X182288152Y-88761904D01*
X182288152Y-88761904D02*
X182192914Y-88809523D01*
X182192914Y-88809523D02*
X182145295Y-88809523D01*
X182145295Y-88809523D02*
X182050057Y-88761904D01*
X182050057Y-88761904D02*
X182002438Y-88714285D01*
X182002438Y-88714285D02*
X181954819Y-88619047D01*
X181954819Y-88619047D02*
X181954819Y-88428571D01*
X181954819Y-88428571D02*
X182002438Y-88333333D01*
X182002438Y-88333333D02*
X182050057Y-88285714D01*
X182050057Y-88285714D02*
X182145295Y-88238095D01*
X182145295Y-88238095D02*
X182192914Y-88238095D01*
X182192914Y-88238095D02*
X182288152Y-88285714D01*
X182288152Y-88285714D02*
X182335771Y-88333333D01*
X182335771Y-88333333D02*
X182383390Y-88428571D01*
X182383390Y-88428571D02*
X182383390Y-88619047D01*
X182383390Y-88619047D02*
X182431009Y-88714285D01*
X182431009Y-88714285D02*
X182478628Y-88761904D01*
X182478628Y-88761904D02*
X182573866Y-88809523D01*
X182573866Y-88809523D02*
X182764342Y-88809523D01*
X182764342Y-88809523D02*
X182859580Y-88761904D01*
X182859580Y-88761904D02*
X182907200Y-88714285D01*
X182907200Y-88714285D02*
X182954819Y-88619047D01*
X182954819Y-88619047D02*
X182954819Y-88428571D01*
X182954819Y-88428571D02*
X182907200Y-88333333D01*
X182907200Y-88333333D02*
X182859580Y-88285714D01*
X182859580Y-88285714D02*
X182764342Y-88238095D01*
X182764342Y-88238095D02*
X182573866Y-88238095D01*
X182573866Y-88238095D02*
X182478628Y-88285714D01*
X182478628Y-88285714D02*
X182431009Y-88333333D01*
X182431009Y-88333333D02*
X182383390Y-88428571D01*
X177920319Y-105454066D02*
X177444128Y-105787399D01*
X177920319Y-106025494D02*
X176920319Y-106025494D01*
X176920319Y-106025494D02*
X176920319Y-105644542D01*
X176920319Y-105644542D02*
X176967938Y-105549304D01*
X176967938Y-105549304D02*
X177015557Y-105501685D01*
X177015557Y-105501685D02*
X177110795Y-105454066D01*
X177110795Y-105454066D02*
X177253652Y-105454066D01*
X177253652Y-105454066D02*
X177348890Y-105501685D01*
X177348890Y-105501685D02*
X177396509Y-105549304D01*
X177396509Y-105549304D02*
X177444128Y-105644542D01*
X177444128Y-105644542D02*
X177444128Y-106025494D01*
X176920319Y-105120732D02*
X176920319Y-104454066D01*
X176920319Y-104454066D02*
X177920319Y-104882637D01*
X178688680Y-98867157D02*
X178736300Y-98914776D01*
X178736300Y-98914776D02*
X178783919Y-99057633D01*
X178783919Y-99057633D02*
X178783919Y-99152871D01*
X178783919Y-99152871D02*
X178736300Y-99295728D01*
X178736300Y-99295728D02*
X178641061Y-99390966D01*
X178641061Y-99390966D02*
X178545823Y-99438585D01*
X178545823Y-99438585D02*
X178355347Y-99486204D01*
X178355347Y-99486204D02*
X178212490Y-99486204D01*
X178212490Y-99486204D02*
X178022014Y-99438585D01*
X178022014Y-99438585D02*
X177926776Y-99390966D01*
X177926776Y-99390966D02*
X177831538Y-99295728D01*
X177831538Y-99295728D02*
X177783919Y-99152871D01*
X177783919Y-99152871D02*
X177783919Y-99057633D01*
X177783919Y-99057633D02*
X177831538Y-98914776D01*
X177831538Y-98914776D02*
X177879157Y-98867157D01*
X178783919Y-97914776D02*
X178783919Y-98486204D01*
X178783919Y-98200490D02*
X177783919Y-98200490D01*
X177783919Y-98200490D02*
X177926776Y-98295728D01*
X177926776Y-98295728D02*
X178022014Y-98390966D01*
X178022014Y-98390966D02*
X178069633Y-98486204D01*
X178783919Y-97438585D02*
X178783919Y-97248109D01*
X178783919Y-97248109D02*
X178736300Y-97152871D01*
X178736300Y-97152871D02*
X178688680Y-97105252D01*
X178688680Y-97105252D02*
X178545823Y-97010014D01*
X178545823Y-97010014D02*
X178355347Y-96962395D01*
X178355347Y-96962395D02*
X177974395Y-96962395D01*
X177974395Y-96962395D02*
X177879157Y-97010014D01*
X177879157Y-97010014D02*
X177831538Y-97057633D01*
X177831538Y-97057633D02*
X177783919Y-97152871D01*
X177783919Y-97152871D02*
X177783919Y-97343347D01*
X177783919Y-97343347D02*
X177831538Y-97438585D01*
X177831538Y-97438585D02*
X177879157Y-97486204D01*
X177879157Y-97486204D02*
X177974395Y-97533823D01*
X177974395Y-97533823D02*
X178212490Y-97533823D01*
X178212490Y-97533823D02*
X178307728Y-97486204D01*
X178307728Y-97486204D02*
X178355347Y-97438585D01*
X178355347Y-97438585D02*
X178402966Y-97343347D01*
X178402966Y-97343347D02*
X178402966Y-97152871D01*
X178402966Y-97152871D02*
X178355347Y-97057633D01*
X178355347Y-97057633D02*
X178307728Y-97010014D01*
X178307728Y-97010014D02*
X178212490Y-96962395D01*
X182407142Y-84209580D02*
X182359523Y-84257200D01*
X182359523Y-84257200D02*
X182216666Y-84304819D01*
X182216666Y-84304819D02*
X182121428Y-84304819D01*
X182121428Y-84304819D02*
X181978571Y-84257200D01*
X181978571Y-84257200D02*
X181883333Y-84161961D01*
X181883333Y-84161961D02*
X181835714Y-84066723D01*
X181835714Y-84066723D02*
X181788095Y-83876247D01*
X181788095Y-83876247D02*
X181788095Y-83733390D01*
X181788095Y-83733390D02*
X181835714Y-83542914D01*
X181835714Y-83542914D02*
X181883333Y-83447676D01*
X181883333Y-83447676D02*
X181978571Y-83352438D01*
X181978571Y-83352438D02*
X182121428Y-83304819D01*
X182121428Y-83304819D02*
X182216666Y-83304819D01*
X182216666Y-83304819D02*
X182359523Y-83352438D01*
X182359523Y-83352438D02*
X182407142Y-83400057D01*
X183359523Y-84304819D02*
X182788095Y-84304819D01*
X183073809Y-84304819D02*
X183073809Y-83304819D01*
X183073809Y-83304819D02*
X182978571Y-83447676D01*
X182978571Y-83447676D02*
X182883333Y-83542914D01*
X182883333Y-83542914D02*
X182788095Y-83590533D01*
X184216666Y-83304819D02*
X184026190Y-83304819D01*
X184026190Y-83304819D02*
X183930952Y-83352438D01*
X183930952Y-83352438D02*
X183883333Y-83400057D01*
X183883333Y-83400057D02*
X183788095Y-83542914D01*
X183788095Y-83542914D02*
X183740476Y-83733390D01*
X183740476Y-83733390D02*
X183740476Y-84114342D01*
X183740476Y-84114342D02*
X183788095Y-84209580D01*
X183788095Y-84209580D02*
X183835714Y-84257200D01*
X183835714Y-84257200D02*
X183930952Y-84304819D01*
X183930952Y-84304819D02*
X184121428Y-84304819D01*
X184121428Y-84304819D02*
X184216666Y-84257200D01*
X184216666Y-84257200D02*
X184264285Y-84209580D01*
X184264285Y-84209580D02*
X184311904Y-84114342D01*
X184311904Y-84114342D02*
X184311904Y-83876247D01*
X184311904Y-83876247D02*
X184264285Y-83781009D01*
X184264285Y-83781009D02*
X184216666Y-83733390D01*
X184216666Y-83733390D02*
X184121428Y-83685771D01*
X184121428Y-83685771D02*
X183930952Y-83685771D01*
X183930952Y-83685771D02*
X183835714Y-83733390D01*
X183835714Y-83733390D02*
X183788095Y-83781009D01*
X183788095Y-83781009D02*
X183740476Y-83876247D01*
X174607142Y-111109580D02*
X174559523Y-111157200D01*
X174559523Y-111157200D02*
X174416666Y-111204819D01*
X174416666Y-111204819D02*
X174321428Y-111204819D01*
X174321428Y-111204819D02*
X174178571Y-111157200D01*
X174178571Y-111157200D02*
X174083333Y-111061961D01*
X174083333Y-111061961D02*
X174035714Y-110966723D01*
X174035714Y-110966723D02*
X173988095Y-110776247D01*
X173988095Y-110776247D02*
X173988095Y-110633390D01*
X173988095Y-110633390D02*
X174035714Y-110442914D01*
X174035714Y-110442914D02*
X174083333Y-110347676D01*
X174083333Y-110347676D02*
X174178571Y-110252438D01*
X174178571Y-110252438D02*
X174321428Y-110204819D01*
X174321428Y-110204819D02*
X174416666Y-110204819D01*
X174416666Y-110204819D02*
X174559523Y-110252438D01*
X174559523Y-110252438D02*
X174607142Y-110300057D01*
X175559523Y-111204819D02*
X174988095Y-111204819D01*
X175273809Y-111204819D02*
X175273809Y-110204819D01*
X175273809Y-110204819D02*
X175178571Y-110347676D01*
X175178571Y-110347676D02*
X175083333Y-110442914D01*
X175083333Y-110442914D02*
X174988095Y-110490533D01*
X175940476Y-110300057D02*
X175988095Y-110252438D01*
X175988095Y-110252438D02*
X176083333Y-110204819D01*
X176083333Y-110204819D02*
X176321428Y-110204819D01*
X176321428Y-110204819D02*
X176416666Y-110252438D01*
X176416666Y-110252438D02*
X176464285Y-110300057D01*
X176464285Y-110300057D02*
X176511904Y-110395295D01*
X176511904Y-110395295D02*
X176511904Y-110490533D01*
X176511904Y-110490533D02*
X176464285Y-110633390D01*
X176464285Y-110633390D02*
X175892857Y-111204819D01*
X175892857Y-111204819D02*
X176511904Y-111204819D01*
X133566666Y-84054819D02*
X133566666Y-84769104D01*
X133566666Y-84769104D02*
X133519047Y-84911961D01*
X133519047Y-84911961D02*
X133423809Y-85007200D01*
X133423809Y-85007200D02*
X133280952Y-85054819D01*
X133280952Y-85054819D02*
X133185714Y-85054819D01*
X133995238Y-84150057D02*
X134042857Y-84102438D01*
X134042857Y-84102438D02*
X134138095Y-84054819D01*
X134138095Y-84054819D02*
X134376190Y-84054819D01*
X134376190Y-84054819D02*
X134471428Y-84102438D01*
X134471428Y-84102438D02*
X134519047Y-84150057D01*
X134519047Y-84150057D02*
X134566666Y-84245295D01*
X134566666Y-84245295D02*
X134566666Y-84340533D01*
X134566666Y-84340533D02*
X134519047Y-84483390D01*
X134519047Y-84483390D02*
X133947619Y-85054819D01*
X133947619Y-85054819D02*
X134566666Y-85054819D01*
X139011906Y-78454818D02*
X139011906Y-77454818D01*
X139011906Y-77454818D02*
X139250001Y-77454818D01*
X139250001Y-77454818D02*
X139392858Y-77502437D01*
X139392858Y-77502437D02*
X139488096Y-77597675D01*
X139488096Y-77597675D02*
X139535715Y-77692913D01*
X139535715Y-77692913D02*
X139583334Y-77883389D01*
X139583334Y-77883389D02*
X139583334Y-78026246D01*
X139583334Y-78026246D02*
X139535715Y-78216722D01*
X139535715Y-78216722D02*
X139488096Y-78311960D01*
X139488096Y-78311960D02*
X139392858Y-78407199D01*
X139392858Y-78407199D02*
X139250001Y-78454818D01*
X139250001Y-78454818D02*
X139011906Y-78454818D01*
X139964287Y-77550056D02*
X140011906Y-77502437D01*
X140011906Y-77502437D02*
X140107144Y-77454818D01*
X140107144Y-77454818D02*
X140345239Y-77454818D01*
X140345239Y-77454818D02*
X140440477Y-77502437D01*
X140440477Y-77502437D02*
X140488096Y-77550056D01*
X140488096Y-77550056D02*
X140535715Y-77645294D01*
X140535715Y-77645294D02*
X140535715Y-77740532D01*
X140535715Y-77740532D02*
X140488096Y-77883389D01*
X140488096Y-77883389D02*
X139916668Y-78454818D01*
X139916668Y-78454818D02*
X140535715Y-78454818D01*
X183870280Y-107655557D02*
X183917900Y-107703176D01*
X183917900Y-107703176D02*
X183965519Y-107846033D01*
X183965519Y-107846033D02*
X183965519Y-107941271D01*
X183965519Y-107941271D02*
X183917900Y-108084128D01*
X183917900Y-108084128D02*
X183822661Y-108179366D01*
X183822661Y-108179366D02*
X183727423Y-108226985D01*
X183727423Y-108226985D02*
X183536947Y-108274604D01*
X183536947Y-108274604D02*
X183394090Y-108274604D01*
X183394090Y-108274604D02*
X183203614Y-108226985D01*
X183203614Y-108226985D02*
X183108376Y-108179366D01*
X183108376Y-108179366D02*
X183013138Y-108084128D01*
X183013138Y-108084128D02*
X182965519Y-107941271D01*
X182965519Y-107941271D02*
X182965519Y-107846033D01*
X182965519Y-107846033D02*
X183013138Y-107703176D01*
X183013138Y-107703176D02*
X183060757Y-107655557D01*
X183965519Y-106703176D02*
X183965519Y-107274604D01*
X183965519Y-106988890D02*
X182965519Y-106988890D01*
X182965519Y-106988890D02*
X183108376Y-107084128D01*
X183108376Y-107084128D02*
X183203614Y-107179366D01*
X183203614Y-107179366D02*
X183251233Y-107274604D01*
X182965519Y-106369842D02*
X182965519Y-105703176D01*
X182965519Y-105703176D02*
X183965519Y-106131747D01*
X189319442Y-87962219D02*
X188986109Y-87486028D01*
X188748014Y-87962219D02*
X188748014Y-86962219D01*
X188748014Y-86962219D02*
X189128966Y-86962219D01*
X189128966Y-86962219D02*
X189224204Y-87009838D01*
X189224204Y-87009838D02*
X189271823Y-87057457D01*
X189271823Y-87057457D02*
X189319442Y-87152695D01*
X189319442Y-87152695D02*
X189319442Y-87295552D01*
X189319442Y-87295552D02*
X189271823Y-87390790D01*
X189271823Y-87390790D02*
X189224204Y-87438409D01*
X189224204Y-87438409D02*
X189128966Y-87486028D01*
X189128966Y-87486028D02*
X188748014Y-87486028D01*
X190271823Y-87962219D02*
X189700395Y-87962219D01*
X189986109Y-87962219D02*
X189986109Y-86962219D01*
X189986109Y-86962219D02*
X189890871Y-87105076D01*
X189890871Y-87105076D02*
X189795633Y-87200314D01*
X189795633Y-87200314D02*
X189700395Y-87247933D01*
X191128966Y-86962219D02*
X190938490Y-86962219D01*
X190938490Y-86962219D02*
X190843252Y-87009838D01*
X190843252Y-87009838D02*
X190795633Y-87057457D01*
X190795633Y-87057457D02*
X190700395Y-87200314D01*
X190700395Y-87200314D02*
X190652776Y-87390790D01*
X190652776Y-87390790D02*
X190652776Y-87771742D01*
X190652776Y-87771742D02*
X190700395Y-87866980D01*
X190700395Y-87866980D02*
X190748014Y-87914600D01*
X190748014Y-87914600D02*
X190843252Y-87962219D01*
X190843252Y-87962219D02*
X191033728Y-87962219D01*
X191033728Y-87962219D02*
X191128966Y-87914600D01*
X191128966Y-87914600D02*
X191176585Y-87866980D01*
X191176585Y-87866980D02*
X191224204Y-87771742D01*
X191224204Y-87771742D02*
X191224204Y-87533647D01*
X191224204Y-87533647D02*
X191176585Y-87438409D01*
X191176585Y-87438409D02*
X191128966Y-87390790D01*
X191128966Y-87390790D02*
X191033728Y-87343171D01*
X191033728Y-87343171D02*
X190843252Y-87343171D01*
X190843252Y-87343171D02*
X190748014Y-87390790D01*
X190748014Y-87390790D02*
X190700395Y-87438409D01*
X190700395Y-87438409D02*
X190652776Y-87533647D01*
X177304819Y-116833333D02*
X178019104Y-116833333D01*
X178019104Y-116833333D02*
X178161961Y-116880952D01*
X178161961Y-116880952D02*
X178257200Y-116976190D01*
X178257200Y-116976190D02*
X178304819Y-117119047D01*
X178304819Y-117119047D02*
X178304819Y-117214285D01*
X177304819Y-116452380D02*
X177304819Y-115833333D01*
X177304819Y-115833333D02*
X177685771Y-116166666D01*
X177685771Y-116166666D02*
X177685771Y-116023809D01*
X177685771Y-116023809D02*
X177733390Y-115928571D01*
X177733390Y-115928571D02*
X177781009Y-115880952D01*
X177781009Y-115880952D02*
X177876247Y-115833333D01*
X177876247Y-115833333D02*
X178114342Y-115833333D01*
X178114342Y-115833333D02*
X178209580Y-115880952D01*
X178209580Y-115880952D02*
X178257200Y-115928571D01*
X178257200Y-115928571D02*
X178304819Y-116023809D01*
X178304819Y-116023809D02*
X178304819Y-116309523D01*
X178304819Y-116309523D02*
X178257200Y-116404761D01*
X178257200Y-116404761D02*
X178209580Y-116452380D01*
X193257142Y-90609580D02*
X193209523Y-90657200D01*
X193209523Y-90657200D02*
X193066666Y-90704819D01*
X193066666Y-90704819D02*
X192971428Y-90704819D01*
X192971428Y-90704819D02*
X192828571Y-90657200D01*
X192828571Y-90657200D02*
X192733333Y-90561961D01*
X192733333Y-90561961D02*
X192685714Y-90466723D01*
X192685714Y-90466723D02*
X192638095Y-90276247D01*
X192638095Y-90276247D02*
X192638095Y-90133390D01*
X192638095Y-90133390D02*
X192685714Y-89942914D01*
X192685714Y-89942914D02*
X192733333Y-89847676D01*
X192733333Y-89847676D02*
X192828571Y-89752438D01*
X192828571Y-89752438D02*
X192971428Y-89704819D01*
X192971428Y-89704819D02*
X193066666Y-89704819D01*
X193066666Y-89704819D02*
X193209523Y-89752438D01*
X193209523Y-89752438D02*
X193257142Y-89800057D01*
X193638095Y-89800057D02*
X193685714Y-89752438D01*
X193685714Y-89752438D02*
X193780952Y-89704819D01*
X193780952Y-89704819D02*
X194019047Y-89704819D01*
X194019047Y-89704819D02*
X194114285Y-89752438D01*
X194114285Y-89752438D02*
X194161904Y-89800057D01*
X194161904Y-89800057D02*
X194209523Y-89895295D01*
X194209523Y-89895295D02*
X194209523Y-89990533D01*
X194209523Y-89990533D02*
X194161904Y-90133390D01*
X194161904Y-90133390D02*
X193590476Y-90704819D01*
X193590476Y-90704819D02*
X194209523Y-90704819D01*
X195114285Y-89704819D02*
X194638095Y-89704819D01*
X194638095Y-89704819D02*
X194590476Y-90181009D01*
X194590476Y-90181009D02*
X194638095Y-90133390D01*
X194638095Y-90133390D02*
X194733333Y-90085771D01*
X194733333Y-90085771D02*
X194971428Y-90085771D01*
X194971428Y-90085771D02*
X195066666Y-90133390D01*
X195066666Y-90133390D02*
X195114285Y-90181009D01*
X195114285Y-90181009D02*
X195161904Y-90276247D01*
X195161904Y-90276247D02*
X195161904Y-90514342D01*
X195161904Y-90514342D02*
X195114285Y-90609580D01*
X195114285Y-90609580D02*
X195066666Y-90657200D01*
X195066666Y-90657200D02*
X194971428Y-90704819D01*
X194971428Y-90704819D02*
X194733333Y-90704819D01*
X194733333Y-90704819D02*
X194638095Y-90657200D01*
X194638095Y-90657200D02*
X194590476Y-90609580D01*
X184879919Y-86878357D02*
X184403728Y-87211690D01*
X184879919Y-87449785D02*
X183879919Y-87449785D01*
X183879919Y-87449785D02*
X183879919Y-87068833D01*
X183879919Y-87068833D02*
X183927538Y-86973595D01*
X183927538Y-86973595D02*
X183975157Y-86925976D01*
X183975157Y-86925976D02*
X184070395Y-86878357D01*
X184070395Y-86878357D02*
X184213252Y-86878357D01*
X184213252Y-86878357D02*
X184308490Y-86925976D01*
X184308490Y-86925976D02*
X184356109Y-86973595D01*
X184356109Y-86973595D02*
X184403728Y-87068833D01*
X184403728Y-87068833D02*
X184403728Y-87449785D01*
X184879919Y-85925976D02*
X184879919Y-86497404D01*
X184879919Y-86211690D02*
X183879919Y-86211690D01*
X183879919Y-86211690D02*
X184022776Y-86306928D01*
X184022776Y-86306928D02*
X184118014Y-86402166D01*
X184118014Y-86402166D02*
X184165633Y-86497404D01*
X183879919Y-85306928D02*
X183879919Y-85211690D01*
X183879919Y-85211690D02*
X183927538Y-85116452D01*
X183927538Y-85116452D02*
X183975157Y-85068833D01*
X183975157Y-85068833D02*
X184070395Y-85021214D01*
X184070395Y-85021214D02*
X184260871Y-84973595D01*
X184260871Y-84973595D02*
X184498966Y-84973595D01*
X184498966Y-84973595D02*
X184689442Y-85021214D01*
X184689442Y-85021214D02*
X184784680Y-85068833D01*
X184784680Y-85068833D02*
X184832300Y-85116452D01*
X184832300Y-85116452D02*
X184879919Y-85211690D01*
X184879919Y-85211690D02*
X184879919Y-85306928D01*
X184879919Y-85306928D02*
X184832300Y-85402166D01*
X184832300Y-85402166D02*
X184784680Y-85449785D01*
X184784680Y-85449785D02*
X184689442Y-85497404D01*
X184689442Y-85497404D02*
X184498966Y-85545023D01*
X184498966Y-85545023D02*
X184260871Y-85545023D01*
X184260871Y-85545023D02*
X184070395Y-85497404D01*
X184070395Y-85497404D02*
X183975157Y-85449785D01*
X183975157Y-85449785D02*
X183927538Y-85402166D01*
X183927538Y-85402166D02*
X183879919Y-85306928D01*
X175474334Y-76686579D02*
X175426715Y-76734199D01*
X175426715Y-76734199D02*
X175283858Y-76781818D01*
X175283858Y-76781818D02*
X175188620Y-76781818D01*
X175188620Y-76781818D02*
X175045763Y-76734199D01*
X175045763Y-76734199D02*
X174950525Y-76638960D01*
X174950525Y-76638960D02*
X174902906Y-76543722D01*
X174902906Y-76543722D02*
X174855287Y-76353246D01*
X174855287Y-76353246D02*
X174855287Y-76210389D01*
X174855287Y-76210389D02*
X174902906Y-76019913D01*
X174902906Y-76019913D02*
X174950525Y-75924675D01*
X174950525Y-75924675D02*
X175045763Y-75829437D01*
X175045763Y-75829437D02*
X175188620Y-75781818D01*
X175188620Y-75781818D02*
X175283858Y-75781818D01*
X175283858Y-75781818D02*
X175426715Y-75829437D01*
X175426715Y-75829437D02*
X175474334Y-75877056D01*
X176045763Y-76210389D02*
X175950525Y-76162770D01*
X175950525Y-76162770D02*
X175902906Y-76115151D01*
X175902906Y-76115151D02*
X175855287Y-76019913D01*
X175855287Y-76019913D02*
X175855287Y-75972294D01*
X175855287Y-75972294D02*
X175902906Y-75877056D01*
X175902906Y-75877056D02*
X175950525Y-75829437D01*
X175950525Y-75829437D02*
X176045763Y-75781818D01*
X176045763Y-75781818D02*
X176236239Y-75781818D01*
X176236239Y-75781818D02*
X176331477Y-75829437D01*
X176331477Y-75829437D02*
X176379096Y-75877056D01*
X176379096Y-75877056D02*
X176426715Y-75972294D01*
X176426715Y-75972294D02*
X176426715Y-76019913D01*
X176426715Y-76019913D02*
X176379096Y-76115151D01*
X176379096Y-76115151D02*
X176331477Y-76162770D01*
X176331477Y-76162770D02*
X176236239Y-76210389D01*
X176236239Y-76210389D02*
X176045763Y-76210389D01*
X176045763Y-76210389D02*
X175950525Y-76258008D01*
X175950525Y-76258008D02*
X175902906Y-76305627D01*
X175902906Y-76305627D02*
X175855287Y-76400865D01*
X175855287Y-76400865D02*
X175855287Y-76591341D01*
X175855287Y-76591341D02*
X175902906Y-76686579D01*
X175902906Y-76686579D02*
X175950525Y-76734199D01*
X175950525Y-76734199D02*
X176045763Y-76781818D01*
X176045763Y-76781818D02*
X176236239Y-76781818D01*
X176236239Y-76781818D02*
X176331477Y-76734199D01*
X176331477Y-76734199D02*
X176379096Y-76686579D01*
X176379096Y-76686579D02*
X176426715Y-76591341D01*
X176426715Y-76591341D02*
X176426715Y-76400865D01*
X176426715Y-76400865D02*
X176379096Y-76305627D01*
X176379096Y-76305627D02*
X176331477Y-76258008D01*
X176331477Y-76258008D02*
X176236239Y-76210389D01*
X186107142Y-88454819D02*
X185773809Y-87978628D01*
X185535714Y-88454819D02*
X185535714Y-87454819D01*
X185535714Y-87454819D02*
X185916666Y-87454819D01*
X185916666Y-87454819D02*
X186011904Y-87502438D01*
X186011904Y-87502438D02*
X186059523Y-87550057D01*
X186059523Y-87550057D02*
X186107142Y-87645295D01*
X186107142Y-87645295D02*
X186107142Y-87788152D01*
X186107142Y-87788152D02*
X186059523Y-87883390D01*
X186059523Y-87883390D02*
X186011904Y-87931009D01*
X186011904Y-87931009D02*
X185916666Y-87978628D01*
X185916666Y-87978628D02*
X185535714Y-87978628D01*
X187059523Y-88454819D02*
X186488095Y-88454819D01*
X186773809Y-88454819D02*
X186773809Y-87454819D01*
X186773809Y-87454819D02*
X186678571Y-87597676D01*
X186678571Y-87597676D02*
X186583333Y-87692914D01*
X186583333Y-87692914D02*
X186488095Y-87740533D01*
X187392857Y-87454819D02*
X188011904Y-87454819D01*
X188011904Y-87454819D02*
X187678571Y-87835771D01*
X187678571Y-87835771D02*
X187821428Y-87835771D01*
X187821428Y-87835771D02*
X187916666Y-87883390D01*
X187916666Y-87883390D02*
X187964285Y-87931009D01*
X187964285Y-87931009D02*
X188011904Y-88026247D01*
X188011904Y-88026247D02*
X188011904Y-88264342D01*
X188011904Y-88264342D02*
X187964285Y-88359580D01*
X187964285Y-88359580D02*
X187916666Y-88407200D01*
X187916666Y-88407200D02*
X187821428Y-88454819D01*
X187821428Y-88454819D02*
X187535714Y-88454819D01*
X187535714Y-88454819D02*
X187440476Y-88407200D01*
X187440476Y-88407200D02*
X187392857Y-88359580D01*
D11*
X191857418Y-97330462D02*
X190587418Y-97330462D01*
X191736465Y-95999985D02*
X191796942Y-96060461D01*
X191796942Y-96060461D02*
X191857418Y-96241890D01*
X191857418Y-96241890D02*
X191857418Y-96362842D01*
X191857418Y-96362842D02*
X191796942Y-96544271D01*
X191796942Y-96544271D02*
X191675989Y-96665223D01*
X191675989Y-96665223D02*
X191555037Y-96725700D01*
X191555037Y-96725700D02*
X191313132Y-96786176D01*
X191313132Y-96786176D02*
X191131703Y-96786176D01*
X191131703Y-96786176D02*
X190889799Y-96725700D01*
X190889799Y-96725700D02*
X190768846Y-96665223D01*
X190768846Y-96665223D02*
X190647894Y-96544271D01*
X190647894Y-96544271D02*
X190587418Y-96362842D01*
X190587418Y-96362842D02*
X190587418Y-96241890D01*
X190587418Y-96241890D02*
X190647894Y-96060461D01*
X190647894Y-96060461D02*
X190708370Y-95999985D01*
X190587418Y-94850938D02*
X190587418Y-95455700D01*
X190587418Y-95455700D02*
X191192180Y-95516176D01*
X191192180Y-95516176D02*
X191131703Y-95455700D01*
X191131703Y-95455700D02*
X191071227Y-95334747D01*
X191071227Y-95334747D02*
X191071227Y-95032366D01*
X191071227Y-95032366D02*
X191131703Y-94911414D01*
X191131703Y-94911414D02*
X191192180Y-94850938D01*
X191192180Y-94850938D02*
X191313132Y-94790461D01*
X191313132Y-94790461D02*
X191615513Y-94790461D01*
X191615513Y-94790461D02*
X191736465Y-94850938D01*
X191736465Y-94850938D02*
X191796942Y-94911414D01*
X191796942Y-94911414D02*
X191857418Y-95032366D01*
X191857418Y-95032366D02*
X191857418Y-95334747D01*
X191857418Y-95334747D02*
X191796942Y-95455700D01*
X191796942Y-95455700D02*
X191736465Y-95516176D01*
D10*
X147083332Y-101468820D02*
X146749999Y-100992629D01*
X146511904Y-101468820D02*
X146511904Y-100468820D01*
X146511904Y-100468820D02*
X146892856Y-100468820D01*
X146892856Y-100468820D02*
X146988094Y-100516439D01*
X146988094Y-100516439D02*
X147035713Y-100564058D01*
X147035713Y-100564058D02*
X147083332Y-100659296D01*
X147083332Y-100659296D02*
X147083332Y-100802153D01*
X147083332Y-100802153D02*
X147035713Y-100897391D01*
X147035713Y-100897391D02*
X146988094Y-100945010D01*
X146988094Y-100945010D02*
X146892856Y-100992629D01*
X146892856Y-100992629D02*
X146511904Y-100992629D01*
X148035713Y-101468820D02*
X147464285Y-101468820D01*
X147749999Y-101468820D02*
X147749999Y-100468820D01*
X147749999Y-100468820D02*
X147654761Y-100611677D01*
X147654761Y-100611677D02*
X147559523Y-100706915D01*
X147559523Y-100706915D02*
X147464285Y-100754534D01*
D12*
%TO.C,J1*%
X127811900Y-71108600D02*
X127811900Y-80308600D01*
D13*
X136711900Y-71958600D02*
X136711900Y-70908600D01*
X136511900Y-80308600D02*
X134611900Y-80308600D01*
X136511900Y-77608600D02*
X136511900Y-80308600D01*
X136511900Y-71108600D02*
X136511900Y-73708600D01*
X135661900Y-70908600D02*
X136711900Y-70908600D01*
X130611900Y-80308600D02*
X127811900Y-80308600D01*
X127811900Y-71108600D02*
X136511900Y-71108600D01*
%TO.C,J5*%
X211357600Y-101727800D02*
X211357600Y-117717800D01*
X186817600Y-117717800D02*
X211357600Y-117717800D01*
X186817600Y-117717800D02*
X186817600Y-101727800D01*
X186817600Y-101727800D02*
X211357600Y-101727800D01*
%TO.C,J4*%
X212119600Y-65050200D02*
X212119600Y-81040200D01*
X187579600Y-81040200D02*
X212119600Y-81040200D01*
X187579600Y-81040200D02*
X187579600Y-65050200D01*
X187579600Y-65050200D02*
X212119600Y-65050200D01*
%TO.C,C_Polarized11*%
X158532599Y-109517598D02*
X158532599Y-109917598D01*
X158732599Y-109717598D02*
X158332599Y-109717598D01*
X159417599Y-111787399D02*
X158177599Y-111787399D01*
X156497599Y-111787399D02*
X155257599Y-111787399D01*
X159417599Y-111827399D02*
X158177599Y-111827399D01*
X156497599Y-111827399D02*
X155257599Y-111827399D01*
X159416599Y-111867399D02*
X158177599Y-111867399D01*
X156497599Y-111867399D02*
X155258599Y-111867399D01*
X159414599Y-111907399D02*
X158177599Y-111907399D01*
X156497599Y-111907399D02*
X155260599Y-111907399D01*
X159411599Y-111947399D02*
X158177599Y-111947399D01*
X156497599Y-111947399D02*
X155263599Y-111947399D01*
X159408599Y-111987399D02*
X158177599Y-111987399D01*
X156497599Y-111987399D02*
X155266599Y-111987399D01*
X159404599Y-112027399D02*
X158177599Y-112027399D01*
X156497599Y-112027399D02*
X155270599Y-112027399D01*
X159399599Y-112067399D02*
X158177599Y-112067399D01*
X156497599Y-112067399D02*
X155275599Y-112067399D01*
X159393599Y-112107399D02*
X158177599Y-112107399D01*
X156497599Y-112107399D02*
X155281599Y-112107399D01*
X159387599Y-112147399D02*
X158177599Y-112147399D01*
X156497599Y-112147399D02*
X155287599Y-112147399D01*
X159379599Y-112187399D02*
X158177599Y-112187399D01*
X156497599Y-112187399D02*
X155295599Y-112187399D01*
X159371599Y-112227399D02*
X158177599Y-112227399D01*
X156497599Y-112227399D02*
X155303599Y-112227399D01*
X159362599Y-112267399D02*
X158177599Y-112267399D01*
X156497599Y-112267399D02*
X155312599Y-112267399D01*
X159353599Y-112307399D02*
X158177599Y-112307399D01*
X156497599Y-112307399D02*
X155321599Y-112307399D01*
X159342599Y-112347399D02*
X158177599Y-112347399D01*
X156497599Y-112347399D02*
X155332599Y-112347399D01*
X159331599Y-112387399D02*
X158177599Y-112387399D01*
X156497599Y-112387399D02*
X155343599Y-112387399D01*
X159319599Y-112427399D02*
X158177599Y-112427399D01*
X156497599Y-112427399D02*
X155355599Y-112427399D01*
X159305599Y-112467399D02*
X158177599Y-112467399D01*
X156497599Y-112467399D02*
X155369599Y-112467399D01*
X159291599Y-112508399D02*
X158177599Y-112508399D01*
X156497599Y-112508399D02*
X155383599Y-112508399D01*
X159277599Y-112548399D02*
X158177599Y-112548399D01*
X156497599Y-112548399D02*
X155397599Y-112548399D01*
X159261599Y-112588399D02*
X158177599Y-112588399D01*
X156497599Y-112588399D02*
X155413599Y-112588399D01*
X159244599Y-112628399D02*
X158177599Y-112628399D01*
X156497599Y-112628399D02*
X155430599Y-112628399D01*
X159226599Y-112668399D02*
X158177599Y-112668399D01*
X156497599Y-112668399D02*
X155448599Y-112668399D01*
X159207599Y-112708399D02*
X158177599Y-112708399D01*
X156497599Y-112708399D02*
X155467599Y-112708399D01*
X159188599Y-112748399D02*
X158177599Y-112748399D01*
X156497599Y-112748399D02*
X155486599Y-112748399D01*
X159167599Y-112788399D02*
X158177599Y-112788399D01*
X156497599Y-112788399D02*
X155507599Y-112788399D01*
X159145599Y-112828399D02*
X158177599Y-112828399D01*
X156497599Y-112828399D02*
X155529599Y-112828399D01*
X159122599Y-112868399D02*
X158177599Y-112868399D01*
X156497599Y-112868399D02*
X155552599Y-112868399D01*
X159097599Y-112908399D02*
X158177599Y-112908399D01*
X156497599Y-112908399D02*
X155577599Y-112908399D01*
X159072599Y-112948399D02*
X158177599Y-112948399D01*
X156497599Y-112948399D02*
X155602599Y-112948399D01*
X159045599Y-112988399D02*
X158177599Y-112988399D01*
X156497599Y-112988399D02*
X155629599Y-112988399D01*
X159017599Y-113028399D02*
X158177599Y-113028399D01*
X156497599Y-113028399D02*
X155657599Y-113028399D01*
X158987599Y-113068399D02*
X158177599Y-113068399D01*
X156497599Y-113068399D02*
X155687599Y-113068399D01*
X158956599Y-113108399D02*
X158177599Y-113108399D01*
X156497599Y-113108399D02*
X155718599Y-113108399D01*
X158924599Y-113148399D02*
X158177599Y-113148399D01*
X156497599Y-113148399D02*
X155750599Y-113148399D01*
X158889599Y-113188399D02*
X158177599Y-113188399D01*
X156497599Y-113188399D02*
X155785599Y-113188399D01*
X158853599Y-113228399D02*
X158177599Y-113228399D01*
X156497599Y-113228399D02*
X155821599Y-113228399D01*
X158815599Y-113268399D02*
X158177599Y-113268399D01*
X156497599Y-113268399D02*
X155859599Y-113268399D01*
X158775599Y-113308399D02*
X158177599Y-113308399D01*
X156497599Y-113308399D02*
X155899599Y-113308399D01*
X158733599Y-113348399D02*
X158177599Y-113348399D01*
X156497599Y-113348399D02*
X155941599Y-113348399D01*
X158688599Y-113388399D02*
X155986599Y-113388399D01*
X158641599Y-113428399D02*
X156033599Y-113428399D01*
X158591599Y-113468399D02*
X156083599Y-113468399D01*
X158537599Y-113508399D02*
X156137599Y-113508399D01*
X158479599Y-113548399D02*
X156195599Y-113548399D01*
X158417599Y-113588399D02*
X156257599Y-113588399D01*
X158350599Y-113628399D02*
X156324599Y-113628399D01*
X158277599Y-113668399D02*
X156397599Y-113668399D01*
X158196599Y-113708399D02*
X156478599Y-113708399D01*
X158105599Y-113748399D02*
X156569599Y-113748399D01*
X158001599Y-113788399D02*
X156673599Y-113788399D01*
X157874599Y-113828399D02*
X156800599Y-113828399D01*
X157707599Y-113868399D02*
X156967599Y-113868399D01*
X159457599Y-111787399D02*
G75*
G02*
X155217599Y-111787399I-2120000J0D01*
G01*
X155217599Y-111787399D02*
G75*
G02*
X159457599Y-111787399I2120000J0D01*
G01*
%TO.C,C_Polarized10*%
X168692599Y-107612598D02*
X168692599Y-108012598D01*
X168892599Y-107812598D02*
X168492599Y-107812598D01*
X169577599Y-109882399D02*
X168337599Y-109882399D01*
X166657599Y-109882399D02*
X165417599Y-109882399D01*
X169577599Y-109922399D02*
X168337599Y-109922399D01*
X166657599Y-109922399D02*
X165417599Y-109922399D01*
X169576599Y-109962399D02*
X168337599Y-109962399D01*
X166657599Y-109962399D02*
X165418599Y-109962399D01*
X169574599Y-110002399D02*
X168337599Y-110002399D01*
X166657599Y-110002399D02*
X165420599Y-110002399D01*
X169571599Y-110042399D02*
X168337599Y-110042399D01*
X166657599Y-110042399D02*
X165423599Y-110042399D01*
X169568599Y-110082399D02*
X168337599Y-110082399D01*
X166657599Y-110082399D02*
X165426599Y-110082399D01*
X169564599Y-110122399D02*
X168337599Y-110122399D01*
X166657599Y-110122399D02*
X165430599Y-110122399D01*
X169559599Y-110162399D02*
X168337599Y-110162399D01*
X166657599Y-110162399D02*
X165435599Y-110162399D01*
X169553599Y-110202399D02*
X168337599Y-110202399D01*
X166657599Y-110202399D02*
X165441599Y-110202399D01*
X169547599Y-110242399D02*
X168337599Y-110242399D01*
X166657599Y-110242399D02*
X165447599Y-110242399D01*
X169539599Y-110282399D02*
X168337599Y-110282399D01*
X166657599Y-110282399D02*
X165455599Y-110282399D01*
X169531599Y-110322399D02*
X168337599Y-110322399D01*
X166657599Y-110322399D02*
X165463599Y-110322399D01*
X169522599Y-110362399D02*
X168337599Y-110362399D01*
X166657599Y-110362399D02*
X165472599Y-110362399D01*
X169513599Y-110402399D02*
X168337599Y-110402399D01*
X166657599Y-110402399D02*
X165481599Y-110402399D01*
X169502599Y-110442399D02*
X168337599Y-110442399D01*
X166657599Y-110442399D02*
X165492599Y-110442399D01*
X169491599Y-110482399D02*
X168337599Y-110482399D01*
X166657599Y-110482399D02*
X165503599Y-110482399D01*
X169479599Y-110522399D02*
X168337599Y-110522399D01*
X166657599Y-110522399D02*
X165515599Y-110522399D01*
X169465599Y-110562399D02*
X168337599Y-110562399D01*
X166657599Y-110562399D02*
X165529599Y-110562399D01*
X169451599Y-110603399D02*
X168337599Y-110603399D01*
X166657599Y-110603399D02*
X165543599Y-110603399D01*
X169437599Y-110643399D02*
X168337599Y-110643399D01*
X166657599Y-110643399D02*
X165557599Y-110643399D01*
X169421599Y-110683399D02*
X168337599Y-110683399D01*
X166657599Y-110683399D02*
X165573599Y-110683399D01*
X169404599Y-110723399D02*
X168337599Y-110723399D01*
X166657599Y-110723399D02*
X165590599Y-110723399D01*
X169386599Y-110763399D02*
X168337599Y-110763399D01*
X166657599Y-110763399D02*
X165608599Y-110763399D01*
X169367599Y-110803399D02*
X168337599Y-110803399D01*
X166657599Y-110803399D02*
X165627599Y-110803399D01*
X169348599Y-110843399D02*
X168337599Y-110843399D01*
X166657599Y-110843399D02*
X165646599Y-110843399D01*
X169327599Y-110883399D02*
X168337599Y-110883399D01*
X166657599Y-110883399D02*
X165667599Y-110883399D01*
X169305599Y-110923399D02*
X168337599Y-110923399D01*
X166657599Y-110923399D02*
X165689599Y-110923399D01*
X169282599Y-110963399D02*
X168337599Y-110963399D01*
X166657599Y-110963399D02*
X165712599Y-110963399D01*
X169257599Y-111003399D02*
X168337599Y-111003399D01*
X166657599Y-111003399D02*
X165737599Y-111003399D01*
X169232599Y-111043399D02*
X168337599Y-111043399D01*
X166657599Y-111043399D02*
X165762599Y-111043399D01*
X169205599Y-111083399D02*
X168337599Y-111083399D01*
X166657599Y-111083399D02*
X165789599Y-111083399D01*
X169177599Y-111123399D02*
X168337599Y-111123399D01*
X166657599Y-111123399D02*
X165817599Y-111123399D01*
X169147599Y-111163399D02*
X168337599Y-111163399D01*
X166657599Y-111163399D02*
X165847599Y-111163399D01*
X169116599Y-111203399D02*
X168337599Y-111203399D01*
X166657599Y-111203399D02*
X165878599Y-111203399D01*
X169084599Y-111243399D02*
X168337599Y-111243399D01*
X166657599Y-111243399D02*
X165910599Y-111243399D01*
X169049599Y-111283399D02*
X168337599Y-111283399D01*
X166657599Y-111283399D02*
X165945599Y-111283399D01*
X169013599Y-111323399D02*
X168337599Y-111323399D01*
X166657599Y-111323399D02*
X165981599Y-111323399D01*
X168975599Y-111363399D02*
X168337599Y-111363399D01*
X166657599Y-111363399D02*
X166019599Y-111363399D01*
X168935599Y-111403399D02*
X168337599Y-111403399D01*
X166657599Y-111403399D02*
X166059599Y-111403399D01*
X168893599Y-111443399D02*
X168337599Y-111443399D01*
X166657599Y-111443399D02*
X166101599Y-111443399D01*
X168848599Y-111483399D02*
X166146599Y-111483399D01*
X168801599Y-111523399D02*
X166193599Y-111523399D01*
X168751599Y-111563399D02*
X166243599Y-111563399D01*
X168697599Y-111603399D02*
X166297599Y-111603399D01*
X168639599Y-111643399D02*
X166355599Y-111643399D01*
X168577599Y-111683399D02*
X166417599Y-111683399D01*
X168510599Y-111723399D02*
X166484599Y-111723399D01*
X168437599Y-111763399D02*
X166557599Y-111763399D01*
X168356599Y-111803399D02*
X166638599Y-111803399D01*
X168265599Y-111843399D02*
X166729599Y-111843399D01*
X168161599Y-111883399D02*
X166833599Y-111883399D01*
X168034599Y-111923399D02*
X166960599Y-111923399D01*
X167867599Y-111963399D02*
X167127599Y-111963399D01*
X169617599Y-109882399D02*
G75*
G02*
X165377599Y-109882399I-2120000J0D01*
G01*
X165377599Y-109882399D02*
G75*
G02*
X169617599Y-109882399I2120000J0D01*
G01*
%TO.C,C_Polarized1*%
X168120000Y-102750000D02*
G75*
G02*
X163880000Y-102750000I-2120000J0D01*
G01*
X163880000Y-102750000D02*
G75*
G02*
X168120000Y-102750000I2120000J0D01*
G01*
X168081000Y-102380000D02*
X168081000Y-103120000D01*
X168041000Y-102213000D02*
X168041000Y-103287000D01*
X168001000Y-102086000D02*
X168001000Y-103414000D01*
X167961000Y-101982000D02*
X167961000Y-103518000D01*
X167921000Y-101891000D02*
X167921000Y-103609000D01*
X167881000Y-101810000D02*
X167881000Y-103690000D01*
X167841000Y-101737000D02*
X167841000Y-103763000D01*
X167801000Y-101670000D02*
X167801000Y-103830000D01*
X167761000Y-101608000D02*
X167761000Y-103892000D01*
X167721000Y-101550000D02*
X167721000Y-103950000D01*
X167681000Y-101496000D02*
X167681000Y-104004000D01*
X167641000Y-101446000D02*
X167641000Y-104054000D01*
X167601000Y-101399000D02*
X167601000Y-104101000D01*
X167561000Y-103590000D02*
X167561000Y-104146000D01*
X167561000Y-101354000D02*
X167561000Y-101910000D01*
X167521000Y-103590000D02*
X167521000Y-104188000D01*
X167521000Y-101312000D02*
X167521000Y-101910000D01*
X167481000Y-103590000D02*
X167481000Y-104228000D01*
X167481000Y-101272000D02*
X167481000Y-101910000D01*
X167441000Y-103590000D02*
X167441000Y-104266000D01*
X167441000Y-101234000D02*
X167441000Y-101910000D01*
X167401000Y-103590000D02*
X167401000Y-104302000D01*
X167401000Y-101198000D02*
X167401000Y-101910000D01*
X167361000Y-103590000D02*
X167361000Y-104337000D01*
X167361000Y-101163000D02*
X167361000Y-101910000D01*
X167321000Y-103590000D02*
X167321000Y-104369000D01*
X167321000Y-101131000D02*
X167321000Y-101910000D01*
X167281000Y-103590000D02*
X167281000Y-104400000D01*
X167281000Y-101100000D02*
X167281000Y-101910000D01*
X167241000Y-103590000D02*
X167241000Y-104430000D01*
X167241000Y-101070000D02*
X167241000Y-101910000D01*
X167201000Y-103590000D02*
X167201000Y-104458000D01*
X167201000Y-101042000D02*
X167201000Y-101910000D01*
X167161000Y-103590000D02*
X167161000Y-104485000D01*
X167161000Y-101015000D02*
X167161000Y-101910000D01*
X167121000Y-103590000D02*
X167121000Y-104510000D01*
X167121000Y-100990000D02*
X167121000Y-101910000D01*
X167081000Y-103590000D02*
X167081000Y-104535000D01*
X167081000Y-100965000D02*
X167081000Y-101910000D01*
X167041000Y-103590000D02*
X167041000Y-104558000D01*
X167041000Y-100942000D02*
X167041000Y-101910000D01*
X167001000Y-103590000D02*
X167001000Y-104580000D01*
X167001000Y-100920000D02*
X167001000Y-101910000D01*
X166961000Y-103590000D02*
X166961000Y-104601000D01*
X166961000Y-100899000D02*
X166961000Y-101910000D01*
X166921000Y-103590000D02*
X166921000Y-104620000D01*
X166921000Y-100880000D02*
X166921000Y-101910000D01*
X166881000Y-103590000D02*
X166881000Y-104639000D01*
X166881000Y-100861000D02*
X166881000Y-101910000D01*
X166841000Y-103590000D02*
X166841000Y-104657000D01*
X166841000Y-100843000D02*
X166841000Y-101910000D01*
X166801000Y-103590000D02*
X166801000Y-104674000D01*
X166801000Y-100826000D02*
X166801000Y-101910000D01*
X166761000Y-103590000D02*
X166761000Y-104690000D01*
X166761000Y-100810000D02*
X166761000Y-101910000D01*
X166721000Y-103590000D02*
X166721000Y-104704000D01*
X166721000Y-100796000D02*
X166721000Y-101910000D01*
X166680000Y-103590000D02*
X166680000Y-104718000D01*
X166680000Y-100782000D02*
X166680000Y-101910000D01*
X166640000Y-103590000D02*
X166640000Y-104732000D01*
X166640000Y-100768000D02*
X166640000Y-101910000D01*
X166600000Y-103590000D02*
X166600000Y-104744000D01*
X166600000Y-100756000D02*
X166600000Y-101910000D01*
X166560000Y-103590000D02*
X166560000Y-104755000D01*
X166560000Y-100745000D02*
X166560000Y-101910000D01*
X166520000Y-103590000D02*
X166520000Y-104766000D01*
X166520000Y-100734000D02*
X166520000Y-101910000D01*
X166480000Y-103590000D02*
X166480000Y-104775000D01*
X166480000Y-100725000D02*
X166480000Y-101910000D01*
X166440000Y-103590000D02*
X166440000Y-104784000D01*
X166440000Y-100716000D02*
X166440000Y-101910000D01*
X166400000Y-103590000D02*
X166400000Y-104792000D01*
X166400000Y-100708000D02*
X166400000Y-101910000D01*
X166360000Y-103590000D02*
X166360000Y-104800000D01*
X166360000Y-100700000D02*
X166360000Y-101910000D01*
X166320000Y-103590000D02*
X166320000Y-104806000D01*
X166320000Y-100694000D02*
X166320000Y-101910000D01*
X166280000Y-103590000D02*
X166280000Y-104812000D01*
X166280000Y-100688000D02*
X166280000Y-101910000D01*
X166240000Y-103590000D02*
X166240000Y-104817000D01*
X166240000Y-100683000D02*
X166240000Y-101910000D01*
X166200000Y-103590000D02*
X166200000Y-104821000D01*
X166200000Y-100679000D02*
X166200000Y-101910000D01*
X166160000Y-103590000D02*
X166160000Y-104824000D01*
X166160000Y-100676000D02*
X166160000Y-101910000D01*
X166120000Y-103590000D02*
X166120000Y-104827000D01*
X166120000Y-100673000D02*
X166120000Y-101910000D01*
X166080000Y-103590000D02*
X166080000Y-104829000D01*
X166080000Y-100671000D02*
X166080000Y-101910000D01*
X166040000Y-103590000D02*
X166040000Y-104830000D01*
X166040000Y-100670000D02*
X166040000Y-101910000D01*
X166000000Y-103590000D02*
X166000000Y-104830000D01*
X166000000Y-100670000D02*
X166000000Y-101910000D01*
X163930199Y-101355000D02*
X163930199Y-101755000D01*
X163730199Y-101555000D02*
X164130199Y-101555000D01*
%TO.C,C_Polarized6*%
X167870000Y-84500000D02*
G75*
G02*
X163630000Y-84500000I-2120000J0D01*
G01*
X163630000Y-84500000D02*
G75*
G02*
X167870000Y-84500000I2120000J0D01*
G01*
X167831000Y-84130000D02*
X167831000Y-84870000D01*
X167791000Y-83963000D02*
X167791000Y-85037000D01*
X167751000Y-83836000D02*
X167751000Y-85164000D01*
X167711000Y-83732000D02*
X167711000Y-85268000D01*
X167671000Y-83641000D02*
X167671000Y-85359000D01*
X167631000Y-83560000D02*
X167631000Y-85440000D01*
X167591000Y-83487000D02*
X167591000Y-85513000D01*
X167551000Y-83420000D02*
X167551000Y-85580000D01*
X167511000Y-83358000D02*
X167511000Y-85642000D01*
X167471000Y-83300000D02*
X167471000Y-85700000D01*
X167431000Y-83246000D02*
X167431000Y-85754000D01*
X167391000Y-83196000D02*
X167391000Y-85804000D01*
X167351000Y-83149000D02*
X167351000Y-85851000D01*
X167311000Y-85340000D02*
X167311000Y-85896000D01*
X167311000Y-83104000D02*
X167311000Y-83660000D01*
X167271000Y-85340000D02*
X167271000Y-85938000D01*
X167271000Y-83062000D02*
X167271000Y-83660000D01*
X167231000Y-85340000D02*
X167231000Y-85978000D01*
X167231000Y-83022000D02*
X167231000Y-83660000D01*
X167191000Y-85340000D02*
X167191000Y-86016000D01*
X167191000Y-82984000D02*
X167191000Y-83660000D01*
X167151000Y-85340000D02*
X167151000Y-86052000D01*
X167151000Y-82948000D02*
X167151000Y-83660000D01*
X167111000Y-85340000D02*
X167111000Y-86087000D01*
X167111000Y-82913000D02*
X167111000Y-83660000D01*
X167071000Y-85340000D02*
X167071000Y-86119000D01*
X167071000Y-82881000D02*
X167071000Y-83660000D01*
X167031000Y-85340000D02*
X167031000Y-86150000D01*
X167031000Y-82850000D02*
X167031000Y-83660000D01*
X166991000Y-85340000D02*
X166991000Y-86180000D01*
X166991000Y-82820000D02*
X166991000Y-83660000D01*
X166951000Y-85340000D02*
X166951000Y-86208000D01*
X166951000Y-82792000D02*
X166951000Y-83660000D01*
X166911000Y-85340000D02*
X166911000Y-86235000D01*
X166911000Y-82765000D02*
X166911000Y-83660000D01*
X166871000Y-85340000D02*
X166871000Y-86260000D01*
X166871000Y-82740000D02*
X166871000Y-83660000D01*
X166831000Y-85340000D02*
X166831000Y-86285000D01*
X166831000Y-82715000D02*
X166831000Y-83660000D01*
X166791000Y-85340000D02*
X166791000Y-86308000D01*
X166791000Y-82692000D02*
X166791000Y-83660000D01*
X166751000Y-85340000D02*
X166751000Y-86330000D01*
X166751000Y-82670000D02*
X166751000Y-83660000D01*
X166711000Y-85340000D02*
X166711000Y-86351000D01*
X166711000Y-82649000D02*
X166711000Y-83660000D01*
X166671000Y-85340000D02*
X166671000Y-86370000D01*
X166671000Y-82630000D02*
X166671000Y-83660000D01*
X166631000Y-85340000D02*
X166631000Y-86389000D01*
X166631000Y-82611000D02*
X166631000Y-83660000D01*
X166591000Y-85340000D02*
X166591000Y-86407000D01*
X166591000Y-82593000D02*
X166591000Y-83660000D01*
X166551000Y-85340000D02*
X166551000Y-86424000D01*
X166551000Y-82576000D02*
X166551000Y-83660000D01*
X166511000Y-85340000D02*
X166511000Y-86440000D01*
X166511000Y-82560000D02*
X166511000Y-83660000D01*
X166471000Y-85340000D02*
X166471000Y-86454000D01*
X166471000Y-82546000D02*
X166471000Y-83660000D01*
X166430000Y-85340000D02*
X166430000Y-86468000D01*
X166430000Y-82532000D02*
X166430000Y-83660000D01*
X166390000Y-85340000D02*
X166390000Y-86482000D01*
X166390000Y-82518000D02*
X166390000Y-83660000D01*
X166350000Y-85340000D02*
X166350000Y-86494000D01*
X166350000Y-82506000D02*
X166350000Y-83660000D01*
X166310000Y-85340000D02*
X166310000Y-86505000D01*
X166310000Y-82495000D02*
X166310000Y-83660000D01*
X166270000Y-85340000D02*
X166270000Y-86516000D01*
X166270000Y-82484000D02*
X166270000Y-83660000D01*
X166230000Y-85340000D02*
X166230000Y-86525000D01*
X166230000Y-82475000D02*
X166230000Y-83660000D01*
X166190000Y-85340000D02*
X166190000Y-86534000D01*
X166190000Y-82466000D02*
X166190000Y-83660000D01*
X166150000Y-85340000D02*
X166150000Y-86542000D01*
X166150000Y-82458000D02*
X166150000Y-83660000D01*
X166110000Y-85340000D02*
X166110000Y-86550000D01*
X166110000Y-82450000D02*
X166110000Y-83660000D01*
X166070000Y-85340000D02*
X166070000Y-86556000D01*
X166070000Y-82444000D02*
X166070000Y-83660000D01*
X166030000Y-85340000D02*
X166030000Y-86562000D01*
X166030000Y-82438000D02*
X166030000Y-83660000D01*
X165990000Y-85340000D02*
X165990000Y-86567000D01*
X165990000Y-82433000D02*
X165990000Y-83660000D01*
X165950000Y-85340000D02*
X165950000Y-86571000D01*
X165950000Y-82429000D02*
X165950000Y-83660000D01*
X165910000Y-85340000D02*
X165910000Y-86574000D01*
X165910000Y-82426000D02*
X165910000Y-83660000D01*
X165870000Y-85340000D02*
X165870000Y-86577000D01*
X165870000Y-82423000D02*
X165870000Y-83660000D01*
X165830000Y-85340000D02*
X165830000Y-86579000D01*
X165830000Y-82421000D02*
X165830000Y-83660000D01*
X165790000Y-85340000D02*
X165790000Y-86580000D01*
X165790000Y-82420000D02*
X165790000Y-83660000D01*
X165750000Y-85340000D02*
X165750000Y-86580000D01*
X165750000Y-82420000D02*
X165750000Y-83660000D01*
X163680199Y-83105000D02*
X163680199Y-83505000D01*
X163480199Y-83305000D02*
X163880199Y-83305000D01*
%TO.C,C_Polarized5*%
X173220000Y-98150000D02*
G75*
G02*
X168980000Y-98150000I-2120000J0D01*
G01*
X168980000Y-98150000D02*
G75*
G02*
X173220000Y-98150000I2120000J0D01*
G01*
X173181000Y-97780000D02*
X173181000Y-98520000D01*
X173141000Y-97613000D02*
X173141000Y-98687000D01*
X173101000Y-97486000D02*
X173101000Y-98814000D01*
X173061000Y-97382000D02*
X173061000Y-98918000D01*
X173021000Y-97291000D02*
X173021000Y-99009000D01*
X172981000Y-97210000D02*
X172981000Y-99090000D01*
X172941000Y-97137000D02*
X172941000Y-99163000D01*
X172901000Y-97070000D02*
X172901000Y-99230000D01*
X172861000Y-97008000D02*
X172861000Y-99292000D01*
X172821000Y-96950000D02*
X172821000Y-99350000D01*
X172781000Y-96896000D02*
X172781000Y-99404000D01*
X172741000Y-96846000D02*
X172741000Y-99454000D01*
X172701000Y-96799000D02*
X172701000Y-99501000D01*
X172661000Y-98990000D02*
X172661000Y-99546000D01*
X172661000Y-96754000D02*
X172661000Y-97310000D01*
X172621000Y-98990000D02*
X172621000Y-99588000D01*
X172621000Y-96712000D02*
X172621000Y-97310000D01*
X172581000Y-98990000D02*
X172581000Y-99628000D01*
X172581000Y-96672000D02*
X172581000Y-97310000D01*
X172541000Y-98990000D02*
X172541000Y-99666000D01*
X172541000Y-96634000D02*
X172541000Y-97310000D01*
X172501000Y-98990000D02*
X172501000Y-99702000D01*
X172501000Y-96598000D02*
X172501000Y-97310000D01*
X172461000Y-98990000D02*
X172461000Y-99737000D01*
X172461000Y-96563000D02*
X172461000Y-97310000D01*
X172421000Y-98990000D02*
X172421000Y-99769000D01*
X172421000Y-96531000D02*
X172421000Y-97310000D01*
X172381000Y-98990000D02*
X172381000Y-99800000D01*
X172381000Y-96500000D02*
X172381000Y-97310000D01*
X172341000Y-98990000D02*
X172341000Y-99830000D01*
X172341000Y-96470000D02*
X172341000Y-97310000D01*
X172301000Y-98990000D02*
X172301000Y-99858000D01*
X172301000Y-96442000D02*
X172301000Y-97310000D01*
X172261000Y-98990000D02*
X172261000Y-99885000D01*
X172261000Y-96415000D02*
X172261000Y-97310000D01*
X172221000Y-98990000D02*
X172221000Y-99910000D01*
X172221000Y-96390000D02*
X172221000Y-97310000D01*
X172181000Y-98990000D02*
X172181000Y-99935000D01*
X172181000Y-96365000D02*
X172181000Y-97310000D01*
X172141000Y-98990000D02*
X172141000Y-99958000D01*
X172141000Y-96342000D02*
X172141000Y-97310000D01*
X172101000Y-98990000D02*
X172101000Y-99980000D01*
X172101000Y-96320000D02*
X172101000Y-97310000D01*
X172061000Y-98990000D02*
X172061000Y-100001000D01*
X172061000Y-96299000D02*
X172061000Y-97310000D01*
X172021000Y-98990000D02*
X172021000Y-100020000D01*
X172021000Y-96280000D02*
X172021000Y-97310000D01*
X171981000Y-98990000D02*
X171981000Y-100039000D01*
X171981000Y-96261000D02*
X171981000Y-97310000D01*
X171941000Y-98990000D02*
X171941000Y-100057000D01*
X171941000Y-96243000D02*
X171941000Y-97310000D01*
X171901000Y-98990000D02*
X171901000Y-100074000D01*
X171901000Y-96226000D02*
X171901000Y-97310000D01*
X171861000Y-98990000D02*
X171861000Y-100090000D01*
X171861000Y-96210000D02*
X171861000Y-97310000D01*
X171821000Y-98990000D02*
X171821000Y-100104000D01*
X171821000Y-96196000D02*
X171821000Y-97310000D01*
X171780000Y-98990000D02*
X171780000Y-100118000D01*
X171780000Y-96182000D02*
X171780000Y-97310000D01*
X171740000Y-98990000D02*
X171740000Y-100132000D01*
X171740000Y-96168000D02*
X171740000Y-97310000D01*
X171700000Y-98990000D02*
X171700000Y-100144000D01*
X171700000Y-96156000D02*
X171700000Y-97310000D01*
X171660000Y-98990000D02*
X171660000Y-100155000D01*
X171660000Y-96145000D02*
X171660000Y-97310000D01*
X171620000Y-98990000D02*
X171620000Y-100166000D01*
X171620000Y-96134000D02*
X171620000Y-97310000D01*
X171580000Y-98990000D02*
X171580000Y-100175000D01*
X171580000Y-96125000D02*
X171580000Y-97310000D01*
X171540000Y-98990000D02*
X171540000Y-100184000D01*
X171540000Y-96116000D02*
X171540000Y-97310000D01*
X171500000Y-98990000D02*
X171500000Y-100192000D01*
X171500000Y-96108000D02*
X171500000Y-97310000D01*
X171460000Y-98990000D02*
X171460000Y-100200000D01*
X171460000Y-96100000D02*
X171460000Y-97310000D01*
X171420000Y-98990000D02*
X171420000Y-100206000D01*
X171420000Y-96094000D02*
X171420000Y-97310000D01*
X171380000Y-98990000D02*
X171380000Y-100212000D01*
X171380000Y-96088000D02*
X171380000Y-97310000D01*
X171340000Y-98990000D02*
X171340000Y-100217000D01*
X171340000Y-96083000D02*
X171340000Y-97310000D01*
X171300000Y-98990000D02*
X171300000Y-100221000D01*
X171300000Y-96079000D02*
X171300000Y-97310000D01*
X171260000Y-98990000D02*
X171260000Y-100224000D01*
X171260000Y-96076000D02*
X171260000Y-97310000D01*
X171220000Y-98990000D02*
X171220000Y-100227000D01*
X171220000Y-96073000D02*
X171220000Y-97310000D01*
X171180000Y-98990000D02*
X171180000Y-100229000D01*
X171180000Y-96071000D02*
X171180000Y-97310000D01*
X171140000Y-98990000D02*
X171140000Y-100230000D01*
X171140000Y-96070000D02*
X171140000Y-97310000D01*
X171100000Y-98990000D02*
X171100000Y-100230000D01*
X171100000Y-96070000D02*
X171100000Y-97310000D01*
X169030199Y-96755000D02*
X169030199Y-97155000D01*
X168830199Y-96955000D02*
X169230199Y-96955000D01*
%TO.C,C_Polarized2*%
X168470000Y-92800000D02*
G75*
G02*
X164230000Y-92800000I-2120000J0D01*
G01*
X164230000Y-92800000D02*
G75*
G02*
X168470000Y-92800000I2120000J0D01*
G01*
X168431000Y-92430000D02*
X168431000Y-93170000D01*
X168391000Y-92263000D02*
X168391000Y-93337000D01*
X168351000Y-92136000D02*
X168351000Y-93464000D01*
X168311000Y-92032000D02*
X168311000Y-93568000D01*
X168271000Y-91941000D02*
X168271000Y-93659000D01*
X168231000Y-91860000D02*
X168231000Y-93740000D01*
X168191000Y-91787000D02*
X168191000Y-93813000D01*
X168151000Y-91720000D02*
X168151000Y-93880000D01*
X168111000Y-91658000D02*
X168111000Y-93942000D01*
X168071000Y-91600000D02*
X168071000Y-94000000D01*
X168031000Y-91546000D02*
X168031000Y-94054000D01*
X167991000Y-91496000D02*
X167991000Y-94104000D01*
X167951000Y-91449000D02*
X167951000Y-94151000D01*
X167911000Y-93640000D02*
X167911000Y-94196000D01*
X167911000Y-91404000D02*
X167911000Y-91960000D01*
X167871000Y-93640000D02*
X167871000Y-94238000D01*
X167871000Y-91362000D02*
X167871000Y-91960000D01*
X167831000Y-93640000D02*
X167831000Y-94278000D01*
X167831000Y-91322000D02*
X167831000Y-91960000D01*
X167791000Y-93640000D02*
X167791000Y-94316000D01*
X167791000Y-91284000D02*
X167791000Y-91960000D01*
X167751000Y-93640000D02*
X167751000Y-94352000D01*
X167751000Y-91248000D02*
X167751000Y-91960000D01*
X167711000Y-93640000D02*
X167711000Y-94387000D01*
X167711000Y-91213000D02*
X167711000Y-91960000D01*
X167671000Y-93640000D02*
X167671000Y-94419000D01*
X167671000Y-91181000D02*
X167671000Y-91960000D01*
X167631000Y-93640000D02*
X167631000Y-94450000D01*
X167631000Y-91150000D02*
X167631000Y-91960000D01*
X167591000Y-93640000D02*
X167591000Y-94480000D01*
X167591000Y-91120000D02*
X167591000Y-91960000D01*
X167551000Y-93640000D02*
X167551000Y-94508000D01*
X167551000Y-91092000D02*
X167551000Y-91960000D01*
X167511000Y-93640000D02*
X167511000Y-94535000D01*
X167511000Y-91065000D02*
X167511000Y-91960000D01*
X167471000Y-93640000D02*
X167471000Y-94560000D01*
X167471000Y-91040000D02*
X167471000Y-91960000D01*
X167431000Y-93640000D02*
X167431000Y-94585000D01*
X167431000Y-91015000D02*
X167431000Y-91960000D01*
X167391000Y-93640000D02*
X167391000Y-94608000D01*
X167391000Y-90992000D02*
X167391000Y-91960000D01*
X167351000Y-93640000D02*
X167351000Y-94630000D01*
X167351000Y-90970000D02*
X167351000Y-91960000D01*
X167311000Y-93640000D02*
X167311000Y-94651000D01*
X167311000Y-90949000D02*
X167311000Y-91960000D01*
X167271000Y-93640000D02*
X167271000Y-94670000D01*
X167271000Y-90930000D02*
X167271000Y-91960000D01*
X167231000Y-93640000D02*
X167231000Y-94689000D01*
X167231000Y-90911000D02*
X167231000Y-91960000D01*
X167191000Y-93640000D02*
X167191000Y-94707000D01*
X167191000Y-90893000D02*
X167191000Y-91960000D01*
X167151000Y-93640000D02*
X167151000Y-94724000D01*
X167151000Y-90876000D02*
X167151000Y-91960000D01*
X167111000Y-93640000D02*
X167111000Y-94740000D01*
X167111000Y-90860000D02*
X167111000Y-91960000D01*
X167071000Y-93640000D02*
X167071000Y-94754000D01*
X167071000Y-90846000D02*
X167071000Y-91960000D01*
X167030000Y-93640000D02*
X167030000Y-94768000D01*
X167030000Y-90832000D02*
X167030000Y-91960000D01*
X166990000Y-93640000D02*
X166990000Y-94782000D01*
X166990000Y-90818000D02*
X166990000Y-91960000D01*
X166950000Y-93640000D02*
X166950000Y-94794000D01*
X166950000Y-90806000D02*
X166950000Y-91960000D01*
X166910000Y-93640000D02*
X166910000Y-94805000D01*
X166910000Y-90795000D02*
X166910000Y-91960000D01*
X166870000Y-93640000D02*
X166870000Y-94816000D01*
X166870000Y-90784000D02*
X166870000Y-91960000D01*
X166830000Y-93640000D02*
X166830000Y-94825000D01*
X166830000Y-90775000D02*
X166830000Y-91960000D01*
X166790000Y-93640000D02*
X166790000Y-94834000D01*
X166790000Y-90766000D02*
X166790000Y-91960000D01*
X166750000Y-93640000D02*
X166750000Y-94842000D01*
X166750000Y-90758000D02*
X166750000Y-91960000D01*
X166710000Y-93640000D02*
X166710000Y-94850000D01*
X166710000Y-90750000D02*
X166710000Y-91960000D01*
X166670000Y-93640000D02*
X166670000Y-94856000D01*
X166670000Y-90744000D02*
X166670000Y-91960000D01*
X166630000Y-93640000D02*
X166630000Y-94862000D01*
X166630000Y-90738000D02*
X166630000Y-91960000D01*
X166590000Y-93640000D02*
X166590000Y-94867000D01*
X166590000Y-90733000D02*
X166590000Y-91960000D01*
X166550000Y-93640000D02*
X166550000Y-94871000D01*
X166550000Y-90729000D02*
X166550000Y-91960000D01*
X166510000Y-93640000D02*
X166510000Y-94874000D01*
X166510000Y-90726000D02*
X166510000Y-91960000D01*
X166470000Y-93640000D02*
X166470000Y-94877000D01*
X166470000Y-90723000D02*
X166470000Y-91960000D01*
X166430000Y-93640000D02*
X166430000Y-94879000D01*
X166430000Y-90721000D02*
X166430000Y-91960000D01*
X166390000Y-93640000D02*
X166390000Y-94880000D01*
X166390000Y-90720000D02*
X166390000Y-91960000D01*
X166350000Y-93640000D02*
X166350000Y-94880000D01*
X166350000Y-90720000D02*
X166350000Y-91960000D01*
X164280199Y-91405000D02*
X164280199Y-91805000D01*
X164080199Y-91605000D02*
X164480199Y-91605000D01*
%TO.C,C_Polarized8*%
X163120000Y-85500000D02*
G75*
G02*
X158880000Y-85500000I-2120000J0D01*
G01*
X158880000Y-85500000D02*
G75*
G02*
X163120000Y-85500000I2120000J0D01*
G01*
X161840000Y-85500000D02*
X163080000Y-85500000D01*
X161840000Y-85460000D02*
X163080000Y-85460000D01*
X161840000Y-85420000D02*
X163079000Y-85420000D01*
X161840000Y-85380000D02*
X163077000Y-85380000D01*
X161840000Y-85340000D02*
X163074000Y-85340000D01*
X161840000Y-85300000D02*
X163071000Y-85300000D01*
X161840000Y-85260000D02*
X163067000Y-85260000D01*
X161840000Y-85220000D02*
X163062000Y-85220000D01*
X161840000Y-85180000D02*
X163056000Y-85180000D01*
X161840000Y-85140000D02*
X163050000Y-85140000D01*
X161840000Y-85100000D02*
X163042000Y-85100000D01*
X161840000Y-85060000D02*
X163034000Y-85060000D01*
X161840000Y-85020000D02*
X163025000Y-85020000D01*
X161840000Y-84980000D02*
X163016000Y-84980000D01*
X161840000Y-84940000D02*
X163005000Y-84940000D01*
X161840000Y-84900000D02*
X162994000Y-84900000D01*
X161840000Y-84860000D02*
X162982000Y-84860000D01*
X161840000Y-84820000D02*
X162968000Y-84820000D01*
X161840000Y-84779000D02*
X162954000Y-84779000D01*
X161840000Y-84739000D02*
X162940000Y-84739000D01*
X161840000Y-84699000D02*
X162924000Y-84699000D01*
X161840000Y-84659000D02*
X162907000Y-84659000D01*
X161840000Y-84619000D02*
X162889000Y-84619000D01*
X161840000Y-84579000D02*
X162870000Y-84579000D01*
X161840000Y-84539000D02*
X162851000Y-84539000D01*
X161840000Y-84499000D02*
X162830000Y-84499000D01*
X161840000Y-84459000D02*
X162808000Y-84459000D01*
X161840000Y-84419000D02*
X162785000Y-84419000D01*
X161840000Y-84379000D02*
X162760000Y-84379000D01*
X161840000Y-84339000D02*
X162735000Y-84339000D01*
X161840000Y-84299000D02*
X162708000Y-84299000D01*
X161840000Y-84259000D02*
X162680000Y-84259000D01*
X161840000Y-84219000D02*
X162650000Y-84219000D01*
X161840000Y-84179000D02*
X162619000Y-84179000D01*
X161840000Y-84139000D02*
X162587000Y-84139000D01*
X161840000Y-84099000D02*
X162552000Y-84099000D01*
X161840000Y-84059000D02*
X162516000Y-84059000D01*
X161840000Y-84019000D02*
X162478000Y-84019000D01*
X161840000Y-83979000D02*
X162438000Y-83979000D01*
X161840000Y-83939000D02*
X162396000Y-83939000D01*
X160630000Y-83419000D02*
X161370000Y-83419000D01*
X160463000Y-83459000D02*
X161537000Y-83459000D01*
X160336000Y-83499000D02*
X161664000Y-83499000D01*
X160232000Y-83539000D02*
X161768000Y-83539000D01*
X160141000Y-83579000D02*
X161859000Y-83579000D01*
X160060000Y-83619000D02*
X161940000Y-83619000D01*
X159987000Y-83659000D02*
X162013000Y-83659000D01*
X159920000Y-83699000D02*
X162080000Y-83699000D01*
X159858000Y-83739000D02*
X162142000Y-83739000D01*
X159805000Y-87769801D02*
X159805000Y-87369801D01*
X159800000Y-83779000D02*
X162200000Y-83779000D01*
X159746000Y-83819000D02*
X162254000Y-83819000D01*
X159696000Y-83859000D02*
X162304000Y-83859000D01*
X159649000Y-83899000D02*
X162351000Y-83899000D01*
X159605000Y-87569801D02*
X160005000Y-87569801D01*
X159604000Y-83939000D02*
X160160000Y-83939000D01*
X159562000Y-83979000D02*
X160160000Y-83979000D01*
X159522000Y-84019000D02*
X160160000Y-84019000D01*
X159484000Y-84059000D02*
X160160000Y-84059000D01*
X159448000Y-84099000D02*
X160160000Y-84099000D01*
X159413000Y-84139000D02*
X160160000Y-84139000D01*
X159381000Y-84179000D02*
X160160000Y-84179000D01*
X159350000Y-84219000D02*
X160160000Y-84219000D01*
X159320000Y-84259000D02*
X160160000Y-84259000D01*
X159292000Y-84299000D02*
X160160000Y-84299000D01*
X159265000Y-84339000D02*
X160160000Y-84339000D01*
X159240000Y-84379000D02*
X160160000Y-84379000D01*
X159215000Y-84419000D02*
X160160000Y-84419000D01*
X159192000Y-84459000D02*
X160160000Y-84459000D01*
X159170000Y-84499000D02*
X160160000Y-84499000D01*
X159149000Y-84539000D02*
X160160000Y-84539000D01*
X159130000Y-84579000D02*
X160160000Y-84579000D01*
X159111000Y-84619000D02*
X160160000Y-84619000D01*
X159093000Y-84659000D02*
X160160000Y-84659000D01*
X159076000Y-84699000D02*
X160160000Y-84699000D01*
X159060000Y-84739000D02*
X160160000Y-84739000D01*
X159046000Y-84779000D02*
X160160000Y-84779000D01*
X159032000Y-84820000D02*
X160160000Y-84820000D01*
X159018000Y-84860000D02*
X160160000Y-84860000D01*
X159006000Y-84900000D02*
X160160000Y-84900000D01*
X158995000Y-84940000D02*
X160160000Y-84940000D01*
X158984000Y-84980000D02*
X160160000Y-84980000D01*
X158975000Y-85020000D02*
X160160000Y-85020000D01*
X158966000Y-85060000D02*
X160160000Y-85060000D01*
X158958000Y-85100000D02*
X160160000Y-85100000D01*
X158950000Y-85140000D02*
X160160000Y-85140000D01*
X158944000Y-85180000D02*
X160160000Y-85180000D01*
X158938000Y-85220000D02*
X160160000Y-85220000D01*
X158933000Y-85260000D02*
X160160000Y-85260000D01*
X158929000Y-85300000D02*
X160160000Y-85300000D01*
X158926000Y-85340000D02*
X160160000Y-85340000D01*
X158923000Y-85380000D02*
X160160000Y-85380000D01*
X158921000Y-85420000D02*
X160160000Y-85420000D01*
X158920000Y-85500000D02*
X160160000Y-85500000D01*
X158920000Y-85460000D02*
X160160000Y-85460000D01*
%TO.C,C_Polarized12*%
X156789899Y-102369401D02*
G75*
G02*
X152549899Y-102369401I-2120000J0D01*
G01*
X152549899Y-102369401D02*
G75*
G02*
X156789899Y-102369401I2120000J0D01*
G01*
X156939700Y-103564401D02*
X156539700Y-103564401D01*
X156739700Y-103764401D02*
X156739700Y-103364401D01*
X154669899Y-104449401D02*
X154669899Y-103209401D01*
X154669899Y-101529401D02*
X154669899Y-100289401D01*
X154629899Y-104449401D02*
X154629899Y-103209401D01*
X154629899Y-101529401D02*
X154629899Y-100289401D01*
X154589899Y-104448401D02*
X154589899Y-103209401D01*
X154589899Y-101529401D02*
X154589899Y-100290401D01*
X154549899Y-104446401D02*
X154549899Y-103209401D01*
X154549899Y-101529401D02*
X154549899Y-100292401D01*
X154509899Y-104443401D02*
X154509899Y-103209401D01*
X154509899Y-101529401D02*
X154509899Y-100295401D01*
X154469899Y-104440401D02*
X154469899Y-103209401D01*
X154469899Y-101529401D02*
X154469899Y-100298401D01*
X154429899Y-104436401D02*
X154429899Y-103209401D01*
X154429899Y-101529401D02*
X154429899Y-100302401D01*
X154389899Y-104431401D02*
X154389899Y-103209401D01*
X154389899Y-101529401D02*
X154389899Y-100307401D01*
X154349899Y-104425401D02*
X154349899Y-103209401D01*
X154349899Y-101529401D02*
X154349899Y-100313401D01*
X154309899Y-104419401D02*
X154309899Y-103209401D01*
X154309899Y-101529401D02*
X154309899Y-100319401D01*
X154269899Y-104411401D02*
X154269899Y-103209401D01*
X154269899Y-101529401D02*
X154269899Y-100327401D01*
X154229899Y-104403401D02*
X154229899Y-103209401D01*
X154229899Y-101529401D02*
X154229899Y-100335401D01*
X154189899Y-104394401D02*
X154189899Y-103209401D01*
X154189899Y-101529401D02*
X154189899Y-100344401D01*
X154149899Y-104385401D02*
X154149899Y-103209401D01*
X154149899Y-101529401D02*
X154149899Y-100353401D01*
X154109899Y-104374401D02*
X154109899Y-103209401D01*
X154109899Y-101529401D02*
X154109899Y-100364401D01*
X154069899Y-104363401D02*
X154069899Y-103209401D01*
X154069899Y-101529401D02*
X154069899Y-100375401D01*
X154029899Y-104351401D02*
X154029899Y-103209401D01*
X154029899Y-101529401D02*
X154029899Y-100387401D01*
X153989899Y-104337401D02*
X153989899Y-103209401D01*
X153989899Y-101529401D02*
X153989899Y-100401401D01*
X153948899Y-104323401D02*
X153948899Y-103209401D01*
X153948899Y-101529401D02*
X153948899Y-100415401D01*
X153908899Y-104309401D02*
X153908899Y-103209401D01*
X153908899Y-101529401D02*
X153908899Y-100429401D01*
X153868899Y-104293401D02*
X153868899Y-103209401D01*
X153868899Y-101529401D02*
X153868899Y-100445401D01*
X153828899Y-104276401D02*
X153828899Y-103209401D01*
X153828899Y-101529401D02*
X153828899Y-100462401D01*
X153788899Y-104258401D02*
X153788899Y-103209401D01*
X153788899Y-101529401D02*
X153788899Y-100480401D01*
X153748899Y-104239401D02*
X153748899Y-103209401D01*
X153748899Y-101529401D02*
X153748899Y-100499401D01*
X153708899Y-104220401D02*
X153708899Y-103209401D01*
X153708899Y-101529401D02*
X153708899Y-100518401D01*
X153668899Y-104199401D02*
X153668899Y-103209401D01*
X153668899Y-101529401D02*
X153668899Y-100539401D01*
X153628899Y-104177401D02*
X153628899Y-103209401D01*
X153628899Y-101529401D02*
X153628899Y-100561401D01*
X153588899Y-104154401D02*
X153588899Y-103209401D01*
X153588899Y-101529401D02*
X153588899Y-100584401D01*
X153548899Y-104129401D02*
X153548899Y-103209401D01*
X153548899Y-101529401D02*
X153548899Y-100609401D01*
X153508899Y-104104401D02*
X153508899Y-103209401D01*
X153508899Y-101529401D02*
X153508899Y-100634401D01*
X153468899Y-104077401D02*
X153468899Y-103209401D01*
X153468899Y-101529401D02*
X153468899Y-100661401D01*
X153428899Y-104049401D02*
X153428899Y-103209401D01*
X153428899Y-101529401D02*
X153428899Y-100689401D01*
X153388899Y-104019401D02*
X153388899Y-103209401D01*
X153388899Y-101529401D02*
X153388899Y-100719401D01*
X153348899Y-103988401D02*
X153348899Y-103209401D01*
X153348899Y-101529401D02*
X153348899Y-100750401D01*
X153308899Y-103956401D02*
X153308899Y-103209401D01*
X153308899Y-101529401D02*
X153308899Y-100782401D01*
X153268899Y-103921401D02*
X153268899Y-103209401D01*
X153268899Y-101529401D02*
X153268899Y-100817401D01*
X153228899Y-103885401D02*
X153228899Y-103209401D01*
X153228899Y-101529401D02*
X153228899Y-100853401D01*
X153188899Y-103847401D02*
X153188899Y-103209401D01*
X153188899Y-101529401D02*
X153188899Y-100891401D01*
X153148899Y-103807401D02*
X153148899Y-103209401D01*
X153148899Y-101529401D02*
X153148899Y-100931401D01*
X153108899Y-103765401D02*
X153108899Y-103209401D01*
X153108899Y-101529401D02*
X153108899Y-100973401D01*
X153068899Y-103720401D02*
X153068899Y-101018401D01*
X153028899Y-103673401D02*
X153028899Y-101065401D01*
X152988899Y-103623401D02*
X152988899Y-101115401D01*
X152948899Y-103569401D02*
X152948899Y-101169401D01*
X152908899Y-103511401D02*
X152908899Y-101227401D01*
X152868899Y-103449401D02*
X152868899Y-101289401D01*
X152828899Y-103382401D02*
X152828899Y-101356401D01*
X152788899Y-103309401D02*
X152788899Y-101429401D01*
X152748899Y-103228401D02*
X152748899Y-101510401D01*
X152708899Y-103137401D02*
X152708899Y-101601401D01*
X152668899Y-103033401D02*
X152668899Y-101705401D01*
X152628899Y-102906401D02*
X152628899Y-101832401D01*
X152588899Y-102739401D02*
X152588899Y-101999401D01*
%TO.C,C_Polarized4*%
X163519001Y-69211001D02*
G75*
G02*
X159279001Y-69211001I-2120000J0D01*
G01*
X159279001Y-69211001D02*
G75*
G02*
X163519001Y-69211001I2120000J0D01*
G01*
X163479001Y-69251001D02*
X162239001Y-69251001D01*
X163479001Y-69211001D02*
X162239001Y-69211001D01*
X163478001Y-69291001D02*
X162239001Y-69291001D01*
X163476001Y-69331001D02*
X162239001Y-69331001D01*
X163473001Y-69371001D02*
X162239001Y-69371001D01*
X163470001Y-69411001D02*
X162239001Y-69411001D01*
X163466001Y-69451001D02*
X162239001Y-69451001D01*
X163461001Y-69491001D02*
X162239001Y-69491001D01*
X163455001Y-69531001D02*
X162239001Y-69531001D01*
X163449001Y-69571001D02*
X162239001Y-69571001D01*
X163441001Y-69611001D02*
X162239001Y-69611001D01*
X163433001Y-69651001D02*
X162239001Y-69651001D01*
X163424001Y-69691001D02*
X162239001Y-69691001D01*
X163415001Y-69731001D02*
X162239001Y-69731001D01*
X163404001Y-69771001D02*
X162239001Y-69771001D01*
X163393001Y-69811001D02*
X162239001Y-69811001D01*
X163381001Y-69851001D02*
X162239001Y-69851001D01*
X163367001Y-69891001D02*
X162239001Y-69891001D01*
X163353001Y-69932001D02*
X162239001Y-69932001D01*
X163339001Y-69972001D02*
X162239001Y-69972001D01*
X163323001Y-70012001D02*
X162239001Y-70012001D01*
X163306001Y-70052001D02*
X162239001Y-70052001D01*
X163288001Y-70092001D02*
X162239001Y-70092001D01*
X163269001Y-70132001D02*
X162239001Y-70132001D01*
X163250001Y-70172001D02*
X162239001Y-70172001D01*
X163229001Y-70212001D02*
X162239001Y-70212001D01*
X163207001Y-70252001D02*
X162239001Y-70252001D01*
X163184001Y-70292001D02*
X162239001Y-70292001D01*
X163159001Y-70332001D02*
X162239001Y-70332001D01*
X163134001Y-70372001D02*
X162239001Y-70372001D01*
X163107001Y-70412001D02*
X162239001Y-70412001D01*
X163079001Y-70452001D02*
X162239001Y-70452001D01*
X163049001Y-70492001D02*
X162239001Y-70492001D01*
X163018001Y-70532001D02*
X162239001Y-70532001D01*
X162986001Y-70572001D02*
X162239001Y-70572001D01*
X162951001Y-70612001D02*
X162239001Y-70612001D01*
X162915001Y-70652001D02*
X162239001Y-70652001D01*
X162877001Y-70692001D02*
X162239001Y-70692001D01*
X162837001Y-70732001D02*
X162239001Y-70732001D01*
X162795001Y-70772001D02*
X162239001Y-70772001D01*
X162794001Y-67141200D02*
X162394001Y-67141200D01*
X162750001Y-70812001D02*
X160048001Y-70812001D01*
X162703001Y-70852001D02*
X160095001Y-70852001D01*
X162653001Y-70892001D02*
X160145001Y-70892001D01*
X162599001Y-70932001D02*
X160199001Y-70932001D01*
X162594001Y-66941200D02*
X162594001Y-67341200D01*
X162541001Y-70972001D02*
X160257001Y-70972001D01*
X162479001Y-71012001D02*
X160319001Y-71012001D01*
X162412001Y-71052001D02*
X160386001Y-71052001D01*
X162339001Y-71092001D02*
X160459001Y-71092001D01*
X162258001Y-71132001D02*
X160540001Y-71132001D01*
X162167001Y-71172001D02*
X160631001Y-71172001D01*
X162063001Y-71212001D02*
X160735001Y-71212001D01*
X161936001Y-71252001D02*
X160862001Y-71252001D01*
X161769001Y-71292001D02*
X161029001Y-71292001D01*
X160559001Y-70772001D02*
X160003001Y-70772001D01*
X160559001Y-70732001D02*
X159961001Y-70732001D01*
X160559001Y-70692001D02*
X159921001Y-70692001D01*
X160559001Y-70652001D02*
X159883001Y-70652001D01*
X160559001Y-70612001D02*
X159847001Y-70612001D01*
X160559001Y-70572001D02*
X159812001Y-70572001D01*
X160559001Y-70532001D02*
X159780001Y-70532001D01*
X160559001Y-70492001D02*
X159749001Y-70492001D01*
X160559001Y-70452001D02*
X159719001Y-70452001D01*
X160559001Y-70412001D02*
X159691001Y-70412001D01*
X160559001Y-70372001D02*
X159664001Y-70372001D01*
X160559001Y-70332001D02*
X159639001Y-70332001D01*
X160559001Y-70292001D02*
X159614001Y-70292001D01*
X160559001Y-70252001D02*
X159591001Y-70252001D01*
X160559001Y-70212001D02*
X159569001Y-70212001D01*
X160559001Y-70172001D02*
X159548001Y-70172001D01*
X160559001Y-70132001D02*
X159529001Y-70132001D01*
X160559001Y-70092001D02*
X159510001Y-70092001D01*
X160559001Y-70052001D02*
X159492001Y-70052001D01*
X160559001Y-70012001D02*
X159475001Y-70012001D01*
X160559001Y-69972001D02*
X159459001Y-69972001D01*
X160559001Y-69932001D02*
X159445001Y-69932001D01*
X160559001Y-69891001D02*
X159431001Y-69891001D01*
X160559001Y-69851001D02*
X159417001Y-69851001D01*
X160559001Y-69811001D02*
X159405001Y-69811001D01*
X160559001Y-69771001D02*
X159394001Y-69771001D01*
X160559001Y-69731001D02*
X159383001Y-69731001D01*
X160559001Y-69691001D02*
X159374001Y-69691001D01*
X160559001Y-69651001D02*
X159365001Y-69651001D01*
X160559001Y-69611001D02*
X159357001Y-69611001D01*
X160559001Y-69571001D02*
X159349001Y-69571001D01*
X160559001Y-69531001D02*
X159343001Y-69531001D01*
X160559001Y-69491001D02*
X159337001Y-69491001D01*
X160559001Y-69451001D02*
X159332001Y-69451001D01*
X160559001Y-69411001D02*
X159328001Y-69411001D01*
X160559001Y-69371001D02*
X159325001Y-69371001D01*
X160559001Y-69331001D02*
X159322001Y-69331001D01*
X160559001Y-69291001D02*
X159320001Y-69291001D01*
X160559001Y-69251001D02*
X159319001Y-69251001D01*
X160559001Y-69211001D02*
X159319001Y-69211001D01*
%TO.C,C_Polarized9*%
X176770000Y-93600000D02*
G75*
G02*
X172530000Y-93600000I-2120000J0D01*
G01*
X172530000Y-93600000D02*
G75*
G02*
X176770000Y-93600000I2120000J0D01*
G01*
X176731000Y-93230000D02*
X176731000Y-93970000D01*
X176691000Y-93063000D02*
X176691000Y-94137000D01*
X176651000Y-92936000D02*
X176651000Y-94264000D01*
X176611000Y-92832000D02*
X176611000Y-94368000D01*
X176571000Y-92741000D02*
X176571000Y-94459000D01*
X176531000Y-92660000D02*
X176531000Y-94540000D01*
X176491000Y-92587000D02*
X176491000Y-94613000D01*
X176451000Y-92520000D02*
X176451000Y-94680000D01*
X176411000Y-92458000D02*
X176411000Y-94742000D01*
X176371000Y-92400000D02*
X176371000Y-94800000D01*
X176331000Y-92346000D02*
X176331000Y-94854000D01*
X176291000Y-92296000D02*
X176291000Y-94904000D01*
X176251000Y-92249000D02*
X176251000Y-94951000D01*
X176211000Y-94440000D02*
X176211000Y-94996000D01*
X176211000Y-92204000D02*
X176211000Y-92760000D01*
X176171000Y-94440000D02*
X176171000Y-95038000D01*
X176171000Y-92162000D02*
X176171000Y-92760000D01*
X176131000Y-94440000D02*
X176131000Y-95078000D01*
X176131000Y-92122000D02*
X176131000Y-92760000D01*
X176091000Y-94440000D02*
X176091000Y-95116000D01*
X176091000Y-92084000D02*
X176091000Y-92760000D01*
X176051000Y-94440000D02*
X176051000Y-95152000D01*
X176051000Y-92048000D02*
X176051000Y-92760000D01*
X176011000Y-94440000D02*
X176011000Y-95187000D01*
X176011000Y-92013000D02*
X176011000Y-92760000D01*
X175971000Y-94440000D02*
X175971000Y-95219000D01*
X175971000Y-91981000D02*
X175971000Y-92760000D01*
X175931000Y-94440000D02*
X175931000Y-95250000D01*
X175931000Y-91950000D02*
X175931000Y-92760000D01*
X175891000Y-94440000D02*
X175891000Y-95280000D01*
X175891000Y-91920000D02*
X175891000Y-92760000D01*
X175851000Y-94440000D02*
X175851000Y-95308000D01*
X175851000Y-91892000D02*
X175851000Y-92760000D01*
X175811000Y-94440000D02*
X175811000Y-95335000D01*
X175811000Y-91865000D02*
X175811000Y-92760000D01*
X175771000Y-94440000D02*
X175771000Y-95360000D01*
X175771000Y-91840000D02*
X175771000Y-92760000D01*
X175731000Y-94440000D02*
X175731000Y-95385000D01*
X175731000Y-91815000D02*
X175731000Y-92760000D01*
X175691000Y-94440000D02*
X175691000Y-95408000D01*
X175691000Y-91792000D02*
X175691000Y-92760000D01*
X175651000Y-94440000D02*
X175651000Y-95430000D01*
X175651000Y-91770000D02*
X175651000Y-92760000D01*
X175611000Y-94440000D02*
X175611000Y-95451000D01*
X175611000Y-91749000D02*
X175611000Y-92760000D01*
X175571000Y-94440000D02*
X175571000Y-95470000D01*
X175571000Y-91730000D02*
X175571000Y-92760000D01*
X175531000Y-94440000D02*
X175531000Y-95489000D01*
X175531000Y-91711000D02*
X175531000Y-92760000D01*
X175491000Y-94440000D02*
X175491000Y-95507000D01*
X175491000Y-91693000D02*
X175491000Y-92760000D01*
X175451000Y-94440000D02*
X175451000Y-95524000D01*
X175451000Y-91676000D02*
X175451000Y-92760000D01*
X175411000Y-94440000D02*
X175411000Y-95540000D01*
X175411000Y-91660000D02*
X175411000Y-92760000D01*
X175371000Y-94440000D02*
X175371000Y-95554000D01*
X175371000Y-91646000D02*
X175371000Y-92760000D01*
X175330000Y-94440000D02*
X175330000Y-95568000D01*
X175330000Y-91632000D02*
X175330000Y-92760000D01*
X175290000Y-94440000D02*
X175290000Y-95582000D01*
X175290000Y-91618000D02*
X175290000Y-92760000D01*
X175250000Y-94440000D02*
X175250000Y-95594000D01*
X175250000Y-91606000D02*
X175250000Y-92760000D01*
X175210000Y-94440000D02*
X175210000Y-95605000D01*
X175210000Y-91595000D02*
X175210000Y-92760000D01*
X175170000Y-94440000D02*
X175170000Y-95616000D01*
X175170000Y-91584000D02*
X175170000Y-92760000D01*
X175130000Y-94440000D02*
X175130000Y-95625000D01*
X175130000Y-91575000D02*
X175130000Y-92760000D01*
X175090000Y-94440000D02*
X175090000Y-95634000D01*
X175090000Y-91566000D02*
X175090000Y-92760000D01*
X175050000Y-94440000D02*
X175050000Y-95642000D01*
X175050000Y-91558000D02*
X175050000Y-92760000D01*
X175010000Y-94440000D02*
X175010000Y-95650000D01*
X175010000Y-91550000D02*
X175010000Y-92760000D01*
X174970000Y-94440000D02*
X174970000Y-95656000D01*
X174970000Y-91544000D02*
X174970000Y-92760000D01*
X174930000Y-94440000D02*
X174930000Y-95662000D01*
X174930000Y-91538000D02*
X174930000Y-92760000D01*
X174890000Y-94440000D02*
X174890000Y-95667000D01*
X174890000Y-91533000D02*
X174890000Y-92760000D01*
X174850000Y-94440000D02*
X174850000Y-95671000D01*
X174850000Y-91529000D02*
X174850000Y-92760000D01*
X174810000Y-94440000D02*
X174810000Y-95674000D01*
X174810000Y-91526000D02*
X174810000Y-92760000D01*
X174770000Y-94440000D02*
X174770000Y-95677000D01*
X174770000Y-91523000D02*
X174770000Y-92760000D01*
X174730000Y-94440000D02*
X174730000Y-95679000D01*
X174730000Y-91521000D02*
X174730000Y-92760000D01*
X174690000Y-94440000D02*
X174690000Y-95680000D01*
X174690000Y-91520000D02*
X174690000Y-92760000D01*
X174650000Y-94440000D02*
X174650000Y-95680000D01*
X174650000Y-91520000D02*
X174650000Y-92760000D01*
X172580199Y-92205000D02*
X172580199Y-92605000D01*
X172380199Y-92405000D02*
X172780199Y-92405000D01*
%TO.C,C_Polarized7*%
X163370000Y-101750000D02*
G75*
G02*
X159130000Y-101750000I-2120000J0D01*
G01*
X159130000Y-101750000D02*
G75*
G02*
X163370000Y-101750000I2120000J0D01*
G01*
X163330000Y-101790000D02*
X162090000Y-101790000D01*
X163330000Y-101750000D02*
X162090000Y-101750000D01*
X163329000Y-101830000D02*
X162090000Y-101830000D01*
X163327000Y-101870000D02*
X162090000Y-101870000D01*
X163324000Y-101910000D02*
X162090000Y-101910000D01*
X163321000Y-101950000D02*
X162090000Y-101950000D01*
X163317000Y-101990000D02*
X162090000Y-101990000D01*
X163312000Y-102030000D02*
X162090000Y-102030000D01*
X163306000Y-102070000D02*
X162090000Y-102070000D01*
X163300000Y-102110000D02*
X162090000Y-102110000D01*
X163292000Y-102150000D02*
X162090000Y-102150000D01*
X163284000Y-102190000D02*
X162090000Y-102190000D01*
X163275000Y-102230000D02*
X162090000Y-102230000D01*
X163266000Y-102270000D02*
X162090000Y-102270000D01*
X163255000Y-102310000D02*
X162090000Y-102310000D01*
X163244000Y-102350000D02*
X162090000Y-102350000D01*
X163232000Y-102390000D02*
X162090000Y-102390000D01*
X163218000Y-102430000D02*
X162090000Y-102430000D01*
X163204000Y-102471000D02*
X162090000Y-102471000D01*
X163190000Y-102511000D02*
X162090000Y-102511000D01*
X163174000Y-102551000D02*
X162090000Y-102551000D01*
X163157000Y-102591000D02*
X162090000Y-102591000D01*
X163139000Y-102631000D02*
X162090000Y-102631000D01*
X163120000Y-102671000D02*
X162090000Y-102671000D01*
X163101000Y-102711000D02*
X162090000Y-102711000D01*
X163080000Y-102751000D02*
X162090000Y-102751000D01*
X163058000Y-102791000D02*
X162090000Y-102791000D01*
X163035000Y-102831000D02*
X162090000Y-102831000D01*
X163010000Y-102871000D02*
X162090000Y-102871000D01*
X162985000Y-102911000D02*
X162090000Y-102911000D01*
X162958000Y-102951000D02*
X162090000Y-102951000D01*
X162930000Y-102991000D02*
X162090000Y-102991000D01*
X162900000Y-103031000D02*
X162090000Y-103031000D01*
X162869000Y-103071000D02*
X162090000Y-103071000D01*
X162837000Y-103111000D02*
X162090000Y-103111000D01*
X162802000Y-103151000D02*
X162090000Y-103151000D01*
X162766000Y-103191000D02*
X162090000Y-103191000D01*
X162728000Y-103231000D02*
X162090000Y-103231000D01*
X162688000Y-103271000D02*
X162090000Y-103271000D01*
X162646000Y-103311000D02*
X162090000Y-103311000D01*
X162645000Y-99680199D02*
X162245000Y-99680199D01*
X162601000Y-103351000D02*
X159899000Y-103351000D01*
X162554000Y-103391000D02*
X159946000Y-103391000D01*
X162504000Y-103431000D02*
X159996000Y-103431000D01*
X162450000Y-103471000D02*
X160050000Y-103471000D01*
X162445000Y-99480199D02*
X162445000Y-99880199D01*
X162392000Y-103511000D02*
X160108000Y-103511000D01*
X162330000Y-103551000D02*
X160170000Y-103551000D01*
X162263000Y-103591000D02*
X160237000Y-103591000D01*
X162190000Y-103631000D02*
X160310000Y-103631000D01*
X162109000Y-103671000D02*
X160391000Y-103671000D01*
X162018000Y-103711000D02*
X160482000Y-103711000D01*
X161914000Y-103751000D02*
X160586000Y-103751000D01*
X161787000Y-103791000D02*
X160713000Y-103791000D01*
X161620000Y-103831000D02*
X160880000Y-103831000D01*
X160410000Y-103311000D02*
X159854000Y-103311000D01*
X160410000Y-103271000D02*
X159812000Y-103271000D01*
X160410000Y-103231000D02*
X159772000Y-103231000D01*
X160410000Y-103191000D02*
X159734000Y-103191000D01*
X160410000Y-103151000D02*
X159698000Y-103151000D01*
X160410000Y-103111000D02*
X159663000Y-103111000D01*
X160410000Y-103071000D02*
X159631000Y-103071000D01*
X160410000Y-103031000D02*
X159600000Y-103031000D01*
X160410000Y-102991000D02*
X159570000Y-102991000D01*
X160410000Y-102951000D02*
X159542000Y-102951000D01*
X160410000Y-102911000D02*
X159515000Y-102911000D01*
X160410000Y-102871000D02*
X159490000Y-102871000D01*
X160410000Y-102831000D02*
X159465000Y-102831000D01*
X160410000Y-102791000D02*
X159442000Y-102791000D01*
X160410000Y-102751000D02*
X159420000Y-102751000D01*
X160410000Y-102711000D02*
X159399000Y-102711000D01*
X160410000Y-102671000D02*
X159380000Y-102671000D01*
X160410000Y-102631000D02*
X159361000Y-102631000D01*
X160410000Y-102591000D02*
X159343000Y-102591000D01*
X160410000Y-102551000D02*
X159326000Y-102551000D01*
X160410000Y-102511000D02*
X159310000Y-102511000D01*
X160410000Y-102471000D02*
X159296000Y-102471000D01*
X160410000Y-102430000D02*
X159282000Y-102430000D01*
X160410000Y-102390000D02*
X159268000Y-102390000D01*
X160410000Y-102350000D02*
X159256000Y-102350000D01*
X160410000Y-102310000D02*
X159245000Y-102310000D01*
X160410000Y-102270000D02*
X159234000Y-102270000D01*
X160410000Y-102230000D02*
X159225000Y-102230000D01*
X160410000Y-102190000D02*
X159216000Y-102190000D01*
X160410000Y-102150000D02*
X159208000Y-102150000D01*
X160410000Y-102110000D02*
X159200000Y-102110000D01*
X160410000Y-102070000D02*
X159194000Y-102070000D01*
X160410000Y-102030000D02*
X159188000Y-102030000D01*
X160410000Y-101990000D02*
X159183000Y-101990000D01*
X160410000Y-101950000D02*
X159179000Y-101950000D01*
X160410000Y-101910000D02*
X159176000Y-101910000D01*
X160410000Y-101870000D02*
X159173000Y-101870000D01*
X160410000Y-101830000D02*
X159171000Y-101830000D01*
X160410000Y-101790000D02*
X159170000Y-101790000D01*
X160410000Y-101750000D02*
X159170000Y-101750000D01*
%TO.C,C_Polarized3*%
X146774800Y-71394600D02*
G75*
G02*
X142534800Y-71394600I-2120000J0D01*
G01*
X142534800Y-71394600D02*
G75*
G02*
X146774800Y-71394600I2120000J0D01*
G01*
X146734800Y-71434600D02*
X145494800Y-71434600D01*
X146734800Y-71394600D02*
X145494800Y-71394600D01*
X146733800Y-71474600D02*
X145494800Y-71474600D01*
X146731800Y-71514600D02*
X145494800Y-71514600D01*
X146728800Y-71554600D02*
X145494800Y-71554600D01*
X146725800Y-71594600D02*
X145494800Y-71594600D01*
X146721800Y-71634600D02*
X145494800Y-71634600D01*
X146716800Y-71674600D02*
X145494800Y-71674600D01*
X146710800Y-71714600D02*
X145494800Y-71714600D01*
X146704800Y-71754600D02*
X145494800Y-71754600D01*
X146696800Y-71794600D02*
X145494800Y-71794600D01*
X146688800Y-71834600D02*
X145494800Y-71834600D01*
X146679800Y-71874600D02*
X145494800Y-71874600D01*
X146670800Y-71914600D02*
X145494800Y-71914600D01*
X146659800Y-71954600D02*
X145494800Y-71954600D01*
X146648800Y-71994600D02*
X145494800Y-71994600D01*
X146636800Y-72034600D02*
X145494800Y-72034600D01*
X146622800Y-72074600D02*
X145494800Y-72074600D01*
X146608800Y-72115600D02*
X145494800Y-72115600D01*
X146594800Y-72155600D02*
X145494800Y-72155600D01*
X146578800Y-72195600D02*
X145494800Y-72195600D01*
X146561800Y-72235600D02*
X145494800Y-72235600D01*
X146543800Y-72275600D02*
X145494800Y-72275600D01*
X146524800Y-72315600D02*
X145494800Y-72315600D01*
X146505800Y-72355600D02*
X145494800Y-72355600D01*
X146484800Y-72395600D02*
X145494800Y-72395600D01*
X146462800Y-72435600D02*
X145494800Y-72435600D01*
X146439800Y-72475600D02*
X145494800Y-72475600D01*
X146414800Y-72515600D02*
X145494800Y-72515600D01*
X146389800Y-72555600D02*
X145494800Y-72555600D01*
X146362800Y-72595600D02*
X145494800Y-72595600D01*
X146334800Y-72635600D02*
X145494800Y-72635600D01*
X146304800Y-72675600D02*
X145494800Y-72675600D01*
X146273800Y-72715600D02*
X145494800Y-72715600D01*
X146241800Y-72755600D02*
X145494800Y-72755600D01*
X146206800Y-72795600D02*
X145494800Y-72795600D01*
X146170800Y-72835600D02*
X145494800Y-72835600D01*
X146132800Y-72875600D02*
X145494800Y-72875600D01*
X146092800Y-72915600D02*
X145494800Y-72915600D01*
X146050800Y-72955600D02*
X145494800Y-72955600D01*
X146049800Y-69324799D02*
X145649800Y-69324799D01*
X146005800Y-72995600D02*
X143303800Y-72995600D01*
X145958800Y-73035600D02*
X143350800Y-73035600D01*
X145908800Y-73075600D02*
X143400800Y-73075600D01*
X145854800Y-73115600D02*
X143454800Y-73115600D01*
X145849800Y-69124799D02*
X145849800Y-69524799D01*
X145796800Y-73155600D02*
X143512800Y-73155600D01*
X145734800Y-73195600D02*
X143574800Y-73195600D01*
X145667800Y-73235600D02*
X143641800Y-73235600D01*
X145594800Y-73275600D02*
X143714800Y-73275600D01*
X145513800Y-73315600D02*
X143795800Y-73315600D01*
X145422800Y-73355600D02*
X143886800Y-73355600D01*
X145318800Y-73395600D02*
X143990800Y-73395600D01*
X145191800Y-73435600D02*
X144117800Y-73435600D01*
X145024800Y-73475600D02*
X144284800Y-73475600D01*
X143814800Y-72955600D02*
X143258800Y-72955600D01*
X143814800Y-72915600D02*
X143216800Y-72915600D01*
X143814800Y-72875600D02*
X143176800Y-72875600D01*
X143814800Y-72835600D02*
X143138800Y-72835600D01*
X143814800Y-72795600D02*
X143102800Y-72795600D01*
X143814800Y-72755600D02*
X143067800Y-72755600D01*
X143814800Y-72715600D02*
X143035800Y-72715600D01*
X143814800Y-72675600D02*
X143004800Y-72675600D01*
X143814800Y-72635600D02*
X142974800Y-72635600D01*
X143814800Y-72595600D02*
X142946800Y-72595600D01*
X143814800Y-72555600D02*
X142919800Y-72555600D01*
X143814800Y-72515600D02*
X142894800Y-72515600D01*
X143814800Y-72475600D02*
X142869800Y-72475600D01*
X143814800Y-72435600D02*
X142846800Y-72435600D01*
X143814800Y-72395600D02*
X142824800Y-72395600D01*
X143814800Y-72355600D02*
X142803800Y-72355600D01*
X143814800Y-72315600D02*
X142784800Y-72315600D01*
X143814800Y-72275600D02*
X142765800Y-72275600D01*
X143814800Y-72235600D02*
X142747800Y-72235600D01*
X143814800Y-72195600D02*
X142730800Y-72195600D01*
X143814800Y-72155600D02*
X142714800Y-72155600D01*
X143814800Y-72115600D02*
X142700800Y-72115600D01*
X143814800Y-72074600D02*
X142686800Y-72074600D01*
X143814800Y-72034600D02*
X142672800Y-72034600D01*
X143814800Y-71994600D02*
X142660800Y-71994600D01*
X143814800Y-71954600D02*
X142649800Y-71954600D01*
X143814800Y-71914600D02*
X142638800Y-71914600D01*
X143814800Y-71874600D02*
X142629800Y-71874600D01*
X143814800Y-71834600D02*
X142620800Y-71834600D01*
X143814800Y-71794600D02*
X142612800Y-71794600D01*
X143814800Y-71754600D02*
X142604800Y-71754600D01*
X143814800Y-71714600D02*
X142598800Y-71714600D01*
X143814800Y-71674600D02*
X142592800Y-71674600D01*
X143814800Y-71634600D02*
X142587800Y-71634600D01*
X143814800Y-71594600D02*
X142583800Y-71594600D01*
X143814800Y-71554600D02*
X142580800Y-71554600D01*
X143814800Y-71514600D02*
X142577800Y-71514600D01*
X143814800Y-71474600D02*
X142575800Y-71474600D01*
X143814800Y-71434600D02*
X142574800Y-71434600D01*
X143814800Y-71394600D02*
X142574800Y-71394600D01*
%TO.C,D1*%
X147044900Y-68401700D02*
X152554900Y-68401700D01*
X147044900Y-65101700D02*
X152554900Y-65101700D01*
X147044900Y-65101700D02*
X147044900Y-68401700D01*
%TO.C,L2*%
X173210000Y-76738748D02*
X173210000Y-77261252D01*
X171790000Y-76738748D02*
X171790000Y-77261252D01*
%TO.C,C4*%
X168484748Y-66311800D02*
X169007252Y-66311800D01*
X168484748Y-64841800D02*
X169007252Y-64841800D01*
D14*
%TO.C,IC4*%
X184858300Y-96166700D02*
X179958300Y-96166700D01*
X184858300Y-92966700D02*
X184858300Y-96166700D01*
X179958300Y-96166700D02*
X179958300Y-92966700D01*
X179958300Y-92966700D02*
X184858300Y-92966700D01*
X179828300Y-98016700D02*
X179828300Y-96516700D01*
D13*
%TO.C,R9*%
X178571300Y-101398936D02*
X178571300Y-101853064D01*
X177101300Y-101398936D02*
X177101300Y-101853064D01*
%TO.C,R4*%
X180860436Y-110235000D02*
X181314564Y-110235000D01*
X180860436Y-108765000D02*
X181314564Y-108765000D01*
%TO.C,C5*%
X163435000Y-76338748D02*
X163435000Y-76861252D01*
X161965000Y-76338748D02*
X161965000Y-76861252D01*
%TO.C,R14*%
X184260964Y-100280100D02*
X183806836Y-100280100D01*
X184260964Y-98810100D02*
X183806836Y-98810100D01*
%TO.C,R17*%
X193293136Y-86616800D02*
X193747264Y-86616800D01*
X193293136Y-85146800D02*
X193747264Y-85146800D01*
%TO.C,U1*%
X154340000Y-70560000D02*
X154010000Y-70320000D01*
X154340000Y-70080000D01*
X154340000Y-70560000D01*
G36*
X154340000Y-70560000D02*
G01*
X154010000Y-70320000D01*
X154340000Y-70080000D01*
X154340000Y-70560000D01*
G37*
X154110000Y-75360000D02*
X152850000Y-75360000D01*
X154110000Y-71600000D02*
X154110000Y-75360000D01*
X147290000Y-75360000D02*
X148550000Y-75360000D01*
X147290000Y-71600000D02*
X147290000Y-75360000D01*
%TO.C,C6*%
X155095551Y-99700801D02*
X154573047Y-99700801D01*
X155095551Y-98230801D02*
X154573047Y-98230801D01*
%TO.C,C2*%
X165537148Y-90093499D02*
X166059652Y-90093499D01*
X165537148Y-88623499D02*
X166059652Y-88623499D01*
%TO.C,C1*%
X164153347Y-99497601D02*
X164675851Y-99497601D01*
X164153347Y-98027601D02*
X164675851Y-98027601D01*
%TO.C,C3*%
X156362600Y-68210348D02*
X156362600Y-68732852D01*
X154892600Y-68210348D02*
X154892600Y-68732852D01*
D14*
%TO.C,IC1*%
X163535399Y-88419801D02*
X163535399Y-90219801D01*
X163485399Y-95169801D02*
X155285399Y-95169801D01*
X163485399Y-90569801D02*
X163485399Y-95169801D01*
X155285399Y-95169801D02*
X155285399Y-90569801D01*
X155285399Y-90569801D02*
X163485399Y-90569801D01*
D13*
%TO.C,U2*%
X171065200Y-68376400D02*
X170735200Y-68136400D01*
X171065200Y-67896400D01*
X171065200Y-68376400D01*
G36*
X171065200Y-68376400D02*
G01*
X170735200Y-68136400D01*
X171065200Y-67896400D01*
X171065200Y-68376400D01*
G37*
X170835200Y-73176400D02*
X169575200Y-73176400D01*
X170835200Y-69416400D02*
X170835200Y-73176400D01*
X164015200Y-73176400D02*
X165275200Y-73176400D01*
X164015200Y-69416400D02*
X164015200Y-73176400D01*
%TO.C,R8*%
X179114900Y-88850164D02*
X179114900Y-88396036D01*
X177644900Y-88850164D02*
X177644900Y-88396036D01*
%TO.C,C11*%
X176727300Y-88514248D02*
X176727300Y-89036752D01*
X175257300Y-88514248D02*
X175257300Y-89036752D01*
%TO.C,R11*%
X180857300Y-104189864D02*
X180857300Y-103735736D01*
X179387300Y-104189864D02*
X179387300Y-103735736D01*
%TO.C,R6*%
X179185000Y-84672936D02*
X179185000Y-85127064D01*
X177715000Y-84672936D02*
X177715000Y-85127064D01*
%TO.C,R3*%
X181322936Y-82735000D02*
X181777064Y-82735000D01*
X181322936Y-81265000D02*
X181777064Y-81265000D01*
%TO.C,L1*%
X157184335Y-78565376D02*
X157706839Y-78565376D01*
X157184335Y-77145376D02*
X157706839Y-77145376D01*
%TO.C,C7*%
X161221087Y-78536724D02*
X161221087Y-79059228D01*
X159751087Y-78536724D02*
X159751087Y-79059228D01*
%TO.C,C18*%
X181299300Y-88361848D02*
X181299300Y-88884352D01*
X179829300Y-88361848D02*
X179829300Y-88884352D01*
%TO.C,R7*%
X178759300Y-108357364D02*
X178759300Y-107903236D01*
X177289300Y-108357364D02*
X177289300Y-107903236D01*
%TO.C,C19*%
X180842100Y-100466752D02*
X180842100Y-99944248D01*
X179372100Y-100466752D02*
X179372100Y-99944248D01*
%TO.C,C16*%
X181335000Y-84638748D02*
X181335000Y-85161252D01*
X179865000Y-84638748D02*
X179865000Y-85161252D01*
%TO.C,C12*%
X178738748Y-112735000D02*
X179261252Y-112735000D01*
X178738748Y-111265000D02*
X179261252Y-111265000D01*
%TO.C,J2*%
X132465900Y-87558200D02*
X132465900Y-113018200D01*
X132465900Y-84958200D02*
X132465900Y-86288200D01*
X131135900Y-84958200D02*
X132465900Y-84958200D01*
X129805900Y-113018200D02*
X132465900Y-113018200D01*
X129805900Y-87558200D02*
X132465900Y-87558200D01*
X129805900Y-87558200D02*
X129805900Y-113018200D01*
%TO.C,D2*%
X141450000Y-70190000D02*
X141450000Y-75700000D01*
X141450000Y-70190000D02*
X138150000Y-70190000D01*
X138150000Y-70190000D02*
X138150000Y-75700000D01*
%TO.C,C17*%
X181231952Y-107595300D02*
X180709448Y-107595300D01*
X181231952Y-106125300D02*
X180709448Y-106125300D01*
%TO.C,R16*%
X189737136Y-86616800D02*
X190191264Y-86616800D01*
X189737136Y-85146800D02*
X190191264Y-85146800D01*
%TO.C,J3*%
X176410000Y-117830000D02*
X175080000Y-117830000D01*
X176410000Y-116500000D02*
X176410000Y-117830000D01*
X173810000Y-117830000D02*
X155970000Y-117830000D01*
X173810000Y-115170000D02*
X173810000Y-117830000D01*
X173810000Y-115170000D02*
X155970000Y-115170000D01*
X155970000Y-115170000D02*
X155970000Y-117830000D01*
%TO.C,C25*%
X192035000Y-90611252D02*
X192035000Y-90088748D01*
X190565000Y-90611252D02*
X190565000Y-90088748D01*
%TO.C,R10*%
X183534500Y-86262436D02*
X183534500Y-86716564D01*
X182064500Y-86262436D02*
X182064500Y-86716564D01*
%TO.C,C8*%
X175138748Y-78735000D02*
X175661252Y-78735000D01*
X175138748Y-77265000D02*
X175661252Y-77265000D01*
%TO.C,R13*%
X185414164Y-90374100D02*
X184960036Y-90374100D01*
X185414164Y-88904100D02*
X184960036Y-88904100D01*
D14*
%TO.C,IC5*%
X193733100Y-97690700D02*
X188833100Y-97690700D01*
X193733100Y-94490700D02*
X193733100Y-97690700D01*
X188833100Y-97690700D02*
X188833100Y-94490700D01*
X188833100Y-94490700D02*
X193733100Y-94490700D01*
X188703100Y-99540700D02*
X188703100Y-98040700D01*
D13*
%TO.C,R1*%
X147985000Y-103527064D02*
X147985000Y-103072936D01*
X146515000Y-103527064D02*
X146515000Y-103072936D01*
%TD*%
M02*
