M48
; DRILL file {KiCad 8.0.0} date 2024-09-30T13:31:29+0200
; FORMAT={-:-/ absolute / metric / decimal}
; #@! TF.CreationDate,2024-09-30T13:31:29+02:00
; #@! TF.GenerationSoftware,Kicad,Pcbnew,8.0.0
; #@! TF.FileFunction,MixedPlating,1,2
FMAT,2
METRIC
; #@! TA.AperFunction,Plated,PTH,ViaDrill
T1C0.300
; #@! TA.AperFunction,Plated,PTH,ComponentDrill
T2C0.600
; #@! TA.AperFunction,Plated,PTH,ComponentDrill
T3C1.000
; #@! TA.AperFunction,Plated,PTH,ComponentDrill
T4C1.500
; #@! TA.AperFunction,NonPlated,NPTH,ComponentDrill
T5C2.000
; #@! TA.AperFunction,NonPlated,NPTH,ComponentDrill
T6C3.000
%
G90
G05
T1
X152.366Y-98.966
X153.9Y-96.4
X155.176Y-71.064
X157.1Y-98.0
X157.618Y-69.419
X160.4Y-94.6
X160.5Y-81.0
X162.2Y-94.7
X163.9Y-78.85
X164.2Y-96.4
X166.6Y-80.4
X166.8Y-99.1
X167.958Y-89.358
X169.25Y-91.0
X171.6Y-65.6
X172.5Y-68.1
X174.2Y-100.7
X176.3Y-100.7
X177.8Y-78.0
X181.3Y-94.6
X182.25Y-93.5
X182.45Y-83.95
X183.0Y-104.5
X183.7Y-95.6
X186.85Y-94.6
X187.3Y-84.1
X187.3Y-90.25
X187.3Y-92.3
X189.6Y-89.4
X194.433Y-83.75
X194.698Y-98.801
T2
X144.655Y-70.645
X144.655Y-72.145
X153.92Y-102.369
X155.42Y-102.369
X157.338Y-111.037
X157.338Y-112.537
X161.0Y-84.75
X161.0Y-86.25
X161.25Y-101.0
X161.25Y-102.5
X161.399Y-68.461
X161.399Y-69.961
X165.0Y-84.5
X165.25Y-102.75
X165.6Y-92.8
X166.5Y-84.5
X166.75Y-102.75
X167.1Y-92.8
X167.498Y-109.132
X167.498Y-110.632
X170.35Y-98.15
X171.85Y-98.15
X173.9Y-93.6
X175.4Y-93.6
T3
X131.136Y-86.288
X131.136Y-88.828
X131.136Y-91.368
X131.136Y-93.908
X131.136Y-96.448
X131.136Y-98.988
X131.136Y-101.528
X131.136Y-104.068
X131.136Y-106.608
X131.136Y-109.148
X131.136Y-111.688
X157.3Y-116.5
X159.84Y-116.5
X162.38Y-116.5
X164.92Y-116.5
X167.46Y-116.5
X170.0Y-116.5
X172.54Y-116.5
X175.08Y-116.5
T4
X194.288Y-103.938
X194.288Y-115.368
X195.05Y-67.26
X195.05Y-78.69
X206.988Y-103.938
X206.988Y-115.368
X207.75Y-67.26
X207.75Y-78.69
T5
X203.788Y-103.938
X203.788Y-115.368
X204.55Y-67.26
X204.55Y-78.69
T6
X197.438Y-106.068
X198.2Y-69.39
T3
G00X129.612Y-74.709
M15
G01X129.612Y-76.709
M16
G05
G00X131.612Y-80.409
M15
G01X133.612Y-80.409
M16
G05
G00X135.612Y-74.709
M15
G01X135.612Y-76.709
M16
G05
M30
