%TF.GenerationSoftware,KiCad,Pcbnew,8.0.0*%
%TF.CreationDate,2024-10-04T19:08:59+02:00*%
%TF.ProjectId,guitar-effect,67756974-6172-42d6-9566-666563742e6b,rev?*%
%TF.SameCoordinates,Original*%
%TF.FileFunction,Soldermask,Bot*%
%TF.FilePolarity,Negative*%
%FSLAX46Y46*%
G04 Gerber Fmt 4.6, Leading zero omitted, Abs format (unit mm)*
G04 Created by KiCad (PCBNEW 8.0.0) date 2024-10-04 19:08:59*
%MOMM*%
%LPD*%
G01*
G04 APERTURE LIST*
G04 Aperture macros list*
%AMRoundRect*
0 Rectangle with rounded corners*
0 $1 Rounding radius*
0 $2 $3 $4 $5 $6 $7 $8 $9 X,Y pos of 4 corners*
0 Add a 4 corners polygon primitive as box body*
4,1,4,$2,$3,$4,$5,$6,$7,$8,$9,$2,$3,0*
0 Add four circle primitives for the rounded corners*
1,1,$1+$1,$2,$3*
1,1,$1+$1,$4,$5*
1,1,$1+$1,$6,$7*
1,1,$1+$1,$8,$9*
0 Add four rect primitives between the rounded corners*
20,1,$1+$1,$2,$3,$4,$5,0*
20,1,$1+$1,$4,$5,$6,$7,0*
20,1,$1+$1,$6,$7,$8,$9,0*
20,1,$1+$1,$8,$9,$2,$3,0*%
G04 Aperture macros list end*
%ADD10R,1.700000X1.700000*%
%ADD11O,1.700000X1.700000*%
%ADD12R,1.200000X1.200000*%
%ADD13C,1.200000*%
%ADD14R,3.500000X3.500000*%
%ADD15RoundRect,0.750000X-0.750000X-1.000000X0.750000X-1.000000X0.750000X1.000000X-0.750000X1.000000X0*%
%ADD16RoundRect,0.875000X-0.875000X-0.875000X0.875000X-0.875000X0.875000X0.875000X-0.875000X0.875000X0*%
%ADD17C,3.000000*%
%ADD18C,2.000000*%
G04 APERTURE END LIST*
D10*
%TO.C,J2*%
X129540000Y-100076000D03*
D11*
X132080000Y-100076000D03*
X129540000Y-102616000D03*
X132080000Y-102616000D03*
X129540000Y-105156000D03*
X132080000Y-105156000D03*
X129540000Y-107696000D03*
X132080000Y-107696000D03*
X129540000Y-110236000D03*
X132080000Y-110236000D03*
X129540000Y-112776000D03*
X132080000Y-112776000D03*
X129540000Y-115316000D03*
X132080000Y-115316000D03*
X129540000Y-117856000D03*
X132080000Y-117856000D03*
X129540000Y-120396000D03*
X132080000Y-120396000D03*
X129540000Y-122936000D03*
X132080000Y-122936000D03*
X129540000Y-125476000D03*
X132080000Y-125476000D03*
%TD*%
D12*
%TO.C,C_Polarized1*%
X159461000Y-116679000D03*
D13*
X160961000Y-116679000D03*
%TD*%
D14*
%TO.C,J1*%
X132971900Y-75128600D03*
D15*
X126971900Y-75128600D03*
D16*
X129971900Y-79828600D03*
%TD*%
D12*
%TO.C,C_Polarized11*%
X180050000Y-107275000D03*
D13*
X181550000Y-107275000D03*
%TD*%
D12*
%TO.C,C_Polarized10*%
X180100000Y-102300000D03*
D13*
X181600000Y-102300000D03*
%TD*%
D12*
%TO.C,C_Polarized6*%
X155091000Y-99568000D03*
D13*
X156591000Y-99568000D03*
%TD*%
D12*
%TO.C,C_Polarized5*%
X166648000Y-103800000D03*
D13*
X168148000Y-103800000D03*
%TD*%
D17*
%TO.C,J5*%
X197862000Y-69497000D03*
D18*
X204212000Y-67367000D03*
X204212000Y-78797000D03*
D17*
X207412000Y-67367000D03*
X207412000Y-78797000D03*
X194712000Y-67367000D03*
X194712000Y-78797000D03*
%TD*%
D12*
%TO.C,C_Polarized2*%
X159811000Y-99949000D03*
D13*
X161311000Y-99949000D03*
%TD*%
D12*
%TO.C,C_Polarized13*%
X209788599Y-108497399D03*
D13*
X209788599Y-109997399D03*
%TD*%
D12*
%TO.C,C_Polarized8*%
X150876000Y-100179000D03*
D13*
X150876000Y-98679000D03*
%TD*%
D12*
%TO.C,C_Polarized12*%
X148844000Y-115609400D03*
D13*
X148844000Y-117109400D03*
%TD*%
D12*
%TO.C,C_Polarized4*%
X148502401Y-80010000D03*
D13*
X150002401Y-80010000D03*
%TD*%
D12*
%TO.C,C_Polarized9*%
X166600000Y-112600000D03*
D13*
X168100000Y-112600000D03*
%TD*%
D10*
%TO.C,J3*%
X185250000Y-101510000D03*
D11*
X185250000Y-104050000D03*
X185250000Y-106590000D03*
X185250000Y-109130000D03*
%TD*%
D12*
%TO.C,C_Polarized7*%
X155194000Y-114929000D03*
D13*
X155194000Y-116429000D03*
%TD*%
D12*
%TO.C,C_Polarized3*%
X142014800Y-70064600D03*
D13*
X142014800Y-71564600D03*
%TD*%
D17*
%TO.C,J4*%
X197709600Y-116283800D03*
D18*
X204059600Y-114153800D03*
X204059600Y-125583800D03*
D17*
X207259600Y-114153800D03*
X207259600Y-125583800D03*
X194559600Y-114153800D03*
X194559600Y-125583800D03*
%TD*%
M02*
