%TF.GenerationSoftware,KiCad,Pcbnew,8.0.0*%
%TF.CreationDate,2024-10-04T19:08:59+02:00*%
%TF.ProjectId,guitar-effect,67756974-6172-42d6-9566-666563742e6b,rev?*%
%TF.SameCoordinates,Original*%
%TF.FileFunction,Copper,L1,Top*%
%TF.FilePolarity,Positive*%
%FSLAX46Y46*%
G04 Gerber Fmt 4.6, Leading zero omitted, Abs format (unit mm)*
G04 Created by KiCad (PCBNEW 8.0.0) date 2024-10-04 19:08:59*
%MOMM*%
%LPD*%
G01*
G04 APERTURE LIST*
G04 Aperture macros list*
%AMRoundRect*
0 Rectangle with rounded corners*
0 $1 Rounding radius*
0 $2 $3 $4 $5 $6 $7 $8 $9 X,Y pos of 4 corners*
0 Add a 4 corners polygon primitive as box body*
4,1,4,$2,$3,$4,$5,$6,$7,$8,$9,$2,$3,0*
0 Add four circle primitives for the rounded corners*
1,1,$1+$1,$2,$3*
1,1,$1+$1,$4,$5*
1,1,$1+$1,$6,$7*
1,1,$1+$1,$8,$9*
0 Add four rect primitives between the rounded corners*
20,1,$1+$1,$2,$3,$4,$5,0*
20,1,$1+$1,$4,$5,$6,$7,0*
20,1,$1+$1,$6,$7,$8,$9,0*
20,1,$1+$1,$8,$9,$2,$3,0*%
G04 Aperture macros list end*
%TA.AperFunction,ComponentPad*%
%ADD10R,1.700000X1.700000*%
%TD*%
%TA.AperFunction,ComponentPad*%
%ADD11O,1.700000X1.700000*%
%TD*%
%TA.AperFunction,SMDPad,CuDef*%
%ADD12RoundRect,0.250000X-1.000000X-0.650000X1.000000X-0.650000X1.000000X0.650000X-1.000000X0.650000X0*%
%TD*%
%TA.AperFunction,SMDPad,CuDef*%
%ADD13RoundRect,0.250000X-0.325000X-0.450000X0.325000X-0.450000X0.325000X0.450000X-0.325000X0.450000X0*%
%TD*%
%TA.AperFunction,SMDPad,CuDef*%
%ADD14RoundRect,0.250000X0.250000X0.475000X-0.250000X0.475000X-0.250000X-0.475000X0.250000X-0.475000X0*%
%TD*%
%TA.AperFunction,SMDPad,CuDef*%
%ADD15RoundRect,0.250000X-0.475000X0.250000X-0.475000X-0.250000X0.475000X-0.250000X0.475000X0.250000X0*%
%TD*%
%TA.AperFunction,ComponentPad*%
%ADD16R,1.200000X1.200000*%
%TD*%
%TA.AperFunction,ComponentPad*%
%ADD17C,1.200000*%
%TD*%
%TA.AperFunction,SMDPad,CuDef*%
%ADD18R,0.650000X1.500000*%
%TD*%
%TA.AperFunction,SMDPad,CuDef*%
%ADD19RoundRect,0.250000X0.450000X-0.262500X0.450000X0.262500X-0.450000X0.262500X-0.450000X-0.262500X0*%
%TD*%
%TA.AperFunction,SMDPad,CuDef*%
%ADD20RoundRect,0.250000X-0.450000X0.262500X-0.450000X-0.262500X0.450000X-0.262500X0.450000X0.262500X0*%
%TD*%
%TA.AperFunction,ComponentPad*%
%ADD21R,3.500000X3.500000*%
%TD*%
%TA.AperFunction,ComponentPad*%
%ADD22RoundRect,0.750000X-0.750000X-1.000000X0.750000X-1.000000X0.750000X1.000000X-0.750000X1.000000X0*%
%TD*%
%TA.AperFunction,ComponentPad*%
%ADD23RoundRect,0.875000X-0.875000X-0.875000X0.875000X-0.875000X0.875000X0.875000X-0.875000X0.875000X0*%
%TD*%
%TA.AperFunction,SMDPad,CuDef*%
%ADD24RoundRect,0.250000X-0.262500X-0.450000X0.262500X-0.450000X0.262500X0.450000X-0.262500X0.450000X0*%
%TD*%
%TA.AperFunction,SMDPad,CuDef*%
%ADD25RoundRect,0.250000X0.262500X0.450000X-0.262500X0.450000X-0.262500X-0.450000X0.262500X-0.450000X0*%
%TD*%
%TA.AperFunction,SMDPad,CuDef*%
%ADD26RoundRect,0.250000X-0.250000X-0.475000X0.250000X-0.475000X0.250000X0.475000X-0.250000X0.475000X0*%
%TD*%
%TA.AperFunction,SMDPad,CuDef*%
%ADD27RoundRect,0.250000X0.650000X-0.325000X0.650000X0.325000X-0.650000X0.325000X-0.650000X-0.325000X0*%
%TD*%
%TA.AperFunction,SMDPad,CuDef*%
%ADD28R,0.450000X1.800000*%
%TD*%
%TA.AperFunction,SMDPad,CuDef*%
%ADD29RoundRect,0.375000X0.625000X0.375000X-0.625000X0.375000X-0.625000X-0.375000X0.625000X-0.375000X0*%
%TD*%
%TA.AperFunction,SMDPad,CuDef*%
%ADD30RoundRect,0.500000X0.500000X1.400000X-0.500000X1.400000X-0.500000X-1.400000X0.500000X-1.400000X0*%
%TD*%
%TA.AperFunction,SMDPad,CuDef*%
%ADD31RoundRect,0.375000X-0.375000X0.625000X-0.375000X-0.625000X0.375000X-0.625000X0.375000X0.625000X0*%
%TD*%
%TA.AperFunction,SMDPad,CuDef*%
%ADD32RoundRect,0.500000X-1.400000X0.500000X-1.400000X-0.500000X1.400000X-0.500000X1.400000X0.500000X0*%
%TD*%
%TA.AperFunction,SMDPad,CuDef*%
%ADD33RoundRect,0.250000X-0.325000X-0.650000X0.325000X-0.650000X0.325000X0.650000X-0.325000X0.650000X0*%
%TD*%
%TA.AperFunction,SMDPad,CuDef*%
%ADD34RoundRect,0.250000X0.475000X-0.250000X0.475000X0.250000X-0.475000X0.250000X-0.475000X-0.250000X0*%
%TD*%
%TA.AperFunction,SMDPad,CuDef*%
%ADD35RoundRect,0.250000X-0.650000X0.325000X-0.650000X-0.325000X0.650000X-0.325000X0.650000X0.325000X0*%
%TD*%
%TA.AperFunction,ComponentPad*%
%ADD36C,3.000000*%
%TD*%
%TA.AperFunction,SMDPad,CuDef*%
%ADD37RoundRect,0.250000X-0.650000X1.000000X-0.650000X-1.000000X0.650000X-1.000000X0.650000X1.000000X0*%
%TD*%
%TA.AperFunction,SMDPad,CuDef*%
%ADD38RoundRect,0.250000X0.325000X0.650000X-0.325000X0.650000X-0.325000X-0.650000X0.325000X-0.650000X0*%
%TD*%
%TA.AperFunction,SMDPad,CuDef*%
%ADD39R,1.500000X0.650000*%
%TD*%
%TA.AperFunction,ViaPad*%
%ADD40C,0.600000*%
%TD*%
%TA.AperFunction,Conductor*%
%ADD41C,0.500000*%
%TD*%
%TA.AperFunction,Conductor*%
%ADD42C,0.300000*%
%TD*%
G04 APERTURE END LIST*
D10*
%TO.P,J2,1,Pin_1*%
%TO.N,AGND*%
X129540000Y-100076000D03*
D11*
%TO.P,J2,2,Pin_2*%
%TO.N,DATA_OUT*%
X132080000Y-100076000D03*
%TO.P,J2,3,Pin_3*%
%TO.N,AGND*%
X129540000Y-102616000D03*
%TO.P,J2,4,Pin_4*%
%TO.N,BIT*%
X132080000Y-102616000D03*
%TO.P,J2,5,Pin_5*%
%TO.N,AGND*%
X129540000Y-105156000D03*
%TO.P,J2,6,Pin_6*%
%TO.N,LRCLK*%
X132080000Y-105156000D03*
%TO.P,J2,7,Pin_7*%
%TO.N,AGND*%
X129540000Y-107696000D03*
%TO.P,J2,8,Pin_8*%
%TO.N,SYSCLK*%
X132080000Y-107696000D03*
%TO.P,J2,9,Pin_9*%
%TO.N,AGND*%
X129540000Y-110236000D03*
%TO.P,J2,10,Pin_10*%
%TO.N,ML{slash}PDDA*%
X132080000Y-110236000D03*
%TO.P,J2,11,Pin_11*%
%TO.N,AGND*%
X129540000Y-112776000D03*
%TO.P,J2,12,Pin_12*%
%TO.N,RST{slash}PDAD*%
X132080000Y-112776000D03*
%TO.P,J2,13,Pin_13*%
%TO.N,AGND*%
X129540000Y-115316000D03*
%TO.P,J2,14,Pin_14*%
%TO.N,MC{slash}DEM0*%
X132080000Y-115316000D03*
%TO.P,J2,15,Pin_15*%
%TO.N,AGND*%
X129540000Y-117856000D03*
%TO.P,J2,16,Pin_16*%
%TO.N,MC{slash}DEM1*%
X132080000Y-117856000D03*
%TO.P,J2,17,Pin_17*%
%TO.N,AGND*%
X129540000Y-120396000D03*
%TO.P,J2,18,Pin_18*%
%TO.N,DIN*%
X132080000Y-120396000D03*
%TO.P,J2,19,Pin_19*%
%TO.N,AGND*%
X129540000Y-122936000D03*
%TO.P,J2,20,Pin_20*%
%TO.N,ZFLG*%
X132080000Y-122936000D03*
%TO.P,J2,21,Pin_21*%
%TO.N,AGND*%
X129540000Y-125476000D03*
%TO.P,J2,22,Pin_22*%
X132080000Y-125476000D03*
%TD*%
D12*
%TO.P,D1,1,K*%
%TO.N,Net-(D1-K)*%
X145914900Y-66171700D03*
%TO.P,D1,2,A*%
%TO.N,VCC*%
X149914900Y-66171700D03*
%TD*%
D13*
%TO.P,L2,1,1*%
%TO.N,VDD*%
X157292000Y-83185000D03*
%TO.P,L2,2,2*%
%TO.N,AVDD*%
X159342000Y-83185000D03*
%TD*%
D14*
%TO.P,C20,1*%
%TO.N,VGND*%
X194082400Y-103461400D03*
%TO.P,C20,2*%
%TO.N,AGND*%
X192182400Y-103461400D03*
%TD*%
D15*
%TO.P,C4,1*%
%TO.N,VDD*%
X147630200Y-83368000D03*
%TO.P,C4,2*%
%TO.N,AGND*%
X147630200Y-85268000D03*
%TD*%
D16*
%TO.P,C_Polarized1,1*%
%TO.N,AVDD*%
X159461000Y-116679000D03*
D17*
%TO.P,C_Polarized1,2*%
%TO.N,AGND*%
X160961000Y-116679000D03*
%TD*%
D18*
%TO.P,IC4,1,VOUT_A*%
%TO.N,RCH_IN*%
X204529100Y-93957700D03*
%TO.P,IC4,2,VINA-*%
%TO.N,Net-(IC4-VINA-)*%
X203259100Y-93957700D03*
%TO.P,IC4,3,VINA+*%
%TO.N,Net-(IC4-VINA+)*%
X201989100Y-93957700D03*
%TO.P,IC4,4,VSS*%
%TO.N,AGND*%
X200719100Y-93957700D03*
%TO.P,IC4,5,VINB+*%
%TO.N,Net-(IC4-VINB+)*%
X200719100Y-99357700D03*
%TO.P,IC4,6,VIN_B-*%
%TO.N,Net-(IC4-VIN_B-)*%
X201989100Y-99357700D03*
%TO.P,IC4,7,VOUT_B*%
%TO.N,Net-(IC4-VOUT_B)*%
X203259100Y-99357700D03*
%TO.P,IC4,8,VDD*%
%TO.N,AVCC*%
X204529100Y-99357700D03*
%TD*%
D19*
%TO.P,R9,1*%
%TO.N,RCH_IN*%
X207196100Y-90510900D03*
%TO.P,R9,2*%
%TO.N,Net-(C17-Pad2)*%
X207196100Y-88685900D03*
%TD*%
D20*
%TO.P,R4,1*%
%TO.N,Net-(C12-Pad1)*%
X199412700Y-86525100D03*
%TO.P,R4,2*%
%TO.N,VGND*%
X199412700Y-88350100D03*
%TD*%
D21*
%TO.P,J1,1*%
%TO.N,Net-(D2-A)*%
X132971900Y-75128600D03*
D22*
%TO.P,J1,2*%
%TO.N,AGND*%
X126971900Y-75128600D03*
D23*
%TO.P,J1,3*%
X129971900Y-79828600D03*
%TD*%
D24*
%TO.P,R14,1*%
%TO.N,VGND*%
X200086000Y-91679300D03*
%TO.P,R14,2*%
%TO.N,Net-(IC4-VINA+)*%
X201911000Y-91679300D03*
%TD*%
D25*
%TO.P,R17,1*%
%TO.N,/VMID*%
X195869900Y-105919400D03*
%TO.P,R17,2*%
%TO.N,AGND*%
X194044900Y-105919400D03*
%TD*%
D16*
%TO.P,C_Polarized11,1*%
%TO.N,Net-(IC1-VOUTL)*%
X180050000Y-107275000D03*
D17*
%TO.P,C_Polarized11,2*%
%TO.N,LCH_OUT*%
X181550000Y-107275000D03*
%TD*%
D14*
%TO.P,C6,1*%
%TO.N,VDD*%
X149995299Y-112894801D03*
%TO.P,C6,2*%
%TO.N,AGND*%
X148095299Y-112894801D03*
%TD*%
D26*
%TO.P,C2,1*%
%TO.N,AVDD*%
X159059400Y-103287499D03*
%TO.P,C2,2*%
%TO.N,AGND*%
X160959400Y-103287499D03*
%TD*%
%TO.P,C1,1*%
%TO.N,AVDD*%
X157675599Y-112691601D03*
%TO.P,C1,2*%
%TO.N,AGND*%
X159575599Y-112691601D03*
%TD*%
D15*
%TO.P,C3,1*%
%TO.N,VCC*%
X152987600Y-66941600D03*
%TO.P,C3,2*%
%TO.N,AGND*%
X152987600Y-68841600D03*
%TD*%
D27*
%TO.P,C9,1*%
%TO.N,AVCC*%
X206848400Y-98078400D03*
%TO.P,C9,2*%
%TO.N,AGND*%
X206848400Y-95128400D03*
%TD*%
D28*
%TO.P,IC1,1,VCC1_1*%
%TO.N,AVDD*%
X157171399Y-103248801D03*
%TO.P,IC1,2,VCC1_2*%
X156521399Y-103248801D03*
%TO.P,IC1,3,VINR*%
%TO.N,Net-(IC1-VINR)*%
X155871399Y-103248801D03*
%TO.P,IC1,4,VREF1*%
%TO.N,Net-(IC1-VREF1)*%
X155221399Y-103248801D03*
%TO.P,IC1,5,VREF2*%
%TO.N,Net-(IC1-VREF2)*%
X154571399Y-103248801D03*
%TO.P,IC1,6,VINL*%
%TO.N,Net-(IC1-VINL)*%
X153921399Y-103248801D03*
%TO.P,IC1,7,~{RST}*%
%TO.N,RST{slash}PDAD*%
X153271399Y-103248801D03*
%TO.P,IC1,8,ML*%
%TO.N,ML{slash}PDDA*%
X152621399Y-103248801D03*
%TO.P,IC1,9,SYSCLK*%
%TO.N,SYSCLK*%
X151971399Y-103248801D03*
%TO.P,IC1,10,LRCIN*%
%TO.N,LRCLK*%
X151321399Y-103248801D03*
%TO.P,IC1,11,BCKIN*%
%TO.N,BIT*%
X150671399Y-103248801D03*
%TO.P,IC1,12,DOUT*%
%TO.N,DATA_OUT*%
X150021399Y-103248801D03*
%TO.P,IC1,13,DGND*%
%TO.N,AGND*%
X150021399Y-110348801D03*
%TO.P,IC1,14,VDD*%
%TO.N,VDD*%
X150671399Y-110348801D03*
%TO.P,IC1,15,DIN*%
%TO.N,DIN*%
X151321399Y-110348801D03*
%TO.P,IC1,16,~{ZFLG}*%
%TO.N,ZFLG*%
X151971399Y-110348801D03*
%TO.P,IC1,17,MD*%
%TO.N,MC{slash}DEM1*%
X152621399Y-110348801D03*
%TO.P,IC1,18,MC*%
%TO.N,MC{slash}DEM0*%
X153271399Y-110348801D03*
%TO.P,IC1,19,VOUTL*%
%TO.N,Net-(IC1-VOUTL)*%
X153921399Y-110348801D03*
%TO.P,IC1,20,VOUTR*%
%TO.N,Net-(IC1-VOUTR)*%
X154571399Y-110348801D03*
%TO.P,IC1,21,VCOM*%
%TO.N,Net-(IC1-VCOM)*%
X155221399Y-110348801D03*
%TO.P,IC1,22,AGND2*%
%TO.N,AGND*%
X155871399Y-110348801D03*
%TO.P,IC1,23,AGND1*%
X156521399Y-110348801D03*
%TO.P,IC1,24,VCC2*%
%TO.N,AVDD*%
X157171399Y-110348801D03*
%TD*%
D16*
%TO.P,C_Polarized10,1*%
%TO.N,Net-(IC1-VINL)*%
X180100000Y-102300000D03*
D17*
%TO.P,C_Polarized10,2*%
%TO.N,LCH_IN*%
X181600000Y-102300000D03*
%TD*%
D29*
%TO.P,U2,1,GND*%
%TO.N,AGND*%
X145090600Y-85297200D03*
%TO.P,U2,2,VO*%
%TO.N,VDD*%
X145090600Y-82997200D03*
D30*
X138790600Y-82997200D03*
D29*
%TO.P,U2,3,VI*%
%TO.N,VCC*%
X145090600Y-80697200D03*
%TD*%
D20*
%TO.P,R8,1*%
%TO.N,Net-(IC4-VOUT_B)*%
X206652500Y-101688800D03*
%TO.P,R8,2*%
%TO.N,Net-(C16-Pad2)*%
X206652500Y-103513800D03*
%TD*%
D14*
%TO.P,C11,1*%
%TO.N,Net-(C11-Pad1)*%
X198714400Y-110286800D03*
%TO.P,C11,2*%
%TO.N,RCH_OUT*%
X196814400Y-110286800D03*
%TD*%
D20*
%TO.P,R11,1*%
%TO.N,Net-(C17-Pad2)*%
X204910100Y-86349100D03*
%TO.P,R11,2*%
%TO.N,Net-(IC4-VINA-)*%
X204910100Y-88174100D03*
%TD*%
D19*
%TO.P,R6,1*%
%TO.N,Net-(C11-Pad1)*%
X206582400Y-107236900D03*
%TO.P,R6,2*%
%TO.N,Net-(C16-Pad2)*%
X206582400Y-105411900D03*
%TD*%
D25*
%TO.P,R3,1*%
%TO.N,Net-(C11-Pad1)*%
X204394900Y-109224400D03*
%TO.P,R3,2*%
%TO.N,VGND*%
X202569900Y-109224400D03*
%TD*%
D31*
%TO.P,U3,1,GND*%
%TO.N,AGND*%
X150496500Y-69456500D03*
%TO.P,U3,2,VO*%
%TO.N,VCC*%
X148196500Y-69456500D03*
D32*
X148196500Y-75756500D03*
D31*
%TO.P,U3,3,VI*%
%TO.N,Net-(D1-K)*%
X145896500Y-69456500D03*
%TD*%
D16*
%TO.P,C_Polarized6,1*%
%TO.N,Net-(IC1-VREF1)*%
X155091000Y-99568000D03*
D17*
%TO.P,C_Polarized6,2*%
%TO.N,AGND*%
X156591000Y-99568000D03*
%TD*%
D13*
%TO.P,L1,1,1*%
%TO.N,VCC*%
X158429787Y-76408176D03*
%TO.P,L1,2,2*%
%TO.N,AVCC*%
X160479787Y-76408176D03*
%TD*%
D33*
%TO.P,C23,1*%
%TO.N,VDD*%
X138332000Y-89408000D03*
%TO.P,C23,2*%
%TO.N,AGND*%
X141282000Y-89408000D03*
%TD*%
D15*
%TO.P,C7,1*%
%TO.N,AVCC*%
X162495287Y-76400776D03*
%TO.P,C7,2*%
%TO.N,AGND*%
X162495287Y-78300776D03*
%TD*%
D34*
%TO.P,C18,1*%
%TO.N,Net-(IC4-VIN_B-)*%
X204468100Y-103551300D03*
%TO.P,C18,2*%
%TO.N,Net-(IC4-VOUT_B)*%
X204468100Y-101651300D03*
%TD*%
D24*
%TO.P,R7,1*%
%TO.N,Net-(C12-Pad1)*%
X199869900Y-84374400D03*
%TO.P,R7,2*%
%TO.N,Net-(C17-Pad2)*%
X201694900Y-84374400D03*
%TD*%
D15*
%TO.P,C19,1*%
%TO.N,Net-(IC4-VINA-)*%
X204925300Y-90068900D03*
%TO.P,C19,2*%
%TO.N,RCH_IN*%
X204925300Y-91968900D03*
%TD*%
D16*
%TO.P,C_Polarized5,1*%
%TO.N,Net-(IC1-VINR)*%
X166648000Y-103800000D03*
D17*
%TO.P,C_Polarized5,2*%
%TO.N,RCH_IN*%
X168148000Y-103800000D03*
%TD*%
D35*
%TO.P,C13,1*%
%TO.N,VDD*%
X152146000Y-83156000D03*
%TO.P,C13,2*%
%TO.N,AGND*%
X152146000Y-86106000D03*
%TD*%
D36*
%TO.P,J5,S*%
%TO.N,GUITAR_IN*%
X207412000Y-67367000D03*
%TO.P,J5,SN*%
X207412000Y-78797000D03*
%TO.P,J5,T*%
%TO.N,AGND*%
X194712000Y-67367000D03*
%TO.P,J5,TN*%
X194712000Y-78797000D03*
%TD*%
D34*
%TO.P,C16,1*%
%TO.N,AGND*%
X204432400Y-107274400D03*
%TO.P,C16,2*%
%TO.N,Net-(C16-Pad2)*%
X204432400Y-105374400D03*
%TD*%
%TO.P,C12,1*%
%TO.N,Net-(C12-Pad1)*%
X197764400Y-84770000D03*
%TO.P,C12,2*%
%TO.N,GUITAR_IN*%
X197764400Y-82870000D03*
%TD*%
D16*
%TO.P,C_Polarized2,1*%
%TO.N,AVDD*%
X159811000Y-99949000D03*
D17*
%TO.P,C_Polarized2,2*%
%TO.N,AGND*%
X161311000Y-99949000D03*
%TD*%
D16*
%TO.P,C_Polarized13,1*%
%TO.N,Net-(IC4-VOUT_B)*%
X209788599Y-108497399D03*
D17*
%TO.P,C_Polarized13,2*%
%TO.N,GUITAR_OUT*%
X209788599Y-109997399D03*
%TD*%
D37*
%TO.P,D2,1,K*%
%TO.N,Net-(D1-K)*%
X137160000Y-71120000D03*
%TO.P,D2,2,A*%
%TO.N,Net-(D2-A)*%
X137160000Y-75120000D03*
%TD*%
D34*
%TO.P,C17,1*%
%TO.N,AGND*%
X202052400Y-88270800D03*
%TO.P,C17,2*%
%TO.N,Net-(C17-Pad2)*%
X202052400Y-86370800D03*
%TD*%
D38*
%TO.P,C10,1*%
%TO.N,AVCC*%
X194607400Y-95333400D03*
%TO.P,C10,2*%
%TO.N,AGND*%
X191657400Y-95333400D03*
%TD*%
D16*
%TO.P,C_Polarized8,1*%
%TO.N,Net-(IC1-VREF2)*%
X150876000Y-100179000D03*
D17*
%TO.P,C_Polarized8,2*%
%TO.N,AGND*%
X150876000Y-98679000D03*
%TD*%
D16*
%TO.P,C_Polarized12,1*%
%TO.N,VDD*%
X148844000Y-115609400D03*
D17*
%TO.P,C_Polarized12,2*%
%TO.N,AGND*%
X148844000Y-117109400D03*
%TD*%
D16*
%TO.P,C_Polarized4,1*%
%TO.N,VCC*%
X148502401Y-80010000D03*
D17*
%TO.P,C_Polarized4,2*%
%TO.N,AGND*%
X150002401Y-80010000D03*
%TD*%
D25*
%TO.P,R16,1*%
%TO.N,AVCC*%
X197719900Y-108144400D03*
%TO.P,R16,2*%
%TO.N,/VMID*%
X195894900Y-108144400D03*
%TD*%
D33*
%TO.P,C24,1*%
%TO.N,VDD*%
X138332000Y-91948000D03*
%TO.P,C24,2*%
%TO.N,AGND*%
X141282000Y-91948000D03*
%TD*%
D16*
%TO.P,C_Polarized9,1*%
%TO.N,Net-(IC1-VOUTR)*%
X166600000Y-112600000D03*
D17*
%TO.P,C_Polarized9,2*%
%TO.N,RCH_OUT*%
X168100000Y-112600000D03*
%TD*%
D35*
%TO.P,C22,1*%
%TO.N,VCC*%
X153535000Y-76345000D03*
%TO.P,C22,2*%
%TO.N,AGND*%
X153535000Y-79295000D03*
%TD*%
%TO.P,C21,1*%
%TO.N,VCC*%
X156035000Y-76345000D03*
%TO.P,C21,2*%
%TO.N,AGND*%
X156035000Y-79295000D03*
%TD*%
D10*
%TO.P,J3,1,Pin_1*%
%TO.N,LCH_IN*%
X185250000Y-101510000D03*
D11*
%TO.P,J3,2,Pin_2*%
%TO.N,unconnected-(J3-Pin_2-Pad2)*%
X185250000Y-104050000D03*
%TO.P,J3,3,Pin_3*%
%TO.N,LCH_OUT*%
X185250000Y-106590000D03*
%TO.P,J3,4,Pin_4*%
%TO.N,AGND*%
X185250000Y-109130000D03*
%TD*%
D16*
%TO.P,C_Polarized7,1*%
%TO.N,Net-(IC1-VCOM)*%
X155194000Y-114929000D03*
D17*
%TO.P,C_Polarized7,2*%
%TO.N,AGND*%
X155194000Y-116429000D03*
%TD*%
D19*
%TO.P,R10,1*%
%TO.N,Net-(C16-Pad2)*%
X202232900Y-105647400D03*
%TO.P,R10,2*%
%TO.N,Net-(IC4-VIN_B-)*%
X202232900Y-103822400D03*
%TD*%
D26*
%TO.P,C8,1*%
%TO.N,AVDD*%
X161168000Y-83185000D03*
%TO.P,C8,2*%
%TO.N,AGND*%
X163068000Y-83185000D03*
%TD*%
D16*
%TO.P,C_Polarized3,1*%
%TO.N,Net-(D1-K)*%
X142014800Y-70064600D03*
D17*
%TO.P,C_Polarized3,2*%
%TO.N,AGND*%
X142014800Y-71564600D03*
%TD*%
D24*
%TO.P,R13,1*%
%TO.N,VGND*%
X198932800Y-101585300D03*
%TO.P,R13,2*%
%TO.N,Net-(IC4-VINB+)*%
X200757800Y-101585300D03*
%TD*%
D39*
%TO.P,IC5,1,VOUT_A*%
%TO.N,Net-(IC5-VINA-)*%
X190432400Y-97519400D03*
%TO.P,IC5,2,VINA-*%
X190432400Y-98789400D03*
%TO.P,IC5,3,VINA+*%
%TO.N,AGND*%
X190432400Y-100059400D03*
%TO.P,IC5,4,VSS*%
X190432400Y-101329400D03*
%TO.P,IC5,5,VINB+*%
%TO.N,/VMID*%
X195832400Y-101329400D03*
%TO.P,IC5,6,VIN_B-*%
%TO.N,VGND*%
X195832400Y-100059400D03*
%TO.P,IC5,7,VOUT_B*%
X195832400Y-98789400D03*
%TO.P,IC5,8,VDD*%
%TO.N,AVCC*%
X195832400Y-97519400D03*
%TD*%
D19*
%TO.P,R1,1*%
%TO.N,ZFLG*%
X144706000Y-117461500D03*
%TO.P,R1,2*%
%TO.N,VDD*%
X144706000Y-115636500D03*
%TD*%
D36*
%TO.P,J4,S*%
%TO.N,GUITAR_OUT*%
X207259600Y-114153800D03*
%TO.P,J4,SN*%
X207259600Y-125583800D03*
%TO.P,J4,T*%
%TO.N,AGND*%
X194559600Y-114153800D03*
%TO.P,J4,TN*%
X194559600Y-125583800D03*
%TD*%
D35*
%TO.P,C5,1*%
%TO.N,VDD*%
X154686000Y-83156000D03*
%TO.P,C5,2*%
%TO.N,AGND*%
X154686000Y-86106000D03*
%TD*%
D40*
%TO.N,VDD*%
X138430000Y-94234000D03*
%TO.N,AVDD*%
X158125000Y-91625000D03*
%TO.N,AGND*%
X153535000Y-80920000D03*
X196088000Y-88392000D03*
X160528000Y-129032000D03*
X185928000Y-82296000D03*
X184404000Y-120904000D03*
X211328000Y-118364000D03*
X160528000Y-89408000D03*
X156464000Y-129032000D03*
X148111000Y-110329000D03*
X182880000Y-99060000D03*
X211328000Y-115824000D03*
X211328000Y-77724000D03*
X211328000Y-91948000D03*
X203200000Y-129032000D03*
X196088000Y-93472000D03*
X197104000Y-129032000D03*
X170688000Y-72644000D03*
X164592000Y-72644000D03*
X208686400Y-95148400D03*
X154432000Y-118872000D03*
X184404000Y-80264000D03*
X162560000Y-109220000D03*
X184912000Y-93472000D03*
X211328000Y-97536000D03*
X182880000Y-115824000D03*
X166624000Y-72644000D03*
X156350000Y-112175000D03*
X145107000Y-88072000D03*
X195072000Y-84836000D03*
X160020000Y-80264000D03*
X161036000Y-91440000D03*
X211328000Y-110744000D03*
X211328000Y-94488000D03*
X211328000Y-66040000D03*
X183388000Y-95504000D03*
X211328000Y-88900000D03*
X176784000Y-129032000D03*
X211328000Y-103124000D03*
X147607000Y-87172000D03*
X146576801Y-112894801D03*
X162169499Y-103287499D03*
X207264000Y-129032000D03*
X192024000Y-64516000D03*
X182372000Y-67056000D03*
X174752000Y-129032000D03*
X205232000Y-129032000D03*
X154432000Y-124968000D03*
X211328000Y-85852000D03*
X168656000Y-129032000D03*
X173736000Y-72136000D03*
X209296000Y-127508000D03*
X162560000Y-72644000D03*
X162509200Y-79552800D03*
X158496000Y-129032000D03*
X184404000Y-73152000D03*
X191008000Y-129032000D03*
X186944000Y-92964000D03*
X154432000Y-120904000D03*
X166624000Y-129032000D03*
X157988000Y-92964000D03*
X211328000Y-68072000D03*
X201175000Y-96950000D03*
X199644000Y-64516000D03*
X193040000Y-129032000D03*
X189484000Y-92456000D03*
X178816000Y-111252000D03*
X178816000Y-129032000D03*
X201168000Y-129032000D03*
X164084000Y-111252000D03*
X164800000Y-83200000D03*
X184404000Y-70104000D03*
X159004000Y-110236000D03*
X164592000Y-129032000D03*
X190084400Y-95333400D03*
X196088000Y-89916000D03*
X180848000Y-129032000D03*
X184404000Y-65532000D03*
X202582400Y-107274400D03*
X160528000Y-109220000D03*
X184404000Y-127000000D03*
X170688000Y-129032000D03*
X193040000Y-90932000D03*
X179324000Y-69088000D03*
X178308000Y-104648000D03*
X184404000Y-124968000D03*
X194564000Y-83312000D03*
X201676000Y-64516000D03*
X149987000Y-86106000D03*
X211328000Y-75692000D03*
X195072000Y-129032000D03*
X183388000Y-93980000D03*
X154432000Y-129032000D03*
X192024000Y-83312000D03*
X182880000Y-129032000D03*
X211328000Y-105664000D03*
X188432400Y-100074400D03*
X160528000Y-86868000D03*
X211328000Y-125984000D03*
X180848000Y-68072000D03*
X211328000Y-108204000D03*
X184404000Y-67564000D03*
X211328000Y-83312000D03*
X162560000Y-129032000D03*
X186944000Y-129032000D03*
X152536000Y-70484000D03*
X154432000Y-127000000D03*
X188976000Y-83312000D03*
X184912000Y-129032000D03*
X177292000Y-109220000D03*
X184404000Y-118872000D03*
X155956000Y-94488000D03*
X196088000Y-86360000D03*
X160528000Y-85344000D03*
X180848000Y-113792000D03*
X188976000Y-129032000D03*
X199136000Y-129032000D03*
X192024000Y-92456000D03*
X209804000Y-64516000D03*
X211328000Y-120904000D03*
X183896000Y-117348000D03*
X194056000Y-64516000D03*
X172720000Y-129032000D03*
X202200000Y-89525000D03*
X211328000Y-100584000D03*
X184404000Y-123444000D03*
X154977589Y-68838997D03*
X211328000Y-123444000D03*
X192024000Y-106883200D03*
X197104000Y-64516000D03*
X211328000Y-73152000D03*
X142777000Y-91948000D03*
X177800000Y-70104000D03*
X154940000Y-95504000D03*
X185420000Y-65024000D03*
X160020000Y-78740000D03*
X154432000Y-122936000D03*
X184404000Y-77724000D03*
X211328000Y-113284000D03*
X205740000Y-64516000D03*
X189992000Y-64516000D03*
X211328000Y-80264000D03*
X187960000Y-64516000D03*
X211328000Y-70612000D03*
X175768000Y-71120000D03*
X161544000Y-73660000D03*
%TO.N,AVCC*%
X197732400Y-100974400D03*
X209800000Y-97300000D03*
X197800000Y-92000000D03*
X197800000Y-98856800D03*
%TO.N,RCH_IN*%
X187604400Y-97739200D03*
X203911200Y-95758000D03*
%TO.N,Net-(IC4-VOUT_B)*%
X203875000Y-97275000D03*
%TD*%
D41*
%TO.N,Net-(D1-K)*%
X137804600Y-70064600D02*
X142014800Y-70064600D01*
X137160000Y-71120000D02*
X137160000Y-70709200D01*
X145914900Y-69565100D02*
X145760000Y-69720000D01*
X145914900Y-66171700D02*
X145914900Y-69565100D01*
X145415400Y-70064600D02*
X145760000Y-69720000D01*
X137160000Y-70709200D02*
X137804600Y-70064600D01*
X142014800Y-70064600D02*
X145415400Y-70064600D01*
%TO.N,VCC*%
X148502401Y-76462401D02*
X148060000Y-76020000D01*
X147815201Y-80697200D02*
X148502401Y-80010000D01*
X156035000Y-76345000D02*
X153535000Y-76345000D01*
X145090600Y-80697200D02*
X147815201Y-80697200D01*
X148060000Y-76020000D02*
X153210000Y-76020000D01*
X153210000Y-76020000D02*
X153535000Y-76345000D01*
X148502401Y-80010000D02*
X148502401Y-76462401D01*
X156035000Y-76345000D02*
X158366611Y-76345000D01*
X158366611Y-76345000D02*
X158429787Y-76408176D01*
%TO.N,VDD*%
X145461400Y-83368000D02*
X145090600Y-82997200D01*
X152146000Y-83156000D02*
X154686000Y-83156000D01*
D42*
X144706000Y-115636500D02*
X144706000Y-111017106D01*
X148844000Y-115609400D02*
X149312600Y-115609400D01*
X138430000Y-94234000D02*
X138430000Y-92046000D01*
D41*
X151934000Y-83368000D02*
X152146000Y-83156000D01*
X138332000Y-91948000D02*
X138332000Y-89408000D01*
X157263000Y-83156000D02*
X157292000Y-83185000D01*
X138332000Y-83455800D02*
X138790600Y-82997200D01*
D42*
X149995299Y-114926701D02*
X149995299Y-112894801D01*
X150671399Y-112218701D02*
X149995299Y-112894801D01*
X146944106Y-108779000D02*
X150305399Y-108779000D01*
X150305399Y-108779000D02*
X150671399Y-109145000D01*
X149312600Y-115609400D02*
X149995299Y-114926701D01*
X144706000Y-111017106D02*
X146944106Y-108779000D01*
D41*
X147630200Y-83368000D02*
X151934000Y-83368000D01*
D42*
X150671399Y-109145000D02*
X150671399Y-110348801D01*
D41*
X152146000Y-83156000D02*
X157263000Y-83156000D01*
D42*
X138430000Y-92046000D02*
X138332000Y-91948000D01*
D41*
X138332000Y-89408000D02*
X138332000Y-83455800D01*
X147630200Y-83368000D02*
X145461400Y-83368000D01*
D42*
X150671399Y-110348801D02*
X150671399Y-112218701D01*
%TO.N,AVDD*%
X157675599Y-113479599D02*
X159461000Y-115265000D01*
X157171399Y-103248801D02*
X156521399Y-103248801D01*
X157171399Y-110348801D02*
X157171399Y-112187401D01*
X159034400Y-91625000D02*
X159059400Y-91650000D01*
D41*
X159342000Y-83185000D02*
X161168000Y-83185000D01*
D42*
X157675599Y-112691601D02*
X157675599Y-113479599D01*
X159020702Y-103248801D02*
X159059400Y-103287499D01*
X159461000Y-115265000D02*
X159461000Y-116679000D01*
X159059400Y-83467600D02*
X159342000Y-83185000D01*
X159059400Y-91650000D02*
X159059400Y-83467600D01*
X159811000Y-99949000D02*
X159059400Y-99949000D01*
X157171399Y-112187401D02*
X157675599Y-112691601D01*
X159059400Y-99949000D02*
X159059400Y-91650000D01*
X158125000Y-91625000D02*
X159034400Y-91625000D01*
X159059400Y-103287499D02*
X159059400Y-99949000D01*
X157171399Y-103248801D02*
X159020702Y-103248801D01*
D41*
%TO.N,AGND*%
X153535000Y-79295000D02*
X153535000Y-80920000D01*
X145090600Y-85297200D02*
X145090600Y-88055600D01*
X154974986Y-68841600D02*
X154977589Y-68838997D01*
X147630200Y-85268000D02*
X147630200Y-87148800D01*
D42*
X155871399Y-111696399D02*
X155871399Y-110348801D01*
D41*
X190432400Y-101329400D02*
X191508400Y-101329400D01*
X191657400Y-95333400D02*
X190084400Y-95333400D01*
X160961000Y-114077002D02*
X159575599Y-112691601D01*
X147630200Y-87148800D02*
X147607000Y-87172000D01*
X164785000Y-83185000D02*
X164800000Y-83200000D01*
X152146000Y-86106000D02*
X154686000Y-86106000D01*
X202582400Y-107274400D02*
X204432400Y-107274400D01*
X163068000Y-83185000D02*
X164785000Y-83185000D01*
X156035000Y-79295000D02*
X153535000Y-79295000D01*
X200719100Y-96494100D02*
X201175000Y-96950000D01*
X206848400Y-95128400D02*
X208666400Y-95128400D01*
X147630200Y-85268000D02*
X145119800Y-85268000D01*
X152146000Y-86106000D02*
X149987000Y-86106000D01*
X192987800Y-105919400D02*
X192024000Y-106883200D01*
X194044900Y-105919400D02*
X192987800Y-105919400D01*
X145090600Y-88055600D02*
X145107000Y-88072000D01*
D42*
X156350000Y-112175000D02*
X156350000Y-110520200D01*
D41*
X162169499Y-103287499D02*
X160959400Y-103287499D01*
X141282000Y-91948000D02*
X142777000Y-91948000D01*
X160961000Y-116679000D02*
X160961000Y-114077002D01*
D42*
X150021399Y-110348801D02*
X148130801Y-110348801D01*
X148130801Y-110348801D02*
X148111000Y-110329000D01*
X146576801Y-112894801D02*
X148095299Y-112894801D01*
D41*
X192182400Y-102003400D02*
X192182400Y-103461400D01*
X152987600Y-68841600D02*
X154974986Y-68841600D01*
D42*
X156350000Y-112175000D02*
X155871399Y-111696399D01*
D41*
X162495287Y-79538887D02*
X162495287Y-78300776D01*
X145119800Y-85268000D02*
X145090600Y-85297200D01*
X191508400Y-101329400D02*
X192182400Y-102003400D01*
X188447400Y-100059400D02*
X188432400Y-100074400D01*
X208666400Y-95128400D02*
X208686400Y-95148400D01*
X141282000Y-91948000D02*
X141282000Y-89408000D01*
X151772000Y-69720000D02*
X152536000Y-70484000D01*
X162509200Y-79552800D02*
X162495287Y-79538887D01*
X202052400Y-89377400D02*
X202200000Y-89525000D01*
X200719100Y-93957700D02*
X200719100Y-96494100D01*
X150360000Y-69720000D02*
X151772000Y-69720000D01*
X202052400Y-88270800D02*
X202052400Y-89377400D01*
D42*
X156350000Y-110520200D02*
X156521399Y-110348801D01*
D41*
X190432400Y-100059400D02*
X188447400Y-100059400D01*
X190432400Y-101329400D02*
X190432400Y-100059400D01*
%TO.N,AVCC*%
X206848400Y-98078400D02*
X209021600Y-98078400D01*
X162495287Y-76400776D02*
X160487187Y-76400776D01*
X194607400Y-95333400D02*
X195418400Y-95333400D01*
X194604677Y-89962123D02*
X188309179Y-89962123D01*
X204578100Y-98078400D02*
X204529100Y-98127400D01*
X197732400Y-108131900D02*
X197719900Y-108144400D01*
X160487187Y-76400776D02*
X160479787Y-76408176D01*
X162495287Y-76400776D02*
X174400000Y-76400776D01*
X188309179Y-89962123D02*
X174747832Y-76400776D01*
X194607400Y-92000000D02*
X194607400Y-89959400D01*
X194607400Y-95333400D02*
X194607400Y-92000000D01*
X204529100Y-98127400D02*
X204529100Y-99357700D01*
X194607400Y-89959400D02*
X194604677Y-89962123D01*
X197800000Y-98856800D02*
X197800000Y-92000000D01*
X197800000Y-92000000D02*
X194607400Y-92000000D01*
X209021600Y-98078400D02*
X209800000Y-97300000D01*
X195418400Y-95333400D02*
X195832400Y-95747400D01*
X197732400Y-100974400D02*
X197732400Y-108131900D01*
X206848400Y-98078400D02*
X204578100Y-98078400D01*
X195832400Y-95747400D02*
X195832400Y-97519400D01*
X174747832Y-76400776D02*
X174400000Y-76400776D01*
%TO.N,RCH_OUT*%
X192213200Y-110286800D02*
X196814400Y-110286800D01*
X189900000Y-112600000D02*
X192213200Y-110286800D01*
X168100000Y-112600000D02*
X189900000Y-112600000D01*
%TO.N,GUITAR_IN*%
X203339000Y-82870000D02*
X207412000Y-78797000D01*
X207412000Y-78797000D02*
X207412000Y-67367000D01*
X197764400Y-82870000D02*
X203339000Y-82870000D01*
%TO.N,Net-(IC4-VIN_B-)*%
X202232900Y-103822400D02*
X201976062Y-103565562D01*
X201976062Y-103565562D02*
X201976062Y-99370738D01*
X201976062Y-99370738D02*
X201989100Y-99357700D01*
X204468100Y-103551300D02*
X202504000Y-103551300D01*
X202504000Y-103551300D02*
X202232900Y-103822400D01*
%TO.N,RCH_IN*%
X204529100Y-95140100D02*
X203911200Y-95758000D01*
X180060800Y-97739200D02*
X174000000Y-103800000D01*
X207196100Y-91560700D02*
X206787900Y-91968900D01*
X207196100Y-90510900D02*
X207196100Y-91560700D01*
X204925300Y-91968900D02*
X204529100Y-92365100D01*
X168148000Y-103800000D02*
X174000000Y-103800000D01*
X204529100Y-93957700D02*
X204529100Y-95140100D01*
X204529100Y-92365100D02*
X204529100Y-93957700D01*
X206787900Y-91968900D02*
X204925300Y-91968900D01*
X187604400Y-97739200D02*
X180060800Y-97739200D01*
%TO.N,Net-(IC4-VINA-)*%
X204925300Y-90068900D02*
X204925300Y-88189300D01*
X204925300Y-90068900D02*
X204187900Y-90068900D01*
X204925300Y-88189300D02*
X204910100Y-88174100D01*
X203259100Y-90997700D02*
X203259100Y-93957700D01*
X204187900Y-90068900D02*
X203259100Y-90997700D01*
%TO.N,VGND*%
X194582400Y-100059400D02*
X195832400Y-100059400D01*
X202569900Y-109224400D02*
X200982400Y-109224400D01*
X199412700Y-88350100D02*
X199412700Y-89329700D01*
X199412700Y-89329700D02*
X200086000Y-90003000D01*
X194082400Y-100559400D02*
X194582400Y-100059400D01*
X195832400Y-100059400D02*
X198897800Y-100059400D01*
X200982400Y-109224400D02*
X198932800Y-107174800D01*
X200086000Y-91679300D02*
X198932800Y-92832500D01*
X195832400Y-98789400D02*
X195832400Y-100059400D01*
X198897800Y-100059400D02*
X198932800Y-100094400D01*
X194082400Y-103461400D02*
X194082400Y-100559400D01*
X198932800Y-107174800D02*
X198932800Y-101585300D01*
X198932800Y-92832500D02*
X198932800Y-100094400D01*
X200086000Y-90003000D02*
X200086000Y-91679300D01*
X198932800Y-100094400D02*
X198932800Y-101585300D01*
D42*
%TO.N,Net-(IC1-VINR)*%
X166648000Y-104052000D02*
X166648000Y-103800000D01*
X155871399Y-103248801D02*
X155871399Y-104448801D01*
X165900000Y-104800000D02*
X166648000Y-104052000D01*
X155871399Y-104448801D02*
X156222598Y-104800000D01*
X156222598Y-104800000D02*
X165900000Y-104800000D01*
%TO.N,Net-(IC1-VREF1)*%
X155221399Y-103248801D02*
X155221399Y-99698399D01*
X155221399Y-99698399D02*
X155091000Y-99568000D01*
%TO.N,Net-(IC1-VCOM)*%
X155221399Y-110348801D02*
X155221399Y-114901601D01*
X155221399Y-114901601D02*
X155194000Y-114929000D01*
%TO.N,Net-(IC1-VREF2)*%
X154571399Y-102048801D02*
X152701598Y-100179000D01*
X154571399Y-103248801D02*
X154571399Y-102048801D01*
X152701598Y-100179000D02*
X150876000Y-100179000D01*
%TO.N,Net-(IC1-VOUTR)*%
X154571399Y-109173801D02*
X155970200Y-107775000D01*
X155970200Y-107775000D02*
X162983201Y-107775000D01*
X154571399Y-110348801D02*
X154571399Y-109173801D01*
X162983201Y-107775000D02*
X166600000Y-111391799D01*
X166600000Y-111391799D02*
X166600000Y-112600000D01*
D41*
%TO.N,LCH_IN*%
X184460000Y-102300000D02*
X185250000Y-101510000D01*
X181600000Y-102300000D02*
X184460000Y-102300000D01*
D42*
%TO.N,Net-(IC1-VINL)*%
X156022598Y-106550000D02*
X174250000Y-106550000D01*
X153921399Y-103248801D02*
X153921399Y-104448801D01*
X178500000Y-102300000D02*
X180100000Y-102300000D01*
X153921399Y-104448801D02*
X156022598Y-106550000D01*
X174250000Y-106550000D02*
X178500000Y-102300000D01*
D41*
%TO.N,LCH_OUT*%
X181550000Y-107275000D02*
X184565000Y-107275000D01*
X184565000Y-107275000D02*
X185250000Y-106590000D01*
D42*
%TO.N,Net-(IC1-VOUTL)*%
X155763094Y-107275000D02*
X180050000Y-107275000D01*
X153921399Y-109116695D02*
X155763094Y-107275000D01*
X153921399Y-110348801D02*
X153921399Y-109116695D01*
D41*
%TO.N,Net-(D2-A)*%
X137151400Y-75128600D02*
X137160000Y-75120000D01*
X132971900Y-75128600D02*
X137151400Y-75128600D01*
D42*
%TO.N,MC{slash}DEM0*%
X146322788Y-107279000D02*
X138234588Y-115367200D01*
X151572918Y-107279000D02*
X146322788Y-107279000D01*
X153271399Y-108977481D02*
X151572918Y-107279000D01*
X153271399Y-110348801D02*
X153271399Y-108977481D01*
X138234588Y-115367200D02*
X132151900Y-115367200D01*
%TO.N,LRCLK*%
X150620106Y-105207200D02*
X132151900Y-105207200D01*
X151321399Y-104505907D02*
X150620106Y-105207200D01*
X151321399Y-103248801D02*
X151321399Y-104505907D01*
X132270100Y-105089000D02*
X132151900Y-105207200D01*
%TO.N,ZFLG*%
X150036000Y-119329000D02*
X144706000Y-119329000D01*
X132151900Y-122987200D02*
X137108800Y-122987200D01*
X137108800Y-122987200D02*
X140767000Y-119329000D01*
X140767000Y-119329000D02*
X144706000Y-119329000D01*
X151971399Y-110348801D02*
X151971399Y-117393601D01*
X144706000Y-117461500D02*
X144706000Y-119329000D01*
X151971399Y-117393601D02*
X150036000Y-119329000D01*
%TO.N,DIN*%
X151321399Y-110348801D02*
X151321399Y-108903399D01*
X134568800Y-120447200D02*
X132151900Y-120447200D01*
X151321399Y-108903399D02*
X150697000Y-108279000D01*
X146737000Y-108279000D02*
X134568800Y-120447200D01*
X150697000Y-108279000D02*
X146737000Y-108279000D01*
%TO.N,RST{slash}PDAD*%
X134060800Y-112827200D02*
X132151900Y-112827200D01*
X153271399Y-104677225D02*
X151241424Y-106707200D01*
X140180800Y-106707200D02*
X134060800Y-112827200D01*
X153271399Y-103248801D02*
X153271399Y-104677225D01*
X151241424Y-106707200D02*
X140180800Y-106707200D01*
%TO.N,MC{slash}DEM1*%
X152561000Y-110029000D02*
X152561000Y-108974188D01*
X151365812Y-107779000D02*
X146529894Y-107779000D01*
X152561000Y-108974188D02*
X151365812Y-107779000D01*
X152621399Y-110348801D02*
X152621399Y-110089399D01*
X146529894Y-107779000D02*
X136401694Y-117907200D01*
X136401694Y-117907200D02*
X132151900Y-117907200D01*
X152621399Y-110089399D02*
X152561000Y-110029000D01*
%TO.N,ML{slash}PDDA*%
X152621399Y-103248801D02*
X152621399Y-104620119D01*
X135783906Y-110287200D02*
X132151900Y-110287200D01*
X152621399Y-104620119D02*
X151034318Y-106207200D01*
X139863906Y-106207200D02*
X135783906Y-110287200D01*
X151034318Y-106207200D02*
X139863906Y-106207200D01*
%TO.N,BIT*%
X137668000Y-102616000D02*
X132203100Y-102616000D01*
X150671399Y-103248801D02*
X150671399Y-104448801D01*
X132203100Y-102616000D02*
X132151900Y-102667200D01*
X150441200Y-104679000D02*
X139731000Y-104679000D01*
X139731000Y-104679000D02*
X137668000Y-102616000D01*
X150671399Y-104448801D02*
X150441200Y-104679000D01*
%TO.N,SYSCLK*%
X151971399Y-103248801D02*
X151971399Y-104563013D01*
X139656800Y-105707200D02*
X137616800Y-107747200D01*
X150827212Y-105707200D02*
X139656800Y-105707200D01*
X151971399Y-104563013D02*
X150827212Y-105707200D01*
X137616800Y-107747200D02*
X132151900Y-107747200D01*
%TO.N,DATA_OUT*%
X136205550Y-100127200D02*
X132151900Y-100127200D01*
X139327151Y-103248801D02*
X136205550Y-100127200D01*
X150021399Y-103248801D02*
X139327151Y-103248801D01*
D41*
%TO.N,Net-(IC4-VINB+)*%
X200719100Y-99357700D02*
X200719100Y-101546600D01*
X200719100Y-101546600D02*
X200757800Y-101585300D01*
%TO.N,Net-(IC4-VINA+)*%
X201984058Y-91752358D02*
X201984058Y-93952658D01*
X201911000Y-91679300D02*
X201984058Y-91752358D01*
%TO.N,/VMID*%
X195869900Y-105919400D02*
X195869900Y-101366900D01*
X195844900Y-108144400D02*
X195844900Y-105944400D01*
X195869900Y-101366900D02*
X195832400Y-101329400D01*
X195844900Y-105944400D02*
X195869900Y-105919400D01*
%TO.N,Net-(C11-Pad1)*%
X206582400Y-108324400D02*
X205682400Y-109224400D01*
X199214338Y-110786738D02*
X202832562Y-110786738D01*
X206582400Y-107236900D02*
X206582400Y-108324400D01*
X198714400Y-110286800D02*
X199214338Y-110786738D01*
X202832562Y-110786738D02*
X204394900Y-109224400D01*
X205682400Y-109224400D02*
X204394900Y-109224400D01*
%TO.N,Net-(C12-Pad1)*%
X199412700Y-84831600D02*
X199869900Y-84374400D01*
X199474300Y-84770000D02*
X199869900Y-84374400D01*
X199412700Y-86525100D02*
X199412700Y-84831600D01*
X197764400Y-84770000D02*
X199474300Y-84770000D01*
X199869900Y-84374400D02*
X199869900Y-84392900D01*
X199869900Y-84392900D02*
X199802000Y-84460800D01*
%TO.N,Net-(C16-Pad2)*%
X204469900Y-105411900D02*
X204432400Y-105374400D01*
X202505900Y-105374400D02*
X202232900Y-105647400D01*
X206582400Y-105411900D02*
X204469900Y-105411900D01*
X204432400Y-105374400D02*
X202505900Y-105374400D01*
X202285600Y-105700100D02*
X202232900Y-105647400D01*
X206582400Y-103583900D02*
X206652500Y-103513800D01*
X206582400Y-105411900D02*
X206582400Y-103583900D01*
%TO.N,Net-(C17-Pad2)*%
X205011700Y-86247500D02*
X204910100Y-86349100D01*
X201694900Y-84374400D02*
X202052468Y-84731968D01*
X202074100Y-86349100D02*
X202052400Y-86370800D01*
X207196100Y-86988100D02*
X206557100Y-86349100D01*
X207196100Y-88685900D02*
X207196100Y-86988100D01*
X202052468Y-84731968D02*
X202052468Y-86370732D01*
X206557100Y-86349100D02*
X204910100Y-86349100D01*
X204910100Y-86349100D02*
X202074100Y-86349100D01*
%TO.N,Net-(IC5-VINA-)*%
X190432400Y-98789400D02*
X190432400Y-97519400D01*
%TO.N,Net-(IC4-VOUT_B)*%
X204468100Y-101651300D02*
X203959300Y-101651300D01*
X203875000Y-97275000D02*
X203259100Y-97890900D01*
X203959300Y-101651300D02*
X203259100Y-100951100D01*
X203259100Y-97890900D02*
X203259100Y-99357700D01*
X206652500Y-101688800D02*
X204505600Y-101688800D01*
X203259100Y-100951100D02*
X203259100Y-99357700D01*
%TD*%
%TA.AperFunction,Conductor*%
%TO.N,VDD*%
G36*
X139519832Y-80749685D02*
G01*
X139559122Y-80790203D01*
X140284999Y-81999999D01*
X140284999Y-82000000D01*
X140285000Y-82000000D01*
X145581456Y-82000000D01*
X145648495Y-82019685D01*
X145650239Y-82020826D01*
X146381000Y-82508000D01*
X148107638Y-82508000D01*
X148174677Y-82527685D01*
X148195319Y-82544319D01*
X148630681Y-82979681D01*
X148664166Y-83041004D01*
X148667000Y-83067362D01*
X148667000Y-83726637D01*
X148647315Y-83793676D01*
X148630681Y-83814318D01*
X148213818Y-84231181D01*
X148152495Y-84264666D01*
X148126137Y-84267500D01*
X147152795Y-84267500D01*
X147085756Y-84247815D01*
X147084012Y-84246674D01*
X146380999Y-83777999D01*
X145614579Y-83995855D01*
X145584855Y-84000510D01*
X140084999Y-84186000D01*
X139557359Y-85233772D01*
X139509625Y-85284794D01*
X139446609Y-85302000D01*
X138065363Y-85302000D01*
X137998324Y-85282315D01*
X137962189Y-85246783D01*
X137511826Y-84571239D01*
X137491018Y-84504540D01*
X137491000Y-84502456D01*
X137491000Y-81529544D01*
X137510685Y-81462505D01*
X137511826Y-81460761D01*
X137962189Y-80785217D01*
X138015754Y-80740356D01*
X138065363Y-80730000D01*
X139452793Y-80730000D01*
X139519832Y-80749685D01*
G37*
%TD.AperFunction*%
%TD*%
%TA.AperFunction,Conductor*%
%TO.N,AGND*%
G36*
X210188472Y-64000695D02*
G01*
X210477507Y-64016927D01*
X210491305Y-64018481D01*
X210773265Y-64066388D01*
X210786821Y-64069482D01*
X211061642Y-64148657D01*
X211074768Y-64153250D01*
X211338994Y-64262696D01*
X211351508Y-64268722D01*
X211597878Y-64404886D01*
X211601830Y-64407070D01*
X211613603Y-64414468D01*
X211846843Y-64579961D01*
X211857704Y-64588622D01*
X211934205Y-64656987D01*
X212070964Y-64779202D01*
X212080795Y-64789033D01*
X212184428Y-64904999D01*
X212271373Y-65002290D01*
X212280039Y-65013159D01*
X212362786Y-65129778D01*
X212445530Y-65246395D01*
X212452929Y-65258169D01*
X212591273Y-65508484D01*
X212597306Y-65521012D01*
X212706749Y-65785232D01*
X212711342Y-65798357D01*
X212790517Y-66073178D01*
X212793611Y-66086735D01*
X212841516Y-66368684D01*
X212843073Y-66382502D01*
X212859305Y-66671527D01*
X212859500Y-66678480D01*
X212859500Y-126880254D01*
X212859305Y-126887209D01*
X212843069Y-127176235D01*
X212841512Y-127190052D01*
X212793604Y-127472007D01*
X212790510Y-127485563D01*
X212711334Y-127760385D01*
X212706741Y-127773510D01*
X212597295Y-128037733D01*
X212591262Y-128050261D01*
X212452920Y-128300572D01*
X212445522Y-128312346D01*
X212280022Y-128545599D01*
X212271352Y-128556471D01*
X212080787Y-128769715D01*
X212070955Y-128779547D01*
X211857699Y-128970128D01*
X211846828Y-128978797D01*
X211613591Y-129144294D01*
X211601817Y-129151693D01*
X211351501Y-129290043D01*
X211338973Y-129296076D01*
X211074752Y-129405525D01*
X211061628Y-129410118D01*
X210786808Y-129489300D01*
X210773251Y-129492394D01*
X210491306Y-129540306D01*
X210477489Y-129541864D01*
X210189451Y-129558049D01*
X210182494Y-129558244D01*
X153540000Y-129558244D01*
X153472961Y-129538559D01*
X153427206Y-129485755D01*
X153416000Y-129434244D01*
X153416000Y-125682222D01*
X202809100Y-125682222D01*
X202839890Y-125876626D01*
X202900717Y-126063829D01*
X202986300Y-126231795D01*
X202990076Y-126239205D01*
X203105772Y-126398446D01*
X203244954Y-126537628D01*
X203404195Y-126653324D01*
X203487055Y-126695543D01*
X203579570Y-126742682D01*
X203579572Y-126742682D01*
X203579575Y-126742684D01*
X203679917Y-126775287D01*
X203766773Y-126803509D01*
X203961178Y-126834300D01*
X203961183Y-126834300D01*
X204158022Y-126834300D01*
X204352426Y-126803509D01*
X204539625Y-126742684D01*
X204715005Y-126653324D01*
X204874246Y-126537628D01*
X205013428Y-126398446D01*
X205129124Y-126239205D01*
X205139502Y-126218834D01*
X205187476Y-126168039D01*
X205255297Y-126151243D01*
X205321432Y-126173779D01*
X205364884Y-126228494D01*
X205366157Y-126231762D01*
X205428327Y-126398446D01*
X205435235Y-126416966D01*
X205572370Y-126668109D01*
X205572375Y-126668117D01*
X205743854Y-126897187D01*
X205743870Y-126897205D01*
X205946194Y-127099529D01*
X205946212Y-127099545D01*
X206175282Y-127271024D01*
X206175290Y-127271029D01*
X206426433Y-127408164D01*
X206426432Y-127408164D01*
X206426436Y-127408165D01*
X206426439Y-127408167D01*
X206694554Y-127508169D01*
X206694560Y-127508170D01*
X206694562Y-127508171D01*
X206974166Y-127568995D01*
X206974168Y-127568995D01*
X206974172Y-127568996D01*
X207227820Y-127587137D01*
X207259599Y-127589410D01*
X207259600Y-127589410D01*
X207259601Y-127589410D01*
X207288195Y-127587364D01*
X207545028Y-127568996D01*
X207824646Y-127508169D01*
X208092761Y-127408167D01*
X208343915Y-127271026D01*
X208572995Y-127099539D01*
X208775339Y-126897195D01*
X208946826Y-126668115D01*
X209083967Y-126416961D01*
X209183969Y-126148846D01*
X209244796Y-125869228D01*
X209265210Y-125583800D01*
X209244796Y-125298372D01*
X209243186Y-125290973D01*
X209183971Y-125018762D01*
X209183970Y-125018760D01*
X209183969Y-125018754D01*
X209083967Y-124750639D01*
X208946826Y-124499485D01*
X208946824Y-124499482D01*
X208775345Y-124270412D01*
X208775329Y-124270394D01*
X208573005Y-124068070D01*
X208572987Y-124068054D01*
X208343917Y-123896575D01*
X208343909Y-123896570D01*
X208092766Y-123759435D01*
X208092767Y-123759435D01*
X207985515Y-123719432D01*
X207824646Y-123659431D01*
X207824643Y-123659430D01*
X207824637Y-123659428D01*
X207545033Y-123598604D01*
X207259601Y-123578190D01*
X207259599Y-123578190D01*
X206974166Y-123598604D01*
X206694562Y-123659428D01*
X206426433Y-123759435D01*
X206175290Y-123896570D01*
X206175282Y-123896575D01*
X205946212Y-124068054D01*
X205946194Y-124068070D01*
X205743870Y-124270394D01*
X205743854Y-124270412D01*
X205572375Y-124499482D01*
X205572370Y-124499490D01*
X205435235Y-124750633D01*
X205366170Y-124935804D01*
X205324298Y-124991737D01*
X205258834Y-125016154D01*
X205190561Y-125001302D01*
X205141156Y-124951897D01*
X205139503Y-124948765D01*
X205129123Y-124928394D01*
X205013428Y-124769154D01*
X204874246Y-124629972D01*
X204715005Y-124514276D01*
X204685970Y-124499482D01*
X204539629Y-124424917D01*
X204352426Y-124364090D01*
X204158022Y-124333300D01*
X204158017Y-124333300D01*
X203961183Y-124333300D01*
X203961178Y-124333300D01*
X203766773Y-124364090D01*
X203579570Y-124424917D01*
X203404194Y-124514276D01*
X203313341Y-124580285D01*
X203244954Y-124629972D01*
X203244952Y-124629974D01*
X203244951Y-124629974D01*
X203105774Y-124769151D01*
X203105774Y-124769152D01*
X203105772Y-124769154D01*
X203056085Y-124837541D01*
X202990076Y-124928394D01*
X202900717Y-125103770D01*
X202839890Y-125290973D01*
X202809100Y-125485377D01*
X202809100Y-125682222D01*
X153416000Y-125682222D01*
X153416000Y-111873300D01*
X153435685Y-111806261D01*
X153488489Y-111760506D01*
X153539999Y-111749300D01*
X153544271Y-111749300D01*
X153544284Y-111749299D01*
X153583143Y-111745121D01*
X153609651Y-111745121D01*
X153648526Y-111749301D01*
X154194271Y-111749300D01*
X154194272Y-111749299D01*
X154194284Y-111749299D01*
X154233143Y-111745121D01*
X154259651Y-111745121D01*
X154298526Y-111749301D01*
X154446899Y-111749300D01*
X154513938Y-111768984D01*
X154559693Y-111821788D01*
X154570899Y-111873300D01*
X154570899Y-113717341D01*
X154551214Y-113784380D01*
X154498410Y-113830135D01*
X154490232Y-113833523D01*
X154351671Y-113885202D01*
X154351664Y-113885206D01*
X154236455Y-113971452D01*
X154236452Y-113971455D01*
X154150206Y-114086664D01*
X154150202Y-114086671D01*
X154099908Y-114221517D01*
X154093501Y-114281116D01*
X154093501Y-114281123D01*
X154093500Y-114281135D01*
X154093500Y-115576870D01*
X154093501Y-115576876D01*
X154099908Y-115636483D01*
X154150202Y-115771328D01*
X154150206Y-115771335D01*
X154236452Y-115886544D01*
X154236455Y-115886547D01*
X154351664Y-115972793D01*
X154351671Y-115972797D01*
X154486517Y-116023091D01*
X154486516Y-116023091D01*
X154493444Y-116023835D01*
X154546127Y-116029500D01*
X155841872Y-116029499D01*
X155901483Y-116023091D01*
X156036331Y-115972796D01*
X156151546Y-115886546D01*
X156237796Y-115771331D01*
X156288091Y-115636483D01*
X156294500Y-115576873D01*
X156294499Y-114281128D01*
X156288091Y-114221517D01*
X156262834Y-114153800D01*
X156237797Y-114086671D01*
X156237793Y-114086664D01*
X156151547Y-113971455D01*
X156151544Y-113971452D01*
X156036335Y-113885206D01*
X156036328Y-113885202D01*
X155952566Y-113853961D01*
X155896632Y-113812090D01*
X155872215Y-113746625D01*
X155871899Y-113737779D01*
X155871899Y-111556287D01*
X155887070Y-111496855D01*
X155890192Y-111491134D01*
X155890195Y-111491132D01*
X155940490Y-111356284D01*
X155946899Y-111296674D01*
X155946899Y-111296671D01*
X156445899Y-111296671D01*
X156445900Y-111296677D01*
X156452307Y-111356284D01*
X156502602Y-111491131D01*
X156505728Y-111496855D01*
X156520899Y-111556287D01*
X156520899Y-112251470D01*
X156520899Y-112251472D01*
X156520898Y-112251472D01*
X156543781Y-112366503D01*
X156543782Y-112366506D01*
X156545897Y-112377144D01*
X156594934Y-112495530D01*
X156654201Y-112584229D01*
X156675079Y-112650906D01*
X156675099Y-112653119D01*
X156675099Y-113216602D01*
X156675100Y-113216610D01*
X156685599Y-113319397D01*
X156685600Y-113319400D01*
X156740784Y-113485932D01*
X156740786Y-113485937D01*
X156762966Y-113521897D01*
X156832887Y-113635257D01*
X156956943Y-113759313D01*
X157106265Y-113851415D01*
X157111862Y-113853269D01*
X157165719Y-113890255D01*
X157166014Y-113889961D01*
X157167600Y-113891547D01*
X157168721Y-113892317D01*
X157170326Y-113894273D01*
X158695339Y-115419285D01*
X158728824Y-115480608D01*
X158723840Y-115550300D01*
X158681968Y-115606233D01*
X158650992Y-115623148D01*
X158618669Y-115635203D01*
X158618664Y-115635206D01*
X158503455Y-115721452D01*
X158503452Y-115721455D01*
X158417206Y-115836664D01*
X158417202Y-115836671D01*
X158366908Y-115971517D01*
X158361364Y-116023091D01*
X158360501Y-116031123D01*
X158360500Y-116031135D01*
X158360500Y-117326870D01*
X158360501Y-117326876D01*
X158366908Y-117386483D01*
X158417202Y-117521328D01*
X158417206Y-117521335D01*
X158503452Y-117636544D01*
X158503455Y-117636547D01*
X158618664Y-117722793D01*
X158618671Y-117722797D01*
X158753517Y-117773091D01*
X158753516Y-117773091D01*
X158760444Y-117773835D01*
X158813127Y-117779500D01*
X160108872Y-117779499D01*
X160168483Y-117773091D01*
X160303331Y-117722796D01*
X160418546Y-117636546D01*
X160504796Y-117521331D01*
X160555091Y-117386483D01*
X160561500Y-117326873D01*
X160561499Y-116398541D01*
X195959100Y-116398541D01*
X195984046Y-116588015D01*
X195989052Y-116626038D01*
X195989053Y-116626040D01*
X196048442Y-116847687D01*
X196136250Y-117059676D01*
X196136257Y-117059690D01*
X196250992Y-117258417D01*
X196390681Y-117440461D01*
X196390689Y-117440470D01*
X196552930Y-117602711D01*
X196552938Y-117602718D01*
X196734982Y-117742407D01*
X196734985Y-117742408D01*
X196734988Y-117742411D01*
X196933712Y-117857144D01*
X196933717Y-117857146D01*
X196933723Y-117857149D01*
X197025080Y-117894990D01*
X197145713Y-117944958D01*
X197367362Y-118004348D01*
X197594866Y-118034300D01*
X197594873Y-118034300D01*
X197824327Y-118034300D01*
X197824334Y-118034300D01*
X198051838Y-118004348D01*
X198273487Y-117944958D01*
X198485488Y-117857144D01*
X198684212Y-117742411D01*
X198866261Y-117602719D01*
X198866265Y-117602714D01*
X198866270Y-117602711D01*
X199028511Y-117440470D01*
X199028514Y-117440465D01*
X199028519Y-117440461D01*
X199168211Y-117258412D01*
X199282944Y-117059688D01*
X199370758Y-116847687D01*
X199430148Y-116626038D01*
X199460100Y-116398534D01*
X199460100Y-116169066D01*
X199430148Y-115941562D01*
X199370758Y-115719913D01*
X199312300Y-115578783D01*
X199282949Y-115507923D01*
X199282946Y-115507917D01*
X199282944Y-115507912D01*
X199168211Y-115309188D01*
X199168208Y-115309185D01*
X199168207Y-115309182D01*
X199028518Y-115127138D01*
X199028511Y-115127130D01*
X198866270Y-114964889D01*
X198866261Y-114964881D01*
X198684217Y-114825192D01*
X198485490Y-114710457D01*
X198485476Y-114710450D01*
X198273487Y-114622642D01*
X198051838Y-114563252D01*
X198013815Y-114558246D01*
X197824341Y-114533300D01*
X197824334Y-114533300D01*
X197594866Y-114533300D01*
X197594858Y-114533300D01*
X197378315Y-114561809D01*
X197367362Y-114563252D01*
X197273676Y-114588354D01*
X197145712Y-114622642D01*
X196933723Y-114710450D01*
X196933709Y-114710457D01*
X196734982Y-114825192D01*
X196552938Y-114964881D01*
X196390681Y-115127138D01*
X196250992Y-115309182D01*
X196136257Y-115507909D01*
X196136250Y-115507923D01*
X196048442Y-115719912D01*
X195989053Y-115941559D01*
X195989051Y-115941570D01*
X195959100Y-116169058D01*
X195959100Y-116398541D01*
X160561499Y-116398541D01*
X160561499Y-116031128D01*
X160555229Y-115972797D01*
X160555091Y-115971516D01*
X160504797Y-115836671D01*
X160504793Y-115836664D01*
X160418547Y-115721455D01*
X160418544Y-115721452D01*
X160303335Y-115635206D01*
X160303329Y-115635203D01*
X160192166Y-115593741D01*
X160136233Y-115551869D01*
X160111816Y-115486405D01*
X160111500Y-115477559D01*
X160111500Y-115200928D01*
X160086502Y-115075261D01*
X160086501Y-115075260D01*
X160086501Y-115075256D01*
X160042259Y-114968446D01*
X160037464Y-114956870D01*
X159966277Y-114850331D01*
X159966271Y-114850324D01*
X159368169Y-114252222D01*
X202809100Y-114252222D01*
X202839890Y-114446626D01*
X202900717Y-114633829D01*
X202986300Y-114801795D01*
X202990076Y-114809205D01*
X203105772Y-114968446D01*
X203244954Y-115107628D01*
X203404195Y-115223324D01*
X203487055Y-115265543D01*
X203579570Y-115312682D01*
X203579572Y-115312682D01*
X203579575Y-115312684D01*
X203679917Y-115345287D01*
X203766773Y-115373509D01*
X203961178Y-115404300D01*
X203961183Y-115404300D01*
X204158022Y-115404300D01*
X204352426Y-115373509D01*
X204539625Y-115312684D01*
X204715005Y-115223324D01*
X204874246Y-115107628D01*
X205013428Y-114968446D01*
X205129124Y-114809205D01*
X205139502Y-114788834D01*
X205187476Y-114738039D01*
X205255297Y-114721243D01*
X205321432Y-114743779D01*
X205364884Y-114798494D01*
X205366157Y-114801762D01*
X205384273Y-114850331D01*
X205435235Y-114986966D01*
X205572370Y-115238109D01*
X205572375Y-115238117D01*
X205743854Y-115467187D01*
X205743870Y-115467205D01*
X205946194Y-115669529D01*
X205946212Y-115669545D01*
X206175282Y-115841024D01*
X206175290Y-115841029D01*
X206426433Y-115978164D01*
X206426432Y-115978164D01*
X206426436Y-115978165D01*
X206426439Y-115978167D01*
X206694554Y-116078169D01*
X206694560Y-116078170D01*
X206694562Y-116078171D01*
X206974166Y-116138995D01*
X206974168Y-116138995D01*
X206974172Y-116138996D01*
X207227820Y-116157137D01*
X207259599Y-116159410D01*
X207259600Y-116159410D01*
X207259601Y-116159410D01*
X207288195Y-116157364D01*
X207545028Y-116138996D01*
X207824646Y-116078169D01*
X208092761Y-115978167D01*
X208343915Y-115841026D01*
X208572995Y-115669539D01*
X208775339Y-115467195D01*
X208946826Y-115238115D01*
X209083967Y-114986961D01*
X209183969Y-114718846D01*
X209244796Y-114439228D01*
X209265210Y-114153800D01*
X209244796Y-113868372D01*
X209243186Y-113860973D01*
X209183971Y-113588762D01*
X209183970Y-113588760D01*
X209183969Y-113588754D01*
X209083967Y-113320639D01*
X209083290Y-113319400D01*
X208946829Y-113069490D01*
X208946824Y-113069482D01*
X208775345Y-112840412D01*
X208775329Y-112840394D01*
X208573005Y-112638070D01*
X208572987Y-112638054D01*
X208343917Y-112466575D01*
X208343909Y-112466570D01*
X208092766Y-112329435D01*
X208092767Y-112329435D01*
X207985515Y-112289432D01*
X207824646Y-112229431D01*
X207824643Y-112229430D01*
X207824637Y-112229428D01*
X207545033Y-112168604D01*
X207259601Y-112148190D01*
X207259599Y-112148190D01*
X206974166Y-112168604D01*
X206694562Y-112229428D01*
X206426433Y-112329435D01*
X206175290Y-112466570D01*
X206175282Y-112466575D01*
X205946212Y-112638054D01*
X205946194Y-112638070D01*
X205743870Y-112840394D01*
X205743854Y-112840412D01*
X205572375Y-113069482D01*
X205572370Y-113069490D01*
X205435235Y-113320633D01*
X205398270Y-113419741D01*
X205371613Y-113491212D01*
X205366170Y-113505804D01*
X205324298Y-113561737D01*
X205258834Y-113586154D01*
X205190561Y-113571302D01*
X205141156Y-113521897D01*
X205139503Y-113518765D01*
X205129123Y-113498394D01*
X205123905Y-113491212D01*
X205013428Y-113339154D01*
X204874246Y-113199972D01*
X204715005Y-113084276D01*
X204685970Y-113069482D01*
X204539629Y-112994917D01*
X204352426Y-112934090D01*
X204158022Y-112903300D01*
X204158017Y-112903300D01*
X203961183Y-112903300D01*
X203961178Y-112903300D01*
X203766773Y-112934090D01*
X203579570Y-112994917D01*
X203404194Y-113084276D01*
X203313341Y-113150285D01*
X203244954Y-113199972D01*
X203244952Y-113199974D01*
X203244951Y-113199974D01*
X203105774Y-113339151D01*
X203105774Y-113339152D01*
X203105772Y-113339154D01*
X203056085Y-113407541D01*
X202990076Y-113498394D01*
X202900717Y-113673770D01*
X202839890Y-113860973D01*
X202809100Y-114055377D01*
X202809100Y-114252222D01*
X159368169Y-114252222D01*
X158662372Y-113546426D01*
X158628887Y-113485103D01*
X158632346Y-113419743D01*
X158665598Y-113319398D01*
X158676099Y-113216610D01*
X158676098Y-112166593D01*
X158665598Y-112063804D01*
X158610413Y-111897267D01*
X158518311Y-111747945D01*
X158394255Y-111623889D01*
X158284523Y-111556206D01*
X158244935Y-111531788D01*
X158244930Y-111531786D01*
X158195999Y-111515572D01*
X158078396Y-111476602D01*
X158078394Y-111476601D01*
X158003747Y-111468975D01*
X157939056Y-111442578D01*
X157898905Y-111385397D01*
X157893062Y-111332361D01*
X157896898Y-111296682D01*
X157896899Y-111296674D01*
X157896898Y-109400929D01*
X157890490Y-109341318D01*
X157889899Y-109339734D01*
X157840196Y-109206472D01*
X157840192Y-109206465D01*
X157753946Y-109091256D01*
X157753943Y-109091253D01*
X157638734Y-109005007D01*
X157638727Y-109005003D01*
X157503885Y-108954711D01*
X157503884Y-108954710D01*
X157503882Y-108954710D01*
X157444272Y-108948301D01*
X157444262Y-108948301D01*
X156898528Y-108948301D01*
X156898522Y-108948302D01*
X156838915Y-108954709D01*
X156704070Y-109005003D01*
X156704063Y-109005007D01*
X156588854Y-109091253D01*
X156588851Y-109091256D01*
X156502605Y-109206465D01*
X156502601Y-109206472D01*
X156452307Y-109341318D01*
X156446818Y-109392379D01*
X156445900Y-109400924D01*
X156445899Y-109400936D01*
X156445899Y-111296671D01*
X155946899Y-111296671D01*
X155946898Y-109400929D01*
X155940490Y-109341318D01*
X155939899Y-109339734D01*
X155890196Y-109206472D01*
X155890192Y-109206465D01*
X155803946Y-109091256D01*
X155786937Y-109078523D01*
X155745067Y-109022589D01*
X155740083Y-108952897D01*
X155773566Y-108891578D01*
X156203327Y-108461819D01*
X156264650Y-108428334D01*
X156291008Y-108425500D01*
X162662393Y-108425500D01*
X162729432Y-108445185D01*
X162750074Y-108461819D01*
X165706114Y-111417859D01*
X165739599Y-111479182D01*
X165734615Y-111548874D01*
X165692745Y-111604806D01*
X165642452Y-111642455D01*
X165556206Y-111757664D01*
X165556202Y-111757671D01*
X165505908Y-111892517D01*
X165499501Y-111952116D01*
X165499500Y-111952135D01*
X165499500Y-113247870D01*
X165499501Y-113247876D01*
X165505908Y-113307483D01*
X165556202Y-113442328D01*
X165556206Y-113442335D01*
X165642452Y-113557544D01*
X165642455Y-113557547D01*
X165757664Y-113643793D01*
X165757671Y-113643797D01*
X165892517Y-113694091D01*
X165892516Y-113694091D01*
X165899444Y-113694835D01*
X165952127Y-113700500D01*
X167247872Y-113700499D01*
X167307483Y-113694091D01*
X167361953Y-113673775D01*
X167442329Y-113643797D01*
X167442329Y-113643796D01*
X167442331Y-113643796D01*
X167491521Y-113606971D01*
X167556982Y-113582554D01*
X167610622Y-113590610D01*
X167797544Y-113663024D01*
X167998024Y-113700500D01*
X167998026Y-113700500D01*
X168201974Y-113700500D01*
X168201976Y-113700500D01*
X168402456Y-113663024D01*
X168592637Y-113589348D01*
X168766041Y-113481981D01*
X168837486Y-113416850D01*
X168874769Y-113382863D01*
X168937573Y-113352246D01*
X168958307Y-113350500D01*
X189973920Y-113350500D01*
X190071462Y-113331096D01*
X190118913Y-113321658D01*
X190255495Y-113265084D01*
X190328042Y-113216610D01*
X190378416Y-113182952D01*
X192487749Y-111073619D01*
X192549072Y-111040134D01*
X192575430Y-111037300D01*
X195783342Y-111037300D01*
X195850381Y-111056985D01*
X195888879Y-111096201D01*
X195971688Y-111230456D01*
X196095744Y-111354512D01*
X196245066Y-111446614D01*
X196411603Y-111501799D01*
X196514391Y-111512300D01*
X197114408Y-111512299D01*
X197114416Y-111512298D01*
X197114419Y-111512298D01*
X197176962Y-111505909D01*
X197217197Y-111501799D01*
X197383734Y-111446614D01*
X197533056Y-111354512D01*
X197657112Y-111230456D01*
X197658861Y-111227619D01*
X197660569Y-111226083D01*
X197661593Y-111224789D01*
X197661814Y-111224963D01*
X197710806Y-111180896D01*
X197779768Y-111169672D01*
X197843851Y-111197513D01*
X197869937Y-111227617D01*
X197871688Y-111230456D01*
X197995744Y-111354512D01*
X198145066Y-111446614D01*
X198311603Y-111501799D01*
X198414391Y-111512300D01*
X199002836Y-111512299D01*
X199027029Y-111514682D01*
X199140418Y-111537238D01*
X199140420Y-111537238D01*
X202906482Y-111537238D01*
X203004024Y-111517834D01*
X203051475Y-111508396D01*
X203188057Y-111451822D01*
X203237291Y-111418924D01*
X203310978Y-111369690D01*
X204219448Y-110461217D01*
X204280771Y-110427733D01*
X204307129Y-110424899D01*
X204707402Y-110424899D01*
X204707408Y-110424899D01*
X204810197Y-110414399D01*
X204976734Y-110359214D01*
X205126056Y-110267112D01*
X205250112Y-110143056D01*
X205317499Y-110033802D01*
X205357973Y-109997399D01*
X208683384Y-109997399D01*
X208702201Y-110200481D01*
X208758016Y-110396646D01*
X208758021Y-110396659D01*
X208848926Y-110579220D01*
X208971836Y-110741980D01*
X209122557Y-110879379D01*
X209122559Y-110879381D01*
X209221740Y-110940791D01*
X209295962Y-110986747D01*
X209486143Y-111060423D01*
X209686623Y-111097899D01*
X209686625Y-111097899D01*
X209890573Y-111097899D01*
X209890575Y-111097899D01*
X210091055Y-111060423D01*
X210281236Y-110986747D01*
X210454640Y-110879380D01*
X210605363Y-110741978D01*
X210728272Y-110579220D01*
X210819181Y-110396649D01*
X210874996Y-110200482D01*
X210893814Y-109997399D01*
X210889056Y-109946056D01*
X210874996Y-109794316D01*
X210849254Y-109703844D01*
X210819181Y-109598149D01*
X210781244Y-109521961D01*
X210768983Y-109453179D01*
X210792978Y-109392383D01*
X210832395Y-109339730D01*
X210834384Y-109334399D01*
X210877391Y-109219089D01*
X210882690Y-109204882D01*
X210889099Y-109145272D01*
X210889098Y-107849527D01*
X210882690Y-107789916D01*
X210846792Y-107693669D01*
X210832396Y-107655070D01*
X210832392Y-107655063D01*
X210746146Y-107539854D01*
X210746143Y-107539851D01*
X210630934Y-107453605D01*
X210630927Y-107453601D01*
X210496081Y-107403307D01*
X210496082Y-107403307D01*
X210436482Y-107396900D01*
X210436480Y-107396899D01*
X210436472Y-107396899D01*
X210436463Y-107396899D01*
X209140728Y-107396899D01*
X209140722Y-107396900D01*
X209081115Y-107403307D01*
X208946270Y-107453601D01*
X208946263Y-107453605D01*
X208831054Y-107539851D01*
X208831051Y-107539854D01*
X208744805Y-107655063D01*
X208744801Y-107655070D01*
X208694507Y-107789916D01*
X208691409Y-107818736D01*
X208688100Y-107849522D01*
X208688099Y-107849534D01*
X208688099Y-109145269D01*
X208688100Y-109145275D01*
X208694507Y-109204882D01*
X208744801Y-109339727D01*
X208744805Y-109339734D01*
X208784217Y-109392381D01*
X208808635Y-109457845D01*
X208795952Y-109521962D01*
X208758018Y-109598146D01*
X208758017Y-109598149D01*
X208751312Y-109621714D01*
X208702201Y-109794316D01*
X208683384Y-109997398D01*
X208683384Y-109997399D01*
X205357973Y-109997399D01*
X205369447Y-109987079D01*
X205423038Y-109974900D01*
X205756320Y-109974900D01*
X205853862Y-109955496D01*
X205901313Y-109946058D01*
X206037895Y-109889484D01*
X206106678Y-109843525D01*
X206106681Y-109843522D01*
X206106683Y-109843522D01*
X206133927Y-109825317D01*
X206160816Y-109807352D01*
X207165351Y-108802816D01*
X207247484Y-108679895D01*
X207304058Y-108543313D01*
X207313496Y-108495862D01*
X207332900Y-108398320D01*
X207332900Y-108265038D01*
X207352585Y-108197999D01*
X207391801Y-108159500D01*
X207501056Y-108092112D01*
X207625112Y-107968056D01*
X207717214Y-107818734D01*
X207772399Y-107652197D01*
X207782900Y-107549409D01*
X207782899Y-106924392D01*
X207782222Y-106917768D01*
X207772399Y-106821603D01*
X207772398Y-106821600D01*
X207750789Y-106756389D01*
X207717214Y-106655066D01*
X207625112Y-106505744D01*
X207531449Y-106412081D01*
X207497964Y-106350758D01*
X207502948Y-106281066D01*
X207531449Y-106236719D01*
X207569449Y-106198719D01*
X207625112Y-106143056D01*
X207717214Y-105993734D01*
X207772399Y-105827197D01*
X207782900Y-105724409D01*
X207782899Y-105099392D01*
X207772399Y-104996603D01*
X207717214Y-104830066D01*
X207625112Y-104680744D01*
X207522611Y-104578243D01*
X207489126Y-104516920D01*
X207494110Y-104447228D01*
X207535982Y-104391295D01*
X207545167Y-104385041D01*
X207571156Y-104369012D01*
X207695212Y-104244956D01*
X207787314Y-104095634D01*
X207842499Y-103929097D01*
X207853000Y-103826309D01*
X207852999Y-103201292D01*
X207851026Y-103181982D01*
X207842499Y-103098503D01*
X207842498Y-103098500D01*
X207814226Y-103013181D01*
X207787314Y-102931966D01*
X207695212Y-102782644D01*
X207601549Y-102688981D01*
X207568064Y-102627658D01*
X207573048Y-102557966D01*
X207601549Y-102513619D01*
X207647686Y-102467482D01*
X207695212Y-102419956D01*
X207787314Y-102270634D01*
X207842499Y-102104097D01*
X207853000Y-102001309D01*
X207852999Y-101376292D01*
X207849542Y-101342454D01*
X207842499Y-101273503D01*
X207842498Y-101273500D01*
X207830395Y-101236976D01*
X207787314Y-101106966D01*
X207695212Y-100957644D01*
X207571156Y-100833588D01*
X207421834Y-100741486D01*
X207255297Y-100686301D01*
X207255295Y-100686300D01*
X207152510Y-100675800D01*
X206152498Y-100675800D01*
X206152480Y-100675801D01*
X206049703Y-100686300D01*
X206049700Y-100686301D01*
X205883168Y-100741485D01*
X205883163Y-100741487D01*
X205733842Y-100833589D01*
X205672981Y-100894451D01*
X205611658Y-100927936D01*
X205541966Y-100922952D01*
X205497619Y-100894451D01*
X205411757Y-100808589D01*
X205411756Y-100808588D01*
X205262434Y-100716486D01*
X205219970Y-100702414D01*
X205162527Y-100662644D01*
X205135704Y-100598128D01*
X205148019Y-100529352D01*
X205184666Y-100485443D01*
X205211646Y-100465246D01*
X205211647Y-100465244D01*
X205247261Y-100417671D01*
X205297896Y-100350031D01*
X205348191Y-100215183D01*
X205354600Y-100155573D01*
X205354599Y-98952899D01*
X205374284Y-98885861D01*
X205427087Y-98840106D01*
X205478599Y-98828900D01*
X205511532Y-98828900D01*
X205578571Y-98848585D01*
X205599746Y-98867783D01*
X205600581Y-98866949D01*
X205605688Y-98872056D01*
X205729744Y-98996112D01*
X205879066Y-99088214D01*
X206045603Y-99143399D01*
X206148391Y-99153900D01*
X207548408Y-99153899D01*
X207651197Y-99143399D01*
X207817734Y-99088214D01*
X207967056Y-98996112D01*
X208091112Y-98872056D01*
X208091112Y-98872055D01*
X208096219Y-98866949D01*
X208098105Y-98868835D01*
X208145025Y-98835612D01*
X208185268Y-98828900D01*
X209095520Y-98828900D01*
X209193062Y-98809496D01*
X209240513Y-98800058D01*
X209377095Y-98743484D01*
X209433712Y-98705654D01*
X209433712Y-98705653D01*
X209433714Y-98705653D01*
X209466864Y-98683503D01*
X209500016Y-98661352D01*
X210108061Y-98053305D01*
X210144134Y-98030655D01*
X210143246Y-98028811D01*
X210149518Y-98025790D01*
X210149522Y-98025789D01*
X210302262Y-97929816D01*
X210429816Y-97802262D01*
X210525789Y-97649522D01*
X210585368Y-97479255D01*
X210587896Y-97456818D01*
X210605565Y-97300003D01*
X210605565Y-97299996D01*
X210585369Y-97120750D01*
X210585368Y-97120744D01*
X210544132Y-97002900D01*
X210525789Y-96950478D01*
X210514021Y-96931750D01*
X210454393Y-96836852D01*
X210429816Y-96797738D01*
X210302262Y-96670184D01*
X210299124Y-96668212D01*
X210149523Y-96574211D01*
X209979254Y-96514631D01*
X209979249Y-96514630D01*
X209800004Y-96494435D01*
X209799996Y-96494435D01*
X209620750Y-96514630D01*
X209620745Y-96514631D01*
X209450476Y-96574211D01*
X209297737Y-96670184D01*
X209170184Y-96797737D01*
X209074211Y-96950478D01*
X209071188Y-96956756D01*
X209069362Y-96955876D01*
X209046693Y-96991937D01*
X208747049Y-97291582D01*
X208685729Y-97325066D01*
X208659370Y-97327900D01*
X208185268Y-97327900D01*
X208118229Y-97308215D01*
X208097053Y-97289016D01*
X208096219Y-97289851D01*
X207967057Y-97160689D01*
X207967056Y-97160688D01*
X207874288Y-97103469D01*
X207817736Y-97068587D01*
X207817731Y-97068585D01*
X207763694Y-97050679D01*
X207651197Y-97013401D01*
X207651195Y-97013400D01*
X207548410Y-97002900D01*
X206148398Y-97002900D01*
X206148381Y-97002901D01*
X206045603Y-97013400D01*
X206045600Y-97013401D01*
X205879068Y-97068585D01*
X205879063Y-97068587D01*
X205729742Y-97160689D01*
X205600581Y-97289851D01*
X205598694Y-97287964D01*
X205551775Y-97321188D01*
X205511532Y-97327900D01*
X204797339Y-97327900D01*
X204730300Y-97308215D01*
X204684545Y-97255411D01*
X204674119Y-97217784D01*
X204660369Y-97095749D01*
X204660368Y-97095745D01*
X204644599Y-97050679D01*
X204600789Y-96925478D01*
X204504816Y-96772738D01*
X204377262Y-96645184D01*
X204357658Y-96632866D01*
X204311368Y-96580533D01*
X204300719Y-96511479D01*
X204329094Y-96447631D01*
X204357657Y-96422880D01*
X204413462Y-96387816D01*
X204541016Y-96260262D01*
X204636989Y-96107522D01*
X204636992Y-96107510D01*
X204640010Y-96101248D01*
X204641850Y-96102134D01*
X204664505Y-96066061D01*
X205112052Y-95618515D01*
X205172206Y-95528487D01*
X205194184Y-95495595D01*
X205230269Y-95408478D01*
X205230271Y-95408475D01*
X205237137Y-95391898D01*
X205250759Y-95359012D01*
X205279600Y-95214017D01*
X205279600Y-95066182D01*
X205279600Y-95015186D01*
X205294771Y-94955754D01*
X205297893Y-94950033D01*
X205297896Y-94950031D01*
X205348191Y-94815183D01*
X205354600Y-94755573D01*
X205354599Y-93159828D01*
X205348714Y-93105081D01*
X205361121Y-93036322D01*
X205408732Y-92985185D01*
X205459403Y-92968470D01*
X205495291Y-92964803D01*
X205553097Y-92958899D01*
X205719634Y-92903714D01*
X205868956Y-92811612D01*
X205924849Y-92755719D01*
X205986172Y-92722234D01*
X206012530Y-92719400D01*
X206861820Y-92719400D01*
X206959362Y-92699996D01*
X207006813Y-92690558D01*
X207143395Y-92633984D01*
X207218184Y-92584012D01*
X207266316Y-92551852D01*
X207779052Y-92039116D01*
X207849870Y-91933127D01*
X207861184Y-91916195D01*
X207917758Y-91779613D01*
X207940109Y-91667250D01*
X207946600Y-91634620D01*
X207946600Y-91539038D01*
X207966285Y-91471999D01*
X208005501Y-91433500D01*
X208114756Y-91366112D01*
X208238812Y-91242056D01*
X208330914Y-91092734D01*
X208386099Y-90926197D01*
X208396600Y-90823409D01*
X208396599Y-90198392D01*
X208386099Y-90095603D01*
X208330914Y-89929066D01*
X208238812Y-89779744D01*
X208145149Y-89686081D01*
X208111664Y-89624758D01*
X208116648Y-89555066D01*
X208145149Y-89510719D01*
X208174884Y-89480984D01*
X208238812Y-89417056D01*
X208330914Y-89267734D01*
X208386099Y-89101197D01*
X208396600Y-88998409D01*
X208396599Y-88373392D01*
X208386099Y-88270603D01*
X208330914Y-88104066D01*
X208238812Y-87954744D01*
X208114756Y-87830688D01*
X208005502Y-87763300D01*
X207958779Y-87711353D01*
X207946600Y-87657762D01*
X207946600Y-86914179D01*
X207917759Y-86769192D01*
X207917758Y-86769191D01*
X207917758Y-86769187D01*
X207905690Y-86740052D01*
X207861187Y-86632611D01*
X207861180Y-86632598D01*
X207779052Y-86509685D01*
X207779051Y-86509684D01*
X207674516Y-86405149D01*
X207035521Y-85766152D01*
X207035520Y-85766151D01*
X207026311Y-85759998D01*
X206943721Y-85704814D01*
X206912595Y-85684016D01*
X206912593Y-85684015D01*
X206912590Y-85684013D01*
X206776017Y-85627443D01*
X206776007Y-85627440D01*
X206631020Y-85598600D01*
X206631018Y-85598600D01*
X205984830Y-85598600D01*
X205917791Y-85578915D01*
X205897149Y-85562281D01*
X205828757Y-85493889D01*
X205828756Y-85493888D01*
X205704282Y-85417112D01*
X205679436Y-85401787D01*
X205679431Y-85401785D01*
X205654051Y-85393375D01*
X205512897Y-85346601D01*
X205512895Y-85346600D01*
X205410110Y-85336100D01*
X204410098Y-85336100D01*
X204410080Y-85336101D01*
X204307303Y-85346600D01*
X204307300Y-85346601D01*
X204140768Y-85401785D01*
X204140763Y-85401787D01*
X203991442Y-85493889D01*
X203923051Y-85562281D01*
X203861728Y-85595766D01*
X203835370Y-85598600D01*
X203117930Y-85598600D01*
X203050891Y-85578915D01*
X203030249Y-85562281D01*
X202996057Y-85528089D01*
X202996056Y-85528088D01*
X202861870Y-85445321D01*
X202815147Y-85393375D01*
X202802968Y-85339784D01*
X202802968Y-84658047D01*
X202790091Y-84593314D01*
X202790091Y-84593313D01*
X202774127Y-84513056D01*
X202721291Y-84385500D01*
X202717552Y-84376473D01*
X202717551Y-84376472D01*
X202717339Y-84375959D01*
X202707899Y-84328503D01*
X202707899Y-83874398D01*
X202707898Y-83874381D01*
X202701607Y-83812795D01*
X202697399Y-83771603D01*
X202697398Y-83771601D01*
X202697398Y-83771597D01*
X202697153Y-83770450D01*
X202697207Y-83769725D01*
X202696711Y-83764867D01*
X202697577Y-83764778D01*
X202702372Y-83700775D01*
X202744432Y-83644983D01*
X202809978Y-83620787D01*
X202818407Y-83620500D01*
X203412920Y-83620500D01*
X203510462Y-83601096D01*
X203557913Y-83591658D01*
X203694495Y-83535084D01*
X203743729Y-83502186D01*
X203817416Y-83452952D01*
X206573592Y-80696774D01*
X206634913Y-80663291D01*
X206704603Y-80668274D01*
X206846954Y-80721369D01*
X206986763Y-80751782D01*
X207126566Y-80782195D01*
X207126568Y-80782195D01*
X207126572Y-80782196D01*
X207380220Y-80800337D01*
X207411999Y-80802610D01*
X207412000Y-80802610D01*
X207412001Y-80802610D01*
X207440595Y-80800564D01*
X207697428Y-80782196D01*
X207977046Y-80721369D01*
X208245161Y-80621367D01*
X208496315Y-80484226D01*
X208725395Y-80312739D01*
X208927739Y-80110395D01*
X209099226Y-79881315D01*
X209236367Y-79630161D01*
X209336369Y-79362046D01*
X209397196Y-79082428D01*
X209417610Y-78797000D01*
X209397196Y-78511572D01*
X209395586Y-78504173D01*
X209336371Y-78231962D01*
X209336370Y-78231960D01*
X209336369Y-78231954D01*
X209236367Y-77963839D01*
X209172830Y-77847481D01*
X209099229Y-77712690D01*
X209099224Y-77712682D01*
X208927745Y-77483612D01*
X208927729Y-77483594D01*
X208725405Y-77281270D01*
X208725387Y-77281254D01*
X208496317Y-77109775D01*
X208496309Y-77109770D01*
X208253334Y-76977096D01*
X208245161Y-76972633D01*
X208245158Y-76972632D01*
X208245151Y-76972628D01*
X208243149Y-76971881D01*
X208242575Y-76971451D01*
X208241123Y-76970788D01*
X208241267Y-76970471D01*
X208187222Y-76930002D01*
X208162815Y-76864534D01*
X208162500Y-76855706D01*
X208162500Y-69308292D01*
X208182185Y-69241253D01*
X208234989Y-69195498D01*
X208243167Y-69192110D01*
X208245161Y-69191367D01*
X208496315Y-69054226D01*
X208725395Y-68882739D01*
X208927739Y-68680395D01*
X209099226Y-68451315D01*
X209236367Y-68200161D01*
X209336369Y-67932046D01*
X209338195Y-67923650D01*
X209397195Y-67652433D01*
X209397195Y-67652432D01*
X209397196Y-67652428D01*
X209417610Y-67367000D01*
X209397196Y-67081572D01*
X209395586Y-67074173D01*
X209336371Y-66801962D01*
X209336370Y-66801960D01*
X209336369Y-66801954D01*
X209236367Y-66533839D01*
X209153730Y-66382502D01*
X209099229Y-66282690D01*
X209099224Y-66282682D01*
X208927745Y-66053612D01*
X208927729Y-66053594D01*
X208725405Y-65851270D01*
X208725387Y-65851254D01*
X208496317Y-65679775D01*
X208496309Y-65679770D01*
X208245166Y-65542635D01*
X208245167Y-65542635D01*
X208137915Y-65502632D01*
X207977046Y-65442631D01*
X207977043Y-65442630D01*
X207977037Y-65442628D01*
X207697433Y-65381804D01*
X207412001Y-65361390D01*
X207411999Y-65361390D01*
X207126566Y-65381804D01*
X206846962Y-65442628D01*
X206578833Y-65542635D01*
X206327690Y-65679770D01*
X206327682Y-65679775D01*
X206098612Y-65851254D01*
X206098594Y-65851270D01*
X205896270Y-66053594D01*
X205896254Y-66053612D01*
X205724775Y-66282682D01*
X205724770Y-66282690D01*
X205587635Y-66533833D01*
X205518570Y-66719004D01*
X205476698Y-66774937D01*
X205411234Y-66799354D01*
X205342961Y-66784502D01*
X205293556Y-66735097D01*
X205291903Y-66731965D01*
X205281523Y-66711594D01*
X205257464Y-66678480D01*
X205165828Y-66552354D01*
X205026646Y-66413172D01*
X204867405Y-66297476D01*
X204838370Y-66282682D01*
X204692029Y-66208117D01*
X204504826Y-66147290D01*
X204310422Y-66116500D01*
X204310417Y-66116500D01*
X204113583Y-66116500D01*
X204113578Y-66116500D01*
X203919173Y-66147290D01*
X203731970Y-66208117D01*
X203556594Y-66297476D01*
X203465741Y-66363485D01*
X203397354Y-66413172D01*
X203397352Y-66413174D01*
X203397351Y-66413174D01*
X203258174Y-66552351D01*
X203258174Y-66552352D01*
X203258172Y-66552354D01*
X203216938Y-66609108D01*
X203142476Y-66711594D01*
X203053117Y-66886970D01*
X202992290Y-67074173D01*
X202961500Y-67268577D01*
X202961500Y-67465422D01*
X202992290Y-67659826D01*
X203053117Y-67847029D01*
X203138700Y-68014995D01*
X203142476Y-68022405D01*
X203258172Y-68181646D01*
X203397354Y-68320828D01*
X203556595Y-68436524D01*
X203626268Y-68472024D01*
X203731970Y-68525882D01*
X203731972Y-68525882D01*
X203731975Y-68525884D01*
X203832317Y-68558487D01*
X203919173Y-68586709D01*
X204113578Y-68617500D01*
X204113583Y-68617500D01*
X204310422Y-68617500D01*
X204504826Y-68586709D01*
X204560162Y-68568729D01*
X204692025Y-68525884D01*
X204867405Y-68436524D01*
X205026646Y-68320828D01*
X205165828Y-68181646D01*
X205281524Y-68022405D01*
X205291902Y-68002034D01*
X205339876Y-67951239D01*
X205407697Y-67934443D01*
X205473832Y-67956979D01*
X205517284Y-68011694D01*
X205518557Y-68014962D01*
X205572680Y-68160071D01*
X205587635Y-68200166D01*
X205724770Y-68451309D01*
X205724775Y-68451317D01*
X205896254Y-68680387D01*
X205896270Y-68680405D01*
X206098594Y-68882729D01*
X206098612Y-68882745D01*
X206327682Y-69054224D01*
X206327690Y-69054229D01*
X206578833Y-69191364D01*
X206578834Y-69191364D01*
X206578839Y-69191367D01*
X206580824Y-69192107D01*
X206581394Y-69192533D01*
X206582862Y-69193204D01*
X206582716Y-69193523D01*
X206636761Y-69233973D01*
X206661183Y-69299435D01*
X206661500Y-69308292D01*
X206661500Y-76855706D01*
X206641815Y-76922745D01*
X206589011Y-76968500D01*
X206580851Y-76971881D01*
X206578848Y-76972628D01*
X206327690Y-77109770D01*
X206327682Y-77109775D01*
X206098612Y-77281254D01*
X206098594Y-77281270D01*
X205896270Y-77483594D01*
X205896254Y-77483612D01*
X205724775Y-77712682D01*
X205724770Y-77712690D01*
X205587635Y-77963833D01*
X205518570Y-78149004D01*
X205476698Y-78204937D01*
X205411234Y-78229354D01*
X205342961Y-78214502D01*
X205293556Y-78165097D01*
X205291903Y-78161965D01*
X205281523Y-78141594D01*
X205165828Y-77982354D01*
X205026646Y-77843172D01*
X204867405Y-77727476D01*
X204838370Y-77712682D01*
X204692029Y-77638117D01*
X204504826Y-77577290D01*
X204310422Y-77546500D01*
X204310417Y-77546500D01*
X204113583Y-77546500D01*
X204113578Y-77546500D01*
X203919173Y-77577290D01*
X203731970Y-77638117D01*
X203556594Y-77727476D01*
X203528942Y-77747567D01*
X203397354Y-77843172D01*
X203397352Y-77843174D01*
X203397351Y-77843174D01*
X203258174Y-77982351D01*
X203258174Y-77982352D01*
X203258172Y-77982354D01*
X203208485Y-78050741D01*
X203142476Y-78141594D01*
X203053117Y-78316970D01*
X202992290Y-78504173D01*
X202961500Y-78698577D01*
X202961500Y-78895422D01*
X202992290Y-79089826D01*
X203053117Y-79277029D01*
X203138702Y-79444998D01*
X203142476Y-79452405D01*
X203258172Y-79611646D01*
X203397354Y-79750828D01*
X203556595Y-79866524D01*
X203639455Y-79908743D01*
X203731970Y-79955882D01*
X203731972Y-79955882D01*
X203731975Y-79955884D01*
X203832317Y-79988487D01*
X203919173Y-80016709D01*
X204113578Y-80047500D01*
X204113583Y-80047500D01*
X204310422Y-80047500D01*
X204504826Y-80016709D01*
X204692025Y-79955884D01*
X204867405Y-79866524D01*
X205026646Y-79750828D01*
X205165828Y-79611646D01*
X205281524Y-79452405D01*
X205291902Y-79432034D01*
X205339876Y-79381239D01*
X205407697Y-79364443D01*
X205473832Y-79386979D01*
X205517284Y-79441694D01*
X205518553Y-79444952D01*
X205533463Y-79484929D01*
X205540724Y-79504396D01*
X205545707Y-79574087D01*
X205512222Y-79635408D01*
X203064451Y-82083181D01*
X203003128Y-82116666D01*
X202976770Y-82119500D01*
X198851630Y-82119500D01*
X198784591Y-82099815D01*
X198763949Y-82083181D01*
X198708057Y-82027289D01*
X198708056Y-82027288D01*
X198558734Y-81935186D01*
X198392197Y-81880001D01*
X198392195Y-81880000D01*
X198289410Y-81869500D01*
X197239398Y-81869500D01*
X197239380Y-81869501D01*
X197136603Y-81880000D01*
X197136600Y-81880001D01*
X196970068Y-81935185D01*
X196970063Y-81935187D01*
X196820742Y-82027289D01*
X196696689Y-82151342D01*
X196604587Y-82300663D01*
X196604586Y-82300666D01*
X196549401Y-82467203D01*
X196549401Y-82467204D01*
X196549400Y-82467204D01*
X196538900Y-82569983D01*
X196538900Y-83170001D01*
X196538901Y-83170019D01*
X196549400Y-83272796D01*
X196549401Y-83272799D01*
X196604585Y-83439331D01*
X196604587Y-83439336D01*
X196696689Y-83588657D01*
X196820746Y-83712714D01*
X196823582Y-83714463D01*
X196825117Y-83716170D01*
X196826411Y-83717193D01*
X196826236Y-83717414D01*
X196870305Y-83766411D01*
X196881526Y-83835374D01*
X196853682Y-83899456D01*
X196823582Y-83925537D01*
X196820746Y-83927285D01*
X196696689Y-84051342D01*
X196604587Y-84200663D01*
X196604585Y-84200668D01*
X196587704Y-84251612D01*
X196549401Y-84367203D01*
X196549401Y-84367204D01*
X196549400Y-84367204D01*
X196538900Y-84469983D01*
X196538900Y-85070001D01*
X196538901Y-85070019D01*
X196549400Y-85172796D01*
X196549401Y-85172799D01*
X196604585Y-85339331D01*
X196604587Y-85339336D01*
X196609068Y-85346601D01*
X196696688Y-85488656D01*
X196820744Y-85612712D01*
X196970066Y-85704814D01*
X197136603Y-85759999D01*
X197239391Y-85770500D01*
X198163807Y-85770499D01*
X198230846Y-85790183D01*
X198276601Y-85842987D01*
X198286545Y-85912146D01*
X198279394Y-85936157D01*
X198280158Y-85936411D01*
X198277887Y-85943264D01*
X198277886Y-85943266D01*
X198222701Y-86109803D01*
X198222701Y-86109804D01*
X198222700Y-86109804D01*
X198212200Y-86212583D01*
X198212200Y-86837601D01*
X198212201Y-86837619D01*
X198222700Y-86940396D01*
X198222701Y-86940399D01*
X198272094Y-87089456D01*
X198277886Y-87106934D01*
X198343623Y-87213512D01*
X198369989Y-87256257D01*
X198463651Y-87349919D01*
X198497136Y-87411242D01*
X198492152Y-87480934D01*
X198463651Y-87525281D01*
X198369989Y-87618942D01*
X198277887Y-87768263D01*
X198277886Y-87768266D01*
X198222701Y-87934803D01*
X198222701Y-87934804D01*
X198222700Y-87934804D01*
X198212200Y-88037583D01*
X198212200Y-88662601D01*
X198212201Y-88662619D01*
X198222700Y-88765396D01*
X198222701Y-88765399D01*
X198269046Y-88905256D01*
X198277886Y-88931934D01*
X198369988Y-89081256D01*
X198494044Y-89205312D01*
X198603297Y-89272699D01*
X198650021Y-89324647D01*
X198662200Y-89378238D01*
X198662200Y-89403618D01*
X198662200Y-89403620D01*
X198662199Y-89403620D01*
X198691040Y-89548607D01*
X198691043Y-89548617D01*
X198747614Y-89685192D01*
X198780512Y-89734427D01*
X198780513Y-89734430D01*
X198829746Y-89808114D01*
X198829752Y-89808121D01*
X199299181Y-90277549D01*
X199332666Y-90338872D01*
X199335500Y-90365230D01*
X199335500Y-90604570D01*
X199315815Y-90671609D01*
X199299181Y-90692251D01*
X199230789Y-90760642D01*
X199138687Y-90909963D01*
X199138685Y-90909968D01*
X199110849Y-90993970D01*
X199083501Y-91076503D01*
X199083501Y-91076504D01*
X199083500Y-91076504D01*
X199073000Y-91179283D01*
X199073000Y-91579569D01*
X199053315Y-91646608D01*
X199036681Y-91667250D01*
X198797598Y-91906332D01*
X198736275Y-91939817D01*
X198666583Y-91934833D01*
X198610650Y-91892961D01*
X198586697Y-91832535D01*
X198585369Y-91820749D01*
X198585368Y-91820745D01*
X198525788Y-91650476D01*
X198481234Y-91579569D01*
X198429816Y-91497738D01*
X198302262Y-91370184D01*
X198295778Y-91366110D01*
X198149523Y-91274211D01*
X197979254Y-91214631D01*
X197979249Y-91214630D01*
X197800004Y-91194435D01*
X197799996Y-91194435D01*
X197620750Y-91214630D01*
X197620745Y-91214631D01*
X197540983Y-91242542D01*
X197500028Y-91249500D01*
X195481900Y-91249500D01*
X195414861Y-91229815D01*
X195369106Y-91177011D01*
X195357900Y-91125500D01*
X195357900Y-89885479D01*
X195329059Y-89740492D01*
X195329058Y-89740491D01*
X195329058Y-89740487D01*
X195326548Y-89734427D01*
X195272487Y-89603911D01*
X195272483Y-89603904D01*
X195235539Y-89548613D01*
X195235535Y-89548607D01*
X195190356Y-89480989D01*
X195190354Y-89480987D01*
X195190352Y-89480984D01*
X195085816Y-89376448D01*
X194967531Y-89297414D01*
X194967531Y-89297413D01*
X194962900Y-89294319D01*
X194962891Y-89294314D01*
X194826313Y-89237742D01*
X194826307Y-89237740D01*
X194681320Y-89208900D01*
X194681318Y-89208900D01*
X194533482Y-89208900D01*
X194531773Y-89209240D01*
X194507579Y-89211623D01*
X188671409Y-89211623D01*
X188604370Y-89191938D01*
X188583728Y-89175304D01*
X175226253Y-75817828D01*
X175226252Y-75817827D01*
X175142773Y-75762049D01*
X175142772Y-75762048D01*
X175103332Y-75735695D01*
X175103320Y-75735688D01*
X174966749Y-75679119D01*
X174966739Y-75679116D01*
X174821752Y-75650276D01*
X174821750Y-75650276D01*
X174473918Y-75650276D01*
X163582517Y-75650276D01*
X163515478Y-75630591D01*
X163494836Y-75613957D01*
X163438944Y-75558065D01*
X163438943Y-75558064D01*
X163289621Y-75465962D01*
X163123084Y-75410777D01*
X163123082Y-75410776D01*
X163020297Y-75400276D01*
X161970285Y-75400276D01*
X161970267Y-75400277D01*
X161867490Y-75410776D01*
X161867487Y-75410777D01*
X161700955Y-75465961D01*
X161700946Y-75465965D01*
X161576141Y-75542946D01*
X161508749Y-75561386D01*
X161442086Y-75540463D01*
X161405508Y-75502505D01*
X161397499Y-75489520D01*
X161273443Y-75365464D01*
X161124121Y-75273362D01*
X160957584Y-75218177D01*
X160957582Y-75218176D01*
X160854797Y-75207676D01*
X160104785Y-75207676D01*
X160104767Y-75207677D01*
X160001990Y-75218176D01*
X160001987Y-75218177D01*
X159835455Y-75273361D01*
X159835450Y-75273363D01*
X159686129Y-75365465D01*
X159562072Y-75489522D01*
X159560324Y-75492358D01*
X159558616Y-75493893D01*
X159557594Y-75495187D01*
X159557372Y-75495012D01*
X159508376Y-75539081D01*
X159439413Y-75550302D01*
X159375331Y-75522458D01*
X159349250Y-75492358D01*
X159347501Y-75489522D01*
X159223444Y-75365465D01*
X159223443Y-75365464D01*
X159074121Y-75273362D01*
X158907584Y-75218177D01*
X158907582Y-75218176D01*
X158804803Y-75207676D01*
X158112000Y-75207676D01*
X158044961Y-75187991D01*
X157999206Y-75135187D01*
X157988000Y-75083676D01*
X157988000Y-69611741D01*
X196111500Y-69611741D01*
X196136446Y-69801215D01*
X196141452Y-69839238D01*
X196141453Y-69839240D01*
X196200842Y-70060887D01*
X196288650Y-70272876D01*
X196288657Y-70272890D01*
X196403392Y-70471617D01*
X196543081Y-70653661D01*
X196543089Y-70653670D01*
X196705330Y-70815911D01*
X196705338Y-70815918D01*
X196887382Y-70955607D01*
X196887385Y-70955608D01*
X196887388Y-70955611D01*
X197086112Y-71070344D01*
X197086117Y-71070346D01*
X197086123Y-71070349D01*
X197177480Y-71108190D01*
X197298113Y-71158158D01*
X197519762Y-71217548D01*
X197747266Y-71247500D01*
X197747273Y-71247500D01*
X197976727Y-71247500D01*
X197976734Y-71247500D01*
X198204238Y-71217548D01*
X198425887Y-71158158D01*
X198637888Y-71070344D01*
X198836612Y-70955611D01*
X199018661Y-70815919D01*
X199018665Y-70815914D01*
X199018670Y-70815911D01*
X199180911Y-70653670D01*
X199180914Y-70653665D01*
X199180919Y-70653661D01*
X199320611Y-70471612D01*
X199435344Y-70272888D01*
X199523158Y-70060887D01*
X199582548Y-69839238D01*
X199612500Y-69611734D01*
X199612500Y-69382266D01*
X199582548Y-69154762D01*
X199523158Y-68933113D01*
X199435344Y-68721112D01*
X199320611Y-68522388D01*
X199320608Y-68522385D01*
X199320607Y-68522382D01*
X199180918Y-68340338D01*
X199180911Y-68340330D01*
X199018670Y-68178089D01*
X199018661Y-68178081D01*
X198836617Y-68038392D01*
X198637890Y-67923657D01*
X198637876Y-67923650D01*
X198425887Y-67835842D01*
X198204238Y-67776452D01*
X198166215Y-67771446D01*
X197976741Y-67746500D01*
X197976734Y-67746500D01*
X197747266Y-67746500D01*
X197747258Y-67746500D01*
X197530715Y-67775009D01*
X197519762Y-67776452D01*
X197426076Y-67801554D01*
X197298112Y-67835842D01*
X197086123Y-67923650D01*
X197086109Y-67923657D01*
X196887382Y-68038392D01*
X196705338Y-68178081D01*
X196543081Y-68340338D01*
X196403392Y-68522382D01*
X196288657Y-68721109D01*
X196288650Y-68721123D01*
X196200842Y-68933112D01*
X196141453Y-69154759D01*
X196141451Y-69154770D01*
X196111500Y-69382258D01*
X196111500Y-69611741D01*
X157988000Y-69611741D01*
X157988000Y-64124500D01*
X158007685Y-64057461D01*
X158060489Y-64011706D01*
X158112000Y-64000500D01*
X210119108Y-64000500D01*
X210181519Y-64000500D01*
X210188472Y-64000695D01*
G37*
%TD.AperFunction*%
%TA.AperFunction,Conductor*%
G36*
X174452641Y-77170961D02*
G01*
X174473283Y-77187595D01*
X187830757Y-90545070D01*
X187830760Y-90545073D01*
X187830763Y-90545075D01*
X187891941Y-90585952D01*
X187953684Y-90627207D01*
X188090266Y-90683781D01*
X188090270Y-90683781D01*
X188090271Y-90683782D01*
X188235258Y-90712623D01*
X188235261Y-90712623D01*
X188235262Y-90712623D01*
X188383097Y-90712623D01*
X193732900Y-90712623D01*
X193799939Y-90732308D01*
X193845694Y-90785112D01*
X193856900Y-90836623D01*
X193856900Y-93996532D01*
X193837215Y-94063571D01*
X193818016Y-94084746D01*
X193818851Y-94085581D01*
X193689689Y-94214742D01*
X193597587Y-94364063D01*
X193597586Y-94364066D01*
X193542401Y-94530603D01*
X193542401Y-94530604D01*
X193542400Y-94530604D01*
X193531900Y-94633383D01*
X193531900Y-96033401D01*
X193531901Y-96033418D01*
X193542400Y-96136196D01*
X193542401Y-96136199D01*
X193583512Y-96260262D01*
X193597586Y-96302734D01*
X193689688Y-96452056D01*
X193813744Y-96576112D01*
X193963066Y-96668214D01*
X194129603Y-96723399D01*
X194232391Y-96733900D01*
X194554204Y-96733899D01*
X194621242Y-96753583D01*
X194666997Y-96806387D01*
X194676941Y-96875546D01*
X194653471Y-96932209D01*
X194638603Y-96952069D01*
X194638602Y-96952071D01*
X194593083Y-97074116D01*
X194588309Y-97086917D01*
X194581900Y-97146527D01*
X194581900Y-97146534D01*
X194581900Y-97146535D01*
X194581900Y-97892270D01*
X194581901Y-97892276D01*
X194588308Y-97951883D01*
X194638602Y-98086728D01*
X194642854Y-98094514D01*
X194639680Y-98096246D01*
X194658059Y-98145702D01*
X194643125Y-98213957D01*
X194642517Y-98214902D01*
X194638602Y-98222071D01*
X194588310Y-98356913D01*
X194588309Y-98356917D01*
X194581900Y-98416527D01*
X194581900Y-98416534D01*
X194581900Y-98416535D01*
X194581900Y-99162270D01*
X194581902Y-99162289D01*
X194583675Y-99178789D01*
X194571266Y-99247548D01*
X194523653Y-99298682D01*
X194484577Y-99313654D01*
X194363492Y-99337740D01*
X194363486Y-99337742D01*
X194226908Y-99394314D01*
X194226896Y-99394321D01*
X194177669Y-99427213D01*
X194103988Y-99476444D01*
X194103980Y-99476450D01*
X193499447Y-100080984D01*
X193499443Y-100080989D01*
X193460856Y-100138742D01*
X193460855Y-100138744D01*
X193417314Y-100203907D01*
X193360743Y-100340482D01*
X193360740Y-100340492D01*
X193331900Y-100485479D01*
X193331900Y-102374170D01*
X193312215Y-102441209D01*
X193295581Y-102461851D01*
X193239689Y-102517742D01*
X193147587Y-102667063D01*
X193147585Y-102667068D01*
X193127291Y-102728311D01*
X193092401Y-102833603D01*
X193092401Y-102833604D01*
X193092400Y-102833604D01*
X193081900Y-102936383D01*
X193081900Y-103986401D01*
X193081901Y-103986419D01*
X193092400Y-104089196D01*
X193092401Y-104089199D01*
X193144015Y-104244957D01*
X193147586Y-104255734D01*
X193239688Y-104405056D01*
X193363744Y-104529112D01*
X193513066Y-104621214D01*
X193679603Y-104676399D01*
X193782391Y-104686900D01*
X194382408Y-104686899D01*
X194382416Y-104686898D01*
X194382419Y-104686898D01*
X194442662Y-104680744D01*
X194485197Y-104676399D01*
X194651734Y-104621214D01*
X194801056Y-104529112D01*
X194907719Y-104422449D01*
X194969042Y-104388964D01*
X195038734Y-104393948D01*
X195094667Y-104435820D01*
X195119084Y-104501284D01*
X195119400Y-104510130D01*
X195119400Y-104844670D01*
X195099715Y-104911709D01*
X195083081Y-104932351D01*
X195014689Y-105000742D01*
X194922587Y-105150063D01*
X194922586Y-105150066D01*
X194867401Y-105316603D01*
X194867401Y-105316604D01*
X194867400Y-105316604D01*
X194856900Y-105419383D01*
X194856900Y-106419401D01*
X194856901Y-106419419D01*
X194867400Y-106522196D01*
X194867401Y-106522199D01*
X194922585Y-106688731D01*
X194922587Y-106688736D01*
X194957469Y-106745288D01*
X195004540Y-106821604D01*
X195014689Y-106838057D01*
X195058081Y-106881449D01*
X195091566Y-106942772D01*
X195094400Y-106969130D01*
X195094400Y-107119670D01*
X195074715Y-107186709D01*
X195058081Y-107207351D01*
X195039689Y-107225742D01*
X194947587Y-107375063D01*
X194947585Y-107375068D01*
X194921562Y-107453601D01*
X194892401Y-107541603D01*
X194892401Y-107541604D01*
X194892400Y-107541604D01*
X194881900Y-107644383D01*
X194881900Y-108644401D01*
X194881901Y-108644419D01*
X194892400Y-108747196D01*
X194892401Y-108747199D01*
X194947585Y-108913731D01*
X194947587Y-108913736D01*
X194971742Y-108952897D01*
X195039688Y-109063056D01*
X195163744Y-109187112D01*
X195313066Y-109279214D01*
X195359482Y-109294594D01*
X195416926Y-109334367D01*
X195443749Y-109398883D01*
X195431434Y-109467658D01*
X195383891Y-109518858D01*
X195320477Y-109536300D01*
X192139280Y-109536300D01*
X191994292Y-109565140D01*
X191994286Y-109565142D01*
X191857708Y-109621714D01*
X191857696Y-109621721D01*
X191808469Y-109654613D01*
X191734788Y-109703844D01*
X191734780Y-109703850D01*
X189625451Y-111813181D01*
X189564128Y-111846666D01*
X189537770Y-111849500D01*
X168958307Y-111849500D01*
X168891268Y-111829815D01*
X168874769Y-111817137D01*
X168766041Y-111718019D01*
X168766039Y-111718017D01*
X168592642Y-111610655D01*
X168592635Y-111610651D01*
X168452304Y-111556287D01*
X168402456Y-111536976D01*
X168201976Y-111499500D01*
X167998024Y-111499500D01*
X167797544Y-111536976D01*
X167797541Y-111536976D01*
X167797541Y-111536977D01*
X167747913Y-111556203D01*
X167622454Y-111604806D01*
X167610626Y-111609388D01*
X167541002Y-111615250D01*
X167491521Y-111593027D01*
X167442335Y-111556206D01*
X167442329Y-111556203D01*
X167331166Y-111514741D01*
X167275233Y-111472869D01*
X167250816Y-111407405D01*
X167250500Y-111398559D01*
X167250500Y-111327727D01*
X167225502Y-111202060D01*
X167225501Y-111202059D01*
X167225501Y-111202055D01*
X167176465Y-111083672D01*
X167176464Y-111083671D01*
X167176461Y-111083665D01*
X167105277Y-110977131D01*
X167105276Y-110977130D01*
X167014669Y-110886523D01*
X165647004Y-109518858D01*
X164265328Y-108137181D01*
X164231843Y-108075858D01*
X164236827Y-108006166D01*
X164278699Y-107950233D01*
X164344163Y-107925816D01*
X164353009Y-107925500D01*
X178848560Y-107925500D01*
X178915599Y-107945185D01*
X178961354Y-107997989D01*
X178964742Y-108006167D01*
X179006202Y-108117328D01*
X179006206Y-108117335D01*
X179092452Y-108232544D01*
X179092455Y-108232547D01*
X179207664Y-108318793D01*
X179207671Y-108318797D01*
X179342517Y-108369091D01*
X179342516Y-108369091D01*
X179349444Y-108369835D01*
X179402127Y-108375500D01*
X180697872Y-108375499D01*
X180757483Y-108369091D01*
X180840778Y-108338024D01*
X180892329Y-108318797D01*
X180892329Y-108318796D01*
X180892331Y-108318796D01*
X180941521Y-108281971D01*
X181006982Y-108257554D01*
X181060622Y-108265610D01*
X181247544Y-108338024D01*
X181448024Y-108375500D01*
X181448026Y-108375500D01*
X181651974Y-108375500D01*
X181651976Y-108375500D01*
X181852456Y-108338024D01*
X182042637Y-108264348D01*
X182216041Y-108156981D01*
X182305029Y-108075858D01*
X182324769Y-108057863D01*
X182387573Y-108027246D01*
X182408307Y-108025500D01*
X184638920Y-108025500D01*
X184736462Y-108006096D01*
X184783913Y-107996658D01*
X184920495Y-107940084D01*
X184920500Y-107940080D01*
X184925862Y-107937215D01*
X184927017Y-107939375D01*
X184983393Y-107921703D01*
X185009129Y-107924852D01*
X185009258Y-107924122D01*
X185014584Y-107925060D01*
X185014592Y-107925063D01*
X185186279Y-107940084D01*
X185249999Y-107945659D01*
X185250000Y-107945659D01*
X185250001Y-107945659D01*
X185313698Y-107940086D01*
X185485408Y-107925063D01*
X185713663Y-107863903D01*
X185927830Y-107764035D01*
X186121401Y-107628495D01*
X186288495Y-107461401D01*
X186424035Y-107267830D01*
X186523903Y-107053663D01*
X186585063Y-106825408D01*
X186605659Y-106590000D01*
X186585063Y-106354592D01*
X186523903Y-106126337D01*
X186424035Y-105912171D01*
X186413179Y-105896666D01*
X186288494Y-105718597D01*
X186121402Y-105551506D01*
X186121396Y-105551501D01*
X185935842Y-105421575D01*
X185892217Y-105366998D01*
X185885023Y-105297500D01*
X185916546Y-105235145D01*
X185935842Y-105218425D01*
X185958026Y-105202891D01*
X186121401Y-105088495D01*
X186288495Y-104921401D01*
X186424035Y-104727830D01*
X186523903Y-104513663D01*
X186585063Y-104285408D01*
X186605659Y-104050000D01*
X186603515Y-104025500D01*
X186595081Y-103929095D01*
X186585063Y-103814592D01*
X186523903Y-103586337D01*
X186424035Y-103372171D01*
X186417630Y-103363024D01*
X186288496Y-103178600D01*
X186232885Y-103122989D01*
X186166567Y-103056671D01*
X186133084Y-102995351D01*
X186138068Y-102925659D01*
X186179939Y-102869725D01*
X186210915Y-102852810D01*
X186342331Y-102803796D01*
X186457546Y-102717546D01*
X186543796Y-102602331D01*
X186594091Y-102467483D01*
X186600500Y-102407873D01*
X186600499Y-100612128D01*
X186594091Y-100552517D01*
X186593710Y-100551496D01*
X186543797Y-100417671D01*
X186543793Y-100417664D01*
X186457547Y-100302455D01*
X186457544Y-100302452D01*
X186342335Y-100216206D01*
X186342328Y-100216202D01*
X186207482Y-100165908D01*
X186207483Y-100165908D01*
X186147883Y-100159501D01*
X186147881Y-100159500D01*
X186147873Y-100159500D01*
X186147864Y-100159500D01*
X184352129Y-100159500D01*
X184352123Y-100159501D01*
X184292516Y-100165908D01*
X184157671Y-100216202D01*
X184157664Y-100216206D01*
X184042455Y-100302452D01*
X184042452Y-100302455D01*
X183956206Y-100417664D01*
X183956202Y-100417671D01*
X183905908Y-100552517D01*
X183899501Y-100612116D01*
X183899500Y-100612127D01*
X183899500Y-101060705D01*
X183899501Y-101425500D01*
X183879817Y-101492539D01*
X183827013Y-101538294D01*
X183775501Y-101549500D01*
X182458307Y-101549500D01*
X182391268Y-101529815D01*
X182374769Y-101517137D01*
X182266041Y-101418019D01*
X182266039Y-101418017D01*
X182092642Y-101310655D01*
X182092635Y-101310651D01*
X181996736Y-101273500D01*
X181902456Y-101236976D01*
X181701976Y-101199500D01*
X181498024Y-101199500D01*
X181297544Y-101236976D01*
X181297541Y-101236976D01*
X181297541Y-101236977D01*
X181110626Y-101309388D01*
X181041002Y-101315250D01*
X180991521Y-101293027D01*
X180942335Y-101256206D01*
X180942328Y-101256202D01*
X180807482Y-101205908D01*
X180807483Y-101205908D01*
X180747883Y-101199501D01*
X180747881Y-101199500D01*
X180747873Y-101199500D01*
X180747864Y-101199500D01*
X179452129Y-101199500D01*
X179452123Y-101199501D01*
X179392516Y-101205908D01*
X179257671Y-101256202D01*
X179257664Y-101256206D01*
X179142455Y-101342452D01*
X179142452Y-101342455D01*
X179056206Y-101457664D01*
X179056202Y-101457671D01*
X179014742Y-101568833D01*
X178972871Y-101624767D01*
X178907407Y-101649184D01*
X178898560Y-101649500D01*
X178435929Y-101649500D01*
X178310261Y-101674497D01*
X178310251Y-101674500D01*
X178261220Y-101694810D01*
X178191881Y-101723530D01*
X178191863Y-101723540D01*
X178085332Y-101794721D01*
X178085325Y-101794727D01*
X174016873Y-105863181D01*
X173955550Y-105896666D01*
X173929192Y-105899500D01*
X156343405Y-105899500D01*
X156276366Y-105879815D01*
X156255724Y-105863181D01*
X156053628Y-105661085D01*
X156020143Y-105599762D01*
X156025127Y-105530070D01*
X156066999Y-105474137D01*
X156132463Y-105449720D01*
X156153463Y-105450001D01*
X156158529Y-105450500D01*
X165964071Y-105450500D01*
X166048615Y-105433682D01*
X166089744Y-105425501D01*
X166208127Y-105376465D01*
X166230599Y-105361450D01*
X166230600Y-105361450D01*
X166297718Y-105316603D01*
X166314669Y-105305277D01*
X166683127Y-104936817D01*
X166744450Y-104903333D01*
X166770808Y-104900499D01*
X167295871Y-104900499D01*
X167295872Y-104900499D01*
X167355483Y-104894091D01*
X167417318Y-104871028D01*
X167490329Y-104843797D01*
X167490329Y-104843796D01*
X167490331Y-104843796D01*
X167539521Y-104806971D01*
X167604982Y-104782554D01*
X167658622Y-104790610D01*
X167845544Y-104863024D01*
X168046024Y-104900500D01*
X168046026Y-104900500D01*
X168249974Y-104900500D01*
X168249976Y-104900500D01*
X168450456Y-104863024D01*
X168640637Y-104789348D01*
X168814041Y-104681981D01*
X168885486Y-104616850D01*
X168922769Y-104582863D01*
X168985573Y-104552246D01*
X169006307Y-104550500D01*
X174073920Y-104550500D01*
X174181450Y-104529110D01*
X174218913Y-104521658D01*
X174355495Y-104465084D01*
X174438831Y-104409401D01*
X174478416Y-104382952D01*
X179699096Y-99162270D01*
X189181900Y-99162270D01*
X189181901Y-99162276D01*
X189188308Y-99221883D01*
X189238602Y-99356728D01*
X189238606Y-99356735D01*
X189324852Y-99471944D01*
X189324855Y-99471947D01*
X189440064Y-99558193D01*
X189440071Y-99558197D01*
X189574917Y-99608491D01*
X189574916Y-99608491D01*
X189581844Y-99609235D01*
X189634527Y-99614900D01*
X191230272Y-99614899D01*
X191289883Y-99608491D01*
X191424731Y-99558196D01*
X191539946Y-99471946D01*
X191626196Y-99356731D01*
X191676491Y-99221883D01*
X191682900Y-99162273D01*
X191682899Y-98416528D01*
X191676491Y-98356917D01*
X191649500Y-98284550D01*
X191626197Y-98222070D01*
X191621947Y-98214288D01*
X191625157Y-98212534D01*
X191606761Y-98163401D01*
X191621527Y-98095109D01*
X191622152Y-98094136D01*
X191626197Y-98086729D01*
X191649500Y-98024249D01*
X191676491Y-97951883D01*
X191682900Y-97892273D01*
X191682899Y-97146528D01*
X191676491Y-97086917D01*
X191671716Y-97074115D01*
X191626197Y-96952071D01*
X191626193Y-96952064D01*
X191539947Y-96836855D01*
X191539944Y-96836852D01*
X191424735Y-96750606D01*
X191424728Y-96750602D01*
X191289882Y-96700308D01*
X191289883Y-96700308D01*
X191230283Y-96693901D01*
X191230281Y-96693900D01*
X191230273Y-96693900D01*
X191230264Y-96693900D01*
X189634529Y-96693900D01*
X189634523Y-96693901D01*
X189574916Y-96700308D01*
X189440071Y-96750602D01*
X189440064Y-96750606D01*
X189324855Y-96836852D01*
X189324852Y-96836855D01*
X189238606Y-96952064D01*
X189238602Y-96952071D01*
X189193083Y-97074116D01*
X189188309Y-97086917D01*
X189181900Y-97146527D01*
X189181900Y-97146534D01*
X189181900Y-97146535D01*
X189181900Y-97892270D01*
X189181901Y-97892276D01*
X189188308Y-97951883D01*
X189238602Y-98086728D01*
X189242854Y-98094514D01*
X189239680Y-98096246D01*
X189258059Y-98145702D01*
X189243125Y-98213957D01*
X189242517Y-98214902D01*
X189238602Y-98222071D01*
X189188310Y-98356913D01*
X189188309Y-98356917D01*
X189181900Y-98416527D01*
X189181900Y-98416534D01*
X189181900Y-98416535D01*
X189181900Y-99162270D01*
X179699096Y-99162270D01*
X180335348Y-98526018D01*
X180396671Y-98492534D01*
X180423029Y-98489700D01*
X187304428Y-98489700D01*
X187345382Y-98496657D01*
X187405323Y-98517632D01*
X187425145Y-98524568D01*
X187425150Y-98524569D01*
X187604396Y-98544765D01*
X187604400Y-98544765D01*
X187604404Y-98544765D01*
X187783649Y-98524569D01*
X187783652Y-98524568D01*
X187783655Y-98524568D01*
X187953922Y-98464989D01*
X188106662Y-98369016D01*
X188234216Y-98241462D01*
X188330189Y-98088722D01*
X188389768Y-97918455D01*
X188392718Y-97892272D01*
X188409965Y-97739203D01*
X188409965Y-97739196D01*
X188389769Y-97559950D01*
X188389768Y-97559945D01*
X188330188Y-97389676D01*
X188273842Y-97300003D01*
X188234216Y-97236938D01*
X188106662Y-97109384D01*
X188070906Y-97086917D01*
X187953923Y-97013411D01*
X187783654Y-96953831D01*
X187783649Y-96953830D01*
X187604404Y-96933635D01*
X187604396Y-96933635D01*
X187425150Y-96953830D01*
X187425145Y-96953831D01*
X187345383Y-96981742D01*
X187304428Y-96988700D01*
X179986876Y-96988700D01*
X179958042Y-96994434D01*
X179958043Y-96994435D01*
X179841893Y-97017539D01*
X179841883Y-97017542D01*
X179761881Y-97050679D01*
X179761882Y-97050680D01*
X179718653Y-97068587D01*
X179705305Y-97074116D01*
X179686153Y-97086913D01*
X179635520Y-97120745D01*
X179582382Y-97156249D01*
X179582379Y-97156252D01*
X173725451Y-103013181D01*
X173664128Y-103046666D01*
X173637770Y-103049500D01*
X169006307Y-103049500D01*
X168939268Y-103029815D01*
X168922769Y-103017137D01*
X168814041Y-102918019D01*
X168814039Y-102918017D01*
X168640642Y-102810655D01*
X168640635Y-102810651D01*
X168504501Y-102757913D01*
X168450456Y-102736976D01*
X168249976Y-102699500D01*
X168046024Y-102699500D01*
X167845544Y-102736976D01*
X167845541Y-102736976D01*
X167845541Y-102736977D01*
X167795910Y-102756204D01*
X167673061Y-102803796D01*
X167658626Y-102809388D01*
X167589002Y-102815250D01*
X167539521Y-102793027D01*
X167490335Y-102756206D01*
X167490328Y-102756202D01*
X167355482Y-102705908D01*
X167355483Y-102705908D01*
X167295883Y-102699501D01*
X167295881Y-102699500D01*
X167295873Y-102699500D01*
X167295864Y-102699500D01*
X166000129Y-102699500D01*
X166000123Y-102699501D01*
X165940516Y-102705908D01*
X165805671Y-102756202D01*
X165805664Y-102756206D01*
X165690455Y-102842452D01*
X165690452Y-102842455D01*
X165604206Y-102957664D01*
X165604202Y-102957671D01*
X165553908Y-103092517D01*
X165547501Y-103152116D01*
X165547500Y-103152135D01*
X165547501Y-104025500D01*
X165527817Y-104092539D01*
X165475013Y-104138294D01*
X165423501Y-104149500D01*
X160143511Y-104149500D01*
X160076472Y-104129815D01*
X160030717Y-104077011D01*
X160020773Y-104007853D01*
X160025803Y-103986502D01*
X160049399Y-103915296D01*
X160059900Y-103812508D01*
X160059899Y-102762491D01*
X160059431Y-102757913D01*
X160049399Y-102659702D01*
X160049398Y-102659699D01*
X160035141Y-102616674D01*
X159994214Y-102493165D01*
X159902112Y-102343843D01*
X159778056Y-102219787D01*
X159778055Y-102219786D01*
X159768802Y-102214079D01*
X159722078Y-102162131D01*
X159709900Y-102108541D01*
X159709900Y-101173499D01*
X159729585Y-101106460D01*
X159782389Y-101060705D01*
X159833900Y-101049499D01*
X160458871Y-101049499D01*
X160458872Y-101049499D01*
X160518483Y-101043091D01*
X160653331Y-100992796D01*
X160768546Y-100906546D01*
X160854796Y-100791331D01*
X160905091Y-100656483D01*
X160911500Y-100596873D01*
X160911499Y-99301128D01*
X160905091Y-99241517D01*
X160872411Y-99153898D01*
X160854797Y-99106671D01*
X160854793Y-99106664D01*
X160768547Y-98991455D01*
X160768544Y-98991452D01*
X160653335Y-98905206D01*
X160653328Y-98905202D01*
X160518482Y-98854908D01*
X160518483Y-98854908D01*
X160458883Y-98848501D01*
X160458881Y-98848500D01*
X160458873Y-98848500D01*
X160458865Y-98848500D01*
X159833900Y-98848500D01*
X159766861Y-98828815D01*
X159721106Y-98776011D01*
X159709900Y-98724500D01*
X159709900Y-84498203D01*
X159729585Y-84431164D01*
X159782389Y-84385409D01*
X159813309Y-84377016D01*
X159813181Y-84376415D01*
X159819791Y-84374999D01*
X159819797Y-84374999D01*
X159986334Y-84319814D01*
X160135656Y-84227712D01*
X160192319Y-84171049D01*
X160253642Y-84137564D01*
X160323334Y-84142548D01*
X160367681Y-84171049D01*
X160449344Y-84252712D01*
X160598666Y-84344814D01*
X160765203Y-84399999D01*
X160867991Y-84410500D01*
X161468008Y-84410499D01*
X161468016Y-84410498D01*
X161468019Y-84410498D01*
X161524302Y-84404748D01*
X161570797Y-84399999D01*
X161737334Y-84344814D01*
X161886656Y-84252712D01*
X162010712Y-84128656D01*
X162102814Y-83979334D01*
X162157999Y-83812797D01*
X162168500Y-83710009D01*
X162168499Y-82659992D01*
X162159304Y-82569983D01*
X162157999Y-82557203D01*
X162157998Y-82557200D01*
X162102814Y-82390666D01*
X162010712Y-82241344D01*
X161886656Y-82117288D01*
X161737334Y-82025186D01*
X161570797Y-81970001D01*
X161570795Y-81970000D01*
X161468010Y-81959500D01*
X160867998Y-81959500D01*
X160867980Y-81959501D01*
X160765203Y-81970000D01*
X160765200Y-81970001D01*
X160598668Y-82025185D01*
X160598663Y-82025187D01*
X160449342Y-82117289D01*
X160367679Y-82198951D01*
X160306356Y-82232436D01*
X160236664Y-82227450D01*
X160192318Y-82198950D01*
X160135657Y-82142289D01*
X160135656Y-82142288D01*
X159986334Y-82050186D01*
X159819797Y-81995001D01*
X159819795Y-81995000D01*
X159717010Y-81984500D01*
X158966998Y-81984500D01*
X158966980Y-81984501D01*
X158864203Y-81995000D01*
X158864200Y-81995001D01*
X158697668Y-82050185D01*
X158697663Y-82050187D01*
X158548342Y-82142289D01*
X158424285Y-82266346D01*
X158422537Y-82269182D01*
X158420829Y-82270717D01*
X158419807Y-82272011D01*
X158419585Y-82271836D01*
X158370589Y-82315905D01*
X158301626Y-82327126D01*
X158237544Y-82299282D01*
X158211463Y-82269182D01*
X158209714Y-82266346D01*
X158085655Y-82142287D01*
X158046902Y-82118384D01*
X158000178Y-82066436D01*
X157988000Y-82012846D01*
X157988000Y-77732675D01*
X158007685Y-77665636D01*
X158060489Y-77619881D01*
X158111995Y-77608675D01*
X158804795Y-77608675D01*
X158804803Y-77608674D01*
X158804806Y-77608674D01*
X158861089Y-77602924D01*
X158907584Y-77598175D01*
X159074121Y-77542990D01*
X159223443Y-77450888D01*
X159347499Y-77326832D01*
X159349248Y-77323995D01*
X159350956Y-77322459D01*
X159351980Y-77321165D01*
X159352201Y-77321339D01*
X159401193Y-77277272D01*
X159470155Y-77266048D01*
X159534238Y-77293889D01*
X159560324Y-77323993D01*
X159562075Y-77326832D01*
X159686131Y-77450888D01*
X159835453Y-77542990D01*
X160001990Y-77598175D01*
X160104778Y-77608676D01*
X160854795Y-77608675D01*
X160854803Y-77608674D01*
X160854806Y-77608674D01*
X160911089Y-77602924D01*
X160957584Y-77598175D01*
X161124121Y-77542990D01*
X161273443Y-77450888D01*
X161397499Y-77326832D01*
X161412119Y-77303127D01*
X161464064Y-77256404D01*
X161533026Y-77245180D01*
X161582754Y-77262685D01*
X161700946Y-77335586D01*
X161700947Y-77335586D01*
X161700953Y-77335590D01*
X161867490Y-77390775D01*
X161970278Y-77401276D01*
X163020295Y-77401275D01*
X163020303Y-77401274D01*
X163020306Y-77401274D01*
X163076589Y-77395524D01*
X163123084Y-77390775D01*
X163289621Y-77335590D01*
X163438943Y-77243488D01*
X163494836Y-77187595D01*
X163556159Y-77154110D01*
X163582517Y-77151276D01*
X174326082Y-77151276D01*
X174385602Y-77151276D01*
X174452641Y-77170961D01*
G37*
%TD.AperFunction*%
%TA.AperFunction,Conductor*%
G36*
X199888634Y-102505848D02*
G01*
X199932981Y-102534349D01*
X200026644Y-102628012D01*
X200175966Y-102720114D01*
X200342503Y-102775299D01*
X200445291Y-102785800D01*
X201070308Y-102785799D01*
X201088959Y-102783893D01*
X201157650Y-102796661D01*
X201208535Y-102844540D01*
X201225562Y-102907251D01*
X201225562Y-103004508D01*
X201205877Y-103071547D01*
X201194606Y-103085533D01*
X201194666Y-103085581D01*
X201190190Y-103091241D01*
X201190188Y-103091243D01*
X201190188Y-103091244D01*
X201185711Y-103098503D01*
X201098087Y-103240563D01*
X201098085Y-103240568D01*
X201081921Y-103289348D01*
X201042901Y-103407103D01*
X201042901Y-103407104D01*
X201042900Y-103407104D01*
X201032400Y-103509883D01*
X201032400Y-104134901D01*
X201032401Y-104134919D01*
X201042900Y-104237696D01*
X201042901Y-104237699D01*
X201098085Y-104404231D01*
X201098087Y-104404236D01*
X201102330Y-104411115D01*
X201170513Y-104521658D01*
X201190189Y-104553557D01*
X201283851Y-104647219D01*
X201317336Y-104708542D01*
X201312352Y-104778234D01*
X201283851Y-104822581D01*
X201190189Y-104916242D01*
X201098087Y-105065563D01*
X201098085Y-105065568D01*
X201086881Y-105099380D01*
X201042901Y-105232103D01*
X201042901Y-105232104D01*
X201042900Y-105232104D01*
X201032400Y-105334883D01*
X201032400Y-105959901D01*
X201032401Y-105959919D01*
X201042900Y-106062696D01*
X201042901Y-106062699D01*
X201098085Y-106229231D01*
X201098087Y-106229236D01*
X201124411Y-106271914D01*
X201190188Y-106378556D01*
X201314244Y-106502612D01*
X201463566Y-106594714D01*
X201630103Y-106649899D01*
X201732891Y-106660400D01*
X202732908Y-106660399D01*
X202732916Y-106660398D01*
X202732919Y-106660398D01*
X202789202Y-106654648D01*
X202835697Y-106649899D01*
X203002234Y-106594714D01*
X203151556Y-106502612D01*
X203275612Y-106378556D01*
X203341390Y-106271912D01*
X203393335Y-106225189D01*
X203462298Y-106213966D01*
X203512023Y-106231471D01*
X203638059Y-106309210D01*
X203638060Y-106309210D01*
X203638066Y-106309214D01*
X203804603Y-106364399D01*
X203907391Y-106374900D01*
X204957408Y-106374899D01*
X204957416Y-106374898D01*
X204957419Y-106374898D01*
X205027549Y-106367734D01*
X205060197Y-106364399D01*
X205226734Y-106309214D01*
X205376056Y-106217112D01*
X205394449Y-106198719D01*
X205455772Y-106165234D01*
X205482130Y-106162400D01*
X205507670Y-106162400D01*
X205574709Y-106182085D01*
X205595351Y-106198719D01*
X205633351Y-106236719D01*
X205666836Y-106298042D01*
X205661852Y-106367734D01*
X205633351Y-106412081D01*
X205539689Y-106505742D01*
X205447587Y-106655063D01*
X205447585Y-106655068D01*
X205436429Y-106688736D01*
X205392401Y-106821603D01*
X205392401Y-106821604D01*
X205392400Y-106821604D01*
X205381900Y-106924383D01*
X205381900Y-107549401D01*
X205381901Y-107549419D01*
X205392400Y-107652196D01*
X205392401Y-107652199D01*
X205447585Y-107818731D01*
X205447587Y-107818736D01*
X205482469Y-107875288D01*
X205513634Y-107925816D01*
X205539689Y-107968057D01*
X205620851Y-108049219D01*
X205654336Y-108110542D01*
X205649352Y-108180234D01*
X205620852Y-108224579D01*
X205541580Y-108303852D01*
X205471475Y-108373957D01*
X205410152Y-108407441D01*
X205340460Y-108402457D01*
X205284527Y-108360585D01*
X205278255Y-108351372D01*
X205268545Y-108335629D01*
X205250112Y-108305744D01*
X205126056Y-108181688D01*
X205010709Y-108110542D01*
X204976736Y-108089587D01*
X204976731Y-108089585D01*
X204975262Y-108089098D01*
X204810197Y-108034401D01*
X204810195Y-108034400D01*
X204707410Y-108023900D01*
X204082398Y-108023900D01*
X204082380Y-108023901D01*
X203979603Y-108034400D01*
X203979600Y-108034401D01*
X203813068Y-108089585D01*
X203813063Y-108089587D01*
X203663742Y-108181689D01*
X203570081Y-108275351D01*
X203508758Y-108308836D01*
X203439066Y-108303852D01*
X203394719Y-108275351D01*
X203301057Y-108181689D01*
X203301056Y-108181688D01*
X203185709Y-108110542D01*
X203151736Y-108089587D01*
X203151731Y-108089585D01*
X203150262Y-108089098D01*
X202985197Y-108034401D01*
X202985195Y-108034400D01*
X202882410Y-108023900D01*
X202257398Y-108023900D01*
X202257380Y-108023901D01*
X202154603Y-108034400D01*
X202154600Y-108034401D01*
X201988068Y-108089585D01*
X201988063Y-108089587D01*
X201838742Y-108181689D01*
X201714689Y-108305742D01*
X201706637Y-108318797D01*
X201651962Y-108407441D01*
X201647301Y-108414997D01*
X201595353Y-108461721D01*
X201541762Y-108473900D01*
X201344629Y-108473900D01*
X201277590Y-108454215D01*
X201256948Y-108437581D01*
X199719619Y-106900251D01*
X199686134Y-106838928D01*
X199683300Y-106812570D01*
X199683300Y-102660030D01*
X199702985Y-102592991D01*
X199719619Y-102572349D01*
X199757619Y-102534349D01*
X199818942Y-102500864D01*
X199888634Y-102505848D01*
G37*
%TD.AperFunction*%
%TA.AperFunction,Conductor*%
G36*
X178965599Y-102970185D02*
G01*
X179011354Y-103022989D01*
X179014742Y-103031167D01*
X179056202Y-103142328D01*
X179056206Y-103142335D01*
X179142452Y-103257544D01*
X179142455Y-103257547D01*
X179257664Y-103343793D01*
X179257671Y-103343797D01*
X179392517Y-103394091D01*
X179392516Y-103394091D01*
X179399444Y-103394835D01*
X179452127Y-103400500D01*
X180747872Y-103400499D01*
X180807483Y-103394091D01*
X180890778Y-103363024D01*
X180942329Y-103343797D01*
X180942329Y-103343796D01*
X180942331Y-103343796D01*
X180991521Y-103306971D01*
X181056982Y-103282554D01*
X181110622Y-103290610D01*
X181297544Y-103363024D01*
X181498024Y-103400500D01*
X181498026Y-103400500D01*
X181701974Y-103400500D01*
X181701976Y-103400500D01*
X181902456Y-103363024D01*
X182092637Y-103289348D01*
X182266041Y-103181981D01*
X182357612Y-103098503D01*
X182374769Y-103082863D01*
X182437573Y-103052246D01*
X182458307Y-103050500D01*
X184062999Y-103050500D01*
X184130038Y-103070185D01*
X184175793Y-103122989D01*
X184185737Y-103192147D01*
X184164574Y-103245623D01*
X184075965Y-103372169D01*
X184075964Y-103372171D01*
X183976098Y-103586335D01*
X183976094Y-103586344D01*
X183914938Y-103814586D01*
X183914936Y-103814596D01*
X183894341Y-104049999D01*
X183894341Y-104050000D01*
X183914936Y-104285403D01*
X183914938Y-104285413D01*
X183976094Y-104513655D01*
X183976096Y-104513659D01*
X183976097Y-104513663D01*
X184054008Y-104680744D01*
X184075965Y-104727830D01*
X184075967Y-104727834D01*
X184211501Y-104921395D01*
X184211506Y-104921402D01*
X184378597Y-105088493D01*
X184378603Y-105088498D01*
X184564158Y-105218425D01*
X184607783Y-105273002D01*
X184614977Y-105342500D01*
X184583454Y-105404855D01*
X184564158Y-105421575D01*
X184378597Y-105551505D01*
X184211505Y-105718597D01*
X184075965Y-105912169D01*
X184075964Y-105912171D01*
X183976098Y-106126335D01*
X183976094Y-106126344D01*
X183914938Y-106354586D01*
X183914936Y-106354596D01*
X183909975Y-106411308D01*
X183884522Y-106476376D01*
X183827931Y-106517355D01*
X183786447Y-106524500D01*
X182408307Y-106524500D01*
X182341268Y-106504815D01*
X182324769Y-106492137D01*
X182216041Y-106393019D01*
X182216039Y-106393017D01*
X182042642Y-106285655D01*
X182042635Y-106285651D01*
X181916325Y-106236719D01*
X181852456Y-106211976D01*
X181651976Y-106174500D01*
X181448024Y-106174500D01*
X181247544Y-106211976D01*
X181247541Y-106211976D01*
X181247541Y-106211977D01*
X181060626Y-106284388D01*
X180991002Y-106290250D01*
X180941521Y-106268027D01*
X180892335Y-106231206D01*
X180892328Y-106231202D01*
X180757482Y-106180908D01*
X180757483Y-106180908D01*
X180697883Y-106174501D01*
X180697881Y-106174500D01*
X180697873Y-106174500D01*
X180697864Y-106174500D01*
X179402129Y-106174500D01*
X179402123Y-106174501D01*
X179342516Y-106180908D01*
X179207671Y-106231202D01*
X179207664Y-106231206D01*
X179092455Y-106317452D01*
X179092452Y-106317455D01*
X179006206Y-106432664D01*
X179006202Y-106432671D01*
X178964742Y-106543833D01*
X178922871Y-106599767D01*
X178857407Y-106624184D01*
X178848560Y-106624500D01*
X175394808Y-106624500D01*
X175327769Y-106604815D01*
X175282014Y-106552011D01*
X175272070Y-106482853D01*
X175301095Y-106419297D01*
X175307127Y-106412819D01*
X178733127Y-102986819D01*
X178794450Y-102953334D01*
X178820808Y-102950500D01*
X178898560Y-102950500D01*
X178965599Y-102970185D01*
G37*
%TD.AperFunction*%
%TA.AperFunction,Conductor*%
G36*
X158328234Y-84087648D02*
G01*
X158384167Y-84129520D01*
X158408584Y-84194984D01*
X158408900Y-84203830D01*
X158408900Y-90712666D01*
X158389215Y-90779705D01*
X158336411Y-90825460D01*
X158271017Y-90835886D01*
X158125004Y-90819435D01*
X158124996Y-90819435D01*
X157945750Y-90839630D01*
X157945745Y-90839631D01*
X157775476Y-90899211D01*
X157622737Y-90995184D01*
X157495184Y-91122737D01*
X157399211Y-91275476D01*
X157339631Y-91445745D01*
X157339630Y-91445750D01*
X157319435Y-91624996D01*
X157319435Y-91625003D01*
X157339630Y-91804249D01*
X157339631Y-91804254D01*
X157399211Y-91974523D01*
X157439801Y-92039121D01*
X157495184Y-92127262D01*
X157622738Y-92254816D01*
X157775478Y-92350789D01*
X157841100Y-92373751D01*
X157945745Y-92410368D01*
X157945750Y-92410369D01*
X158124996Y-92430565D01*
X158125000Y-92430565D01*
X158125003Y-92430565D01*
X158237419Y-92417898D01*
X158271016Y-92414113D01*
X158339838Y-92426167D01*
X158391218Y-92473516D01*
X158408900Y-92537333D01*
X158408900Y-102108541D01*
X158389215Y-102175580D01*
X158349998Y-102214079D01*
X158340744Y-102219786D01*
X158216689Y-102343841D01*
X158126437Y-102490164D01*
X158074489Y-102536888D01*
X158005526Y-102548111D01*
X157941444Y-102520267D01*
X157902588Y-102462198D01*
X157896898Y-102425067D01*
X157896898Y-102300930D01*
X157896897Y-102300924D01*
X157893641Y-102270636D01*
X157890490Y-102241318D01*
X157882775Y-102220634D01*
X157840196Y-102106472D01*
X157840192Y-102106465D01*
X157753946Y-101991256D01*
X157753943Y-101991253D01*
X157638734Y-101905007D01*
X157638727Y-101905003D01*
X157503885Y-101854711D01*
X157503884Y-101854710D01*
X157503882Y-101854710D01*
X157444272Y-101848301D01*
X157444262Y-101848301D01*
X156898529Y-101848301D01*
X156898518Y-101848302D01*
X156859652Y-101852480D01*
X156833147Y-101852480D01*
X156794273Y-101848301D01*
X156248529Y-101848301D01*
X156248518Y-101848302D01*
X156209652Y-101852480D01*
X156183147Y-101852480D01*
X156144274Y-101848301D01*
X156144272Y-101848301D01*
X155995899Y-101848301D01*
X155928860Y-101828616D01*
X155883105Y-101775812D01*
X155871899Y-101724301D01*
X155871899Y-100718913D01*
X155891584Y-100651874D01*
X155927336Y-100618588D01*
X155926231Y-100617112D01*
X156013881Y-100551496D01*
X156048546Y-100525546D01*
X156134796Y-100410331D01*
X156185091Y-100275483D01*
X156191500Y-100215873D01*
X156191499Y-98920128D01*
X156185091Y-98860517D01*
X156182999Y-98854909D01*
X156134797Y-98725671D01*
X156134793Y-98725664D01*
X156048547Y-98610455D01*
X156048544Y-98610452D01*
X155933335Y-98524206D01*
X155933328Y-98524202D01*
X155798482Y-98473908D01*
X155798483Y-98473908D01*
X155738883Y-98467501D01*
X155738881Y-98467500D01*
X155738873Y-98467500D01*
X155738864Y-98467500D01*
X154443129Y-98467500D01*
X154443123Y-98467501D01*
X154383516Y-98473908D01*
X154248671Y-98524202D01*
X154248664Y-98524206D01*
X154133455Y-98610452D01*
X154133452Y-98610455D01*
X154047206Y-98725664D01*
X154047202Y-98725671D01*
X153996908Y-98860517D01*
X153992104Y-98905204D01*
X153990501Y-98920123D01*
X153990500Y-98920135D01*
X153990500Y-100215870D01*
X153990501Y-100215879D01*
X153992931Y-100238483D01*
X153980523Y-100307243D01*
X153932912Y-100358379D01*
X153865212Y-100375656D01*
X153798918Y-100353589D01*
X153781960Y-100339416D01*
X153452319Y-100009775D01*
X153418834Y-99948452D01*
X153416000Y-99922094D01*
X153416000Y-95040263D01*
X153435685Y-94973224D01*
X153444029Y-94961742D01*
X157988000Y-89408000D01*
X157988000Y-84357152D01*
X158007685Y-84290113D01*
X158046900Y-84251616D01*
X158085656Y-84227712D01*
X158197219Y-84116149D01*
X158258542Y-84082664D01*
X158328234Y-84087648D01*
G37*
%TD.AperFunction*%
%TA.AperFunction,Conductor*%
G36*
X201041834Y-92599848D02*
G01*
X201086181Y-92628349D01*
X201179845Y-92722013D01*
X201185513Y-92726495D01*
X201183663Y-92728833D01*
X201221368Y-92770735D01*
X201233558Y-92824350D01*
X201233558Y-92909446D01*
X201221581Y-92956380D01*
X201223403Y-92957060D01*
X201170008Y-93100217D01*
X201163601Y-93159816D01*
X201163601Y-93159823D01*
X201163600Y-93159835D01*
X201163600Y-94755570D01*
X201163601Y-94755576D01*
X201170008Y-94815183D01*
X201220302Y-94950028D01*
X201220306Y-94950035D01*
X201306552Y-95065244D01*
X201306555Y-95065247D01*
X201421764Y-95151493D01*
X201421771Y-95151497D01*
X201466718Y-95168261D01*
X201556617Y-95201791D01*
X201616227Y-95208200D01*
X202361972Y-95208199D01*
X202421583Y-95201791D01*
X202421588Y-95201789D01*
X202556429Y-95151497D01*
X202564212Y-95147247D01*
X202565965Y-95150457D01*
X202615099Y-95132061D01*
X202683391Y-95146827D01*
X202684363Y-95147452D01*
X202691770Y-95151497D01*
X202766255Y-95179277D01*
X202826617Y-95201791D01*
X202886227Y-95208200D01*
X203086892Y-95208199D01*
X203153931Y-95227883D01*
X203199686Y-95280687D01*
X203209630Y-95349845D01*
X203191889Y-95398166D01*
X203185412Y-95408475D01*
X203125831Y-95578745D01*
X203125830Y-95578750D01*
X203105635Y-95757996D01*
X203105635Y-95758003D01*
X203125830Y-95937249D01*
X203125831Y-95937254D01*
X203185411Y-96107523D01*
X203281384Y-96260262D01*
X203408938Y-96387816D01*
X203428541Y-96400133D01*
X203474830Y-96452465D01*
X203485480Y-96521519D01*
X203457105Y-96585367D01*
X203428542Y-96610119D01*
X203372736Y-96645185D01*
X203245184Y-96772737D01*
X203149212Y-96925475D01*
X203146191Y-96931750D01*
X203144370Y-96930873D01*
X203121693Y-96966937D01*
X202676147Y-97412484D01*
X202676145Y-97412486D01*
X202646528Y-97456815D01*
X202646526Y-97456818D01*
X202594014Y-97535407D01*
X202537443Y-97671982D01*
X202537440Y-97671992D01*
X202508600Y-97816979D01*
X202508600Y-97984918D01*
X202488915Y-98051957D01*
X202436111Y-98097712D01*
X202371351Y-98108208D01*
X202366041Y-98107637D01*
X202361973Y-98107200D01*
X202361971Y-98107200D01*
X201616229Y-98107200D01*
X201616223Y-98107201D01*
X201556616Y-98113608D01*
X201421771Y-98163902D01*
X201413986Y-98168154D01*
X201412253Y-98164980D01*
X201362798Y-98183359D01*
X201294543Y-98168425D01*
X201293597Y-98167817D01*
X201286428Y-98163902D01*
X201151586Y-98113610D01*
X201151585Y-98113609D01*
X201151583Y-98113609D01*
X201091973Y-98107200D01*
X201091963Y-98107200D01*
X200346229Y-98107200D01*
X200346223Y-98107201D01*
X200286616Y-98113608D01*
X200151771Y-98163902D01*
X200151764Y-98163906D01*
X200036555Y-98250152D01*
X200036552Y-98250155D01*
X199950306Y-98365364D01*
X199950302Y-98365371D01*
X199923482Y-98437281D01*
X199881611Y-98493215D01*
X199816146Y-98517632D01*
X199747873Y-98502780D01*
X199698468Y-98453375D01*
X199683300Y-98393948D01*
X199683300Y-93194729D01*
X199702985Y-93127690D01*
X199719615Y-93107052D01*
X199910549Y-92916117D01*
X199971872Y-92882633D01*
X199998230Y-92879799D01*
X200398502Y-92879799D01*
X200398508Y-92879799D01*
X200501297Y-92869299D01*
X200667834Y-92814114D01*
X200817156Y-92722012D01*
X200910819Y-92628349D01*
X200972142Y-92594864D01*
X201041834Y-92599848D01*
G37*
%TD.AperFunction*%
%TA.AperFunction,Conductor*%
G36*
X196992539Y-92770185D02*
G01*
X197038294Y-92822989D01*
X197049500Y-92874500D01*
X197049500Y-96671143D01*
X197029815Y-96738182D01*
X196977011Y-96783937D01*
X196907853Y-96793881D01*
X196851190Y-96770410D01*
X196824735Y-96750606D01*
X196824728Y-96750602D01*
X196689882Y-96700308D01*
X196682338Y-96698526D01*
X196682874Y-96696253D01*
X196629088Y-96673971D01*
X196589243Y-96616577D01*
X196582900Y-96577424D01*
X196582900Y-95673479D01*
X196554059Y-95528492D01*
X196554058Y-95528491D01*
X196554058Y-95528487D01*
X196540432Y-95495590D01*
X196497487Y-95391911D01*
X196497480Y-95391898D01*
X196415352Y-95268985D01*
X196374250Y-95227883D01*
X196310816Y-95164449D01*
X196211611Y-95065244D01*
X195896821Y-94750452D01*
X195896814Y-94750446D01*
X195823129Y-94701212D01*
X195823129Y-94701213D01*
X195773898Y-94668318D01*
X195773897Y-94668317D01*
X195773895Y-94668316D01*
X195773893Y-94668315D01*
X195773891Y-94668314D01*
X195750986Y-94658827D01*
X195696583Y-94614986D01*
X195675081Y-94556864D01*
X195672399Y-94530604D01*
X195672398Y-94530600D01*
X195617214Y-94364066D01*
X195525112Y-94214744D01*
X195401056Y-94090688D01*
X195395949Y-94085581D01*
X195397835Y-94083694D01*
X195364612Y-94036775D01*
X195357900Y-93996532D01*
X195357900Y-92874500D01*
X195377585Y-92807461D01*
X195430389Y-92761706D01*
X195481900Y-92750500D01*
X196925500Y-92750500D01*
X196992539Y-92770185D01*
G37*
%TD.AperFunction*%
%TA.AperFunction,Conductor*%
G36*
X200825827Y-86775386D02*
G01*
X200853227Y-86821357D01*
X200892585Y-86940131D01*
X200892587Y-86940136D01*
X200892748Y-86940397D01*
X200984688Y-87089456D01*
X201108744Y-87213512D01*
X201258066Y-87305614D01*
X201424603Y-87360799D01*
X201527391Y-87371300D01*
X202577408Y-87371299D01*
X202577416Y-87371298D01*
X202577419Y-87371298D01*
X202633702Y-87365548D01*
X202680197Y-87360799D01*
X202846734Y-87305614D01*
X202996056Y-87213512D01*
X203073649Y-87135919D01*
X203134972Y-87102434D01*
X203161330Y-87099600D01*
X203835370Y-87099600D01*
X203902409Y-87119285D01*
X203923051Y-87135919D01*
X203961051Y-87173919D01*
X203994536Y-87235242D01*
X203989552Y-87304934D01*
X203961051Y-87349281D01*
X203867389Y-87442942D01*
X203775287Y-87592263D01*
X203775286Y-87592266D01*
X203720101Y-87758803D01*
X203720101Y-87758804D01*
X203720100Y-87758804D01*
X203709600Y-87861583D01*
X203709600Y-88486601D01*
X203709601Y-88486619D01*
X203720100Y-88589396D01*
X203720101Y-88589399D01*
X203775285Y-88755931D01*
X203775287Y-88755936D01*
X203867389Y-88905257D01*
X203996551Y-89034419D01*
X203994821Y-89036148D01*
X204028493Y-89083708D01*
X204031628Y-89153507D01*
X203996528Y-89213921D01*
X203986971Y-89221277D01*
X203987311Y-89221707D01*
X203981643Y-89226188D01*
X203857588Y-89350243D01*
X203857585Y-89350247D01*
X203833215Y-89389756D01*
X203796570Y-89427758D01*
X203750274Y-89458693D01*
X203750273Y-89458694D01*
X203709485Y-89485947D01*
X203709481Y-89485950D01*
X202676149Y-90519281D01*
X202672282Y-90523994D01*
X202670992Y-90522935D01*
X202623511Y-90562597D01*
X202554184Y-90571287D01*
X202508953Y-90554428D01*
X202492840Y-90544489D01*
X202492835Y-90544487D01*
X202492834Y-90544486D01*
X202326297Y-90489301D01*
X202326295Y-90489300D01*
X202223510Y-90478800D01*
X201598498Y-90478800D01*
X201598480Y-90478801D01*
X201495703Y-90489300D01*
X201495700Y-90489301D01*
X201329168Y-90544485D01*
X201329163Y-90544487D01*
X201179842Y-90636589D01*
X201086181Y-90730251D01*
X201024858Y-90763736D01*
X200955166Y-90758752D01*
X200910819Y-90730251D01*
X200872819Y-90692251D01*
X200839334Y-90630928D01*
X200836500Y-90604570D01*
X200836500Y-89929079D01*
X200807659Y-89784092D01*
X200807658Y-89784091D01*
X200807658Y-89784087D01*
X200801364Y-89768892D01*
X200751085Y-89647507D01*
X200735885Y-89624758D01*
X200712984Y-89590484D01*
X200712983Y-89590482D01*
X200712982Y-89590480D01*
X200668953Y-89524585D01*
X200668947Y-89524578D01*
X200428199Y-89283830D01*
X200394714Y-89222507D01*
X200399698Y-89152815D01*
X200428196Y-89108471D01*
X200455412Y-89081256D01*
X200547514Y-88931934D01*
X200602699Y-88765397D01*
X200613200Y-88662609D01*
X200613199Y-88037592D01*
X200611822Y-88024116D01*
X200602699Y-87934803D01*
X200602698Y-87934800D01*
X200568199Y-87830689D01*
X200547514Y-87768266D01*
X200455412Y-87618944D01*
X200361749Y-87525281D01*
X200328264Y-87463958D01*
X200333248Y-87394266D01*
X200361749Y-87349919D01*
X200406734Y-87304934D01*
X200455412Y-87256256D01*
X200547514Y-87106934D01*
X200602699Y-86940397D01*
X200612163Y-86847758D01*
X200638559Y-86783067D01*
X200695740Y-86742915D01*
X200765551Y-86740052D01*
X200825827Y-86775386D01*
G37*
%TD.AperFunction*%
%TD*%
%TA.AperFunction,Conductor*%
%TO.N,VCC*%
G36*
X151031089Y-64902363D02*
G01*
X151733638Y-65136546D01*
X151791013Y-65176420D01*
X151797600Y-65185400D01*
X152282000Y-65912000D01*
X153776728Y-65912000D01*
X153832182Y-65925091D01*
X154245454Y-66131727D01*
X154296613Y-66179314D01*
X154314000Y-66242636D01*
X154314000Y-67152728D01*
X154300909Y-67208182D01*
X154094273Y-67621454D01*
X154046686Y-67672613D01*
X153983364Y-67690000D01*
X151773999Y-67690000D01*
X151577525Y-68082949D01*
X151529938Y-68134107D01*
X151462246Y-68151417D01*
X151395942Y-68129382D01*
X151388942Y-68124152D01*
X151345796Y-68089470D01*
X151345793Y-68089468D01*
X151345790Y-68089466D01*
X151175197Y-68004860D01*
X150990392Y-67958900D01*
X150969006Y-67957450D01*
X150947623Y-67956000D01*
X150947620Y-67956000D01*
X150045377Y-67956000D01*
X150045374Y-67956001D01*
X150002613Y-67958899D01*
X150002612Y-67958899D01*
X149817803Y-68004860D01*
X149647207Y-68089467D01*
X149647204Y-68089469D01*
X149498778Y-68208777D01*
X149498777Y-68208778D01*
X149379469Y-68357204D01*
X149379467Y-68357207D01*
X149294860Y-68527802D01*
X149248900Y-68712607D01*
X149246000Y-68755379D01*
X149246000Y-68904455D01*
X149235215Y-68941184D01*
X149239320Y-68942427D01*
X149234000Y-68959999D01*
X149234000Y-68960000D01*
X149234000Y-74040000D01*
X150457462Y-75018770D01*
X150497514Y-75076020D01*
X150504000Y-75115597D01*
X150504000Y-76767637D01*
X150484315Y-76834676D01*
X150448783Y-76870811D01*
X149773239Y-77321174D01*
X149706540Y-77341982D01*
X149704456Y-77342000D01*
X146477544Y-77342000D01*
X146410505Y-77322315D01*
X146408761Y-77321174D01*
X145733217Y-76870811D01*
X145688356Y-76817246D01*
X145678000Y-76767637D01*
X145678000Y-75115597D01*
X145697685Y-75048558D01*
X145724536Y-75018771D01*
X146948000Y-74040000D01*
X146948000Y-70680977D01*
X146967685Y-70613938D01*
X146975353Y-70603290D01*
X147013530Y-70555796D01*
X147098141Y-70385193D01*
X147144100Y-70200389D01*
X147147000Y-70157623D01*
X147146999Y-68812361D01*
X147166684Y-68745323D01*
X147183313Y-68724686D01*
X147447321Y-68460678D01*
X147466209Y-68445193D01*
X148218000Y-67944000D01*
X148218000Y-65455362D01*
X148237685Y-65388323D01*
X148254319Y-65367681D01*
X148689681Y-64932319D01*
X148751004Y-64898834D01*
X148777362Y-64896000D01*
X150991877Y-64896000D01*
X151031089Y-64902363D01*
G37*
%TD.AperFunction*%
%TD*%
M02*
