%TF.GenerationSoftware,KiCad,Pcbnew,8.0.0*%
%TF.CreationDate,2024-09-30T13:32:15+02:00*%
%TF.ProjectId,guitar-effect,67756974-6172-42d6-9566-666563742e6b,rev?*%
%TF.SameCoordinates,Original*%
%TF.FileFunction,Soldermask,Top*%
%TF.FilePolarity,Negative*%
%FSLAX46Y46*%
G04 Gerber Fmt 4.6, Leading zero omitted, Abs format (unit mm)*
G04 Created by KiCad (PCBNEW 8.0.0) date 2024-09-30 13:32:15*
%MOMM*%
%LPD*%
G01*
G04 APERTURE LIST*
G04 Aperture macros list*
%AMRoundRect*
0 Rectangle with rounded corners*
0 $1 Rounding radius*
0 $2 $3 $4 $5 $6 $7 $8 $9 X,Y pos of 4 corners*
0 Add a 4 corners polygon primitive as box body*
4,1,4,$2,$3,$4,$5,$6,$7,$8,$9,$2,$3,0*
0 Add four circle primitives for the rounded corners*
1,1,$1+$1,$2,$3*
1,1,$1+$1,$4,$5*
1,1,$1+$1,$6,$7*
1,1,$1+$1,$8,$9*
0 Add four rect primitives between the rounded corners*
20,1,$1+$1,$2,$3,$4,$5,0*
20,1,$1+$1,$4,$5,$6,$7,0*
20,1,$1+$1,$6,$7,$8,$9,0*
20,1,$1+$1,$8,$9,$2,$3,0*%
G04 Aperture macros list end*
%ADD10RoundRect,0.875000X-0.875000X-0.875000X0.875000X-0.875000X0.875000X0.875000X-0.875000X0.875000X0*%
%ADD11RoundRect,0.750000X-0.750000X-1.000000X0.750000X-1.000000X0.750000X1.000000X-0.750000X1.000000X0*%
%ADD12R,3.500000X3.500000*%
%ADD13C,3.000000*%
%ADD14C,2.000000*%
%ADD15R,1.200000X1.200000*%
%ADD16C,1.200000*%
%ADD17RoundRect,0.250000X-1.000000X-0.650000X1.000000X-0.650000X1.000000X0.650000X-1.000000X0.650000X0*%
%ADD18RoundRect,0.250000X-0.450000X0.325000X-0.450000X-0.325000X0.450000X-0.325000X0.450000X0.325000X0*%
%ADD19RoundRect,0.250000X-0.250000X-0.475000X0.250000X-0.475000X0.250000X0.475000X-0.250000X0.475000X0*%
%ADD20R,0.650000X1.500000*%
%ADD21RoundRect,0.250000X-0.450000X0.262500X-0.450000X-0.262500X0.450000X-0.262500X0.450000X0.262500X0*%
%ADD22RoundRect,0.250000X-0.262500X-0.450000X0.262500X-0.450000X0.262500X0.450000X-0.262500X0.450000X0*%
%ADD23RoundRect,0.250000X-0.475000X0.250000X-0.475000X-0.250000X0.475000X-0.250000X0.475000X0.250000X0*%
%ADD24RoundRect,0.250000X0.262500X0.450000X-0.262500X0.450000X-0.262500X-0.450000X0.262500X-0.450000X0*%
%ADD25RoundRect,0.375000X-0.375000X0.625000X-0.375000X-0.625000X0.375000X-0.625000X0.375000X0.625000X0*%
%ADD26RoundRect,0.500000X-1.400000X0.500000X-1.400000X-0.500000X1.400000X-0.500000X1.400000X0.500000X0*%
%ADD27RoundRect,0.250000X0.250000X0.475000X-0.250000X0.475000X-0.250000X-0.475000X0.250000X-0.475000X0*%
%ADD28R,0.450000X1.800000*%
%ADD29RoundRect,0.250000X0.450000X-0.262500X0.450000X0.262500X-0.450000X0.262500X-0.450000X-0.262500X0*%
%ADD30RoundRect,0.250000X-0.325000X-0.450000X0.325000X-0.450000X0.325000X0.450000X-0.325000X0.450000X0*%
%ADD31RoundRect,0.250000X0.475000X-0.250000X0.475000X0.250000X-0.475000X0.250000X-0.475000X-0.250000X0*%
%ADD32O,1.700000X1.700000*%
%ADD33R,1.700000X1.700000*%
%ADD34RoundRect,0.250000X-0.650000X1.000000X-0.650000X-1.000000X0.650000X-1.000000X0.650000X1.000000X0*%
G04 APERTURE END LIST*
D10*
%TO.C,J1*%
X132611900Y-80408600D03*
D11*
X129611900Y-75708600D03*
D12*
X135611900Y-75708600D03*
%TD*%
D13*
%TO.C,J5*%
X194287600Y-115367800D03*
X194287600Y-103937800D03*
X206987600Y-115367800D03*
X206987600Y-103937800D03*
D14*
X203787600Y-115367800D03*
X203787600Y-103937800D03*
D13*
X197437600Y-106067800D03*
%TD*%
%TO.C,J4*%
X195049600Y-78690200D03*
X195049600Y-67260200D03*
X207749600Y-78690200D03*
X207749600Y-67260200D03*
D14*
X204549600Y-78690200D03*
X204549600Y-67260200D03*
D13*
X198199600Y-69390200D03*
%TD*%
D15*
%TO.C,C_Polarized11*%
X157337599Y-111037399D03*
D16*
X157337599Y-112537399D03*
%TD*%
D15*
%TO.C,C_Polarized10*%
X167497599Y-109132399D03*
D16*
X167497599Y-110632399D03*
%TD*%
%TO.C,C_Polarized1*%
X166750000Y-102750000D03*
D15*
X165250000Y-102750000D03*
%TD*%
D16*
%TO.C,C_Polarized6*%
X166500000Y-84500000D03*
D15*
X165000000Y-84500000D03*
%TD*%
D16*
%TO.C,C_Polarized5*%
X171850000Y-98150000D03*
D15*
X170350000Y-98150000D03*
%TD*%
D16*
%TO.C,C_Polarized2*%
X167100000Y-92800000D03*
D15*
X165600000Y-92800000D03*
%TD*%
D16*
%TO.C,C_Polarized8*%
X161000000Y-84750000D03*
D15*
X161000000Y-86250000D03*
%TD*%
D16*
%TO.C,C_Polarized12*%
X153919899Y-102369401D03*
D15*
X155419899Y-102369401D03*
%TD*%
D16*
%TO.C,C_Polarized4*%
X161399001Y-69961001D03*
D15*
X161399001Y-68461001D03*
%TD*%
D16*
%TO.C,C_Polarized9*%
X175400000Y-93600000D03*
D15*
X173900000Y-93600000D03*
%TD*%
D16*
%TO.C,C_Polarized7*%
X161250000Y-102500000D03*
D15*
X161250000Y-101000000D03*
%TD*%
D16*
%TO.C,C_Polarized3*%
X144654800Y-72144600D03*
D15*
X144654800Y-70644600D03*
%TD*%
D17*
%TO.C,D1*%
X152554900Y-66751700D03*
X148554900Y-66751700D03*
%TD*%
D18*
%TO.C,L2*%
X172500000Y-78025000D03*
X172500000Y-75975000D03*
%TD*%
D19*
%TO.C,C4*%
X169696000Y-65576800D03*
X167796000Y-65576800D03*
%TD*%
D20*
%TO.C,IC4*%
X180503300Y-91866700D03*
X181773300Y-91866700D03*
X183043300Y-91866700D03*
X184313300Y-91866700D03*
X184313300Y-97266700D03*
X183043300Y-97266700D03*
X181773300Y-97266700D03*
X180503300Y-97266700D03*
%TD*%
D21*
%TO.C,R9*%
X177836300Y-102538500D03*
X177836300Y-100713500D03*
%TD*%
D22*
%TO.C,R4*%
X182000000Y-109500000D03*
X180175000Y-109500000D03*
%TD*%
D23*
%TO.C,C5*%
X162700000Y-77550000D03*
X162700000Y-75650000D03*
%TD*%
D24*
%TO.C,R14*%
X183121400Y-99545100D03*
X184946400Y-99545100D03*
%TD*%
D22*
%TO.C,R17*%
X194432700Y-85881800D03*
X192607700Y-85881800D03*
%TD*%
D25*
%TO.C,U1*%
X148400000Y-70300000D03*
D26*
X150700000Y-76600000D03*
D25*
X150700000Y-70300000D03*
X153000000Y-70300000D03*
%TD*%
D27*
%TO.C,C6*%
X153884299Y-98965801D03*
X155784299Y-98965801D03*
%TD*%
D19*
%TO.C,C2*%
X166748400Y-89358499D03*
X164848400Y-89358499D03*
%TD*%
%TO.C,C1*%
X165364599Y-98762601D03*
X163464599Y-98762601D03*
%TD*%
D23*
%TO.C,C3*%
X155627600Y-69421600D03*
X155627600Y-67521600D03*
%TD*%
D28*
%TO.C,IC1*%
X162960399Y-96419801D03*
X162310399Y-96419801D03*
X161660399Y-96419801D03*
X161010399Y-96419801D03*
X160360399Y-96419801D03*
X159710399Y-96419801D03*
X159060399Y-96419801D03*
X158410399Y-96419801D03*
X157760399Y-96419801D03*
X157110399Y-96419801D03*
X156460399Y-96419801D03*
X155810399Y-96419801D03*
X155810399Y-89319801D03*
X156460399Y-89319801D03*
X157110399Y-89319801D03*
X157760399Y-89319801D03*
X158410399Y-89319801D03*
X159060399Y-89319801D03*
X159710399Y-89319801D03*
X160360399Y-89319801D03*
X161010399Y-89319801D03*
X161660399Y-89319801D03*
X162310399Y-89319801D03*
X162960399Y-89319801D03*
%TD*%
D25*
%TO.C,U2*%
X165125200Y-68116400D03*
D26*
X167425200Y-74416400D03*
D25*
X167425200Y-68116400D03*
X169725200Y-68116400D03*
%TD*%
D29*
%TO.C,R8*%
X178379900Y-87710600D03*
X178379900Y-89535600D03*
%TD*%
D23*
%TO.C,C11*%
X175992300Y-89725500D03*
X175992300Y-87825500D03*
%TD*%
D29*
%TO.C,R11*%
X180122300Y-103050300D03*
X180122300Y-104875300D03*
%TD*%
D21*
%TO.C,R6*%
X178450000Y-85812500D03*
X178450000Y-83987500D03*
%TD*%
D22*
%TO.C,R3*%
X182462500Y-82000000D03*
X180637500Y-82000000D03*
%TD*%
D30*
%TO.C,L1*%
X158470587Y-77855376D03*
X156420587Y-77855376D03*
%TD*%
D23*
%TO.C,C7*%
X160486087Y-79747976D03*
X160486087Y-77847976D03*
%TD*%
%TO.C,C18*%
X180564300Y-89573100D03*
X180564300Y-87673100D03*
%TD*%
D29*
%TO.C,R7*%
X178024300Y-107217800D03*
X178024300Y-109042800D03*
%TD*%
D31*
%TO.C,C19*%
X180107100Y-99255500D03*
X180107100Y-101155500D03*
%TD*%
D23*
%TO.C,C16*%
X180600000Y-85850000D03*
X180600000Y-83950000D03*
%TD*%
D19*
%TO.C,C12*%
X179950000Y-112000000D03*
X178050000Y-112000000D03*
%TD*%
D32*
%TO.C,J2*%
X131135900Y-111688200D03*
X131135900Y-109148200D03*
X131135900Y-106608200D03*
X131135900Y-104068200D03*
X131135900Y-101528200D03*
X131135900Y-98988200D03*
X131135900Y-96448200D03*
X131135900Y-93908200D03*
X131135900Y-91368200D03*
X131135900Y-88828200D03*
D33*
X131135900Y-86288200D03*
%TD*%
D34*
%TO.C,D2*%
X139800000Y-75700000D03*
X139800000Y-71700000D03*
%TD*%
D27*
%TO.C,C17*%
X180020700Y-106860300D03*
X181920700Y-106860300D03*
%TD*%
D22*
%TO.C,R16*%
X190876700Y-85881800D03*
X189051700Y-85881800D03*
%TD*%
D32*
%TO.C,J3*%
X157300000Y-116500000D03*
X159840000Y-116500000D03*
X162380000Y-116500000D03*
X164920000Y-116500000D03*
X167460000Y-116500000D03*
X170000000Y-116500000D03*
X172540000Y-116500000D03*
D33*
X175080000Y-116500000D03*
%TD*%
D31*
%TO.C,C25*%
X191300000Y-89400000D03*
X191300000Y-91300000D03*
%TD*%
D21*
%TO.C,R10*%
X182799500Y-87402000D03*
X182799500Y-85577000D03*
%TD*%
D19*
%TO.C,C8*%
X176350000Y-78000000D03*
X174450000Y-78000000D03*
%TD*%
D24*
%TO.C,R13*%
X184274600Y-89639100D03*
X186099600Y-89639100D03*
%TD*%
D20*
%TO.C,IC5*%
X189378100Y-93390700D03*
X190648100Y-93390700D03*
X191918100Y-93390700D03*
X193188100Y-93390700D03*
X193188100Y-98790700D03*
X191918100Y-98790700D03*
X190648100Y-98790700D03*
X189378100Y-98790700D03*
%TD*%
D29*
%TO.C,R1*%
X147250000Y-102387500D03*
X147250000Y-104212500D03*
%TD*%
M02*
